<svg width="505" height="690" viewBox="0 0 505 690" fill="none" xmlns="http://www.w3.org/2000/svg">
<g clip-path="url(#clip0_492_11472)">
<rect width="690" height="505" transform="translate(505 2.20743e-05) rotate(90)" fill="white"/>
<circle cx="91.9698" cy="131.153" r="42.1464" transform="rotate(90 91.9698 131.153)" stroke="#BA402A" stroke-width="2.69737"/>
<circle cx="3.03454" cy="3.03454" r="1.68585" transform="matrix(4.37114e-08 -1 -1 -4.37114e-08 95.0039 134.188)" fill="#BA402A" stroke="#BA402A" stroke-width="2.69737"/>
<line x1="142.211" y1="124.069" x2="134.119" y2="124.069" stroke="#BA402A" stroke-width="2.69737"/>
<line x1="49.8203" y1="124.069" x2="41.7282" y2="124.069" stroke="#BA402A" stroke-width="2.69737"/>
<line x1="103.094" y1="126.097" x2="92.9787" y2="126.097" stroke="#BA402A" stroke-width="2.69737"/>
<line x1="88.9336" y1="126.097" x2="80.8415" y2="126.097" stroke="#BA402A" stroke-width="2.69737"/>
<line x1="142.211" y1="141.605" x2="134.119" y2="141.605" stroke="#BA402A" stroke-width="2.69737"/>
<line x1="49.8203" y1="141.605" x2="41.7282" y2="141.605" stroke="#BA402A" stroke-width="2.69737"/>
<line x1="103.094" y1="138.235" x2="95.0017" y2="138.235" stroke="#BA402A" stroke-width="2.69737"/>
<line x1="94.3271" y1="149.695" x2="94.3271" y2="136.883" stroke="#BA402A" stroke-width="2.69737"/>
<line x1="94.3271" y1="125.42" x2="94.3271" y2="112.607" stroke="#BA402A" stroke-width="2.69737"/>
<line x1="87.5849" y1="149.695" x2="87.5849" y2="136.883" stroke="#BA402A" stroke-width="2.69737"/>
<line x1="87.5849" y1="125.42" x2="87.5849" y2="112.607" stroke="#BA402A" stroke-width="2.69737"/>
<line x1="88.9336" y1="138.235" x2="80.8415" y2="138.235" stroke="#BA402A" stroke-width="2.69737"/>
<circle cx="91.9698" cy="560.032" r="42.1464" transform="rotate(90 91.9698 560.032)" stroke="#BA402A" stroke-width="2.69737"/>
<circle cx="3.03454" cy="3.03454" r="1.68585" transform="matrix(4.37114e-08 -1 -1 -4.37114e-08 95.0039 563.066)" fill="#BA402A" stroke="#BA402A" stroke-width="2.69737"/>
<line x1="142.211" y1="552.952" x2="134.119" y2="552.952" stroke="#BA402A" stroke-width="2.69737"/>
<line x1="49.8203" y1="552.952" x2="41.7282" y2="552.952" stroke="#BA402A" stroke-width="2.69737"/>
<line x1="103.094" y1="554.976" x2="92.9787" y2="554.976" stroke="#BA402A" stroke-width="2.69737"/>
<line x1="88.9336" y1="554.976" x2="80.8415" y2="554.976" stroke="#BA402A" stroke-width="2.69737"/>
<line x1="142.211" y1="570.483" x2="134.119" y2="570.483" stroke="#BA402A" stroke-width="2.69737"/>
<line x1="49.8203" y1="570.483" x2="41.7282" y2="570.483" stroke="#BA402A" stroke-width="2.69737"/>
<line x1="103.094" y1="567.11" x2="95.0017" y2="567.11" stroke="#BA402A" stroke-width="2.69737"/>
<line x1="94.3271" y1="578.578" x2="94.3271" y2="565.766" stroke="#BA402A" stroke-width="2.69737"/>
<line x1="94.3271" y1="554.299" x2="94.3271" y2="541.486" stroke="#BA402A" stroke-width="2.69737"/>
<line x1="87.5849" y1="578.578" x2="87.5849" y2="565.766" stroke="#BA402A" stroke-width="2.69737"/>
<line x1="87.5849" y1="554.299" x2="87.5849" y2="541.486" stroke="#BA402A" stroke-width="2.69737"/>
<line x1="88.9336" y1="567.11" x2="80.8415" y2="567.11" stroke="#BA402A" stroke-width="2.69737"/>
<circle cx="280.11" cy="131.153" r="42.1464" transform="rotate(90 280.11 131.153)" stroke="#BA402A" stroke-width="2.69737"/>
<circle cx="3.03454" cy="3.03454" r="1.68585" transform="matrix(4.37114e-08 -1 -1 -4.37114e-08 283.145 134.188)" fill="#BA402A" stroke="#BA402A" stroke-width="2.69737"/>
<line x1="330.348" y1="124.069" x2="322.256" y2="124.069" stroke="#BA402A" stroke-width="2.69737"/>
<line x1="237.961" y1="124.069" x2="229.869" y2="124.069" stroke="#BA402A" stroke-width="2.69737"/>
<line x1="291.242" y1="124.069" x2="283.15" y2="124.069" stroke="#BA402A" stroke-width="2.69737"/>
<line x1="277.074" y1="124.745" x2="268.982" y2="124.745" stroke="#BA402A" stroke-width="2.69737"/>
<line x1="330.348" y1="141.605" x2="322.256" y2="141.605" stroke="#BA402A" stroke-width="2.69737"/>
<line x1="237.961" y1="141.605" x2="229.869" y2="141.605" stroke="#BA402A" stroke-width="2.69737"/>
<line x1="291.242" y1="138.911" x2="283.15" y2="138.911" stroke="#BA402A" stroke-width="2.69737"/>
<line x1="282.468" y1="150.371" x2="282.468" y2="137.559" stroke="#BA402A" stroke-width="2.69737"/>
<line x1="282.468" y1="125.42" x2="282.468" y2="112.607" stroke="#BA402A" stroke-width="2.69737"/>
<line x1="275.726" y1="150.371" x2="275.726" y2="137.559" stroke="#BA402A" stroke-width="2.69737"/>
<line x1="275.726" y1="126.092" x2="275.726" y2="113.279" stroke="#BA402A" stroke-width="2.69737"/>
<line x1="277.074" y1="138.235" x2="268.982" y2="138.235" stroke="#BA402A" stroke-width="2.69737"/>
<circle cx="280.11" cy="560.032" r="42.1464" transform="rotate(90 280.11 560.032)" stroke="#BA402A" stroke-width="2.69737"/>
<circle cx="3.03454" cy="3.03454" r="1.68585" transform="matrix(4.37114e-08 -1 -1 -4.37114e-08 283.145 563.066)" fill="#BA402A" stroke="#BA402A" stroke-width="2.69737"/>
<line x1="330.348" y1="552.952" x2="322.256" y2="552.952" stroke="#BA402A" stroke-width="2.69737"/>
<line x1="237.961" y1="552.952" x2="229.869" y2="552.952" stroke="#BA402A" stroke-width="2.69737"/>
<line x1="291.242" y1="552.952" x2="283.15" y2="552.952" stroke="#BA402A" stroke-width="2.69737"/>
<line x1="277.074" y1="553.624" x2="268.982" y2="553.624" stroke="#BA402A" stroke-width="2.69737"/>
<line x1="330.348" y1="570.483" x2="322.256" y2="570.483" stroke="#BA402A" stroke-width="2.69737"/>
<line x1="237.961" y1="570.483" x2="229.869" y2="570.483" stroke="#BA402A" stroke-width="2.69737"/>
<line x1="291.242" y1="567.79" x2="283.15" y2="567.79" stroke="#BA402A" stroke-width="2.69737"/>
<line x1="282.468" y1="579.254" x2="282.468" y2="566.441" stroke="#BA402A" stroke-width="2.69737"/>
<line x1="282.468" y1="554.299" x2="282.468" y2="541.486" stroke="#BA402A" stroke-width="2.69737"/>
<line x1="275.726" y1="579.254" x2="275.726" y2="566.441" stroke="#BA402A" stroke-width="2.69737"/>
<line x1="275.726" y1="554.979" x2="275.726" y2="542.166" stroke="#BA402A" stroke-width="2.69737"/>
<line x1="277.074" y1="567.11" x2="268.982" y2="567.11" stroke="#BA402A" stroke-width="2.69737"/>
<rect x="362.719" y="252.869" width="5.39474" height="352.007" transform="rotate(90 362.719 252.869)" fill="#5060C4"/>
<rect x="177.277" y="342.557" width="5.39474" height="166.562" transform="rotate(90 177.277 342.557)" fill="#BA402A"/>
<rect x="362.719" y="342.557" width="5.39474" height="166.562" transform="rotate(90 362.719 342.557)" fill="#BA402A"/>
<rect x="362.719" y="431.572" width="5.39474" height="352.007" transform="rotate(90 362.719 431.572)" fill="#5060C4"/>
<circle cx="3.03454" cy="3.03454" r="3.03454" transform="matrix(4.37114e-08 -1 -1 -4.37114e-08 95.0039 275.803)" fill="#BA402A"/>
<circle cx="3.03454" cy="3.03454" r="2.3602" transform="matrix(4.37114e-08 -1 -1 -4.37114e-08 190.082 347.959)" fill="#1A1A1A" stroke="#1A1A1A" stroke-width="1.34868"/>
<circle cx="3.03454" cy="3.03454" r="3.03454" transform="matrix(4.37114e-08 -1 -1 -4.37114e-08 283.145 275.803)" fill="#BA402A"/>
<circle cx="3.03454" cy="3.03454" r="3.03454" transform="matrix(4.37114e-08 -1 -1 -4.37114e-08 95.0039 420.787)" fill="#BA402A"/>
<circle cx="3.03454" cy="3.03454" r="3.03454" transform="matrix(4.37114e-08 -1 -1 -4.37114e-08 283.145 420.787)" fill="#BA402A"/>
<mask id="mask0_492_11472" style="mask-type:alpha" maskUnits="userSpaceOnUse" x="142" y="64" width="83" height="44">
<rect x="224.477" y="64.7324" width="43.1579" height="82.2697" transform="rotate(90 224.477 64.7324)" fill="#C9DEF2"/>
</mask>
<g mask="url(#mask0_492_11472)">
<circle cx="186.038" cy="64.7311" r="27.9852" transform="rotate(90 186.038 64.7311)" fill="#C9DEF2" stroke="#BA402A" stroke-width="2.02303"/>
</g>
<mask id="mask1_492_11472" style="mask-type:alpha" maskUnits="userSpaceOnUse" x="12" y="307" width="44" height="83">
<rect x="12.7344" y="307.494" width="43.1579" height="82.2697" fill="#C9DEF2"/>
</mask>
<g mask="url(#mask1_492_11472)">
<circle cx="12.7311" cy="345.93" r="27.9852" stroke="#BA402A" stroke-width="2.02303"/>
</g>
<mask id="mask2_492_11472" style="mask-type:alpha" maskUnits="userSpaceOnUse" x="142" y="581" width="83" height="45">
<rect x="-0.337171" y="-0.337171" width="42.4836" height="81.5954" transform="matrix(4.37114e-08 -1 -1 -4.37114e-08 223.802 624.433)" fill="#C9DEF2" stroke="#C2526A" stroke-width="0.674342"/>
</mask>
<g mask="url(#mask2_492_11472)">
<circle cx="28.9967" cy="28.9967" r="27.9852" transform="matrix(4.37114e-08 -1 -1 -4.37114e-08 215.035 654.102)" fill="#C9DEF2" stroke="#BA402A" stroke-width="2.02303"/>
</g>
<circle cx="187.048" cy="344.921" r="43.4951" transform="rotate(90 187.048 344.921)" stroke="#1A1A1A" stroke-width="4.04605"/>
<rect x="351.25" y="63.3789" width="2.69737" height="329.079" transform="rotate(90 351.25 63.3789)" fill="#BA402A"/>
<rect width="2.69737" height="329.079" transform="matrix(4.37114e-08 -1 -1 -4.37114e-08 351.25 626.457)" fill="#BA402A"/>
<rect x="370.132" y="4.04381" width="681.76" height="366.168" rx="113.29" transform="rotate(90 370.132 4.04381)" stroke="#95D0EB" stroke-width="8.09211"/>
<rect x="363.726" y="10.4501" width="668.947" height="353.355" rx="106.883" transform="rotate(90 363.726 10.4501)" stroke="#5060C4" stroke-width="4.7204"/>
<path opacity="0.59" d="M255.495 675.014C312.849 675.014 359.344 628.519 359.344 571.165L359.344 438.994L14.755 438.994L14.755 571.165C14.755 628.519 61.2496 675.014 118.604 675.014L255.495 675.014Z" fill="#A5E891"/>
<path opacity="0.59" d="M453.75 675.018C482.055 675.018 505 652.072 505 623.768L505 438.998L387.665 438.998L387.665 623.768C387.665 652.072 410.61 675.018 438.915 675.018L453.75 675.018Z" fill="#9ED090"/>
<path d="M467.916 493.605L467.916 494.876C467.916 496.132 467.668 497.074 467.172 497.701C466.681 498.334 465.958 498.65 465.006 498.65C464.115 498.65 463.445 498.356 462.997 497.767C462.554 497.183 462.332 496.237 462.332 494.929L462.332 491.748L471.446 491.748L471.446 497.952L469.925 497.952L469.925 493.605L467.916 493.605ZM465.124 496.733C465.44 496.733 465.691 496.667 465.875 496.536C466.059 496.408 466.191 496.213 466.27 495.95C466.349 495.686 466.389 495.26 466.389 494.672L466.389 493.605L463.853 493.605L463.853 494.791C463.853 495.414 463.941 495.893 464.117 496.226C464.292 496.564 464.628 496.733 465.124 496.733ZM466.889 507.764C465.304 507.764 464.117 507.428 463.326 506.756C462.536 506.089 462.141 505.116 462.141 503.839C462.141 502.491 462.556 501.499 463.386 500.862C464.22 500.23 465.388 499.914 466.889 499.914C468.399 499.914 469.567 500.23 470.393 500.862C471.222 501.499 471.637 502.491 471.637 503.839C471.637 505.196 471.222 506.188 470.393 506.816C469.567 507.448 468.399 507.764 466.889 507.764ZM466.889 505.847C467.969 505.847 468.755 505.694 469.247 505.387C469.743 505.084 469.991 504.568 469.991 503.839C469.991 503.11 469.743 502.592 469.247 502.285C468.755 501.982 467.969 501.83 466.889 501.83C465.809 501.83 465.021 501.984 464.525 502.291C464.033 502.603 463.787 503.119 463.787 503.839C463.787 504.568 464.033 505.084 464.525 505.387C465.021 505.694 465.809 505.847 466.889 505.847ZM469.899 512.295L469.155 512.295C466.731 512.295 464.953 512.079 463.82 511.649C462.692 511.219 462.128 510.53 462.128 509.581C462.128 508.918 462.264 508.361 462.536 507.909L463.992 508.488C463.873 508.76 463.814 509.008 463.814 509.232C463.814 509.54 463.996 509.781 464.36 509.957C464.725 510.137 465.32 510.271 466.145 510.358C466.975 510.446 468.081 510.49 469.464 510.49L471.446 510.49L471.446 516.371L462.332 516.371L462.332 514.52L469.899 514.52L469.899 512.295ZM462.332 518.34L471.446 518.34L471.446 520.197L468.213 520.197L468.213 521.6C468.213 522.86 467.976 523.766 467.502 524.319C467.032 524.873 466.312 525.149 465.342 525.149C464.297 525.149 463.533 524.859 463.05 524.28C462.571 523.7 462.332 522.794 462.332 521.56L462.332 518.34ZM465.342 523.233C465.807 523.233 466.134 523.095 466.323 522.818C466.512 522.546 466.606 522.109 466.606 521.507L466.606 520.197L463.965 520.197L463.965 521.507C463.965 522.074 464.073 522.502 464.288 522.792C464.503 523.086 464.854 523.233 465.342 523.233ZM464.031 535.133L471.446 535.133L471.446 536.99L462.332 536.99L462.332 526.651L471.446 526.651L471.446 528.508L464.031 528.508L464.031 530.898L471.446 530.898L471.446 532.742L464.031 532.742L464.031 535.133ZM462.332 538.155L471.446 541.171L471.446 543.588L462.332 546.611L462.332 544.708L464.183 544.102L464.183 540.592L462.332 539.999L462.332 538.155ZM465.809 541.119L465.809 543.575L469.576 542.35L465.809 541.119ZM462.332 547.006L466 549.443C466.119 548.85 466.408 548.387 466.869 548.053C467.335 547.724 467.958 547.559 468.74 547.559C469.701 547.559 470.393 547.827 470.814 548.363C471.235 548.903 471.446 549.763 471.446 550.944L471.446 554.263L462.332 554.263L462.332 552.399L465.783 552.399L465.783 551.458L462.332 549.133L462.332 547.006ZM468.661 549.443C468.314 549.443 468.057 549.491 467.89 549.588C467.723 549.689 467.6 549.851 467.521 550.075C467.442 550.299 467.403 550.619 467.403 551.036L467.403 552.399L469.833 552.399L469.833 550.957C469.833 550.417 469.754 550.029 469.596 549.792C469.438 549.559 469.126 549.443 468.661 549.443ZM464.933 560.223C464.082 560.715 463.656 561.413 463.656 562.317C463.656 562.782 463.776 563.171 464.018 563.483C464.259 563.799 464.582 563.957 464.986 563.957C465.429 563.957 465.752 563.845 465.954 563.621C466.156 563.397 466.257 563.028 466.257 562.515L466.257 560.585L467.791 560.585L467.791 562.613C467.791 563.004 467.895 563.303 468.101 563.509C468.312 563.72 468.619 563.825 469.023 563.825C469.352 563.825 469.618 563.671 469.82 563.364C470.026 563.057 470.129 562.67 470.129 562.205C470.129 561.863 470.074 561.511 469.965 561.151C469.859 560.796 469.648 560.396 469.332 559.953L470.669 559.024C471.315 559.911 471.637 560.993 471.637 562.271C471.637 563.013 471.536 563.647 471.334 564.174C471.132 564.705 470.836 565.107 470.445 565.379C470.059 565.656 469.598 565.794 469.062 565.794C468.549 565.794 468.107 565.665 467.739 565.406C467.37 565.151 467.12 564.835 466.988 564.457C466.571 565.428 465.89 565.913 464.946 565.913C464.024 565.913 463.326 565.603 462.852 564.984C462.378 564.365 462.141 563.489 462.141 562.357C462.141 561.522 462.29 560.807 462.589 560.21C462.892 559.613 463.373 559.11 464.031 558.702L464.933 560.223ZM466.889 574.921C465.304 574.921 464.117 574.586 463.326 573.914C462.536 573.247 462.141 572.274 462.141 570.997C462.141 569.649 462.556 568.657 463.386 568.02C464.22 567.388 465.388 567.072 466.889 567.072C468.399 567.072 469.567 567.388 470.393 568.02C471.222 568.657 471.637 569.649 471.637 570.997C471.637 572.353 471.222 573.345 470.393 573.973C469.567 574.605 468.399 574.921 466.889 574.921ZM466.889 573.005C467.969 573.005 468.755 572.851 469.247 572.544C469.743 572.241 469.991 571.725 469.991 570.997C469.991 570.268 469.743 569.75 469.247 569.442C468.755 569.14 467.969 568.988 466.889 568.988C465.809 568.988 465.021 569.142 464.525 569.449C464.033 569.761 463.787 570.277 463.787 570.997C463.787 571.725 464.033 572.241 464.525 572.544C465.021 572.851 465.809 573.005 466.889 573.005ZM462.332 581.922L466.204 581.922L466.204 578.333L462.332 578.333L462.332 576.476L471.446 576.476L471.446 578.333L467.903 578.333L467.903 581.922L471.446 581.922L471.446 583.785L462.332 583.785L462.332 581.922ZM462.332 584.951L471.446 587.967L471.446 590.384L462.332 593.407L462.332 591.503L464.183 590.898L464.183 587.388L462.332 586.795L462.332 584.951ZM465.809 587.914L465.809 590.371L469.576 589.146L465.809 587.914Z" fill="black"/>
<path d="M413.453 486.238L421.007 486.238L415.936 483.716L415.936 482.959L421.007 480.463L413.453 480.463L413.453 479.304L422.567 479.304L422.567 480.95L417.609 483.367L422.567 485.804L422.567 487.397L413.453 487.397L413.453 486.238ZM413.453 493.647L414.316 493.647C414.009 493.296 413.754 492.942 413.552 492.587C413.35 492.231 413.249 491.829 413.249 491.382C413.249 490.723 413.449 490.214 413.848 489.854C414.252 489.498 414.768 489.32 415.396 489.32C415.87 489.32 416.263 489.413 416.575 489.597C416.891 489.786 417.139 490.056 417.319 490.407C417.503 490.763 417.635 491.276 417.714 491.948L417.865 493.647L418.201 493.647C418.732 493.647 419.095 493.498 419.288 493.199C419.481 492.905 419.578 492.497 419.578 491.974C419.578 491.509 419.496 491.149 419.334 490.894C419.171 490.644 418.996 490.464 418.807 490.354L419.373 489.426C419.755 489.636 420.047 489.957 420.249 490.387C420.456 490.822 420.559 491.36 420.559 492.001C420.559 492.993 420.379 493.704 420.019 494.134C419.659 494.565 419.035 494.78 418.149 494.78L413.453 494.78L413.453 493.647ZM416.957 493.647L416.851 492.541C416.785 491.79 416.638 491.261 416.41 490.954C416.186 490.646 415.857 490.493 415.422 490.493C415.009 490.493 414.713 490.596 414.533 490.802C414.353 491.008 414.263 491.318 414.263 491.731C414.263 491.902 414.294 492.071 414.355 492.238C414.421 492.405 414.5 492.569 414.592 492.732C414.689 492.894 414.797 493.05 414.915 493.199C415.038 493.353 415.157 493.502 415.271 493.647L416.957 493.647ZM420.361 498.072L417.418 498.072L417.418 499.04C417.418 499.299 417.51 499.519 417.694 499.699C417.879 499.879 418.188 500.057 418.623 500.232C419.062 500.412 419.641 500.586 420.361 500.753L420.361 501.905C419.61 501.738 418.994 501.56 418.511 501.372C418.028 501.187 417.67 501.003 417.437 500.818C417.205 500.638 417.055 500.41 416.99 500.134C416.893 500.463 416.737 500.731 416.522 500.937C416.307 501.143 415.984 501.332 415.554 501.503C415.128 501.675 414.428 501.883 413.453 502.129L413.453 500.983C413.993 500.829 414.454 500.691 414.836 500.568C415.218 500.45 415.528 500.318 415.765 500.173C416.006 500.033 416.179 499.866 416.285 499.673C416.395 499.479 416.449 499.234 416.449 498.935L416.449 498.072L413.453 498.072L413.453 496.966L420.361 496.966L420.361 498.072ZM414.52 508.596C414.151 508.381 413.846 508.082 413.605 507.7C413.368 507.318 413.249 506.791 413.249 506.12C413.249 505.106 413.554 504.342 414.164 503.828C414.779 503.314 415.688 503.057 416.891 503.057C418.094 503.057 419.005 503.312 419.624 503.821C420.247 504.331 420.559 505.081 420.559 506.074C420.559 507.211 420.137 508.021 419.294 508.504L418.728 507.575C418.996 507.404 419.204 507.202 419.354 506.969C419.503 506.741 419.578 506.438 419.578 506.06C419.578 505.397 419.336 504.926 418.853 504.645C418.375 504.368 417.712 504.23 416.864 504.23C416.219 504.23 415.716 504.296 415.356 504.427C414.996 504.559 414.72 504.763 414.527 505.04C414.333 505.321 414.237 505.676 414.237 506.107C414.237 506.475 414.305 506.776 414.441 507.009C414.581 507.241 414.797 507.461 415.086 507.667L414.52 508.596ZM413.453 511.388L413.453 510.189L420.361 510.189L420.361 511.256L414.909 511.256L420.361 514.641L420.361 515.787L413.453 515.787L413.453 514.72L418.794 514.72L413.453 511.388ZM413.453 524.42L413.453 523.354L418.715 523.354L415.271 521.477L415.271 520.91L418.715 519.093L413.453 519.093L413.453 518.026L420.361 518.026L420.361 519.211L416.812 521.22L420.361 523.248L420.361 524.42L413.453 524.42ZM411.985 525.803C411.857 526.089 411.794 526.42 411.794 526.798C411.794 527.329 412.274 527.779 413.236 528.148L413.829 528.378L420.361 525.856L420.361 527.081L415.304 528.984L420.361 530.9L420.361 532.086L412.926 529.136C412.167 528.824 411.631 528.49 411.319 528.135C411.008 527.779 410.852 527.316 410.852 526.745C410.852 526.539 410.872 526.319 410.911 526.087C410.951 525.854 410.997 525.665 411.049 525.52L411.985 525.803ZM413.453 539.909L413.453 538.842L418.715 538.842L415.271 536.966L415.271 536.399L418.715 534.582L413.453 534.582L413.453 533.515L420.361 533.515L420.361 534.7L416.812 536.709L420.361 538.737L420.361 539.909L413.453 539.909ZM413.262 548.786C413.262 547.689 413.624 546.839 414.349 546.238C415.078 545.641 416.114 545.342 417.457 545.342C419.178 545.342 420.491 545.665 421.395 546.31C422.304 546.956 422.758 547.897 422.758 549.135C422.758 550.308 422.51 551.175 422.014 551.737L420.585 550.683C420.774 550.468 420.917 550.239 421.013 549.998C421.114 549.757 421.165 549.469 421.165 549.135C421.165 548.543 420.963 548.11 420.559 547.838C420.155 547.57 419.58 547.399 418.833 547.324C419.07 547.676 419.235 547.989 419.327 548.266C419.42 548.547 419.466 548.881 419.466 549.267C419.466 550.123 419.202 550.801 418.675 551.302C418.153 551.807 417.398 552.059 416.41 552.059C415.435 552.059 414.667 551.765 414.105 551.177C413.543 550.589 413.262 549.792 413.262 548.786ZM414.856 548.799C414.856 549.212 414.966 549.548 415.185 549.807C415.405 550.07 415.798 550.202 416.364 550.202C416.829 550.202 417.2 550.073 417.477 549.814C417.753 549.555 417.892 549.208 417.892 548.773C417.892 548.431 417.835 548.128 417.72 547.864C417.611 547.605 417.501 547.408 417.391 547.272C416.719 547.272 416.226 547.322 415.909 547.423C415.593 547.524 415.339 547.684 415.146 547.904C414.952 548.123 414.856 548.422 414.856 548.799ZM420.361 556.801L420.361 557.907L418.59 557.907C418.037 557.907 417.617 557.94 417.332 558.006C417.051 558.072 416.853 558.179 416.739 558.329C416.625 558.482 416.568 558.71 416.568 559.013C416.568 559.51 416.735 560.175 417.069 561.009L420.361 561.009L420.361 562.115L413.453 562.115L413.453 561.009L416.094 561.009L415.896 560.462C415.633 559.764 415.501 559.2 415.501 558.77C415.501 558.089 415.723 557.591 416.166 557.275C416.61 556.959 417.284 556.801 418.188 556.801L420.361 556.801ZM416.772 565.184C415.859 565.184 415.207 565.34 414.816 565.651C414.43 565.963 414.237 566.464 414.237 567.153C414.237 567.46 414.3 567.73 414.428 567.963C414.559 568.196 414.77 568.42 415.06 568.635L414.48 569.57C414.085 569.306 413.78 568.986 413.565 568.608C413.354 568.231 413.249 567.719 413.249 567.074C413.249 566.047 413.548 565.278 414.145 564.769C414.742 564.264 415.644 564.012 416.851 564.012C418.116 564.012 419.049 564.258 419.65 564.749C420.256 565.245 420.559 565.992 420.559 566.988C420.559 567.884 420.3 568.556 419.782 569.003C419.268 569.451 418.476 569.675 417.404 569.675L416.772 569.675L416.772 565.184ZM417.661 568.569C418.28 568.56 418.761 568.428 419.103 568.174C419.446 567.923 419.617 567.515 419.617 566.949C419.617 566.409 419.461 566.003 419.15 565.73C418.842 565.463 418.346 565.285 417.661 565.197L417.661 568.569ZM419.426 573.495L418.945 573.495C417.826 573.495 416.834 573.398 415.969 573.205C415.108 573.016 414.456 572.746 414.013 572.395C413.569 572.048 413.348 571.638 413.348 571.163C413.348 571.054 413.361 570.922 413.387 570.768C413.414 570.619 413.44 570.507 413.466 570.432L414.454 570.65C414.423 570.812 414.408 570.95 414.408 571.065C414.408 571.965 416.05 572.415 419.334 572.415L420.361 572.415L420.361 576.425L413.453 576.425L413.453 575.319L419.426 575.319L419.426 573.495ZM416.891 584.393C415.692 584.393 414.786 584.134 414.171 583.616C413.556 583.103 413.249 582.352 413.249 581.364C413.249 580.376 413.552 579.621 414.158 579.099C414.768 578.576 415.679 578.315 416.891 578.315C418.124 578.315 419.044 578.576 419.65 579.099C420.256 579.626 420.559 580.381 420.559 581.364C420.559 582.356 420.249 583.109 419.63 583.623C419.016 584.137 418.102 584.393 416.891 584.393ZM416.891 583.221C417.83 583.221 418.513 583.065 418.939 582.754C419.365 582.446 419.578 581.983 419.578 581.364C419.578 580.728 419.362 580.256 418.932 579.948C418.506 579.641 417.826 579.487 416.891 579.487C415.991 579.487 415.323 579.634 414.889 579.929C414.454 580.227 414.237 580.706 414.237 581.364C414.237 581.992 414.452 582.457 414.882 582.76C415.312 583.068 415.982 583.221 416.891 583.221ZM415.554 591.723C414.812 591.723 414.276 591.471 413.947 590.966C413.618 590.465 413.453 589.73 413.453 588.76L413.453 586.29L420.361 586.29L420.361 588.733C420.361 589.725 420.24 590.419 419.999 590.814C419.758 591.214 419.338 591.413 418.741 591.413C417.938 591.413 417.393 591.058 417.108 590.347C417.003 590.821 416.827 591.168 416.581 591.387C416.335 591.611 415.993 591.723 415.554 591.723ZM418.563 590.281C418.95 590.281 419.198 590.149 419.308 589.886C419.422 589.627 419.479 589.229 419.479 588.694L419.479 587.396L417.431 587.396L417.431 588.608C417.431 589.723 417.808 590.281 418.563 590.281ZM415.528 590.564C415.927 590.564 416.195 590.432 416.331 590.169C416.471 589.91 416.542 589.462 416.542 588.825L416.542 587.396L414.355 587.396L414.355 588.364C414.355 589.093 414.43 589.642 414.579 590.011C414.729 590.38 415.045 590.564 415.528 590.564ZM416.772 594.344C415.859 594.344 415.207 594.5 414.816 594.812C414.43 595.123 414.237 595.624 414.237 596.313C414.237 596.62 414.3 596.89 414.428 597.123C414.559 597.356 414.77 597.58 415.06 597.795L414.48 598.73C414.085 598.466 413.78 598.146 413.565 597.768C413.354 597.391 413.249 596.879 413.249 596.234C413.249 595.207 413.548 594.438 414.145 593.929C414.742 593.424 415.644 593.172 416.851 593.172C418.116 593.172 419.049 593.418 419.65 593.909C420.256 594.405 420.559 595.152 420.559 596.148C420.559 597.044 420.3 597.716 419.782 598.163C419.268 598.611 418.476 598.835 417.404 598.835L416.772 598.835L416.772 594.344ZM417.661 597.729C418.28 597.72 418.761 597.588 419.103 597.334C419.446 597.083 419.617 596.675 419.617 596.109C419.617 595.569 419.461 595.163 419.149 594.891C418.842 594.623 418.346 594.445 417.661 594.357L417.661 597.729ZM420.361 601.752L417.418 601.752L417.418 602.721C417.418 602.98 417.51 603.199 417.694 603.379C417.879 603.559 418.188 603.737 418.623 603.912C419.062 604.092 419.641 604.266 420.361 604.433L420.361 605.585C419.61 605.418 418.994 605.241 418.511 605.052C418.028 604.867 417.67 604.683 417.437 604.499C417.205 604.319 417.055 604.09 416.989 603.814C416.893 604.143 416.737 604.411 416.522 604.617C416.307 604.823 415.984 605.012 415.554 605.183C415.128 605.355 414.428 605.563 413.453 605.809L413.453 604.663C413.993 604.51 414.454 604.371 414.836 604.248C415.218 604.13 415.528 603.998 415.765 603.853C416.006 603.713 416.179 603.546 416.285 603.353C416.395 603.16 416.449 602.914 416.449 602.615L416.449 601.752L413.453 601.752L413.453 600.646L420.361 600.646L420.361 601.752Z" fill="black"/>
<path d="M438.956 520.511C437.787 520.511 436.92 520.127 436.355 519.358C435.795 518.595 435.515 517.544 435.515 516.205C435.515 515.251 435.688 514.441 436.034 513.777C436.385 513.119 436.827 512.649 437.359 512.369L438.635 514.238C438.322 514.441 438.07 514.694 437.878 514.995C437.686 515.297 437.59 515.709 437.59 516.23C437.59 516.889 437.716 517.366 437.968 517.662C438.221 517.964 438.608 518.115 439.129 518.115C440.183 518.115 440.709 517.418 440.709 516.024L440.709 515.012L442.702 515.012L442.702 515.893C442.702 516.59 442.839 517.097 443.113 517.416C443.387 517.734 443.744 517.893 444.183 517.893C444.507 517.893 444.776 517.778 444.99 517.547C445.204 517.317 445.311 516.938 445.311 516.411C445.311 515.884 445.226 515.462 445.056 515.144C444.891 514.831 444.639 514.562 444.298 514.337L445.599 512.485C446.208 512.935 446.658 513.478 446.949 514.115C447.24 514.757 447.385 515.58 447.385 516.584C447.385 517.347 447.265 518.011 447.023 518.576C446.787 519.147 446.458 519.578 446.035 519.869C445.613 520.159 445.13 520.305 444.587 520.305C443.099 520.305 442.166 519.537 441.788 518C441.738 518.752 441.453 519.358 440.932 519.819C440.416 520.28 439.757 520.511 438.956 520.511ZM441.45 531.451C439.403 531.451 437.9 531.091 436.939 530.372C435.979 529.653 435.499 528.528 435.499 526.997C435.499 525.477 435.979 524.358 436.939 523.639C437.9 522.92 439.398 522.56 441.434 522.56C443.47 522.56 444.971 522.92 445.937 523.639C446.902 524.358 447.385 525.477 447.385 526.997C447.385 528.528 446.905 529.653 445.945 530.372C444.984 531.091 443.486 531.451 441.45 531.451ZM441.45 529.055C442.811 529.055 443.807 528.888 444.438 528.553C445.075 528.224 445.393 527.705 445.393 526.997C445.393 526.289 445.072 525.771 444.43 525.441C443.794 525.118 442.795 524.956 441.434 524.956C440.073 524.956 439.074 525.118 438.437 525.441C437.806 525.771 437.491 526.289 437.491 526.997C437.491 527.705 437.809 528.224 438.446 528.553C439.088 528.888 440.089 529.055 441.45 529.055ZM441.45 541.987C439.403 541.987 437.9 541.628 436.939 540.909C435.979 540.19 435.499 539.065 435.499 537.534C435.499 536.014 435.979 534.894 436.939 534.175C437.9 533.456 439.398 533.097 441.434 533.097C443.47 533.097 444.971 533.456 445.937 534.175C446.902 534.894 447.385 536.014 447.385 537.534C447.385 539.065 446.905 540.19 445.945 540.909C444.984 541.628 443.486 541.987 441.45 541.987ZM441.45 539.592C442.811 539.592 443.807 539.424 444.438 539.09C445.075 538.76 445.393 538.242 445.393 537.534C445.393 536.826 445.072 536.307 444.43 535.978C443.794 535.654 442.795 535.492 441.434 535.492C440.073 535.492 439.074 535.654 438.437 535.978C437.806 536.307 437.491 536.826 437.491 537.534C437.491 538.242 437.809 538.76 438.446 539.09C439.088 539.424 440.089 539.592 441.45 539.592ZM441.45 552.524C439.403 552.524 437.9 552.164 436.939 551.445C435.979 550.727 435.499 549.602 435.499 548.07C435.499 546.55 435.979 545.431 436.939 544.712C437.9 543.993 439.398 543.634 441.434 543.634C443.47 543.634 444.971 543.993 445.937 544.712C446.902 545.431 447.385 546.55 447.385 548.07C447.385 549.602 446.905 550.727 445.945 551.445C444.984 552.164 443.486 552.524 441.45 552.524ZM441.45 550.128C442.811 550.128 443.807 549.961 444.438 549.626C445.075 549.297 445.393 548.778 445.393 548.07C445.393 547.363 445.072 546.844 444.43 546.515C443.794 546.191 442.795 546.029 441.434 546.029C440.073 546.029 439.074 546.191 438.437 546.515C437.806 546.844 437.491 547.363 437.491 548.07C437.491 548.778 437.809 549.297 438.446 549.626C439.088 549.961 440.089 550.128 441.45 550.128ZM440.133 566.649C439.206 566.649 438.388 566.509 437.68 566.23C436.972 565.95 436.432 565.549 436.059 565.028C435.685 564.506 435.499 563.884 435.499 563.159C435.499 562.204 435.798 561.389 436.396 560.714L432.502 560.714L432.502 558.591L444.389 558.591L444.389 560.55L443.541 560.55C443.881 560.945 444.148 561.359 444.34 561.793C444.537 562.232 444.636 562.734 444.636 563.299C444.636 564.391 444.252 565.223 443.484 565.793C442.715 566.364 441.598 566.649 440.133 566.649ZM440.1 564.46C440.94 564.46 441.593 564.314 442.059 564.024C442.531 563.733 442.767 563.299 442.767 562.723C442.767 562.377 442.685 562.02 442.52 561.653C442.361 561.291 442.164 560.978 441.928 560.714L438.149 560.714C437.946 560.939 437.765 561.217 437.606 561.546C437.452 561.881 437.376 562.224 437.376 562.575C437.376 563.156 437.623 563.615 438.116 563.949C438.616 564.29 439.277 564.46 440.1 564.46ZM436.948 571.169C436.476 571.169 436.138 571.062 435.935 570.848C435.737 570.634 435.639 570.291 435.639 569.819C435.639 569.303 435.751 568.952 435.976 568.765C436.201 568.578 436.525 568.485 436.948 568.485C437.398 568.485 437.73 568.584 437.944 568.781C438.158 568.979 438.265 569.325 438.265 569.819C438.265 570.324 438.16 570.675 437.952 570.872C437.743 571.07 437.409 571.169 436.948 571.169Z" fill="black"/>
</g>
<defs>
<clipPath id="clip0_492_11472">
<rect width="690" height="505" fill="white" transform="translate(505 2.20743e-05) rotate(90)"/>
</clipPath>
</defs>
</svg>
