<svg width="505" height="690" viewBox="0 0 505 690" fill="none" xmlns="http://www.w3.org/2000/svg">
<g clip-path="url(#clip0_492_11362)">
<rect width="690" height="505" transform="translate(505 2.20743e-05) rotate(90)" fill="white"/>
<circle cx="91.9659" cy="131.153" r="42.1464" transform="rotate(90 91.9659 131.153)" stroke="#BA402A" stroke-width="2.69737"/>
<circle cx="3.03454" cy="3.03454" r="1.68585" transform="matrix(4.37114e-08 -1 -1 -4.37114e-08 95.0039 134.188)" fill="#BA402A" stroke="#BA402A" stroke-width="2.69737"/>
<line x1="142.203" y1="124.069" x2="134.111" y2="124.069" stroke="#BA402A" stroke-width="2.69737"/>
<line x1="49.8203" y1="124.069" x2="41.7282" y2="124.069" stroke="#BA402A" stroke-width="2.69737"/>
<line x1="103.094" y1="126.097" x2="92.9787" y2="126.097" stroke="#BA402A" stroke-width="2.69737"/>
<line x1="88.9336" y1="126.097" x2="80.8415" y2="126.097" stroke="#BA402A" stroke-width="2.69737"/>
<line x1="142.203" y1="141.605" x2="134.111" y2="141.605" stroke="#BA402A" stroke-width="2.69737"/>
<line x1="49.8203" y1="141.605" x2="41.7282" y2="141.605" stroke="#BA402A" stroke-width="2.69737"/>
<line x1="103.094" y1="138.235" x2="95.0017" y2="138.235" stroke="#BA402A" stroke-width="2.69737"/>
<line x1="94.3271" y1="149.695" x2="94.3271" y2="136.883" stroke="#BA402A" stroke-width="2.69737"/>
<line x1="94.3271" y1="125.42" x2="94.3271" y2="112.607" stroke="#BA402A" stroke-width="2.69737"/>
<line x1="87.5849" y1="149.695" x2="87.5849" y2="136.883" stroke="#BA402A" stroke-width="2.69737"/>
<line x1="87.5849" y1="125.42" x2="87.5849" y2="112.607" stroke="#BA402A" stroke-width="2.69737"/>
<line x1="88.9336" y1="138.235" x2="80.8415" y2="138.235" stroke="#BA402A" stroke-width="2.69737"/>
<circle cx="91.9659" cy="560.032" r="42.1464" transform="rotate(90 91.9659 560.032)" stroke="#BA402A" stroke-width="2.69737"/>
<circle cx="3.03454" cy="3.03454" r="1.68585" transform="matrix(4.37114e-08 -1 -1 -4.37114e-08 95.0039 563.066)" fill="#BA402A" stroke="#BA402A" stroke-width="2.69737"/>
<line x1="142.203" y1="552.952" x2="134.111" y2="552.952" stroke="#BA402A" stroke-width="2.69737"/>
<line x1="49.8203" y1="552.952" x2="41.7282" y2="552.952" stroke="#BA402A" stroke-width="2.69737"/>
<line x1="103.094" y1="554.976" x2="92.9787" y2="554.976" stroke="#BA402A" stroke-width="2.69737"/>
<line x1="88.9336" y1="554.976" x2="80.8415" y2="554.976" stroke="#BA402A" stroke-width="2.69737"/>
<line x1="142.203" y1="570.483" x2="134.111" y2="570.483" stroke="#BA402A" stroke-width="2.69737"/>
<line x1="49.8203" y1="570.483" x2="41.7282" y2="570.483" stroke="#BA402A" stroke-width="2.69737"/>
<line x1="103.094" y1="567.11" x2="95.0017" y2="567.11" stroke="#BA402A" stroke-width="2.69737"/>
<line x1="94.3271" y1="578.578" x2="94.3271" y2="565.766" stroke="#BA402A" stroke-width="2.69737"/>
<line x1="94.3271" y1="554.299" x2="94.3271" y2="541.486" stroke="#BA402A" stroke-width="2.69737"/>
<line x1="87.5849" y1="578.578" x2="87.5849" y2="565.766" stroke="#BA402A" stroke-width="2.69737"/>
<line x1="87.5849" y1="554.299" x2="87.5849" y2="541.486" stroke="#BA402A" stroke-width="2.69737"/>
<line x1="88.9336" y1="567.11" x2="80.8415" y2="567.11" stroke="#BA402A" stroke-width="2.69737"/>
<circle cx="280.11" cy="131.153" r="42.1464" transform="rotate(90 280.11 131.153)" stroke="#BA402A" stroke-width="2.69737"/>
<circle cx="3.03454" cy="3.03454" r="1.68585" transform="matrix(4.37114e-08 -1 -1 -4.37114e-08 283.145 134.188)" fill="#BA402A" stroke="#BA402A" stroke-width="2.69737"/>
<line x1="330.348" y1="124.069" x2="322.256" y2="124.069" stroke="#BA402A" stroke-width="2.69737"/>
<line x1="237.961" y1="124.069" x2="229.869" y2="124.069" stroke="#BA402A" stroke-width="2.69737"/>
<line x1="291.234" y1="124.069" x2="283.142" y2="124.069" stroke="#BA402A" stroke-width="2.69737"/>
<line x1="277.074" y1="124.745" x2="268.982" y2="124.745" stroke="#BA402A" stroke-width="2.69737"/>
<line x1="330.348" y1="141.605" x2="322.256" y2="141.605" stroke="#BA402A" stroke-width="2.69737"/>
<line x1="237.961" y1="141.605" x2="229.869" y2="141.605" stroke="#BA402A" stroke-width="2.69737"/>
<line x1="291.234" y1="138.911" x2="283.142" y2="138.911" stroke="#BA402A" stroke-width="2.69737"/>
<line x1="282.468" y1="150.371" x2="282.468" y2="137.559" stroke="#BA402A" stroke-width="2.69737"/>
<line x1="282.468" y1="125.42" x2="282.468" y2="112.607" stroke="#BA402A" stroke-width="2.69737"/>
<line x1="275.726" y1="150.371" x2="275.726" y2="137.559" stroke="#BA402A" stroke-width="2.69737"/>
<line x1="275.726" y1="126.092" x2="275.726" y2="113.279" stroke="#BA402A" stroke-width="2.69737"/>
<line x1="277.074" y1="138.235" x2="268.982" y2="138.235" stroke="#BA402A" stroke-width="2.69737"/>
<circle cx="280.11" cy="560.032" r="42.1464" transform="rotate(90 280.11 560.032)" stroke="#BA402A" stroke-width="2.69737"/>
<circle cx="3.03454" cy="3.03454" r="1.68585" transform="matrix(4.37114e-08 -1 -1 -4.37114e-08 283.145 563.066)" fill="#BA402A" stroke="#BA402A" stroke-width="2.69737"/>
<line x1="330.348" y1="552.952" x2="322.256" y2="552.952" stroke="#BA402A" stroke-width="2.69737"/>
<line x1="237.961" y1="552.952" x2="229.869" y2="552.952" stroke="#BA402A" stroke-width="2.69737"/>
<line x1="291.234" y1="552.952" x2="283.142" y2="552.952" stroke="#BA402A" stroke-width="2.69737"/>
<line x1="277.074" y1="553.624" x2="268.982" y2="553.624" stroke="#BA402A" stroke-width="2.69737"/>
<line x1="330.348" y1="570.483" x2="322.256" y2="570.483" stroke="#BA402A" stroke-width="2.69737"/>
<line x1="237.961" y1="570.483" x2="229.869" y2="570.483" stroke="#BA402A" stroke-width="2.69737"/>
<line x1="291.234" y1="567.79" x2="283.142" y2="567.79" stroke="#BA402A" stroke-width="2.69737"/>
<line x1="282.468" y1="579.254" x2="282.468" y2="566.441" stroke="#BA402A" stroke-width="2.69737"/>
<line x1="282.468" y1="554.299" x2="282.468" y2="541.486" stroke="#BA402A" stroke-width="2.69737"/>
<line x1="275.726" y1="579.254" x2="275.726" y2="566.441" stroke="#BA402A" stroke-width="2.69737"/>
<line x1="275.726" y1="554.979" x2="275.726" y2="542.166" stroke="#BA402A" stroke-width="2.69737"/>
<line x1="277.074" y1="567.11" x2="268.982" y2="567.11" stroke="#BA402A" stroke-width="2.69737"/>
<rect x="362.715" y="252.869" width="5.39474" height="352.007" transform="rotate(90 362.715 252.869)" fill="#5060C4"/>
<rect x="177.27" y="342.557" width="5.39474" height="166.562" transform="rotate(90 177.27 342.557)" fill="#BA402A"/>
<rect x="362.715" y="342.557" width="5.39474" height="166.562" transform="rotate(90 362.715 342.557)" fill="#BA402A"/>
<rect x="362.715" y="431.572" width="5.39474" height="352.007" transform="rotate(90 362.715 431.572)" fill="#5060C4"/>
<circle cx="3.03454" cy="3.03454" r="3.03454" transform="matrix(4.37114e-08 -1 -1 -4.37114e-08 95.0039 275.803)" fill="#BA402A"/>
<circle cx="3.03454" cy="3.03454" r="2.3602" transform="matrix(4.37114e-08 -1 -1 -4.37114e-08 190.082 347.959)" fill="#1A1A1A" stroke="#1A1A1A" stroke-width="1.34868"/>
<circle cx="3.03454" cy="3.03454" r="3.03454" transform="matrix(4.37114e-08 -1 -1 -4.37114e-08 283.145 275.803)" fill="#BA402A"/>
<circle cx="3.03454" cy="3.03454" r="3.03454" transform="matrix(4.37114e-08 -1 -1 -4.37114e-08 95.0039 420.787)" fill="#BA402A"/>
<circle cx="3.03454" cy="3.03454" r="3.03454" transform="matrix(4.37114e-08 -1 -1 -4.37114e-08 283.145 420.787)" fill="#BA402A"/>
<mask id="mask0_492_11362" style="mask-type:alpha" maskUnits="userSpaceOnUse" x="142" y="64" width="83" height="44">
<rect x="224.469" y="64.7324" width="43.1579" height="82.2697" transform="rotate(90 224.469 64.7324)" fill="#C9DEF2"/>
</mask>
<g mask="url(#mask0_492_11362)">
<circle cx="186.038" cy="64.7311" r="27.9852" transform="rotate(90 186.038 64.7311)" fill="#C9DEF2" stroke="#BA402A" stroke-width="2.02303"/>
</g>
<mask id="mask1_492_11362" style="mask-type:alpha" maskUnits="userSpaceOnUse" x="12" y="307" width="44" height="83">
<rect x="12.7266" y="307.494" width="43.1579" height="82.2697" fill="#C9DEF2"/>
</mask>
<g mask="url(#mask1_492_11362)">
<circle cx="12.7311" cy="345.93" r="27.9852" stroke="#BA402A" stroke-width="2.02303"/>
</g>
<mask id="mask2_492_11362" style="mask-type:alpha" maskUnits="userSpaceOnUse" x="142" y="581" width="83" height="45">
<rect x="-0.337171" y="-0.337171" width="42.4836" height="81.5954" transform="matrix(4.37114e-08 -1 -1 -4.37114e-08 223.794 624.433)" fill="#C9DEF2" stroke="#C2526A" stroke-width="0.674342"/>
</mask>
<g mask="url(#mask2_492_11362)">
<circle cx="28.9967" cy="28.9967" r="27.9852" transform="matrix(4.37114e-08 -1 -1 -4.37114e-08 215.035 654.102)" fill="#C9DEF2" stroke="#BA402A" stroke-width="2.02303"/>
</g>
<circle cx="187.048" cy="344.921" r="43.4951" transform="rotate(90 187.048 344.921)" stroke="#1A1A1A" stroke-width="4.04605"/>
<rect x="351.246" y="63.3789" width="2.69737" height="329.079" transform="rotate(90 351.246 63.3789)" fill="#BA402A"/>
<rect width="2.69737" height="329.079" transform="matrix(4.37114e-08 -1 -1 -4.37114e-08 351.246 626.457)" fill="#BA402A"/>
<rect x="370.136" y="4.04381" width="681.76" height="366.168" rx="113.29" transform="rotate(90 370.136 4.04381)" stroke="#95D0EB" stroke-width="8.09211"/>
<rect x="363.73" y="10.4501" width="668.947" height="353.355" rx="106.883" transform="rotate(90 363.73 10.4501)" stroke="#5060C4" stroke-width="4.7204"/>
<path opacity="0.45" d="M255.495 14.834C312.849 14.834 359.344 61.3287 359.344 118.683L359.344 250.854L190.084 250.854L190.084 14.834L255.495 14.834Z" fill="#EC6707"/>
<path opacity="0.45" d="M453.75 14.834C482.055 14.834 505 37.7794 505 66.084L505 250.854L427.451 250.854L427.451 14.834L453.75 14.834Z" fill="#EC6707"/>
<path d="M475.816 118.957L484.931 118.957L484.931 126.319L475.816 126.319L475.816 124.416L483.344 124.416L483.344 120.854L475.816 120.854L475.816 118.957ZM480.374 135.723C478.789 135.723 477.601 135.388 476.811 134.716C476.021 134.048 475.625 133.076 475.625 131.798C475.625 130.451 476.04 129.458 476.87 128.822C477.704 128.19 478.872 127.874 480.374 127.874C481.884 127.874 483.052 128.19 483.877 128.822C484.707 129.458 485.122 130.451 485.122 131.798C485.122 133.155 484.707 134.147 483.877 134.775C483.052 135.407 481.884 135.723 480.374 135.723ZM480.374 133.807C481.454 133.807 482.239 133.653 482.731 133.346C483.227 133.043 483.475 132.527 483.475 131.798C483.475 131.07 483.227 130.552 482.731 130.244C482.239 129.941 481.454 129.79 480.374 129.79C479.294 129.79 478.505 129.944 478.009 130.251C477.518 130.563 477.272 131.078 477.272 131.798C477.272 132.527 477.518 133.043 478.009 133.346C478.505 133.653 479.294 133.807 480.374 133.807ZM483.383 140.254L482.639 140.254C480.215 140.254 478.437 140.039 477.305 139.609C476.176 139.178 475.612 138.489 475.612 137.541C475.612 136.878 475.748 136.32 476.021 135.868L477.476 136.448C477.357 136.72 477.298 136.968 477.298 137.192C477.298 137.499 477.48 137.741 477.845 137.916C478.209 138.096 478.804 138.23 479.629 138.318C480.459 138.406 481.565 138.45 482.948 138.45L484.931 138.45L484.931 144.33L475.816 144.33L475.816 142.48L483.383 142.48L483.383 140.254ZM480.374 153.728C478.789 153.728 477.601 153.392 476.811 152.72C476.021 152.053 475.625 151.08 475.625 149.803C475.625 148.455 476.04 147.463 476.87 146.826C477.704 146.194 478.872 145.878 480.374 145.878C481.884 145.878 483.052 146.194 483.877 146.826C484.707 147.463 485.122 148.455 485.122 149.803C485.122 151.159 484.707 152.152 483.877 152.779C483.052 153.412 481.884 153.728 480.374 153.728ZM480.374 151.811C481.454 151.811 482.239 151.658 482.731 151.35C483.227 151.048 483.475 150.532 483.475 149.803C483.475 149.074 483.227 148.556 482.731 148.249C482.239 147.946 481.454 147.794 480.374 147.794C479.294 147.794 478.505 147.948 478.009 148.255C477.518 148.567 477.272 149.083 477.272 149.803C477.272 150.532 477.518 151.048 478.009 151.35C478.505 151.658 479.294 151.811 480.374 151.811ZM478.457 162.262C477.544 162.262 476.874 161.949 476.449 161.321C476.027 160.693 475.816 159.821 475.816 158.706L475.816 155.282L484.931 155.282L484.931 158.502C484.931 159.67 484.759 160.506 484.417 161.011C484.079 161.516 483.541 161.769 482.804 161.769C482.237 161.769 481.778 161.63 481.427 161.354C481.076 161.081 480.841 160.653 480.723 160.069C480.617 160.833 480.376 161.389 479.998 161.736C479.621 162.087 479.107 162.262 478.457 162.262ZM482.395 159.892C482.742 159.892 482.981 159.764 483.113 159.51C483.249 159.255 483.317 158.86 483.317 158.324L483.317 157.139L481.361 157.139L481.361 158.272C481.361 158.82 481.438 159.227 481.592 159.49C481.745 159.758 482.013 159.892 482.395 159.892ZM478.622 160.366C479.03 160.366 479.318 160.228 479.484 159.951C479.656 159.674 479.741 159.156 479.741 158.397L479.741 157.139L477.463 157.139L477.463 158.081C477.463 158.805 477.498 159.303 477.568 159.576C477.638 159.852 477.757 160.052 477.924 160.175C478.091 160.302 478.323 160.366 478.622 160.366ZM475.816 163.83L484.931 163.83L484.931 165.568L478.582 165.568L484.931 168.94L484.931 171.107L475.816 171.107L475.816 169.368L482.586 169.368L475.816 165.812L475.816 163.83ZM475.816 178.535L479.689 178.535L479.689 174.946L475.816 174.946L475.816 173.089L484.931 173.089L484.931 174.946L481.388 174.946L481.388 178.535L484.931 178.535L484.931 180.399L475.816 180.399L475.816 178.535ZM475.816 181.564L484.931 184.58L484.931 186.997L475.816 190.02L475.816 188.117L477.667 187.511L477.667 184.001L475.816 183.408L475.816 181.564ZM479.294 184.528L479.294 186.984L483.06 185.759L479.294 184.528ZM465.401 103.468L465.401 104.739C465.401 105.995 465.153 106.936 464.657 107.564C464.165 108.196 463.443 108.513 462.49 108.513C461.599 108.513 460.929 108.218 460.482 107.63C460.038 107.046 459.816 106.1 459.816 104.792L459.816 101.611L468.931 101.611L468.931 107.815L467.409 107.815L467.409 103.468L465.401 103.468ZM462.609 106.596C462.925 106.596 463.175 106.53 463.359 106.399C463.544 106.271 463.675 106.076 463.754 105.813C463.834 105.549 463.873 105.123 463.873 104.535L463.873 103.468L461.338 103.468L461.338 104.654C461.338 105.277 461.425 105.756 461.601 106.089C461.777 106.427 462.113 106.596 462.609 106.596ZM464.374 117.627C462.789 117.627 461.601 117.291 460.811 116.619C460.021 115.952 459.625 114.979 459.625 113.702C459.625 112.354 460.04 111.362 460.87 110.725C461.704 110.093 462.872 109.777 464.374 109.777C465.884 109.777 467.052 110.093 467.877 110.725C468.707 111.362 469.122 112.354 469.122 113.702C469.122 115.058 468.707 116.051 467.877 116.678C467.052 117.311 465.884 117.627 464.374 117.627ZM464.374 115.71C465.454 115.71 466.239 115.557 466.731 115.249C467.227 114.946 467.475 114.431 467.475 113.702C467.475 112.973 467.227 112.455 466.731 112.148C466.239 111.845 465.454 111.693 464.374 111.693C463.294 111.693 462.505 111.847 462.009 112.154C461.518 112.466 461.272 112.982 461.272 113.702C461.272 114.431 461.518 114.946 462.009 115.249C462.505 115.557 463.294 115.71 464.374 115.71ZM467.383 122.157L466.639 122.157C464.215 122.157 462.437 121.942 461.305 121.512C460.176 121.082 459.612 120.393 459.612 119.444C459.612 118.781 459.748 118.224 460.021 117.772L461.476 118.351C461.357 118.623 461.298 118.871 461.298 119.095C461.298 119.403 461.48 119.644 461.845 119.82C462.209 120 462.804 120.134 463.629 120.221C464.459 120.309 465.565 120.353 466.948 120.353L468.931 120.353L468.931 126.234L459.816 126.234L459.816 124.383L467.383 124.383L467.383 122.157ZM459.816 128.203L468.931 128.203L468.931 130.06L465.697 130.06L465.697 131.463C465.697 132.723 465.46 133.629 464.986 134.182C464.516 134.736 463.796 135.012 462.826 135.012C461.781 135.012 461.017 134.722 460.534 134.143C460.056 133.563 459.816 132.657 459.816 131.423L459.816 128.203ZM462.826 133.096C463.291 133.096 463.618 132.957 463.807 132.681C463.996 132.409 464.09 131.972 464.09 131.37L464.09 130.06L461.45 130.06L461.45 131.37C461.45 131.937 461.557 132.365 461.772 132.655C461.987 132.949 462.339 133.096 462.826 133.096ZM461.515 144.996L468.931 144.996L468.931 146.853L459.816 146.853L459.816 136.514L468.931 136.514L468.931 138.371L461.515 138.371L461.515 140.761L468.931 140.761L468.931 142.605L461.515 142.605L461.515 144.996ZM464.374 156.257C462.789 156.257 461.601 155.921 460.811 155.249C460.021 154.582 459.625 153.609 459.625 152.332C459.625 150.984 460.04 149.992 460.87 149.355C461.704 148.723 462.872 148.407 464.374 148.407C465.884 148.407 467.052 148.723 467.877 149.355C468.707 149.992 469.122 150.984 469.122 152.332C469.122 153.688 468.707 154.68 467.877 155.308C467.052 155.94 465.884 156.257 464.374 156.257ZM464.374 154.34C465.454 154.34 466.239 154.187 466.731 153.879C467.227 153.576 467.475 153.06 467.475 152.332C467.475 151.603 467.227 151.085 466.731 150.778C466.239 150.475 465.454 150.323 464.374 150.323C463.294 150.323 462.505 150.477 462.009 150.784C461.518 151.096 461.272 151.612 461.272 152.332C461.272 153.06 461.518 153.576 462.009 153.879C462.505 154.187 463.294 154.34 464.374 154.34ZM459.816 157.811L468.931 157.811L468.931 159.549L462.582 159.549L468.931 162.921L468.931 165.088L459.816 165.088L459.816 163.349L466.586 163.349L459.816 159.793L459.816 157.811ZM471.67 163.909C471.336 163.909 471.029 163.81 470.748 163.612C470.472 163.415 470.25 163.136 470.083 162.776C469.921 162.42 469.839 162.006 469.839 161.531C469.839 161.066 469.921 160.653 470.083 160.293C470.245 159.933 470.467 159.655 470.748 159.457C471.029 159.259 471.336 159.161 471.67 159.161L471.67 160.616C471.016 160.616 470.689 160.926 470.689 161.545C470.689 161.79 470.759 162.003 470.9 162.183C471.044 162.363 471.301 162.453 471.67 162.453L471.67 163.909ZM462.418 171.06C461.566 171.552 461.14 172.25 461.14 173.155C461.14 173.62 461.261 174.009 461.502 174.32C461.744 174.636 462.066 174.794 462.47 174.794C462.914 174.794 463.236 174.682 463.438 174.459C463.64 174.235 463.741 173.866 463.741 173.352L463.741 171.423L465.276 171.423L465.276 173.451C465.276 173.842 465.379 174.14 465.585 174.347C465.796 174.557 466.103 174.663 466.507 174.663C466.836 174.663 467.102 174.509 467.304 174.202C467.51 173.894 467.614 173.508 467.614 173.043C467.614 172.7 467.559 172.349 467.449 171.989C467.344 171.633 467.133 171.234 466.817 170.79L468.154 169.862C468.799 170.749 469.122 171.831 469.122 173.109C469.122 173.85 469.021 174.485 468.819 175.012C468.617 175.543 468.32 175.945 467.93 176.217C467.543 176.493 467.082 176.632 466.547 176.632C466.033 176.632 465.592 176.502 465.223 176.243C464.854 175.989 464.604 175.672 464.472 175.295C464.055 176.265 463.375 176.75 462.431 176.75C461.509 176.75 460.811 176.441 460.337 175.822C459.863 175.203 459.625 174.327 459.625 173.194C459.625 172.36 459.775 171.644 460.073 171.047C460.376 170.45 460.857 169.948 461.515 169.539L462.418 171.06ZM464.374 185.759C462.789 185.759 461.601 185.423 460.811 184.751C460.021 184.084 459.625 183.112 459.625 181.834C459.625 180.486 460.04 179.494 460.87 178.858C461.704 178.225 462.872 177.909 464.374 177.909C465.884 177.909 467.052 178.225 467.877 178.858C468.707 179.494 469.122 180.486 469.122 181.834C469.122 183.191 468.707 184.183 467.877 184.811C467.052 185.443 465.884 185.759 464.374 185.759ZM464.374 183.843C465.454 183.843 466.239 183.689 466.731 183.382C467.227 183.079 467.475 182.563 467.475 181.834C467.475 181.105 467.227 180.587 466.731 180.28C466.239 179.977 465.454 179.826 464.374 179.826C463.294 179.826 462.505 179.979 462.009 180.287C461.518 180.598 461.272 181.114 461.272 181.834C461.272 182.563 461.518 183.079 462.009 183.382C462.505 183.689 463.294 183.843 464.374 183.843ZM459.816 192.759L463.689 192.759L463.689 189.17L459.816 189.17L459.816 187.313L468.931 187.313L468.931 189.17L465.388 189.17L465.388 192.759L468.931 192.759L468.931 194.623L459.816 194.623L459.816 192.759ZM468.931 204.712L468.931 206.562L459.816 206.562L459.816 204.712L468.931 204.712ZM459.816 196.599L468.931 196.599L468.931 198.456L465.697 198.456L465.697 199.858C465.697 201.118 465.46 202.025 464.986 202.578C464.516 203.131 463.796 203.408 462.826 203.408C461.781 203.408 461.017 203.118 460.534 202.539C460.056 201.959 459.816 201.052 459.816 199.819L459.816 196.599ZM462.826 201.491C463.291 201.491 463.618 201.353 463.807 201.077C463.996 200.804 464.09 200.368 464.09 199.766L464.09 198.456L461.45 198.456L461.45 199.766C461.45 200.332 461.557 200.761 461.772 201.05C461.987 201.344 462.339 201.491 462.826 201.491Z" fill="black"/>
<path d="M413.449 94.4474L421.003 94.4474L415.932 91.9252L415.932 91.1679L421.003 88.672L413.449 88.672L413.449 87.513L422.563 87.513L422.563 89.1594L417.605 91.5762L422.563 94.0128L422.563 95.6064L413.449 95.6064L413.449 94.4474ZM413.449 101.856L414.312 101.856C414.005 101.505 413.75 101.151 413.548 100.796C413.346 100.44 413.245 100.038 413.245 99.5906C413.245 98.9321 413.445 98.4228 413.844 98.0628C414.248 97.7072 414.764 97.5294 415.392 97.5294C415.866 97.5294 416.259 97.6216 416.571 97.806C416.887 97.9947 417.135 98.2647 417.315 98.616C417.499 98.9716 417.631 99.4852 417.71 100.157L417.861 101.856L418.197 101.856C418.729 101.856 419.091 101.707 419.284 101.408C419.477 101.114 419.574 100.706 419.574 100.183C419.574 99.7179 419.492 99.3579 419.33 99.1033C419.168 98.853 418.992 98.673 418.803 98.5633L419.37 97.6347C419.751 97.8455 420.043 98.166 420.245 98.5962C420.452 99.0308 420.555 99.5686 420.555 100.21C420.555 101.202 420.375 101.913 420.015 102.343C419.655 102.774 419.031 102.989 418.145 102.989L413.449 102.989L413.449 101.856ZM416.953 101.856L416.847 100.75C416.781 99.9989 416.634 99.4699 416.406 99.1625C416.182 98.8552 415.853 98.7016 415.418 98.7016C415.006 98.7016 414.709 98.8047 414.529 99.0111C414.349 99.2174 414.259 99.5269 414.259 99.9396C414.259 100.111 414.29 100.28 414.351 100.447C414.417 100.614 414.496 100.778 414.589 100.941C414.685 101.103 414.793 101.259 414.911 101.408C415.034 101.562 415.153 101.711 415.267 101.856L416.953 101.856ZM420.357 106.281L417.414 106.281L417.414 107.249C417.414 107.508 417.506 107.728 417.69 107.908C417.875 108.088 418.184 108.266 418.619 108.441C419.058 108.621 419.637 108.795 420.357 108.962L420.357 110.114C419.607 109.947 418.99 109.769 418.507 109.581C418.024 109.396 417.666 109.212 417.433 109.027C417.201 108.847 417.051 108.619 416.986 108.343C416.889 108.672 416.733 108.94 416.518 109.146C416.303 109.352 415.98 109.541 415.55 109.712C415.124 109.884 414.424 110.092 413.449 110.338L413.449 109.192C413.989 109.038 414.45 108.9 414.832 108.777C415.214 108.659 415.524 108.527 415.761 108.382C416.002 108.242 416.176 108.075 416.281 107.882C416.391 107.688 416.446 107.443 416.446 107.144L416.446 106.281L413.449 106.281L413.449 105.175L420.357 105.175L420.357 106.281ZM414.516 116.805C414.147 116.59 413.842 116.291 413.601 115.909C413.364 115.527 413.245 115 413.245 114.329C413.245 113.315 413.55 112.551 414.16 112.037C414.775 111.523 415.684 111.266 416.887 111.266C418.09 111.266 419.001 111.521 419.62 112.03C420.243 112.54 420.555 113.29 420.555 114.283C420.555 115.42 420.133 116.23 419.29 116.713L418.724 115.784C418.992 115.613 419.2 115.411 419.35 115.178C419.499 114.95 419.574 114.647 419.574 114.269C419.574 113.606 419.332 113.135 418.849 112.854C418.371 112.577 417.708 112.439 416.86 112.439C416.215 112.439 415.712 112.505 415.352 112.636C414.992 112.768 414.716 112.972 414.523 113.249C414.329 113.53 414.233 113.885 414.233 114.315C414.233 114.684 414.301 114.985 414.437 115.218C414.578 115.45 414.793 115.67 415.082 115.876L414.516 116.805ZM413.449 119.597L413.449 118.398L420.357 118.398L420.357 119.465L414.905 119.465L420.357 122.85L420.357 123.996L413.449 123.996L413.449 122.929L418.79 122.929L413.449 119.597ZM413.449 132.629L413.449 131.563L418.711 131.563L415.267 129.686L415.267 129.119L418.711 127.302L413.449 127.302L413.449 126.235L420.357 126.235L420.357 127.42L416.808 129.429L420.357 131.457L420.357 132.629L413.449 132.629ZM411.981 134.012C411.853 134.298 411.79 134.629 411.79 135.007C411.79 135.538 412.27 135.988 413.232 136.357L413.825 136.587L420.357 134.065L420.357 135.29L415.3 137.193L420.357 139.109L420.357 140.295L412.922 137.345C412.163 137.033 411.627 136.699 411.316 136.344C411.004 135.988 410.848 135.525 410.848 134.954C410.848 134.748 410.868 134.528 410.907 134.296C410.947 134.063 410.993 133.874 411.046 133.729L411.981 134.012ZM413.449 148.118L413.449 147.051L418.711 147.051L415.267 145.175L415.267 144.608L418.711 142.791L413.449 142.791L413.449 141.724L420.357 141.724L420.357 142.909L416.808 144.918L420.357 146.946L420.357 148.118L413.449 148.118ZM416.011 159.84C415.076 159.84 414.382 159.533 413.93 158.918C413.482 158.308 413.258 157.467 413.258 156.396C413.258 155.632 413.397 154.985 413.673 154.453C413.954 153.927 414.308 153.551 414.733 153.327L415.754 154.822C415.504 154.985 415.302 155.187 415.148 155.428C414.995 155.669 414.918 155.999 414.918 156.416C414.918 156.943 415.019 157.325 415.221 157.562C415.423 157.803 415.732 157.924 416.149 157.924C416.992 157.924 417.414 157.366 417.414 156.251L417.414 155.441L419.007 155.441L419.007 156.146C419.007 156.703 419.117 157.109 419.337 157.364C419.556 157.619 419.841 157.746 420.193 157.746C420.452 157.746 420.667 157.654 420.838 157.469C421.009 157.285 421.095 156.982 421.095 156.561C421.095 156.139 421.027 155.801 420.891 155.547C420.759 155.296 420.557 155.081 420.285 154.901L421.325 153.419C421.813 153.779 422.173 154.214 422.405 154.723C422.638 155.237 422.754 155.896 422.754 156.699C422.754 157.309 422.658 157.84 422.465 158.293C422.276 158.749 422.012 159.094 421.674 159.327C421.336 159.559 420.95 159.676 420.515 159.676C419.326 159.676 418.579 159.061 418.276 157.832C418.237 158.433 418.009 158.918 417.591 159.287C417.179 159.656 416.652 159.84 416.011 159.84ZM420.357 165.01L420.357 166.116L418.586 166.116C418.033 166.116 417.613 166.149 417.328 166.215C417.047 166.281 416.849 166.388 416.735 166.538C416.621 166.691 416.564 166.919 416.564 167.222C416.564 167.718 416.731 168.384 417.065 169.218L420.357 169.218L420.357 170.324L413.449 170.324L413.449 169.218L416.09 169.218L415.892 168.671C415.629 167.973 415.497 167.409 415.497 166.979C415.497 166.298 415.719 165.8 416.162 165.484C416.606 165.168 417.28 165.01 418.184 165.01L420.357 165.01ZM416.768 173.393C415.855 173.393 415.203 173.549 414.812 173.86C414.426 174.172 414.233 174.673 414.233 175.362C414.233 175.669 414.297 175.939 414.424 176.172C414.556 176.405 414.766 176.629 415.056 176.844L414.477 177.779C414.081 177.515 413.776 177.195 413.561 176.817C413.35 176.44 413.245 175.928 413.245 175.283C413.245 174.256 413.544 173.487 414.141 172.978C414.738 172.473 415.64 172.221 416.847 172.221C418.112 172.221 419.045 172.467 419.646 172.958C420.252 173.454 420.555 174.201 420.555 175.197C420.555 176.093 420.296 176.765 419.778 177.212C419.264 177.66 418.472 177.884 417.4 177.884L416.768 177.884L416.768 173.393ZM417.657 176.778C418.276 176.769 418.757 176.637 419.099 176.383C419.442 176.132 419.613 175.724 419.613 175.158C419.613 174.618 419.457 174.212 419.146 173.939C418.838 173.672 418.342 173.494 417.657 173.406L417.657 176.778ZM419.422 181.704L418.941 181.704C417.822 181.704 416.83 181.607 415.965 181.414C415.104 181.225 414.452 180.955 414.009 180.604C413.566 180.257 413.344 179.847 413.344 179.372C413.344 179.263 413.357 179.131 413.383 178.977C413.41 178.828 413.436 178.716 413.462 178.641L414.45 178.859C414.419 179.021 414.404 179.159 414.404 179.274C414.404 180.174 416.046 180.624 419.33 180.624L420.357 180.624L420.357 184.634L413.449 184.634L413.449 183.528L419.422 183.528L419.422 181.704ZM416.887 192.602C415.688 192.602 414.782 192.343 414.167 191.825C413.552 191.312 413.245 190.561 413.245 189.573C413.245 188.585 413.548 187.83 414.154 187.308C414.764 186.785 415.675 186.524 416.887 186.524C418.12 186.524 419.04 186.785 419.646 187.308C420.252 187.835 420.555 188.59 420.555 189.573C420.555 190.565 420.245 191.318 419.626 191.832C419.012 192.346 418.099 192.602 416.887 192.602ZM416.887 191.43C417.826 191.43 418.509 191.274 418.935 190.963C419.361 190.655 419.574 190.192 419.574 189.573C419.574 188.937 419.359 188.465 418.928 188.157C418.502 187.85 417.822 187.696 416.887 187.696C415.987 187.696 415.319 187.843 414.885 188.138C414.45 188.436 414.233 188.915 414.233 189.573C414.233 190.201 414.448 190.666 414.878 190.969C415.309 191.277 415.978 191.43 416.887 191.43ZM415.55 199.932C414.808 199.932 414.272 199.68 413.943 199.175C413.614 198.674 413.449 197.939 413.449 196.969L413.449 194.499L420.357 194.499L420.357 196.942C420.357 197.934 420.237 198.628 419.995 199.023C419.754 199.423 419.334 199.622 418.737 199.622C417.934 199.622 417.389 199.267 417.104 198.556C416.999 199.03 416.823 199.377 416.577 199.596C416.331 199.82 415.989 199.932 415.55 199.932ZM418.559 198.49C418.946 198.49 419.194 198.358 419.304 198.095C419.418 197.836 419.475 197.438 419.475 196.903L419.475 195.605L417.427 195.605L417.427 196.817C417.427 197.932 417.804 198.49 418.559 198.49ZM415.524 198.773C415.923 198.773 416.191 198.641 416.327 198.378C416.468 198.119 416.538 197.671 416.538 197.034L416.538 195.605L414.351 195.605L414.351 196.573C414.351 197.302 414.426 197.851 414.575 198.22C414.725 198.589 415.041 198.773 415.524 198.773ZM416.768 202.553C415.855 202.553 415.203 202.709 414.812 203.02C414.426 203.332 414.233 203.833 414.233 204.522C414.233 204.829 414.297 205.099 414.424 205.332C414.556 205.565 414.766 205.789 415.056 206.004L414.477 206.939C414.081 206.675 413.776 206.355 413.561 205.977C413.35 205.6 413.245 205.088 413.245 204.443C413.245 203.416 413.544 202.647 414.141 202.138C414.738 201.633 415.64 201.381 416.847 201.381C418.112 201.381 419.045 201.627 419.646 202.118C420.252 202.614 420.555 203.361 420.555 204.357C420.555 205.253 420.296 205.925 419.778 206.372C419.264 206.82 418.472 207.044 417.4 207.044L416.768 207.044L416.768 202.553ZM417.657 205.938C418.276 205.929 418.757 205.797 419.099 205.543C419.442 205.292 419.613 204.884 419.613 204.318C419.613 203.778 419.457 203.372 419.146 203.1C418.838 202.832 418.342 202.654 417.657 202.566L417.657 205.938ZM420.357 209.961L417.414 209.961L417.414 210.93C417.414 211.189 417.506 211.408 417.69 211.588C417.875 211.768 418.184 211.946 418.619 212.121C419.058 212.301 419.637 212.475 420.357 212.642L420.357 213.794C419.607 213.627 418.99 213.45 418.507 213.261C418.024 213.076 417.666 212.892 417.433 212.708C417.201 212.528 417.051 212.299 416.986 212.023C416.889 212.352 416.733 212.62 416.518 212.826C416.303 213.032 415.98 213.221 415.55 213.392C415.124 213.564 414.424 213.772 413.449 214.018L413.449 212.872C413.989 212.719 414.45 212.58 414.832 212.457C415.214 212.339 415.524 212.207 415.761 212.062C416.002 211.922 416.176 211.755 416.281 211.562C416.391 211.369 416.446 211.123 416.446 210.824L416.446 209.961L413.449 209.961L413.449 208.855L420.357 208.855L420.357 209.961ZM413.449 219.141L414.312 219.141C414.005 218.79 413.75 218.437 413.548 218.081C413.346 217.726 413.245 217.324 413.245 216.876C413.245 216.218 413.445 215.708 413.844 215.348C414.248 214.993 414.764 214.815 415.392 214.815C415.866 214.815 416.259 214.907 416.571 215.091C416.887 215.28 417.135 215.55 417.315 215.901C417.499 216.257 417.631 216.771 417.71 217.442L417.861 219.141L418.197 219.141C418.729 219.141 419.091 218.992 419.284 218.694C419.477 218.4 419.574 217.991 419.574 217.469C419.574 217.003 419.492 216.643 419.33 216.389C419.168 216.139 418.992 215.959 418.803 215.849L419.369 214.92C419.751 215.131 420.043 215.451 420.245 215.882C420.452 216.316 420.555 216.854 420.555 217.495C420.555 218.487 420.375 219.199 420.015 219.629C419.655 220.059 419.031 220.274 418.145 220.274L413.449 220.274L413.449 219.141ZM416.953 219.141L416.847 218.035C416.781 217.284 416.634 216.755 416.406 216.448C416.182 216.141 415.853 215.987 415.418 215.987C415.006 215.987 414.709 216.09 414.529 216.297C414.349 216.503 414.259 216.812 414.259 217.225C414.259 217.396 414.29 217.565 414.351 217.732C414.417 217.899 414.496 218.064 414.589 218.226C414.685 218.389 414.793 218.544 414.911 218.694C415.034 218.847 415.153 218.997 415.267 219.141L416.953 219.141Z" fill="black"/>
<path d="M435.754 128.208L443.393 128.208L443.393 125.442L444.957 125.442C445.006 126.232 445.1 126.828 445.237 127.228C445.38 127.634 445.599 127.955 445.895 128.191C446.192 128.433 446.609 128.622 447.147 128.759L447.147 130.529L435.754 130.529L435.754 128.208ZM439.499 142.992C438.259 142.992 437.285 142.594 436.577 141.798C435.869 141.008 435.515 139.867 435.515 138.374C435.515 136.514 436.141 135.169 437.392 134.34L438.701 136.193C437.96 136.615 437.59 137.331 437.59 138.341C437.59 139.856 438.243 140.613 439.549 140.613C440.098 140.613 440.528 140.413 440.841 140.012C441.159 139.617 441.319 139.065 441.319 138.357C441.319 137.6 441.116 137.027 440.709 136.637L440.709 135.015L447.147 135.69L447.147 142.35L445.023 142.35L445.023 137.543L443.023 137.312C443.237 137.833 443.344 138.412 443.344 139.049C443.344 140.267 443.017 141.228 442.364 141.93C441.711 142.638 440.756 142.992 439.499 142.992ZM441.45 153.561C439.403 153.561 437.9 153.202 436.939 152.483C435.979 151.764 435.499 150.639 435.499 149.108C435.499 147.588 435.979 146.468 436.939 145.75C437.9 145.031 439.398 144.671 441.434 144.671C443.47 144.671 444.971 145.031 445.937 145.75C446.902 146.468 447.385 147.588 447.385 149.108C447.385 150.639 446.905 151.764 445.945 152.483C444.984 153.202 443.486 153.561 441.45 153.561ZM441.45 151.166C442.811 151.166 443.807 150.999 444.438 150.664C445.075 150.335 445.393 149.816 445.393 149.108C445.393 148.4 445.072 147.882 444.43 147.552C443.794 147.228 442.795 147.067 441.434 147.067C440.073 147.067 439.074 147.228 438.437 147.552C437.806 147.882 437.491 148.4 437.491 149.108C437.491 149.816 437.809 150.335 438.446 150.664C439.088 150.999 440.089 151.166 441.45 151.166ZM441.45 164.098C439.403 164.098 437.9 163.739 436.939 163.02C435.979 162.301 435.499 161.176 435.499 159.645C435.499 158.125 435.979 157.005 436.939 156.286C437.9 155.567 439.398 155.208 441.434 155.208C443.47 155.208 444.971 155.567 445.937 156.286C446.902 157.005 447.385 158.125 447.385 159.645C447.385 161.176 446.905 162.301 445.945 163.02C444.984 163.739 443.486 164.098 441.45 164.098ZM441.45 161.703C442.811 161.703 443.807 161.535 444.438 161.2C445.075 160.871 445.393 160.353 445.393 159.645C445.393 158.937 445.072 158.418 444.43 158.089C443.794 157.765 442.795 157.603 441.434 157.603C440.073 157.603 439.074 157.765 438.437 158.089C437.806 158.418 437.491 158.937 437.491 159.645C437.491 160.353 437.809 160.871 438.446 161.2C439.088 161.535 440.089 161.703 441.45 161.703ZM440.133 178.224C439.206 178.224 438.388 178.084 437.68 177.804C436.972 177.524 436.432 177.123 436.059 176.602C435.685 176.081 435.499 175.458 435.499 174.733C435.499 173.779 435.798 172.964 436.396 172.289L432.502 172.289L432.502 170.165L444.389 170.165L444.389 172.124L443.541 172.124C443.881 172.519 444.148 172.933 444.34 173.367C444.537 173.806 444.636 174.308 444.636 174.873C444.636 175.965 444.252 176.797 443.484 177.368C442.715 177.938 441.598 178.224 440.133 178.224ZM440.1 176.034C440.94 176.034 441.593 175.889 442.059 175.598C442.531 175.307 442.767 174.873 442.767 174.297C442.767 173.951 442.685 173.595 442.52 173.227C442.361 172.865 442.164 172.552 441.928 172.289L438.149 172.289C437.946 172.514 437.765 172.791 437.606 173.12C437.452 173.455 437.376 173.798 437.376 174.149C437.376 174.731 437.623 175.189 438.116 175.524C438.616 175.864 439.277 176.034 440.1 176.034ZM436.948 182.743C436.476 182.743 436.138 182.636 435.935 182.422C435.737 182.208 435.639 181.865 435.639 181.393C435.639 180.877 435.751 180.526 435.976 180.339C436.201 180.153 436.525 180.059 436.948 180.059C437.398 180.059 437.73 180.158 437.944 180.356C438.158 180.553 438.265 180.899 438.265 181.393C438.265 181.898 438.16 182.249 437.952 182.447C437.743 182.644 437.409 182.743 436.948 182.743Z" fill="black"/>
</g>
<defs>
<clipPath id="clip0_492_11362">
<rect width="690" height="505" fill="white" transform="translate(505 2.20743e-05) rotate(90)"/>
</clipPath>
</defs>
</svg>
