<svg width="505" height="690" viewBox="0 0 505 690" fill="none" xmlns="http://www.w3.org/2000/svg">
<g clip-path="url(#clip0_492_11252)">
<rect width="690" height="505" transform="translate(505 2.20743e-05) rotate(90)" fill="white"/>
<circle cx="91.962" cy="131.153" r="42.1464" transform="rotate(90 91.962 131.153)" stroke="#BA402A" stroke-width="2.69737"/>
<circle cx="3.03454" cy="3.03454" r="1.68585" transform="matrix(4.37114e-08 -1 -1 -4.37114e-08 95 134.188)" fill="#BA402A" stroke="#BA402A" stroke-width="2.69737"/>
<line x1="142.199" y1="124.069" x2="134.107" y2="124.069" stroke="#BA402A" stroke-width="2.69737"/>
<line x1="49.8164" y1="124.069" x2="41.7243" y2="124.069" stroke="#BA402A" stroke-width="2.69737"/>
<line x1="103.09" y1="126.097" x2="92.9747" y2="126.097" stroke="#BA402A" stroke-width="2.69737"/>
<line x1="88.9258" y1="126.097" x2="80.8337" y2="126.097" stroke="#BA402A" stroke-width="2.69737"/>
<line x1="142.199" y1="141.605" x2="134.107" y2="141.605" stroke="#BA402A" stroke-width="2.69737"/>
<line x1="49.8164" y1="141.605" x2="41.7243" y2="141.605" stroke="#BA402A" stroke-width="2.69737"/>
<line x1="103.09" y1="138.235" x2="94.9978" y2="138.235" stroke="#BA402A" stroke-width="2.69737"/>
<line x1="94.3232" y1="149.695" x2="94.3232" y2="136.883" stroke="#BA402A" stroke-width="2.69737"/>
<line x1="94.3232" y1="125.42" x2="94.3232" y2="112.607" stroke="#BA402A" stroke-width="2.69737"/>
<line x1="87.5771" y1="149.695" x2="87.5771" y2="136.883" stroke="#BA402A" stroke-width="2.69737"/>
<line x1="87.5771" y1="125.42" x2="87.5771" y2="112.607" stroke="#BA402A" stroke-width="2.69737"/>
<line x1="88.9258" y1="138.235" x2="80.8337" y2="138.235" stroke="#BA402A" stroke-width="2.69737"/>
<circle cx="91.962" cy="560.032" r="42.1464" transform="rotate(90 91.962 560.032)" stroke="#BA402A" stroke-width="2.69737"/>
<circle cx="3.03454" cy="3.03454" r="1.68585" transform="matrix(4.37114e-08 -1 -1 -4.37114e-08 95 563.066)" fill="#BA402A" stroke="#BA402A" stroke-width="2.69737"/>
<line x1="142.199" y1="552.952" x2="134.107" y2="552.952" stroke="#BA402A" stroke-width="2.69737"/>
<line x1="49.8164" y1="552.952" x2="41.7243" y2="552.952" stroke="#BA402A" stroke-width="2.69737"/>
<line x1="103.09" y1="554.976" x2="92.9747" y2="554.976" stroke="#BA402A" stroke-width="2.69737"/>
<line x1="88.9258" y1="554.976" x2="80.8337" y2="554.976" stroke="#BA402A" stroke-width="2.69737"/>
<line x1="142.199" y1="570.483" x2="134.107" y2="570.483" stroke="#BA402A" stroke-width="2.69737"/>
<line x1="49.8164" y1="570.483" x2="41.7243" y2="570.483" stroke="#BA402A" stroke-width="2.69737"/>
<line x1="103.09" y1="567.11" x2="94.9978" y2="567.11" stroke="#BA402A" stroke-width="2.69737"/>
<line x1="94.3232" y1="578.578" x2="94.3232" y2="565.766" stroke="#BA402A" stroke-width="2.69737"/>
<line x1="94.3232" y1="554.299" x2="94.3232" y2="541.486" stroke="#BA402A" stroke-width="2.69737"/>
<line x1="87.5771" y1="578.578" x2="87.5771" y2="565.766" stroke="#BA402A" stroke-width="2.69737"/>
<line x1="87.5771" y1="554.299" x2="87.5771" y2="541.486" stroke="#BA402A" stroke-width="2.69737"/>
<line x1="88.9258" y1="567.11" x2="80.8337" y2="567.11" stroke="#BA402A" stroke-width="2.69737"/>
<circle cx="280.107" cy="131.153" r="42.1464" transform="rotate(90 280.107 131.153)" stroke="#BA402A" stroke-width="2.69737"/>
<circle cx="3.03454" cy="3.03454" r="1.68585" transform="matrix(4.37114e-08 -1 -1 -4.37114e-08 283.141 134.188)" fill="#BA402A" stroke="#BA402A" stroke-width="2.69737"/>
<line x1="330.344" y1="124.069" x2="322.252" y2="124.069" stroke="#BA402A" stroke-width="2.69737"/>
<line x1="237.957" y1="124.069" x2="229.865" y2="124.069" stroke="#BA402A" stroke-width="2.69737"/>
<line x1="291.227" y1="124.069" x2="283.134" y2="124.069" stroke="#BA402A" stroke-width="2.69737"/>
<line x1="277.066" y1="124.745" x2="268.974" y2="124.745" stroke="#BA402A" stroke-width="2.69737"/>
<line x1="330.344" y1="141.605" x2="322.252" y2="141.605" stroke="#BA402A" stroke-width="2.69737"/>
<line x1="237.957" y1="141.605" x2="229.865" y2="141.605" stroke="#BA402A" stroke-width="2.69737"/>
<line x1="291.227" y1="138.911" x2="283.134" y2="138.911" stroke="#BA402A" stroke-width="2.69737"/>
<line x1="282.464" y1="150.371" x2="282.464" y2="137.559" stroke="#BA402A" stroke-width="2.69737"/>
<line x1="282.464" y1="125.42" x2="282.464" y2="112.607" stroke="#BA402A" stroke-width="2.69737"/>
<line x1="275.718" y1="150.371" x2="275.718" y2="137.559" stroke="#BA402A" stroke-width="2.69737"/>
<line x1="275.718" y1="126.092" x2="275.718" y2="113.279" stroke="#BA402A" stroke-width="2.69737"/>
<line x1="277.066" y1="138.235" x2="268.974" y2="138.235" stroke="#BA402A" stroke-width="2.69737"/>
<circle cx="280.107" cy="560.032" r="42.1464" transform="rotate(90 280.107 560.032)" stroke="#BA402A" stroke-width="2.69737"/>
<circle cx="3.03454" cy="3.03454" r="1.68585" transform="matrix(4.37114e-08 -1 -1 -4.37114e-08 283.141 563.066)" fill="#BA402A" stroke="#BA402A" stroke-width="2.69737"/>
<line x1="330.344" y1="552.952" x2="322.252" y2="552.952" stroke="#BA402A" stroke-width="2.69737"/>
<line x1="237.957" y1="552.952" x2="229.865" y2="552.952" stroke="#BA402A" stroke-width="2.69737"/>
<line x1="291.227" y1="552.952" x2="283.134" y2="552.952" stroke="#BA402A" stroke-width="2.69737"/>
<line x1="277.066" y1="553.624" x2="268.974" y2="553.624" stroke="#BA402A" stroke-width="2.69737"/>
<line x1="330.344" y1="570.483" x2="322.252" y2="570.483" stroke="#BA402A" stroke-width="2.69737"/>
<line x1="237.957" y1="570.483" x2="229.865" y2="570.483" stroke="#BA402A" stroke-width="2.69737"/>
<line x1="291.227" y1="567.79" x2="283.134" y2="567.79" stroke="#BA402A" stroke-width="2.69737"/>
<line x1="282.464" y1="579.254" x2="282.464" y2="566.441" stroke="#BA402A" stroke-width="2.69737"/>
<line x1="282.464" y1="554.299" x2="282.464" y2="541.486" stroke="#BA402A" stroke-width="2.69737"/>
<line x1="275.718" y1="579.254" x2="275.718" y2="566.441" stroke="#BA402A" stroke-width="2.69737"/>
<line x1="275.718" y1="554.979" x2="275.718" y2="542.166" stroke="#BA402A" stroke-width="2.69737"/>
<line x1="277.066" y1="567.11" x2="268.974" y2="567.11" stroke="#BA402A" stroke-width="2.69737"/>
<rect x="362.707" y="252.869" width="5.39474" height="352.007" transform="rotate(90 362.707 252.869)" fill="#5060C4"/>
<rect x="177.266" y="342.557" width="5.39474" height="166.562" transform="rotate(90 177.266 342.557)" fill="#BA402A"/>
<rect x="362.707" y="342.557" width="5.39474" height="166.562" transform="rotate(90 362.707 342.557)" fill="#BA402A"/>
<rect x="362.707" y="431.572" width="5.39474" height="352.007" transform="rotate(90 362.707 431.572)" fill="#5060C4"/>
<circle cx="3.03454" cy="3.03454" r="3.03454" transform="matrix(4.37114e-08 -1 -1 -4.37114e-08 95 275.803)" fill="#BA402A"/>
<circle cx="3.03454" cy="3.03454" r="2.3602" transform="matrix(4.37114e-08 -1 -1 -4.37114e-08 190.078 347.959)" fill="#1A1A1A" stroke="#1A1A1A" stroke-width="1.34868"/>
<circle cx="3.03454" cy="3.03454" r="3.03454" transform="matrix(4.37114e-08 -1 -1 -4.37114e-08 283.141 275.803)" fill="#BA402A"/>
<circle cx="3.03454" cy="3.03454" r="3.03454" transform="matrix(4.37114e-08 -1 -1 -4.37114e-08 95 420.787)" fill="#BA402A"/>
<circle cx="3.03454" cy="3.03454" r="3.03454" transform="matrix(4.37114e-08 -1 -1 -4.37114e-08 283.141 420.787)" fill="#BA402A"/>
<mask id="mask0_492_11252" style="mask-type:alpha" maskUnits="userSpaceOnUse" x="142" y="64" width="83" height="44">
<rect x="224.473" y="64.7324" width="43.1579" height="82.2697" transform="rotate(90 224.473 64.7324)" fill="#C9DEF2"/>
</mask>
<g mask="url(#mask0_492_11252)">
<circle cx="186.027" cy="64.7311" r="27.9852" transform="rotate(90 186.027 64.7311)" fill="#C9DEF2" stroke="#BA402A" stroke-width="2.02303"/>
</g>
<mask id="mask1_492_11252" style="mask-type:alpha" maskUnits="userSpaceOnUse" x="12" y="307" width="44" height="83">
<rect x="12.7305" y="307.494" width="43.1579" height="82.2697" fill="#C9DEF2"/>
</mask>
<g mask="url(#mask1_492_11252)">
<circle cx="12.7272" cy="345.93" r="27.9852" stroke="#BA402A" stroke-width="2.02303"/>
</g>
<mask id="mask2_492_11252" style="mask-type:alpha" maskUnits="userSpaceOnUse" x="142" y="581" width="83" height="45">
<rect x="-0.337171" y="-0.337171" width="42.4836" height="81.5954" transform="matrix(4.37114e-08 -1 -1 -4.37114e-08 223.798 624.433)" fill="#C9DEF2" stroke="#C2526A" stroke-width="0.674342"/>
</mask>
<g mask="url(#mask2_492_11252)">
<circle cx="28.9967" cy="28.9967" r="27.9852" transform="matrix(4.37114e-08 -1 -1 -4.37114e-08 215.023 654.102)" fill="#C9DEF2" stroke="#BA402A" stroke-width="2.02303"/>
</g>
<circle cx="187.048" cy="344.921" r="43.4951" transform="rotate(90 187.048 344.921)" stroke="#1A1A1A" stroke-width="4.04605"/>
<rect x="351.246" y="63.3789" width="2.69737" height="329.079" transform="rotate(90 351.246 63.3789)" fill="#BA402A"/>
<rect width="2.69737" height="329.079" transform="matrix(4.37114e-08 -1 -1 -4.37114e-08 351.246 626.457)" fill="#BA402A"/>
<rect x="370.128" y="4.04381" width="681.76" height="366.168" rx="113.29" transform="rotate(90 370.128 4.04381)" stroke="#95D0EB" stroke-width="8.09211"/>
<rect x="363.722" y="10.4501" width="668.947" height="353.355" rx="106.883" transform="rotate(90 363.722 10.4501)" stroke="#5060C4" stroke-width="4.7204"/>
<path opacity="0.59" d="M255.491 675.008C312.845 675.008 359.34 628.513 359.34 571.159L359.34 349.975L14.7511 349.975L14.7511 571.159C14.7511 628.513 61.2457 675.008 118.6 675.008L255.491 675.008Z" fill="#44C4BC"/>
<path d="M453.75 675.01C482.055 675.01 505 652.064 505 623.76L505 347.954L387.665 347.954L387.665 623.76C387.665 652.064 410.61 675.01 438.915 675.01L453.75 675.01Z" fill="#91DDD8"/>
<path d="M475.809 457.136L484.923 457.136L484.923 464.498L475.809 464.498L475.809 462.595L483.336 462.595L483.336 459.032L475.809 459.032L475.809 457.136ZM480.366 473.902C478.781 473.902 477.593 473.566 476.803 472.895C476.013 472.227 475.618 471.255 475.618 469.977C475.618 468.63 476.033 467.637 476.862 467.001C477.696 466.369 478.864 466.052 480.366 466.052C481.876 466.052 483.044 466.369 483.869 467.001C484.699 467.637 485.114 468.63 485.114 469.977C485.114 471.334 484.699 472.326 483.869 472.954C483.044 473.586 481.876 473.902 480.366 473.902ZM480.366 471.986C481.446 471.986 482.232 471.832 482.723 471.525C483.219 471.222 483.467 470.706 483.467 469.977C483.467 469.249 483.219 468.731 482.723 468.423C482.232 468.12 481.446 467.969 480.366 467.969C479.286 467.969 478.498 468.122 478.002 468.43C477.51 468.741 477.264 469.257 477.264 469.977C477.264 470.706 477.51 471.222 478.002 471.525C478.498 471.832 479.286 471.986 480.366 471.986ZM483.375 478.433L482.631 478.433C480.208 478.433 478.43 478.218 477.297 477.788C476.169 477.357 475.604 476.668 475.604 475.72C475.604 475.057 475.741 474.499 476.013 474.047L477.468 474.627C477.35 474.899 477.29 475.147 477.29 475.371C477.29 475.678 477.473 475.92 477.837 476.095C478.201 476.275 478.796 476.409 479.622 476.497C480.451 476.585 481.558 476.629 482.941 476.629L484.923 476.629L484.923 482.509L475.809 482.509L475.809 480.659L483.375 480.659L483.375 478.433ZM480.366 491.907C478.781 491.907 477.593 491.571 476.803 490.899C476.013 490.232 475.618 489.259 475.618 487.982C475.618 486.634 476.033 485.642 476.862 485.005C477.696 484.373 478.864 484.057 480.366 484.057C481.876 484.057 483.044 484.373 483.869 485.005C484.699 485.642 485.114 486.634 485.114 487.982C485.114 489.338 484.699 490.331 483.869 490.958C483.044 491.591 481.876 491.907 480.366 491.907ZM480.366 489.99C481.446 489.99 482.232 489.837 482.723 489.529C483.219 489.226 483.467 488.711 483.467 487.982C483.467 487.253 483.219 486.735 482.723 486.428C482.232 486.125 481.446 485.973 480.366 485.973C479.286 485.973 478.498 486.127 478.002 486.434C477.51 486.746 477.264 487.262 477.264 487.982C477.264 488.711 477.51 489.226 478.002 489.529C478.498 489.837 479.286 489.99 480.366 489.99ZM478.449 500.441C477.536 500.441 476.867 500.127 476.441 499.5C476.019 498.872 475.809 498 475.809 496.885L475.809 493.461L484.923 493.461L484.923 496.681C484.923 497.849 484.752 498.685 484.409 499.19C484.071 499.695 483.533 499.947 482.796 499.947C482.229 499.947 481.771 499.809 481.419 499.533C481.068 499.26 480.833 498.832 480.715 498.248C480.609 499.012 480.368 499.568 479.99 499.914C479.613 500.266 479.099 500.441 478.449 500.441ZM482.387 498.071C482.734 498.071 482.974 497.943 483.105 497.689C483.241 497.434 483.309 497.039 483.309 496.503L483.309 495.318L481.354 495.318L481.354 496.451C481.354 496.999 481.43 497.405 481.584 497.669C481.738 497.937 482.005 498.071 482.387 498.071ZM478.614 498.545C479.022 498.545 479.31 498.406 479.477 498.13C479.648 497.853 479.734 497.335 479.734 496.576L479.734 495.318L477.455 495.318L477.455 496.26C477.455 496.984 477.49 497.482 477.56 497.754C477.631 498.031 477.749 498.231 477.916 498.354C478.083 498.481 478.315 498.545 478.614 498.545ZM475.809 502.009L484.923 502.009L484.923 503.747L478.574 503.747L484.923 507.119L484.923 509.285L475.809 509.285L475.809 507.547L482.578 507.547L475.809 503.991L475.809 502.009ZM475.809 516.714L479.681 516.714L479.681 513.125L475.809 513.125L475.809 511.268L484.923 511.268L484.923 513.125L481.38 513.125L481.38 516.714L484.923 516.714L484.923 518.577L475.809 518.577L475.809 516.714ZM475.809 519.743L484.923 522.759L484.923 525.176L475.809 528.199L475.809 526.295L477.659 525.69L477.659 522.18L475.809 521.587L475.809 519.743ZM479.286 522.706L479.286 525.163L483.053 523.938L479.286 522.706ZM459.809 475.351L468.923 475.351L468.923 482.713L459.809 482.713L459.809 480.81L467.336 480.81L467.336 477.248L459.809 477.248L459.809 475.351ZM464.366 492.117C462.781 492.117 461.593 491.782 460.803 491.11C460.013 490.442 459.618 489.47 459.618 488.192C459.618 486.845 460.033 485.852 460.862 485.216C461.696 484.584 462.864 484.268 464.366 484.268C465.876 484.268 467.044 484.584 467.869 485.216C468.699 485.852 469.114 486.845 469.114 488.192C469.114 489.549 468.699 490.541 467.869 491.169C467.044 491.801 465.876 492.117 464.366 492.117ZM464.366 490.201C465.446 490.201 466.232 490.047 466.723 489.74C467.219 489.437 467.467 488.921 467.467 488.192C467.467 487.464 467.219 486.946 466.723 486.638C466.232 486.335 465.446 486.184 464.366 486.184C463.286 486.184 462.498 486.338 462.002 486.645C461.51 486.957 461.264 487.472 461.264 488.192C461.264 488.921 461.51 489.437 462.002 489.74C462.498 490.047 463.286 490.201 464.366 490.201ZM467.375 496.648L466.631 496.648C464.208 496.648 462.43 496.433 461.297 496.003C460.169 495.572 459.604 494.883 459.604 493.935C459.604 493.272 459.741 492.714 460.013 492.262L461.468 492.842C461.35 493.114 461.29 493.362 461.29 493.586C461.29 493.893 461.473 494.135 461.837 494.31C462.201 494.49 462.796 494.624 463.622 494.712C464.451 494.8 465.558 494.844 466.941 494.844L468.923 494.844L468.923 500.724L459.809 500.724L459.809 498.874L467.375 498.874L467.375 496.648ZM459.809 501.923L463.477 504.36C463.595 503.767 463.885 503.304 464.346 502.97C464.811 502.641 465.435 502.476 466.216 502.476C467.178 502.476 467.869 502.744 468.291 503.28C468.712 503.82 468.923 504.68 468.923 505.861L468.923 509.18L459.809 509.18L459.809 507.316L463.259 507.316L463.259 506.375L459.809 504.05L459.809 501.923ZM466.137 504.36C465.79 504.36 465.534 504.408 465.367 504.504C465.2 504.605 465.077 504.768 464.998 504.992C464.919 505.216 464.879 505.536 464.879 505.953L464.879 507.316L467.309 507.316L467.309 505.874C467.309 505.334 467.23 504.946 467.072 504.709C466.914 504.476 466.603 504.36 466.137 504.36Z" fill="black"/>
<path d="M413.445 436.332L420.999 436.332L415.928 433.81L415.928 433.053L420.999 430.557L413.445 430.557L413.445 429.398L422.56 429.398L422.56 431.044L417.601 433.461L422.56 435.898L422.56 437.491L413.445 437.491L413.445 436.332ZM413.445 443.741L414.308 443.741C414.001 443.39 413.746 443.036 413.544 442.68C413.342 442.325 413.241 441.923 413.241 441.475C413.241 440.817 413.441 440.308 413.84 439.948C414.244 439.592 414.76 439.414 415.388 439.414C415.862 439.414 416.255 439.506 416.567 439.691C416.883 439.88 417.131 440.15 417.311 440.501C417.495 440.856 417.627 441.37 417.706 442.042L417.858 443.741L418.193 443.741C418.725 443.741 419.087 443.591 419.28 443.293C419.473 442.999 419.57 442.59 419.57 442.068C419.57 441.603 419.489 441.243 419.326 440.988C419.164 440.738 418.988 440.558 418.799 440.448L419.366 439.519C419.748 439.73 420.039 440.051 420.241 440.481C420.448 440.916 420.551 441.453 420.551 442.094C420.551 443.087 420.371 443.798 420.011 444.228C419.651 444.658 419.028 444.873 418.141 444.873L413.445 444.873L413.445 443.741ZM416.949 443.741L416.843 442.634C416.778 441.884 416.63 441.355 416.402 441.047C416.178 440.74 415.849 440.586 415.414 440.586C415.002 440.586 414.705 440.69 414.525 440.896C414.345 441.102 414.255 441.412 414.255 441.824C414.255 441.996 414.286 442.165 414.348 442.331C414.413 442.498 414.492 442.663 414.585 442.825C414.681 442.988 414.789 443.144 414.907 443.293C415.03 443.447 415.149 443.596 415.263 443.741L416.949 443.741ZM420.353 448.166L417.41 448.166L417.41 449.134C417.41 449.393 417.502 449.613 417.686 449.793C417.871 449.973 418.18 450.15 418.615 450.326C419.054 450.506 419.633 450.68 420.353 450.846L420.353 451.999C419.603 451.832 418.986 451.654 418.503 451.465C418.02 451.281 417.662 451.097 417.429 450.912C417.197 450.732 417.048 450.504 416.982 450.227C416.885 450.557 416.729 450.824 416.514 451.031C416.299 451.237 415.976 451.426 415.546 451.597C415.12 451.768 414.42 451.977 413.445 452.223L413.445 451.077C413.985 450.923 414.446 450.785 414.828 450.662C415.21 450.543 415.52 450.412 415.757 450.267C415.998 450.126 416.172 449.96 416.277 449.766C416.387 449.573 416.442 449.327 416.442 449.029L416.442 448.166L413.445 448.166L413.445 447.06L420.353 447.06L420.353 448.166ZM414.512 458.69C414.143 458.474 413.838 458.176 413.597 457.794C413.36 457.412 413.241 456.885 413.241 456.213C413.241 455.199 413.546 454.435 414.157 453.922C414.771 453.408 415.68 453.151 416.883 453.151C418.086 453.151 418.997 453.406 419.616 453.915C420.239 454.424 420.551 455.175 420.551 456.167C420.551 457.304 420.129 458.114 419.287 458.597L418.72 457.669C418.988 457.498 419.197 457.296 419.346 457.063C419.495 456.835 419.57 456.532 419.57 456.154C419.57 455.491 419.328 455.019 418.845 454.738C418.367 454.462 417.704 454.323 416.857 454.323C416.211 454.323 415.709 454.389 415.349 454.521C414.989 454.653 414.712 454.857 414.519 455.133C414.326 455.414 414.229 455.77 414.229 456.2C414.229 456.569 414.297 456.87 414.433 457.102C414.574 457.335 414.789 457.555 415.079 457.761L414.512 458.69ZM413.445 461.482L413.445 460.283L420.353 460.283L420.353 461.35L414.901 461.35L420.353 464.735L420.353 465.881L413.445 465.881L413.445 464.814L418.786 464.814L413.445 461.482ZM413.445 474.514L413.445 473.447L418.707 473.447L415.263 471.571L415.263 471.004L418.707 469.187L413.445 469.187L413.445 468.12L420.353 468.12L420.353 469.305L416.804 471.314L420.353 473.342L420.353 474.514L413.445 474.514ZM411.977 475.897C411.849 476.182 411.786 476.514 411.786 476.892C411.786 477.423 412.267 477.873 413.228 478.242L413.821 478.472L420.353 475.95L420.353 477.175L415.296 479.078L420.353 480.994L420.353 482.18L412.919 479.229C412.159 478.918 411.623 478.584 411.312 478.228C411 477.873 410.844 477.41 410.844 476.839C410.844 476.632 410.864 476.413 410.903 476.18C410.943 475.948 410.989 475.759 411.042 475.614L411.977 475.897ZM413.445 490.003L413.445 488.936L418.707 488.936L415.263 487.059L415.263 486.493L418.707 484.675L413.445 484.675L413.445 483.609L420.353 483.609L420.353 484.794L416.804 486.802L420.353 488.831L420.353 490.003L413.445 490.003ZM413.445 498.623L419.557 498.623L419.557 496.411L420.808 496.411C420.847 497.043 420.922 497.519 421.032 497.84C421.146 498.164 421.321 498.421 421.559 498.61C421.796 498.803 422.129 498.955 422.559 499.064L422.559 500.48L413.445 500.48L413.445 498.623ZM418.002 510.977C416.365 510.977 415.162 510.69 414.394 510.115C413.625 509.54 413.241 508.64 413.241 507.415C413.241 506.199 413.625 505.303 414.394 504.728C415.162 504.153 416.36 503.865 417.989 503.865C419.618 503.865 420.819 504.153 421.591 504.728C422.364 505.303 422.75 506.199 422.75 507.415C422.75 508.64 422.366 509.54 421.598 510.115C420.83 510.69 419.631 510.977 418.002 510.977ZM418.002 509.061C419.091 509.061 419.888 508.927 420.393 508.659C420.902 508.396 421.157 507.981 421.157 507.415C421.157 506.848 420.9 506.433 420.386 506.17C419.877 505.911 419.078 505.782 417.989 505.782C416.9 505.782 416.101 505.911 415.592 506.17C415.087 506.433 414.835 506.848 414.835 507.415C414.835 507.981 415.089 508.396 415.599 508.659C416.112 508.927 416.914 509.061 418.002 509.061ZM420.353 515.824L420.353 516.931L418.582 516.931C418.029 516.931 417.609 516.964 417.324 517.029C417.043 517.095 416.846 517.203 416.731 517.352C416.617 517.506 416.56 517.734 416.56 518.037C416.56 518.533 416.727 519.198 417.061 520.032L420.353 520.032L420.353 521.139L413.445 521.139L413.445 520.032L416.086 520.032L415.889 519.486C415.625 518.788 415.493 518.224 415.493 517.793C415.493 517.113 415.715 516.614 416.159 516.298C416.602 515.982 417.276 515.824 418.18 515.824L420.353 515.824ZM416.764 524.207C415.851 524.207 415.199 524.363 414.809 524.675C414.422 524.987 414.229 525.487 414.229 526.176C414.229 526.484 414.293 526.754 414.42 526.986C414.552 527.219 414.762 527.443 415.052 527.658L414.473 528.593C414.078 528.33 413.772 528.009 413.557 527.632C413.347 527.254 413.241 526.743 413.241 526.097C413.241 525.07 413.54 524.302 414.137 523.793C414.734 523.288 415.636 523.035 416.843 523.035C418.108 523.035 419.041 523.281 419.642 523.773C420.248 524.269 420.551 525.015 420.551 526.012C420.551 526.907 420.292 527.579 419.774 528.027C419.26 528.475 418.468 528.699 417.397 528.699L416.764 528.699L416.764 524.207ZM417.653 527.592C418.272 527.584 418.753 527.452 419.096 527.197C419.438 526.947 419.609 526.539 419.609 525.972C419.609 525.432 419.453 525.026 419.142 524.754C418.834 524.486 418.338 524.308 417.653 524.221L417.653 527.592ZM419.418 532.518L418.938 532.518C417.818 532.518 416.826 532.422 415.961 532.228C415.1 532.04 414.449 531.77 414.005 531.418C413.562 531.072 413.34 530.661 413.34 530.187C413.34 530.077 413.353 529.945 413.379 529.792C413.406 529.643 413.432 529.531 413.459 529.456L414.446 529.673C414.416 529.836 414.4 529.974 414.4 530.088C414.4 530.988 416.042 531.438 419.326 531.438L420.353 531.438L420.353 535.449L413.445 535.449L413.445 534.342L419.418 534.342L419.418 532.518ZM416.883 543.417C415.684 543.417 414.778 543.158 414.163 542.64C413.549 542.126 413.241 541.375 413.241 540.388C413.241 539.4 413.544 538.645 414.15 538.122C414.76 537.6 415.671 537.339 416.883 537.339C418.117 537.339 419.036 537.6 419.642 538.122C420.248 538.649 420.551 539.404 420.551 540.388C420.551 541.38 420.241 542.133 419.622 542.646C419.008 543.16 418.095 543.417 416.883 543.417ZM416.883 542.245C417.822 542.245 418.505 542.089 418.931 541.777C419.357 541.47 419.57 541.007 419.57 540.388C419.57 539.751 419.355 539.279 418.924 538.972C418.499 538.665 417.818 538.511 416.883 538.511C415.983 538.511 415.316 538.658 414.881 538.952C414.446 539.251 414.229 539.729 414.229 540.388C414.229 541.015 414.444 541.481 414.874 541.784C415.305 542.091 415.974 542.245 416.883 542.245ZM415.546 550.746C414.804 550.746 414.269 550.494 413.939 549.989C413.61 549.489 413.445 548.753 413.445 547.783L413.445 545.314L420.353 545.314L420.353 547.757C420.353 548.749 420.233 549.443 419.991 549.838C419.75 550.237 419.33 550.437 418.733 550.437C417.93 550.437 417.386 550.081 417.1 549.37C416.995 549.844 416.819 550.191 416.573 550.411C416.328 550.635 415.985 550.746 415.546 550.746ZM418.556 549.304C418.942 549.304 419.19 549.173 419.3 548.909C419.414 548.65 419.471 548.253 419.471 547.717L419.471 546.42L417.423 546.42L417.423 547.632C417.423 548.747 417.8 549.304 418.556 549.304ZM415.52 549.587C415.919 549.587 416.187 549.456 416.323 549.192C416.464 548.933 416.534 548.486 416.534 547.849L416.534 546.42L414.348 546.42L414.348 547.388C414.348 548.117 414.422 548.666 414.571 549.034C414.721 549.403 415.037 549.587 415.52 549.587ZM416.764 553.367C415.851 553.367 415.199 553.523 414.809 553.835C414.422 554.147 414.229 554.647 414.229 555.336C414.229 555.644 414.293 555.914 414.42 556.146C414.552 556.379 414.762 556.603 415.052 556.818L414.473 557.753C414.078 557.49 413.772 557.169 413.557 556.792C413.347 556.414 413.241 555.903 413.241 555.257C413.241 554.23 413.54 553.462 414.137 552.953C414.734 552.448 415.636 552.195 416.843 552.195C418.108 552.195 419.041 552.441 419.642 552.933C420.248 553.429 420.551 554.175 420.551 555.172C420.551 556.067 420.292 556.739 419.774 557.187C419.26 557.635 418.468 557.859 417.397 557.859L416.764 557.859L416.764 553.367ZM417.653 556.752C418.272 556.744 418.753 556.612 419.096 556.357C419.438 556.107 419.609 555.699 419.609 555.132C419.609 554.592 419.453 554.186 419.142 553.914C418.834 553.646 418.338 553.468 417.653 553.381L417.653 556.752ZM420.353 560.776L417.41 560.776L417.41 561.744C417.41 562.003 417.502 562.223 417.686 562.403C417.871 562.583 418.18 562.76 418.615 562.936C419.054 563.116 419.633 563.289 420.353 563.456L420.353 564.609C419.603 564.442 418.986 564.264 418.503 564.075C418.02 563.891 417.662 563.706 417.429 563.522C417.197 563.342 417.048 563.114 416.982 562.837C416.885 563.166 416.729 563.434 416.514 563.641C416.299 563.847 415.976 564.036 415.546 564.207C415.12 564.378 414.42 564.587 413.445 564.833L413.445 563.687C413.985 563.533 414.446 563.395 414.828 563.272C415.21 563.153 415.52 563.022 415.757 562.877C415.998 562.736 416.172 562.569 416.277 562.376C416.387 562.183 416.442 561.937 416.442 561.639L416.442 560.776L413.445 560.776L413.445 559.67L420.353 559.67L420.353 560.776Z" fill="black"/>
<path d="M437.627 470.382L435.742 470.382L435.742 468.16L437.627 468.16L437.627 462.439L439.768 462.439L447.135 468.003L447.135 470.382L439.619 470.382L439.619 471.782L437.627 471.782L437.627 470.382ZM444.089 468.16L439.619 464.702L439.619 468.16L444.089 468.16ZM441.439 482.17C439.392 482.17 437.888 481.811 436.928 481.092C435.967 480.373 435.487 479.248 435.487 477.717C435.487 476.196 435.967 475.077 436.928 474.358C437.888 473.639 439.386 473.28 441.422 473.28C443.458 473.28 444.959 473.639 445.925 474.358C446.891 475.077 447.374 476.196 447.374 477.717C447.374 479.248 446.893 480.373 445.933 481.092C444.973 481.811 443.475 482.17 441.439 482.17ZM441.439 479.775C442.8 479.775 443.796 479.607 444.427 479.272C445.063 478.943 445.382 478.425 445.382 477.717C445.382 477.009 445.061 476.49 444.418 476.161C443.782 475.837 442.783 475.675 441.422 475.675C440.061 475.675 439.062 475.837 438.426 476.161C437.795 476.49 437.479 477.009 437.479 477.717C437.479 478.425 437.797 478.943 438.434 479.272C439.076 479.607 440.078 479.775 441.439 479.775ZM441.439 492.707C439.392 492.707 437.888 492.347 436.928 491.628C435.967 490.909 435.487 489.784 435.487 488.253C435.487 486.733 435.967 485.614 436.928 484.895C437.888 484.176 439.386 483.816 441.422 483.816C443.458 483.816 444.959 484.176 445.925 484.895C446.891 485.614 447.374 486.733 447.374 488.253C447.374 489.784 446.893 490.909 445.933 491.628C444.973 492.347 443.475 492.707 441.439 492.707ZM441.439 490.311C442.8 490.311 443.796 490.144 444.427 489.809C445.063 489.48 445.382 488.961 445.382 488.253C445.382 487.545 445.061 487.027 444.418 486.697C443.782 486.374 442.783 486.212 441.422 486.212C440.061 486.212 439.062 486.374 438.426 486.697C437.795 487.027 437.479 487.545 437.479 488.253C437.479 488.961 437.797 489.48 438.434 489.809C439.076 490.144 440.078 490.311 441.439 490.311ZM441.439 503.243C439.392 503.243 437.888 502.884 436.928 502.165C435.967 501.446 435.487 500.321 435.487 498.79C435.487 497.27 435.967 496.15 436.928 495.431C437.888 494.712 439.386 494.353 441.422 494.353C443.458 494.353 444.959 494.712 445.925 495.431C446.891 496.15 447.374 497.27 447.374 498.79C447.374 500.321 446.893 501.446 445.933 502.165C444.973 502.884 443.475 503.243 441.439 503.243ZM441.439 500.848C442.8 500.848 443.796 500.68 444.427 500.346C445.063 500.016 445.382 499.498 445.382 498.79C445.382 498.082 445.061 497.563 444.418 497.234C443.782 496.91 442.783 496.748 441.422 496.748C440.061 496.748 439.062 496.91 438.426 497.234C437.795 497.563 437.479 498.082 437.479 498.79C437.479 499.498 437.797 500.016 438.434 500.346C439.076 500.68 440.078 500.848 441.439 500.848ZM440.121 517.369C439.194 517.369 438.376 517.229 437.668 516.949C436.961 516.669 436.42 516.268 436.047 515.747C435.674 515.226 435.487 514.603 435.487 513.879C435.487 512.924 435.786 512.109 436.384 511.434L432.491 511.434L432.491 509.31L444.377 509.31L444.377 511.269L443.529 511.269C443.87 511.664 444.136 512.079 444.328 512.512C444.525 512.951 444.624 513.453 444.624 514.018C444.624 515.111 444.24 515.942 443.472 516.513C442.704 517.083 441.587 517.369 440.121 517.369ZM440.089 515.179C440.928 515.179 441.581 515.034 442.048 514.743C442.52 514.452 442.756 514.018 442.756 513.442C442.756 513.097 442.673 512.74 442.509 512.372C442.35 512.01 442.152 511.697 441.916 511.434L438.138 511.434C437.935 511.659 437.753 511.936 437.594 512.265C437.441 512.6 437.364 512.943 437.364 513.294C437.364 513.876 437.611 514.334 438.105 514.669C438.604 515.009 439.265 515.179 440.089 515.179ZM436.936 521.888C436.464 521.888 436.126 521.781 435.923 521.567C435.726 521.353 435.627 521.01 435.627 520.538C435.627 520.022 435.739 519.671 435.964 519.484C436.189 519.298 436.513 519.204 436.936 519.204C437.386 519.204 437.718 519.303 437.932 519.501C438.146 519.698 438.253 520.044 438.253 520.538C438.253 521.043 438.149 521.394 437.94 521.592C437.732 521.789 437.397 521.888 436.936 521.888Z" fill="black"/>
</g>
<defs>
<clipPath id="clip0_492_11252">
<rect width="690" height="505" fill="white" transform="translate(505 2.20743e-05) rotate(90)"/>
</clipPath>
</defs>
</svg>
