<svg width="505" height="690" viewBox="0 0 505 690" fill="none" xmlns="http://www.w3.org/2000/svg">
<g clip-path="url(#clip0_492_11582)">
<rect width="690" height="505" transform="translate(505 2.20743e-05) rotate(90)" fill="white"/>
<circle cx="91.9659" cy="131.153" r="42.1464" transform="rotate(90 91.9659 131.153)" stroke="#BA402A" stroke-width="2.69737"/>
<circle cx="3.03454" cy="3.03454" r="1.68585" transform="matrix(4.37114e-08 -1 -1 -4.37114e-08 94.9961 134.188)" fill="#BA402A" stroke="#BA402A" stroke-width="2.69737"/>
<line x1="142.199" y1="124.069" x2="134.107" y2="124.069" stroke="#BA402A" stroke-width="2.69737"/>
<line x1="49.8203" y1="124.069" x2="41.7282" y2="124.069" stroke="#BA402A" stroke-width="2.69737"/>
<line x1="103.09" y1="126.097" x2="92.9747" y2="126.097" stroke="#BA402A" stroke-width="2.69737"/>
<line x1="88.9336" y1="126.097" x2="80.8415" y2="126.097" stroke="#BA402A" stroke-width="2.69737"/>
<line x1="142.199" y1="141.605" x2="134.107" y2="141.605" stroke="#BA402A" stroke-width="2.69737"/>
<line x1="49.8203" y1="141.605" x2="41.7282" y2="141.605" stroke="#BA402A" stroke-width="2.69737"/>
<line x1="103.09" y1="138.235" x2="94.9978" y2="138.235" stroke="#BA402A" stroke-width="2.69737"/>
<line x1="94.3271" y1="149.695" x2="94.3271" y2="136.883" stroke="#BA402A" stroke-width="2.69737"/>
<line x1="94.3271" y1="125.42" x2="94.3271" y2="112.607" stroke="#BA402A" stroke-width="2.69737"/>
<line x1="87.5849" y1="149.695" x2="87.5849" y2="136.883" stroke="#BA402A" stroke-width="2.69737"/>
<line x1="87.5849" y1="125.42" x2="87.5849" y2="112.607" stroke="#BA402A" stroke-width="2.69737"/>
<line x1="88.9336" y1="138.235" x2="80.8415" y2="138.235" stroke="#BA402A" stroke-width="2.69737"/>
<circle cx="91.9659" cy="560.032" r="42.1464" transform="rotate(90 91.9659 560.032)" stroke="#BA402A" stroke-width="2.69737"/>
<circle cx="3.03454" cy="3.03454" r="1.68585" transform="matrix(4.37114e-08 -1 -1 -4.37114e-08 94.9961 563.066)" fill="#BA402A" stroke="#BA402A" stroke-width="2.69737"/>
<line x1="142.199" y1="552.952" x2="134.107" y2="552.952" stroke="#BA402A" stroke-width="2.69737"/>
<line x1="49.8203" y1="552.952" x2="41.7282" y2="552.952" stroke="#BA402A" stroke-width="2.69737"/>
<line x1="103.09" y1="554.976" x2="92.9747" y2="554.976" stroke="#BA402A" stroke-width="2.69737"/>
<line x1="88.9336" y1="554.976" x2="80.8415" y2="554.976" stroke="#BA402A" stroke-width="2.69737"/>
<line x1="142.199" y1="570.483" x2="134.107" y2="570.483" stroke="#BA402A" stroke-width="2.69737"/>
<line x1="49.8203" y1="570.483" x2="41.7282" y2="570.483" stroke="#BA402A" stroke-width="2.69737"/>
<line x1="103.09" y1="567.11" x2="94.9978" y2="567.11" stroke="#BA402A" stroke-width="2.69737"/>
<line x1="94.3271" y1="578.578" x2="94.3271" y2="565.766" stroke="#BA402A" stroke-width="2.69737"/>
<line x1="94.3271" y1="554.299" x2="94.3271" y2="541.486" stroke="#BA402A" stroke-width="2.69737"/>
<line x1="87.5849" y1="578.578" x2="87.5849" y2="565.766" stroke="#BA402A" stroke-width="2.69737"/>
<line x1="87.5849" y1="554.299" x2="87.5849" y2="541.486" stroke="#BA402A" stroke-width="2.69737"/>
<line x1="88.9336" y1="567.11" x2="80.8415" y2="567.11" stroke="#BA402A" stroke-width="2.69737"/>
<circle cx="280.107" cy="131.153" r="42.1464" transform="rotate(90 280.107 131.153)" stroke="#BA402A" stroke-width="2.69737"/>
<circle cx="3.03454" cy="3.03454" r="1.68585" transform="matrix(4.37114e-08 -1 -1 -4.37114e-08 283.141 134.188)" fill="#BA402A" stroke="#BA402A" stroke-width="2.69737"/>
<line x1="330.344" y1="124.069" x2="322.252" y2="124.069" stroke="#BA402A" stroke-width="2.69737"/>
<line x1="237.961" y1="124.069" x2="229.869" y2="124.069" stroke="#BA402A" stroke-width="2.69737"/>
<line x1="291.23" y1="124.069" x2="283.138" y2="124.069" stroke="#BA402A" stroke-width="2.69737"/>
<line x1="277.074" y1="124.745" x2="268.982" y2="124.745" stroke="#BA402A" stroke-width="2.69737"/>
<line x1="330.344" y1="141.605" x2="322.252" y2="141.605" stroke="#BA402A" stroke-width="2.69737"/>
<line x1="237.961" y1="141.605" x2="229.869" y2="141.605" stroke="#BA402A" stroke-width="2.69737"/>
<line x1="291.23" y1="138.911" x2="283.138" y2="138.911" stroke="#BA402A" stroke-width="2.69737"/>
<line x1="282.468" y1="150.371" x2="282.468" y2="137.559" stroke="#BA402A" stroke-width="2.69737"/>
<line x1="282.468" y1="125.42" x2="282.468" y2="112.607" stroke="#BA402A" stroke-width="2.69737"/>
<line x1="275.726" y1="150.371" x2="275.726" y2="137.559" stroke="#BA402A" stroke-width="2.69737"/>
<line x1="275.726" y1="126.092" x2="275.726" y2="113.279" stroke="#BA402A" stroke-width="2.69737"/>
<line x1="277.074" y1="138.235" x2="268.982" y2="138.235" stroke="#BA402A" stroke-width="2.69737"/>
<circle cx="280.107" cy="560.032" r="42.1464" transform="rotate(90 280.107 560.032)" stroke="#BA402A" stroke-width="2.69737"/>
<circle cx="3.03454" cy="3.03454" r="1.68585" transform="matrix(4.37114e-08 -1 -1 -4.37114e-08 283.141 563.066)" fill="#BA402A" stroke="#BA402A" stroke-width="2.69737"/>
<line x1="330.344" y1="552.952" x2="322.252" y2="552.952" stroke="#BA402A" stroke-width="2.69737"/>
<line x1="237.961" y1="552.952" x2="229.869" y2="552.952" stroke="#BA402A" stroke-width="2.69737"/>
<line x1="291.23" y1="552.952" x2="283.138" y2="552.952" stroke="#BA402A" stroke-width="2.69737"/>
<line x1="277.074" y1="553.624" x2="268.982" y2="553.624" stroke="#BA402A" stroke-width="2.69737"/>
<line x1="330.344" y1="570.483" x2="322.252" y2="570.483" stroke="#BA402A" stroke-width="2.69737"/>
<line x1="237.961" y1="570.483" x2="229.869" y2="570.483" stroke="#BA402A" stroke-width="2.69737"/>
<line x1="291.23" y1="567.79" x2="283.138" y2="567.79" stroke="#BA402A" stroke-width="2.69737"/>
<line x1="282.468" y1="579.254" x2="282.468" y2="566.441" stroke="#BA402A" stroke-width="2.69737"/>
<line x1="282.468" y1="554.299" x2="282.468" y2="541.486" stroke="#BA402A" stroke-width="2.69737"/>
<line x1="275.726" y1="579.254" x2="275.726" y2="566.441" stroke="#BA402A" stroke-width="2.69737"/>
<line x1="275.726" y1="554.979" x2="275.726" y2="542.166" stroke="#BA402A" stroke-width="2.69737"/>
<line x1="277.074" y1="567.11" x2="268.982" y2="567.11" stroke="#BA402A" stroke-width="2.69737"/>
<rect x="362.711" y="252.869" width="5.39474" height="352.007" transform="rotate(90 362.711 252.869)" fill="#5060C4"/>
<rect x="177.27" y="342.557" width="5.39474" height="166.562" transform="rotate(90 177.27 342.557)" fill="#BA402A"/>
<rect x="362.711" y="342.557" width="5.39474" height="166.562" transform="rotate(90 362.711 342.557)" fill="#BA402A"/>
<rect x="362.711" y="431.572" width="5.39474" height="352.007" transform="rotate(90 362.711 431.572)" fill="#5060C4"/>
<circle cx="3.03454" cy="3.03454" r="3.03454" transform="matrix(4.37114e-08 -1 -1 -4.37114e-08 94.9961 275.803)" fill="#BA402A"/>
<circle cx="3.03454" cy="3.03454" r="2.3602" transform="matrix(4.37114e-08 -1 -1 -4.37114e-08 190.082 347.959)" fill="#1A1A1A" stroke="#1A1A1A" stroke-width="1.34868"/>
<circle cx="3.03454" cy="3.03454" r="3.03454" transform="matrix(4.37114e-08 -1 -1 -4.37114e-08 283.141 275.803)" fill="#BA402A"/>
<circle cx="3.03454" cy="3.03454" r="3.03454" transform="matrix(4.37114e-08 -1 -1 -4.37114e-08 94.9961 420.787)" fill="#BA402A"/>
<circle cx="3.03454" cy="3.03454" r="3.03454" transform="matrix(4.37114e-08 -1 -1 -4.37114e-08 283.141 420.787)" fill="#BA402A"/>
<mask id="mask0_492_11582" style="mask-type:alpha" maskUnits="userSpaceOnUse" x="142" y="64" width="83" height="44">
<rect x="224.473" y="64.7324" width="43.1579" height="82.2697" transform="rotate(90 224.473 64.7324)" fill="#C9DEF2"/>
</mask>
<g mask="url(#mask0_492_11582)">
<circle cx="186.035" cy="64.7311" r="27.9852" transform="rotate(90 186.035 64.7311)" fill="#C9DEF2" stroke="#BA402A" stroke-width="2.02303"/>
</g>
<mask id="mask1_492_11582" style="mask-type:alpha" maskUnits="userSpaceOnUse" x="12" y="307" width="44" height="83">
<rect x="12.7266" y="307.494" width="43.1579" height="82.2697" fill="#C9DEF2"/>
</mask>
<g mask="url(#mask1_492_11582)">
<circle cx="12.7311" cy="345.93" r="27.9852" stroke="#BA402A" stroke-width="2.02303"/>
</g>
<mask id="mask2_492_11582" style="mask-type:alpha" maskUnits="userSpaceOnUse" x="142" y="581" width="83" height="45">
<rect x="-0.337171" y="-0.337171" width="42.4836" height="81.5954" transform="matrix(4.37114e-08 -1 -1 -4.37114e-08 223.798 624.433)" fill="#C9DEF2" stroke="#C2526A" stroke-width="0.674342"/>
</mask>
<g mask="url(#mask2_492_11582)">
<circle cx="28.9967" cy="28.9967" r="27.9852" transform="matrix(4.37114e-08 -1 -1 -4.37114e-08 215.031 654.102)" fill="#C9DEF2" stroke="#BA402A" stroke-width="2.02303"/>
</g>
<circle cx="187.044" cy="344.921" r="43.4951" transform="rotate(90 187.044 344.921)" stroke="#1A1A1A" stroke-width="4.04605"/>
<rect x="351.25" y="63.3789" width="2.69737" height="329.079" transform="rotate(90 351.25 63.3789)" fill="#BA402A"/>
<rect width="2.69737" height="329.079" transform="matrix(4.37114e-08 -1 -1 -4.37114e-08 351.25 626.457)" fill="#BA402A"/>
<rect x="370.132" y="4.04381" width="681.76" height="366.168" rx="113.29" transform="rotate(90 370.132 4.04381)" stroke="#95D0EB" stroke-width="8.09211"/>
<rect x="363.726" y="10.4501" width="668.947" height="353.355" rx="106.883" transform="rotate(90 363.726 10.4501)" stroke="#5060C4" stroke-width="4.7204"/>
<rect x="359.34" y="260.297" width="169.26" height="344.589" transform="rotate(90 359.34 260.297)" fill="#D2C8FA" fill-opacity="0.61"/>
<rect x="505" y="260.295" width="169.26" height="117.336" transform="rotate(90 505 260.295)" fill="#D2C8FA" fill-opacity="0.61"/>
<path d="M463.84 304.645C463.256 304.254 462.826 303.773 462.549 303.202C462.277 302.636 462.141 301.938 462.141 301.108C462.141 298.285 463.724 296.874 466.889 296.874C468.509 296.874 469.705 297.232 470.478 297.947C471.251 298.663 471.637 299.695 471.637 301.042C471.637 301.934 471.486 302.66 471.183 303.222C470.884 303.784 470.491 304.212 470.004 304.506L468.885 303.064C469.201 302.853 469.429 302.66 469.569 302.485C469.71 302.309 469.815 302.109 469.885 301.885C469.956 301.661 469.991 301.394 469.991 301.082C469.991 300.336 469.752 299.767 469.273 299.376C468.799 298.986 468.004 298.79 466.889 298.79C465.849 298.79 465.072 298.972 464.558 299.337C464.044 299.706 463.787 300.292 463.787 301.095C463.787 301.635 463.891 302.054 464.097 302.353C464.303 302.656 464.578 302.93 464.92 303.176L463.84 304.645ZM468.391 312.672C467.293 312.672 466.479 312.413 465.947 311.895C465.416 311.381 465.151 310.545 465.151 309.386L465.151 307.871L462.332 307.871L462.332 306.014L471.446 306.014L471.446 309.439C471.446 310.47 471.205 311.267 470.722 311.829C470.243 312.391 469.466 312.672 468.391 312.672ZM468.377 310.756C468.891 310.756 469.262 310.613 469.49 310.328C469.719 310.047 469.833 309.538 469.833 308.8L469.833 307.871L466.771 307.871L466.771 308.629C466.771 309.309 466.817 309.779 466.909 310.038C467.005 310.301 467.166 310.486 467.39 310.591C467.614 310.701 467.943 310.756 468.377 310.756ZM462.332 314.18L471.446 314.18L471.446 320.1L469.806 320.1L469.806 316.037L467.864 316.037L467.864 319.462L466.217 319.462L466.217 316.037L464.031 316.037L464.031 320.1L462.332 320.1L462.332 314.18ZM460.712 320.943L463.853 320.943L463.853 321.78C464.876 322.241 466.013 322.574 467.265 322.781C468.516 322.991 469.91 323.097 471.446 323.097L471.446 328.477L463.853 328.477L463.853 329.557L460.712 329.557L460.712 327.7L462.332 327.7L462.332 322.8L460.712 322.8L460.712 320.943ZM469.899 326.633L469.899 324.783C468.494 324.721 467.289 324.568 466.283 324.322C465.278 324.08 464.479 323.848 463.886 323.624L463.886 326.633L469.899 326.633ZM462.332 336.169L466.204 336.169L466.204 332.58L462.332 332.58L462.332 330.723L471.446 330.723L471.446 332.58L467.903 332.58L467.903 336.169L471.446 336.169L471.446 338.032L462.332 338.032L462.332 336.169ZM462.332 339.238L466 341.674C466.119 341.081 466.408 340.618 466.869 340.285C467.335 339.955 467.958 339.791 468.74 339.791C469.701 339.791 470.393 340.059 470.814 340.594C471.235 341.134 471.446 341.995 471.446 343.176L471.446 346.495L462.332 346.495L462.332 344.631L465.783 344.631L465.783 343.689L462.332 341.365L462.332 339.238ZM468.661 341.674C468.314 341.674 468.057 341.722 467.89 341.819C467.723 341.92 467.6 342.082 467.521 342.306C467.442 342.53 467.403 342.851 467.403 343.268L467.403 344.631L469.833 344.631L469.833 343.189C469.833 342.649 469.754 342.26 469.596 342.023C469.438 341.79 469.126 341.674 468.661 341.674ZM462.332 347.693L466 350.13C466.119 349.537 466.408 349.074 466.869 348.74C467.335 348.411 467.958 348.246 468.74 348.246C469.701 348.246 470.393 348.514 470.814 349.05C471.235 349.59 471.446 350.45 471.446 351.631L471.446 354.95L462.332 354.95L462.332 353.087L465.783 353.087L465.783 352.145L462.332 349.82L462.332 347.693ZM468.661 350.13C468.314 350.13 468.057 350.178 467.89 350.275C467.723 350.376 467.6 350.538 467.521 350.762C467.442 350.986 467.403 351.306 467.403 351.723L467.403 353.087L469.833 353.087L469.833 351.644C469.833 351.104 469.754 350.716 469.596 350.479C469.438 350.246 469.126 350.13 468.661 350.13ZM464.933 360.91C464.082 361.402 463.656 362.1 463.656 363.004C463.656 363.47 463.776 363.858 464.018 364.17C464.259 364.486 464.582 364.644 464.986 364.644C465.429 364.644 465.752 364.532 465.954 364.308C466.156 364.084 466.257 363.715 466.257 363.202L466.257 361.272L467.791 361.272L467.791 363.301C467.791 363.691 467.895 363.99 468.101 364.196C468.312 364.407 468.619 364.512 469.023 364.512C469.352 364.512 469.618 364.359 469.82 364.051C470.026 363.744 470.129 363.358 470.129 362.892C470.129 362.55 470.074 362.199 469.965 361.839C469.859 361.483 469.648 361.083 469.332 360.64L470.669 359.712C471.315 360.598 471.637 361.681 471.637 362.958C471.637 363.7 471.536 364.334 471.334 364.861C471.132 365.392 470.836 365.794 470.445 366.066C470.059 366.343 469.598 366.481 469.062 366.481C468.549 366.481 468.107 366.352 467.739 366.093C467.37 365.838 467.12 365.522 466.988 365.144C466.571 366.115 465.89 366.6 464.946 366.6C464.024 366.6 463.326 366.29 462.852 365.671C462.378 365.052 462.141 364.176 462.141 363.044C462.141 362.21 462.29 361.494 462.589 360.897C462.892 360.3 463.373 359.797 464.031 359.389L464.933 360.91ZM466.889 375.609C465.304 375.609 464.117 375.273 463.326 374.601C462.536 373.934 462.141 372.961 462.141 371.684C462.141 370.336 462.556 369.344 463.386 368.707C464.22 368.075 465.388 367.759 466.889 367.759C468.399 367.759 469.567 368.075 470.393 368.707C471.222 369.344 471.637 370.336 471.637 371.684C471.637 373.04 471.222 374.032 470.393 374.66C469.567 375.292 468.399 375.609 466.889 375.609ZM466.889 373.692C467.969 373.692 468.755 373.539 469.247 373.231C469.743 372.928 469.991 372.412 469.991 371.684C469.991 370.955 469.743 370.437 469.247 370.13C468.755 369.827 467.969 369.675 466.889 369.675C465.809 369.675 465.021 369.829 464.525 370.136C464.033 370.448 463.787 370.964 463.787 371.684C463.787 372.412 464.033 372.928 464.525 373.231C465.021 373.539 465.809 373.692 466.889 373.692ZM462.332 382.609L466.204 382.609L466.204 379.02L462.332 379.02L462.332 377.163L471.446 377.163L471.446 379.02L467.903 379.02L467.903 382.609L471.446 382.609L471.446 384.473L462.332 384.473L462.332 382.609ZM462.332 385.638L471.446 388.654L471.446 391.071L462.332 394.094L462.332 392.191L464.183 391.585L464.183 388.075L462.332 387.482L462.332 385.638ZM465.809 388.602L465.809 391.058L469.576 389.833L465.809 388.602Z" fill="black"/>
<path d="M413.453 289.33L421.007 289.33L415.936 286.808L415.936 286.051L421.007 283.555L413.453 283.555L413.453 282.396L422.567 282.396L422.567 284.042L417.609 286.459L422.567 288.896L422.567 290.489L413.453 290.489L413.453 289.33ZM413.453 296.739L414.316 296.739C414.009 296.388 413.754 296.034 413.552 295.679C413.35 295.323 413.249 294.921 413.249 294.473C413.249 293.815 413.449 293.306 413.848 292.946C414.252 292.59 414.768 292.412 415.396 292.412C415.87 292.412 416.263 292.504 416.575 292.689C416.891 292.878 417.139 293.148 417.319 293.499C417.503 293.854 417.635 294.368 417.714 295.04L417.865 296.739L418.201 296.739C418.732 296.739 419.095 296.59 419.288 296.291C419.481 295.997 419.578 295.589 419.578 295.066C419.578 294.601 419.496 294.241 419.334 293.986C419.171 293.736 418.996 293.556 418.807 293.446L419.373 292.518C419.755 292.728 420.047 293.049 420.249 293.479C420.456 293.914 420.559 294.451 420.559 295.092C420.559 296.085 420.379 296.796 420.019 297.226C419.659 297.656 419.035 297.871 418.149 297.871L413.453 297.871L413.453 296.739ZM416.957 296.739L416.851 295.632C416.785 294.882 416.638 294.353 416.41 294.045C416.186 293.738 415.857 293.584 415.422 293.584C415.009 293.584 414.713 293.688 414.533 293.894C414.353 294.1 414.263 294.41 414.263 294.822C414.263 294.994 414.294 295.163 414.355 295.33C414.421 295.496 414.5 295.661 414.592 295.823C414.689 295.986 414.797 296.142 414.915 296.291C415.038 296.445 415.157 296.594 415.271 296.739L416.957 296.739ZM420.361 301.164L417.418 301.164L417.418 302.132C417.418 302.391 417.51 302.611 417.694 302.791C417.879 302.971 418.188 303.149 418.623 303.324C419.062 303.504 419.641 303.678 420.361 303.844L420.361 304.997C419.61 304.83 418.994 304.652 418.511 304.463C418.028 304.279 417.67 304.095 417.437 303.91C417.205 303.73 417.055 303.502 416.99 303.225C416.893 303.555 416.737 303.822 416.522 304.029C416.307 304.235 415.984 304.424 415.554 304.595C415.128 304.766 414.428 304.975 413.453 305.221L413.453 304.075C413.993 303.921 414.454 303.783 414.836 303.66C415.218 303.541 415.528 303.41 415.765 303.265C416.006 303.124 416.179 302.958 416.285 302.764C416.395 302.571 416.449 302.325 416.449 302.027L416.449 301.164L413.453 301.164L413.453 300.058L420.361 300.058L420.361 301.164ZM414.52 311.688C414.151 311.472 413.846 311.174 413.605 310.792C413.368 310.41 413.249 309.883 413.249 309.211C413.249 308.197 413.554 307.433 414.164 306.92C414.779 306.406 415.688 306.149 416.891 306.149C418.094 306.149 419.005 306.404 419.624 306.913C420.247 307.422 420.559 308.173 420.559 309.165C420.559 310.302 420.137 311.112 419.294 311.595L418.728 310.667C418.996 310.496 419.204 310.294 419.354 310.061C419.503 309.833 419.578 309.53 419.578 309.152C419.578 308.489 419.336 308.017 418.853 307.736C418.375 307.46 417.712 307.321 416.864 307.321C416.219 307.321 415.716 307.387 415.356 307.519C414.996 307.651 414.72 307.855 414.527 308.131C414.333 308.412 414.237 308.768 414.237 309.198C414.237 309.567 414.305 309.868 414.441 310.1C414.581 310.333 414.797 310.553 415.086 310.759L414.52 311.688ZM413.453 314.48L413.453 313.281L420.361 313.281L420.361 314.348L414.909 314.348L420.361 317.733L420.361 318.879L413.453 318.879L413.453 317.812L418.794 317.812L413.453 314.48ZM413.453 327.512L413.453 326.445L418.715 326.445L415.271 324.569L415.271 324.002L418.715 322.185L413.453 322.185L413.453 321.118L420.361 321.118L420.361 322.303L416.812 324.312L420.361 326.34L420.361 327.512L413.453 327.512ZM411.985 328.895C411.857 329.181 411.794 329.512 411.794 329.89C411.794 330.421 412.274 330.871 413.236 331.24L413.829 331.47L420.361 328.948L420.361 330.173L415.304 332.076L420.361 333.992L420.361 335.178L412.926 332.227C412.167 331.916 411.631 331.582 411.319 331.226C411.008 330.871 410.852 330.408 410.852 329.837C410.852 329.631 410.872 329.411 410.911 329.178C410.951 328.946 410.997 328.757 411.049 328.612L411.985 328.895ZM413.453 343.001L413.453 341.934L418.715 341.934L415.271 340.057L415.271 339.491L418.715 337.673L413.453 337.673L413.453 336.607L420.361 336.607L420.361 337.792L416.812 339.801L420.361 341.829L420.361 343.001L413.453 343.001ZM416.449 355.019C415.457 355.019 414.678 354.701 414.112 354.064C413.545 353.432 413.262 352.519 413.262 351.325C413.262 349.837 413.763 348.761 414.764 348.098L415.811 349.58C415.218 349.918 414.922 350.491 414.922 351.299C414.922 352.51 415.444 353.116 416.489 353.116C416.928 353.116 417.273 352.956 417.523 352.635C417.778 352.319 417.905 351.878 417.905 351.312C417.905 350.706 417.742 350.247 417.418 349.935L417.418 348.638L422.567 349.178L422.567 354.506L420.868 354.506L420.868 350.66L419.268 350.475C419.439 350.893 419.525 351.356 419.525 351.865C419.525 352.84 419.264 353.608 418.741 354.17C418.219 354.736 417.455 355.019 416.449 355.019ZM420.361 359.893L420.361 360.999L418.59 360.999C418.037 360.999 417.617 361.032 417.332 361.098C417.051 361.163 416.853 361.271 416.739 361.42C416.625 361.574 416.568 361.802 416.568 362.105C416.568 362.601 416.735 363.266 417.069 364.101L420.361 364.101L420.361 365.207L413.453 365.207L413.453 364.101L416.094 364.101L415.896 363.554C415.633 362.856 415.501 362.292 415.501 361.862C415.501 361.181 415.723 360.683 416.166 360.367C416.61 360.051 417.284 359.893 418.188 359.893L420.361 359.893ZM416.772 368.276C415.859 368.276 415.207 368.432 414.816 368.743C414.43 369.055 414.237 369.555 414.237 370.245C414.237 370.552 414.3 370.822 414.428 371.055C414.559 371.287 414.77 371.511 415.06 371.726L414.48 372.662C414.085 372.398 413.78 372.078 413.565 371.7C413.354 371.323 413.249 370.811 413.249 370.166C413.249 369.138 413.548 368.37 414.145 367.861C414.742 367.356 415.644 367.104 416.851 367.104C418.116 367.104 419.049 367.349 419.65 367.841C420.256 368.337 420.559 369.084 420.559 370.08C420.559 370.976 420.3 371.647 419.782 372.095C419.268 372.543 418.476 372.767 417.404 372.767L416.772 372.767L416.772 368.276ZM417.661 371.661C418.28 371.652 418.761 371.52 419.103 371.265C419.446 371.015 419.617 370.607 419.617 370.041C419.617 369.501 419.461 369.094 419.15 368.822C418.842 368.554 418.346 368.377 417.661 368.289L417.661 371.661ZM419.426 376.586L418.945 376.586C417.826 376.586 416.834 376.49 415.969 376.297C415.108 376.108 414.456 375.838 414.013 375.487C413.569 375.14 413.348 374.729 413.348 374.255C413.348 374.145 413.361 374.014 413.387 373.86C413.414 373.711 413.44 373.599 413.466 373.524L414.454 373.742C414.423 373.904 414.408 374.042 414.408 374.156C414.408 375.056 416.05 375.506 419.334 375.506L420.361 375.506L420.361 379.517L413.453 379.517L413.453 378.411L419.426 378.411L419.426 376.586ZM416.891 387.485C415.692 387.485 414.786 387.226 414.171 386.708C413.556 386.195 413.249 385.444 413.249 384.456C413.249 383.468 413.552 382.713 414.158 382.191C414.768 381.668 415.679 381.407 416.891 381.407C418.124 381.407 419.044 381.668 419.65 382.191C420.256 382.717 420.559 383.473 420.559 384.456C420.559 385.448 420.249 386.201 419.63 386.715C419.016 387.228 418.102 387.485 416.891 387.485ZM416.891 386.313C417.83 386.313 418.513 386.157 418.939 385.845C419.365 385.538 419.578 385.075 419.578 384.456C419.578 383.819 419.362 383.347 418.932 383.04C418.506 382.733 417.826 382.579 416.891 382.579C415.991 382.579 415.323 382.726 414.889 383.02C414.454 383.319 414.237 383.797 414.237 384.456C414.237 385.084 414.452 385.549 414.882 385.852C415.312 386.159 415.982 386.313 416.891 386.313ZM415.554 394.815C414.812 394.815 414.276 394.562 413.947 394.057C413.618 393.557 413.453 392.822 413.453 391.851L413.453 389.382L420.361 389.382L420.361 391.825C420.361 392.817 420.24 393.511 419.999 393.906C419.758 394.305 419.338 394.505 418.741 394.505C417.938 394.505 417.393 394.15 417.108 393.438C417.003 393.913 416.827 394.259 416.581 394.479C416.335 394.703 415.993 394.815 415.554 394.815ZM418.563 393.373C418.95 393.373 419.198 393.241 419.308 392.977C419.422 392.718 419.479 392.321 419.479 391.785L419.479 390.488L417.431 390.488L417.431 391.7C417.431 392.815 417.808 393.373 418.563 393.373ZM415.528 393.656C415.927 393.656 416.195 393.524 416.331 393.261C416.471 393.002 416.542 392.554 416.542 391.917L416.542 390.488L414.355 390.488L414.355 391.456C414.355 392.185 414.43 392.734 414.579 393.103C414.729 393.471 415.045 393.656 415.528 393.656ZM416.772 397.436C415.859 397.436 415.207 397.592 414.816 397.903C414.43 398.215 414.237 398.715 414.237 399.405C414.237 399.712 414.3 399.982 414.428 400.215C414.559 400.447 414.77 400.671 415.06 400.886L414.48 401.822C414.085 401.558 413.78 401.238 413.565 400.86C413.354 400.483 413.249 399.971 413.249 399.326C413.249 398.298 413.548 397.53 414.145 397.021C414.742 396.516 415.644 396.264 416.851 396.264C418.116 396.264 419.049 396.509 419.65 397.001C420.256 397.497 420.559 398.244 420.559 399.24C420.559 400.136 420.3 400.807 419.782 401.255C419.268 401.703 418.476 401.927 417.404 401.927L416.772 401.927L416.772 397.436ZM417.661 400.821C418.28 400.812 418.761 400.68 419.103 400.426C419.446 400.175 419.617 399.767 419.617 399.201C419.617 398.661 419.461 398.255 419.149 397.982C418.842 397.715 418.346 397.537 417.661 397.449L417.661 400.821ZM420.361 404.844L417.418 404.844L417.418 405.812C417.418 406.071 417.51 406.291 417.694 406.471C417.879 406.651 418.188 406.829 418.623 407.004C419.062 407.184 419.641 407.358 420.361 407.525L420.361 408.677C419.61 408.51 418.994 408.332 418.511 408.144C418.028 407.959 417.67 407.775 417.437 407.59C417.205 407.41 417.055 407.182 416.989 406.906C416.893 407.235 416.737 407.503 416.522 407.709C416.307 407.915 415.984 408.104 415.554 408.275C415.128 408.446 414.428 408.655 413.453 408.901L413.453 407.755C413.993 407.601 414.454 407.463 414.836 407.34C415.218 407.222 415.528 407.09 415.765 406.945C416.006 406.805 416.179 406.638 416.285 406.445C416.395 406.251 416.449 406.006 416.449 405.707L416.449 404.844L413.453 404.844L413.453 403.738L420.361 403.738L420.361 404.844Z" fill="black"/>
<path d="M435.75 315.785L437.693 315.785C438.445 316.679 439.163 317.494 439.849 318.23C440.535 318.965 441.103 319.533 441.553 319.933C442.009 320.334 442.442 320.644 442.854 320.864C443.271 321.089 443.707 321.201 444.163 321.201C444.52 321.201 444.802 321.067 445.011 320.798C445.219 320.529 445.324 320.158 445.324 319.687C445.324 319.176 445.206 318.759 444.97 318.435C444.734 318.112 444.454 317.843 444.13 317.629L445.447 315.752C446.144 316.218 446.641 316.77 446.937 317.406C447.233 318.048 447.381 318.847 447.381 319.802C447.381 320.976 447.107 321.901 446.558 322.576C446.009 323.256 445.238 323.597 444.245 323.597C443.515 323.597 442.873 323.462 442.319 323.193C441.77 322.93 441.235 322.551 440.714 322.057C440.198 321.569 439.627 320.957 439.002 320.222C438.376 319.492 438 319.042 437.874 318.872L437.874 323.967L435.75 323.967L435.75 315.785ZM441.446 334.537C439.399 334.537 437.896 334.177 436.935 333.458C435.975 332.739 435.495 331.614 435.495 330.083C435.495 328.563 435.975 327.444 436.935 326.725C437.896 326.006 439.394 325.646 441.43 325.646C443.466 325.646 444.967 326.006 445.933 326.725C446.899 327.444 447.381 328.563 447.381 330.083C447.381 331.614 446.901 332.739 445.941 333.458C444.981 334.177 443.482 334.537 441.446 334.537ZM441.446 332.141C442.807 332.141 443.803 331.974 444.434 331.639C445.071 331.31 445.389 330.791 445.389 330.083C445.389 329.375 445.068 328.857 444.426 328.527C443.79 328.204 442.791 328.042 441.43 328.042C440.069 328.042 439.07 328.204 438.434 328.527C437.802 328.857 437.487 329.375 437.487 330.083C437.487 330.791 437.805 331.31 438.442 331.639C439.084 331.974 440.085 332.141 441.446 332.141ZM441.446 345.073C439.399 345.073 437.896 344.714 436.935 343.995C435.975 343.276 435.495 342.151 435.495 340.62C435.495 339.1 435.975 337.98 436.935 337.261C437.896 336.542 439.394 336.183 441.43 336.183C443.466 336.183 444.967 336.542 445.933 337.261C446.899 337.98 447.381 339.1 447.381 340.62C447.381 342.151 446.901 343.276 445.941 343.995C444.981 344.714 443.482 345.073 441.446 345.073ZM441.446 342.678C442.807 342.678 443.803 342.51 444.434 342.176C445.071 341.846 445.389 341.328 445.389 340.62C445.389 339.912 445.068 339.393 444.426 339.064C443.79 338.74 442.791 338.578 441.43 338.578C440.069 338.578 439.07 338.74 438.434 339.064C437.802 339.393 437.487 339.912 437.487 340.62C437.487 341.328 437.805 341.846 438.442 342.176C439.084 342.51 440.085 342.678 441.446 342.678ZM441.446 355.61C439.399 355.61 437.896 355.25 436.935 354.531C435.975 353.812 435.495 352.687 435.495 351.156C435.495 349.636 435.975 348.517 436.935 347.798C437.896 347.079 439.394 346.719 441.43 346.719C443.466 346.719 444.967 347.079 445.933 347.798C446.899 348.517 447.381 349.636 447.381 351.156C447.381 352.687 446.901 353.812 445.941 354.531C444.981 355.25 443.482 355.61 441.446 355.61ZM441.446 353.214C442.807 353.214 443.803 353.047 444.434 352.712C445.071 352.383 445.389 351.864 445.389 351.156C445.389 350.448 445.068 349.93 444.426 349.601C443.79 349.277 442.791 349.115 441.43 349.115C440.069 349.115 439.07 349.277 438.434 349.601C437.802 349.93 437.487 350.448 437.487 351.156C437.487 351.864 437.805 352.383 438.442 352.712C439.084 353.047 440.085 353.214 441.446 353.214ZM440.129 369.735C439.202 369.735 438.384 369.595 437.676 369.316C436.968 369.036 436.428 368.635 436.055 368.114C435.681 367.592 435.495 366.97 435.495 366.245C435.495 365.29 435.794 364.475 436.392 363.8L432.498 363.8L432.498 361.677L444.385 361.677L444.385 363.636L443.537 363.636C443.877 364.031 444.144 364.445 444.336 364.879C444.533 365.318 444.632 365.82 444.632 366.385C444.632 367.477 444.248 368.309 443.48 368.879C442.711 369.45 441.595 369.735 440.129 369.735ZM440.096 367.546C440.936 367.546 441.589 367.4 442.056 367.109C442.527 366.819 442.763 366.385 442.763 365.809C442.763 365.463 442.681 365.106 442.517 364.739C442.357 364.377 442.16 364.064 441.924 363.8L438.145 363.8C437.942 364.025 437.761 364.302 437.602 364.632C437.449 364.966 437.372 365.309 437.372 365.661C437.372 366.242 437.619 366.701 438.113 367.035C438.612 367.376 439.273 367.546 440.096 367.546ZM436.944 374.255C436.472 374.255 436.134 374.148 435.931 373.934C435.734 373.72 435.635 373.377 435.635 372.905C435.635 372.389 435.747 372.038 435.972 371.851C436.197 371.664 436.521 371.571 436.944 371.571C437.394 371.571 437.726 371.67 437.94 371.867C438.154 372.065 438.261 372.411 438.261 372.905C438.261 373.409 438.156 373.761 437.948 373.958C437.739 374.156 437.405 374.255 436.944 374.255Z" fill="black"/>
</g>
<defs>
<clipPath id="clip0_492_11582">
<rect width="690" height="505" fill="white" transform="translate(505 2.20743e-05) rotate(90)"/>
</clipPath>
</defs>
</svg>
