<svg width="690" height="505" viewBox="0 0 690 505" fill="none" xmlns="http://www.w3.org/2000/svg">
<g clip-path="url(#clip0_471_10457)">
<rect width="690" height="505" fill="white"/>
<circle cx="131.159" cy="413.038" r="42.1464" stroke="#BA402A" stroke-width="2.69737"/>
<circle cx="3.03454" cy="3.03454" r="1.68585" transform="matrix(-1 0 0 1 134.195 410)" fill="#BA402A" stroke="#BA402A" stroke-width="2.69737"/>
<line x1="124.075" y1="362.801" x2="124.075" y2="370.893" stroke="#BA402A" stroke-width="2.69737"/>
<line x1="124.075" y1="455.184" x2="124.075" y2="463.276" stroke="#BA402A" stroke-width="2.69737"/>
<line x1="126.103" y1="401.91" x2="126.103" y2="412.025" stroke="#BA402A" stroke-width="2.69737"/>
<line x1="126.103" y1="416.074" x2="126.103" y2="424.166" stroke="#BA402A" stroke-width="2.69737"/>
<line x1="141.61" y1="362.801" x2="141.61" y2="370.893" stroke="#BA402A" stroke-width="2.69737"/>
<line x1="141.61" y1="455.184" x2="141.61" y2="463.276" stroke="#BA402A" stroke-width="2.69737"/>
<line x1="138.239" y1="401.91" x2="138.239" y2="410.002" stroke="#BA402A" stroke-width="2.69737"/>
<line x1="149.703" y1="410.677" x2="136.891" y2="410.677" stroke="#BA402A" stroke-width="2.69737"/>
<line x1="125.426" y1="410.677" x2="112.613" y2="410.677" stroke="#BA402A" stroke-width="2.69737"/>
<line x1="149.703" y1="417.423" x2="136.891" y2="417.423" stroke="#BA402A" stroke-width="2.69737"/>
<line x1="125.426" y1="417.423" x2="112.613" y2="417.423" stroke="#BA402A" stroke-width="2.69737"/>
<line x1="138.239" y1="416.074" x2="138.239" y2="424.166" stroke="#BA402A" stroke-width="2.69737"/>
<circle cx="560.042" cy="413.038" r="42.1464" stroke="#BA402A" stroke-width="2.69737"/>
<circle cx="3.03454" cy="3.03454" r="1.68585" transform="matrix(-1 0 0 1 563.074 410)" fill="#BA402A" stroke="#BA402A" stroke-width="2.69737"/>
<line x1="552.962" y1="362.801" x2="552.962" y2="370.893" stroke="#BA402A" stroke-width="2.69737"/>
<line x1="552.962" y1="455.184" x2="552.962" y2="463.276" stroke="#BA402A" stroke-width="2.69737"/>
<line x1="554.985" y1="401.91" x2="554.985" y2="412.025" stroke="#BA402A" stroke-width="2.69737"/>
<line x1="554.985" y1="416.074" x2="554.985" y2="424.166" stroke="#BA402A" stroke-width="2.69737"/>
<line x1="570.493" y1="362.801" x2="570.493" y2="370.893" stroke="#BA402A" stroke-width="2.69737"/>
<line x1="570.493" y1="455.184" x2="570.493" y2="463.276" stroke="#BA402A" stroke-width="2.69737"/>
<line x1="567.118" y1="401.91" x2="567.118" y2="410.002" stroke="#BA402A" stroke-width="2.69737"/>
<line x1="578.586" y1="410.677" x2="565.773" y2="410.677" stroke="#BA402A" stroke-width="2.69737"/>
<line x1="554.305" y1="410.677" x2="541.492" y2="410.677" stroke="#BA402A" stroke-width="2.69737"/>
<line x1="578.586" y1="417.423" x2="565.773" y2="417.423" stroke="#BA402A" stroke-width="2.69737"/>
<line x1="554.305" y1="417.423" x2="541.492" y2="417.423" stroke="#BA402A" stroke-width="2.69737"/>
<line x1="567.118" y1="416.074" x2="567.118" y2="424.166" stroke="#BA402A" stroke-width="2.69737"/>
<circle cx="131.159" cy="224.894" r="42.1464" stroke="#BA402A" stroke-width="2.69737"/>
<circle cx="3.03454" cy="3.03454" r="1.68585" transform="matrix(-1 0 0 1 134.195 221.859)" fill="#BA402A" stroke="#BA402A" stroke-width="2.69737"/>
<line x1="124.075" y1="174.656" x2="124.075" y2="182.748" stroke="#BA402A" stroke-width="2.69737"/>
<line x1="124.075" y1="267.043" x2="124.075" y2="275.135" stroke="#BA402A" stroke-width="2.69737"/>
<line x1="124.075" y1="213.773" x2="124.075" y2="221.866" stroke="#BA402A" stroke-width="2.69737"/>
<line x1="124.751" y1="227.934" x2="124.751" y2="236.026" stroke="#BA402A" stroke-width="2.69737"/>
<line x1="141.61" y1="174.656" x2="141.61" y2="182.748" stroke="#BA402A" stroke-width="2.69737"/>
<line x1="141.61" y1="267.043" x2="141.61" y2="275.135" stroke="#BA402A" stroke-width="2.69737"/>
<line x1="138.915" y1="213.773" x2="138.915" y2="221.866" stroke="#BA402A" stroke-width="2.69737"/>
<line x1="150.379" y1="222.536" x2="137.566" y2="222.536" stroke="#BA402A" stroke-width="2.69737"/>
<line x1="125.426" y1="222.536" x2="112.613" y2="222.536" stroke="#BA402A" stroke-width="2.69737"/>
<line x1="150.379" y1="229.282" x2="137.566" y2="229.282" stroke="#BA402A" stroke-width="2.69737"/>
<line x1="126.098" y1="229.282" x2="113.285" y2="229.282" stroke="#BA402A" stroke-width="2.69737"/>
<line x1="138.239" y1="227.934" x2="138.239" y2="236.026" stroke="#BA402A" stroke-width="2.69737"/>
<circle cx="560.042" cy="224.894" r="42.1464" stroke="#BA402A" stroke-width="2.69737"/>
<circle cx="3.03454" cy="3.03454" r="1.68585" transform="matrix(-1 0 0 1 563.074 221.859)" fill="#BA402A" stroke="#BA402A" stroke-width="2.69737"/>
<line x1="552.962" y1="174.656" x2="552.962" y2="182.748" stroke="#BA402A" stroke-width="2.69737"/>
<line x1="552.962" y1="267.043" x2="552.962" y2="275.135" stroke="#BA402A" stroke-width="2.69737"/>
<line x1="552.962" y1="213.773" x2="552.962" y2="221.866" stroke="#BA402A" stroke-width="2.69737"/>
<line x1="553.634" y1="227.934" x2="553.634" y2="236.026" stroke="#BA402A" stroke-width="2.69737"/>
<line x1="570.493" y1="174.656" x2="570.493" y2="182.748" stroke="#BA402A" stroke-width="2.69737"/>
<line x1="570.493" y1="267.043" x2="570.493" y2="275.135" stroke="#BA402A" stroke-width="2.69737"/>
<line x1="567.798" y1="213.773" x2="567.798" y2="221.866" stroke="#BA402A" stroke-width="2.69737"/>
<line x1="579.262" y1="222.536" x2="566.449" y2="222.536" stroke="#BA402A" stroke-width="2.69737"/>
<line x1="554.305" y1="222.536" x2="541.492" y2="222.536" stroke="#BA402A" stroke-width="2.69737"/>
<line x1="579.262" y1="229.282" x2="566.449" y2="229.282" stroke="#BA402A" stroke-width="2.69737"/>
<line x1="554.984" y1="229.282" x2="542.172" y2="229.282" stroke="#BA402A" stroke-width="2.69737"/>
<line x1="567.118" y1="227.934" x2="567.118" y2="236.026" stroke="#BA402A" stroke-width="2.69737"/>
<rect x="252.875" y="142.293" width="5.39474" height="352.007" fill="#5060C4"/>
<rect x="342.562" y="327.734" width="5.39474" height="166.562" fill="#BA402A"/>
<rect x="342.562" y="142.293" width="5.39474" height="166.562" fill="#BA402A"/>
<rect x="431.578" y="142.293" width="5.39474" height="352.007" fill="#5060C4"/>
<circle cx="3.03454" cy="3.03454" r="3.03454" transform="matrix(-1 0 0 1 275.809 410)" fill="#BA402A"/>
<circle cx="3.03454" cy="3.03454" r="2.3602" transform="matrix(-1 0 0 1 347.965 314.922)" fill="#1A1A1A" stroke="#1A1A1A" stroke-width="1.34868"/>
<circle cx="3.03454" cy="3.03454" r="3.03454" transform="matrix(-1 0 0 1 275.809 221.859)" fill="#BA402A"/>
<circle cx="3.03454" cy="3.03454" r="3.03454" transform="matrix(-1 0 0 1 420.793 410)" fill="#BA402A"/>
<circle cx="3.03454" cy="3.03454" r="3.03454" transform="matrix(-1 0 0 1 420.793 221.859)" fill="#BA402A"/>
<mask id="mask0_471_10457" style="mask-type:alpha" maskUnits="userSpaceOnUse" x="64" y="280" width="44" height="83">
<rect x="64.7344" y="280.527" width="43.1579" height="82.2697" fill="#C9DEF2"/>
</mask>
<g mask="url(#mask0_471_10457)">
<circle cx="64.735" cy="318.973" r="27.9852" fill="#C9DEF2" stroke="#BA402A" stroke-width="2.02303"/>
</g>
<mask id="mask1_471_10457" style="mask-type:alpha" maskUnits="userSpaceOnUse" x="307" y="449" width="83" height="44">
<rect x="307.5" y="492.27" width="43.1579" height="82.2697" transform="rotate(-90 307.5 492.27)" fill="#C9DEF2"/>
</mask>
<g mask="url(#mask1_471_10457)">
<circle cx="345.938" cy="492.273" r="27.9852" transform="rotate(-90 345.938 492.273)" stroke="#BA402A" stroke-width="2.02303"/>
</g>
<mask id="mask2_471_10457" style="mask-type:alpha" maskUnits="userSpaceOnUse" x="581" y="280" width="45" height="83">
<rect x="-0.337171" y="0.337171" width="42.4836" height="81.5954" transform="matrix(-1 0 0 1 624.443 280.527)" fill="#C9DEF2" stroke="#C2526A" stroke-width="0.674342"/>
</mask>
<g mask="url(#mask2_471_10457)">
<circle cx="28.9967" cy="28.9967" r="27.9852" transform="matrix(-1 0 0 1 654.109 289.977)" fill="#C9DEF2" stroke="#BA402A" stroke-width="2.02303"/>
</g>
<circle cx="344.925" cy="317.952" r="43.4951" stroke="#1A1A1A" stroke-width="4.04605"/>
<rect x="63.3828" y="153.754" width="2.69737" height="329.079" fill="#BA402A"/>
<rect width="2.69737" height="329.079" transform="matrix(-1 0 0 1 626.465 153.754)" fill="#BA402A"/>
<rect x="4.0516" y="134.872" width="681.76" height="366.168" rx="113.29" stroke="#95D0EB" stroke-width="8.09211"/>
<rect x="10.4579" y="141.278" width="668.947" height="353.355" rx="106.883" stroke="#5060C4" stroke-width="4.7204"/>
<path opacity="0.59" d="M675.012 249.509C675.012 192.155 628.517 145.66 571.163 145.66H349.979V490.249H571.163C628.517 490.249 675.012 443.754 675.012 386.4V249.509Z" fill="#44C4BC"/>
<path d="M675.012 51.2501C675.012 22.9454 652.066 0 623.762 0H347.956V117.336H623.762C652.066 117.336 675.012 94.3901 675.012 66.0855V51.2501Z" fill="#91DDD8"/>
<path d="M457.138 29.1914V20.0772H464.5V29.1914H462.597V21.6643H459.034V29.1914H457.138ZM473.904 24.6343C473.904 26.2192 473.568 27.4068 472.897 28.197C472.229 28.9873 471.257 29.3824 469.979 29.3824C468.631 29.3824 467.639 28.9675 467.003 28.1377C466.37 27.3036 466.054 26.1358 466.054 24.6343C466.054 23.1241 466.37 21.9563 467.003 21.1309C467.639 20.3012 468.631 19.8863 469.979 19.8863C471.336 19.8863 472.328 20.3012 472.956 21.1309C473.588 21.9563 473.904 23.1241 473.904 24.6343ZM471.988 24.6343C471.988 23.5543 471.834 22.7685 471.527 22.2768C471.224 21.7807 470.708 21.5326 469.979 21.5326C469.25 21.5326 468.732 21.7807 468.425 22.2768C468.122 22.7685 467.971 23.5543 467.971 24.6343C467.971 25.7143 468.124 26.5024 468.432 26.9985C468.743 27.4902 469.259 27.736 469.979 27.736C470.708 27.736 471.224 27.4902 471.527 26.9985C471.834 26.5024 471.988 25.7143 471.988 24.6343ZM478.435 21.6248V22.369C478.435 24.7924 478.22 26.5704 477.79 27.7031C477.359 28.8314 476.67 29.3956 475.722 29.3956C475.059 29.3956 474.501 29.2595 474.049 28.9873L474.629 27.5319C474.901 27.6504 475.149 27.7097 475.373 27.7097C475.68 27.7097 475.921 27.5275 476.097 27.1631C476.277 26.7987 476.411 26.2038 476.499 25.3785C476.587 24.5487 476.63 23.4424 476.63 22.0594V20.0772H482.511V29.1914H480.661V21.6248H478.435ZM491.909 24.6343C491.909 26.2192 491.573 27.4068 490.901 28.197C490.234 28.9873 489.261 29.3824 487.984 29.3824C486.636 29.3824 485.644 28.9675 485.007 28.1377C484.375 27.3036 484.059 26.1358 484.059 24.6343C484.059 23.1241 484.375 21.9563 485.007 21.1309C485.644 20.3012 486.636 19.8863 487.984 19.8863C489.34 19.8863 490.332 20.3012 490.96 21.1309C491.592 21.9563 491.909 23.1241 491.909 24.6343ZM489.992 24.6343C489.992 23.5543 489.839 22.7685 489.531 22.2768C489.228 21.7807 488.712 21.5326 487.984 21.5326C487.255 21.5326 486.737 21.7807 486.43 22.2768C486.127 22.7685 485.975 23.5543 485.975 24.6343C485.975 25.7143 486.129 26.5024 486.436 26.9985C486.748 27.4902 487.264 27.736 487.984 27.736C488.712 27.736 489.228 27.4902 489.531 26.9985C489.839 26.5024 489.992 25.7143 489.992 24.6343ZM500.443 26.5507C500.443 27.4638 500.129 28.1334 499.502 28.5592C498.874 28.9807 498.002 29.1914 496.887 29.1914H493.463V20.0772H496.683C497.851 20.0772 498.687 20.2485 499.192 20.5909C499.697 20.929 499.949 21.4668 499.949 22.2043C499.949 22.7707 499.811 23.2294 499.534 23.5807C499.262 23.9319 498.834 24.1668 498.25 24.2853C499.014 24.3907 499.57 24.6321 499.916 25.0097C500.268 25.3873 500.443 25.9009 500.443 26.5507ZM498.072 22.6126C498.072 22.2658 497.945 22.0265 497.691 21.8948C497.436 21.7587 497.041 21.6907 496.505 21.6907H495.32V23.6465H496.452C497.001 23.6465 497.407 23.5697 497.671 23.416C497.939 23.2624 498.072 22.9946 498.072 22.6126ZM498.547 26.386C498.547 25.9777 498.408 25.6902 498.132 25.5234C497.855 25.3521 497.337 25.2665 496.578 25.2665H495.32V27.5451H496.262C496.986 27.5451 497.484 27.5099 497.756 27.4397C498.033 27.3695 498.233 27.2509 498.356 27.0841C498.483 26.9173 498.547 26.6846 498.547 26.386ZM502.011 29.1914V20.0772H503.749V26.4255L507.121 20.0772H509.287V29.1914H507.549V22.4216L503.993 29.1914H502.011ZM516.716 29.1914V25.3192H513.127V29.1914H511.27V20.0772H513.127V23.6202H516.716V20.0772H518.579V29.1914H516.716ZM519.745 29.1914L522.761 20.0772H525.178L528.201 29.1914H526.297L525.692 27.3409H522.182L521.589 29.1914H519.745ZM522.708 25.7143H525.165L523.94 21.9475L522.708 25.7143ZM475.353 45.1914V36.0772H482.715V45.1914H480.812V37.6643H477.25V45.1914H475.353ZM492.119 40.6343C492.119 42.2192 491.783 43.4068 491.112 44.197C490.444 44.9873 489.472 45.3824 488.194 45.3824C486.847 45.3824 485.854 44.9675 485.218 44.1377C484.586 43.3036 484.27 42.1358 484.27 40.6343C484.27 39.1241 484.586 37.9563 485.218 37.1309C485.854 36.3012 486.847 35.8863 488.194 35.8863C489.551 35.8863 490.543 36.3012 491.171 37.1309C491.803 37.9563 492.119 39.1241 492.119 40.6343ZM490.203 40.6343C490.203 39.5543 490.049 38.7685 489.742 38.2768C489.439 37.7807 488.923 37.5326 488.194 37.5326C487.466 37.5326 486.948 37.7807 486.64 38.2768C486.337 38.7685 486.186 39.5543 486.186 40.6343C486.186 41.7143 486.34 42.5024 486.647 42.9985C486.959 43.4902 487.474 43.736 488.194 43.736C488.923 43.736 489.439 43.4902 489.742 42.9985C490.049 42.5024 490.203 41.7143 490.203 40.6343ZM496.65 37.6248V38.369C496.65 40.7924 496.435 42.5704 496.005 43.7031C495.574 44.8314 494.885 45.3956 493.937 45.3956C493.274 45.3956 492.716 45.2595 492.264 44.9873L492.844 43.5319C493.116 43.6504 493.364 43.7097 493.588 43.7097C493.895 43.7097 494.137 43.5275 494.312 43.1631C494.492 42.7987 494.626 42.2038 494.714 41.3785C494.802 40.5487 494.846 39.4424 494.846 38.0594V36.0772H500.726V45.1914H498.876V37.6248H496.65ZM501.925 45.1914L504.362 41.5234C503.769 41.4048 503.306 41.1151 502.972 40.6541C502.643 40.1887 502.478 39.5653 502.478 38.7838C502.478 37.8224 502.746 37.1309 503.282 36.7094C503.822 36.288 504.682 36.0772 505.863 36.0772H509.182V45.1914H507.318V41.7407H506.377L504.052 45.1914H501.925ZM504.362 38.8629C504.362 39.2097 504.41 39.4665 504.506 39.6333C504.607 39.8002 504.77 39.9231 504.994 40.0021C505.218 40.0812 505.538 40.1207 505.955 40.1207H507.318V37.6907H505.876C505.336 37.6907 504.948 37.7697 504.711 37.9277C504.478 38.0858 504.362 38.3975 504.362 38.8629Z" fill="black"/>
<path d="M436.332 91.5547V84.0013L433.81 89.072H433.053L430.557 84.0013V91.5547H429.398V82.4405H431.044L433.461 87.3993L435.898 82.4405H437.491V91.5547H436.332ZM443.741 91.5547V90.692C443.389 90.9993 443.036 91.254 442.68 91.4559C442.325 91.6579 441.923 91.7588 441.475 91.7588C440.817 91.7588 440.308 91.5591 439.948 91.1596C439.592 90.7557 439.414 90.2398 439.414 89.612C439.414 89.1379 439.506 88.7449 439.691 88.4332C439.879 88.1171 440.149 87.8691 440.501 87.6891C440.856 87.5047 441.37 87.373 442.042 87.2939L443.741 87.1425V86.8066C443.741 86.2754 443.591 85.9132 443.293 85.72C442.999 85.5269 442.59 85.4303 442.068 85.4303C441.603 85.4303 441.243 85.5115 440.988 85.6739C440.738 85.8364 440.558 86.012 440.448 86.2008L439.519 85.6344C439.73 85.2525 440.051 84.9605 440.481 84.7586C440.916 84.5522 441.453 84.4491 442.094 84.4491C443.087 84.4491 443.798 84.6291 444.228 84.9891C444.658 85.3491 444.873 85.9725 444.873 86.8593V91.5547H443.741ZM443.741 88.0513L442.634 88.1566C441.884 88.2225 441.355 88.3696 441.047 88.5979C440.74 88.8218 440.586 89.151 440.586 89.5857C440.586 89.9983 440.689 90.2947 440.896 90.4747C441.102 90.6547 441.412 90.7447 441.824 90.7447C441.996 90.7447 442.165 90.714 442.331 90.6525C442.498 90.5866 442.663 90.5076 442.825 90.4154C442.988 90.3188 443.144 90.2113 443.293 90.0927C443.447 89.9698 443.596 89.8513 443.741 89.7371V88.0513ZM448.166 84.6466V87.5903H449.134C449.393 87.5903 449.613 87.4981 449.793 87.3137C449.973 87.1293 450.15 86.8198 450.326 86.3852C450.506 85.9461 450.679 85.3666 450.846 84.6466H451.999C451.832 85.3974 451.654 86.0142 451.465 86.4971C451.281 86.98 451.097 87.3379 450.912 87.5705C450.732 87.8032 450.504 87.9525 450.227 88.0183C450.557 88.1149 450.824 88.2708 451.031 88.4859C451.237 88.701 451.426 89.0237 451.597 89.454C451.768 89.8798 451.977 90.5801 452.223 91.5547H451.077C450.923 91.0147 450.785 90.5537 450.662 90.1718C450.543 89.7898 450.412 89.4803 450.267 89.2432C450.126 89.0018 449.959 88.8283 449.766 88.723C449.573 88.6132 449.327 88.5583 449.029 88.5583H448.166V91.5547H447.06V84.6466H448.166ZM458.69 90.4879C458.474 90.8566 458.176 91.1618 457.794 91.4032C457.412 91.6403 456.885 91.7588 456.213 91.7588C455.199 91.7588 454.435 91.4537 453.922 90.8435C453.408 90.2288 453.151 89.3201 453.151 88.1171C453.151 86.9142 453.406 86.0032 453.915 85.3842C454.424 84.7608 455.175 84.4491 456.167 84.4491C457.304 84.4491 458.114 84.8705 458.597 85.7135L457.669 86.2798C457.498 86.012 457.296 85.8035 457.063 85.6542C456.835 85.5049 456.532 85.4303 456.154 85.4303C455.491 85.4303 455.019 85.6718 454.738 86.1547C454.462 86.6332 454.323 87.2961 454.323 88.1435C454.323 88.7888 454.389 89.2915 454.521 89.6515C454.653 90.0115 454.857 90.2881 455.133 90.4813C455.414 90.6744 455.77 90.771 456.2 90.771C456.569 90.771 456.87 90.703 457.102 90.5669C457.335 90.4264 457.555 90.2113 457.761 89.9215L458.69 90.4879ZM461.482 91.5547H460.283V84.6466H461.35V90.0993L464.735 84.6466H465.881V91.5547H464.814V86.2139L461.482 91.5547ZM474.514 91.5547H473.447V86.293L471.57 89.7371H471.004L469.187 86.293V91.5547H468.12V84.6466H469.305L471.314 88.1961L473.342 84.6466H474.514V91.5547ZM475.897 93.0232C476.182 93.1505 476.514 93.2142 476.891 93.2142C477.423 93.2142 477.873 92.7335 478.241 91.772L478.472 91.1793L475.95 84.6466H477.175L479.078 89.7042L480.994 84.6466H482.18L479.229 92.0815C478.918 92.841 478.584 93.3766 478.228 93.6883C477.873 94.0001 477.41 94.1559 476.839 94.1559C476.632 94.1559 476.413 94.1362 476.18 94.0966C475.948 94.0571 475.759 94.011 475.614 93.9583L475.897 93.0232ZM490.003 91.5547H488.936V86.293L487.059 89.7371H486.493L484.675 86.293V91.5547H483.609V84.6466H484.794L486.802 88.1961L488.831 84.6466H490.003V91.5547ZM498.623 91.5547V85.4435H496.411V84.1922C497.043 84.1527 497.519 84.0781 497.84 83.9683C498.164 83.8542 498.421 83.6786 498.61 83.4415C498.803 83.2044 498.955 82.8708 499.064 82.4405H500.48V91.5547H498.623ZM510.977 86.9976C510.977 88.6352 510.69 89.8381 510.115 90.6064C509.54 91.3747 508.64 91.7588 507.415 91.7588C506.199 91.7588 505.303 91.3747 504.728 90.6064C504.153 89.8381 503.865 88.6396 503.865 87.0108C503.865 85.382 504.153 84.1813 504.728 83.4086C505.303 82.6359 506.199 82.2496 507.415 82.2496C508.64 82.2496 509.54 82.6337 510.115 83.402C510.69 84.1703 510.977 85.3688 510.977 86.9976ZM509.061 86.9976C509.061 85.9088 508.927 85.112 508.659 84.6071C508.396 84.0978 507.981 83.8432 507.415 83.8432C506.848 83.8432 506.433 84.1 506.17 84.6137C505.911 85.123 505.782 85.922 505.782 87.0108C505.782 88.0996 505.911 88.8986 506.17 89.4079C506.433 89.9127 506.848 90.1652 507.415 90.1652C507.981 90.1652 508.396 89.9105 508.659 89.4013C508.927 88.8876 509.061 88.0864 509.061 86.9976ZM515.824 84.6466H516.931V86.4181C516.931 86.9713 516.963 87.3905 517.029 87.6759C517.095 87.9569 517.203 88.1544 517.352 88.2686C517.506 88.3827 517.734 88.4398 518.037 88.4398C518.533 88.4398 519.198 88.273 520.032 87.9393V84.6466H521.139V91.5547H520.032V88.914L519.486 89.1115C518.788 89.3749 518.223 89.5066 517.793 89.5066C517.113 89.5066 516.614 89.2849 516.298 88.8415C515.982 88.3981 515.824 87.7242 515.824 86.8198V84.6466ZM524.207 88.2357C524.207 89.1488 524.363 89.8008 524.675 90.1915C524.987 90.5779 525.487 90.771 526.176 90.771C526.484 90.771 526.754 90.7074 526.986 90.5801C527.219 90.4483 527.443 90.2376 527.658 89.9479L528.593 90.5274C528.33 90.9225 528.009 91.2276 527.632 91.4427C527.254 91.6535 526.743 91.7588 526.097 91.7588C525.07 91.7588 524.302 91.4603 523.793 90.8632C523.288 90.2661 523.035 89.364 523.035 88.1566C523.035 86.8922 523.281 85.9593 523.773 85.3578C524.269 84.752 525.015 84.4491 526.012 84.4491C526.907 84.4491 527.579 84.7081 528.027 85.2261C528.475 85.7398 528.699 86.5322 528.699 87.6035V88.2357H524.207ZM527.592 87.3466C527.584 86.7276 527.452 86.2469 527.197 85.9044C526.947 85.562 526.539 85.3908 525.972 85.3908C525.432 85.3908 525.026 85.5466 524.754 85.8583C524.486 86.1657 524.308 86.6618 524.221 87.3466H527.592ZM532.518 85.5818V86.0625C532.518 87.182 532.422 88.1742 532.228 89.0391C532.04 89.8996 531.77 90.5515 531.418 90.9949C531.072 91.4383 530.661 91.6601 530.187 91.6601C530.077 91.6601 529.945 91.6469 529.792 91.6205C529.643 91.5942 529.531 91.5679 529.456 91.5415L529.673 90.5537C529.836 90.5844 529.974 90.5998 530.088 90.5998C530.988 90.5998 531.438 88.9579 531.438 85.6739V84.6466H535.449V91.5547H534.342V85.5818H532.518ZM543.417 88.1171C543.417 89.3157 543.158 90.2222 542.64 90.8369C542.126 91.4515 541.375 91.7588 540.388 91.7588C539.4 91.7588 538.645 91.4559 538.122 90.8501C537.6 90.2398 537.339 89.3288 537.339 88.1171C537.339 86.8835 537.6 85.9637 538.122 85.3578C538.649 84.752 539.404 84.4491 540.388 84.4491C541.38 84.4491 542.133 84.7586 542.646 85.3776C543.16 85.9922 543.417 86.9054 543.417 88.1171ZM542.245 88.1171C542.245 87.1776 542.089 86.4949 541.777 86.0691C541.47 85.6432 541.007 85.4303 540.388 85.4303C539.751 85.4303 539.279 85.6454 538.972 86.0757C538.664 86.5015 538.511 87.182 538.511 88.1171C538.511 89.0171 538.658 89.6844 538.952 90.1191C539.251 90.5537 539.729 90.771 540.388 90.771C541.015 90.771 541.481 90.5559 541.784 90.1257C542.091 89.6954 542.245 89.0259 542.245 88.1171ZM550.746 89.454C550.746 90.1959 550.494 90.7315 549.989 91.0608C549.489 91.3901 548.753 91.5547 547.783 91.5547H545.314V84.6466H547.757C548.749 84.6466 549.443 84.7674 549.838 85.0088C550.237 85.2503 550.437 85.6696 550.437 86.2666C550.437 87.07 550.081 87.6144 549.37 87.8998C549.844 88.0052 550.191 88.1808 550.411 88.4266C550.635 88.6725 550.746 89.0149 550.746 89.454ZM549.304 86.4444C549.304 86.0581 549.173 85.81 548.909 85.7003C548.65 85.5861 548.253 85.5291 547.717 85.5291H546.42V87.5771H547.632C548.747 87.5771 549.304 87.1996 549.304 86.4444ZM549.587 89.4803C549.587 89.0808 549.456 88.813 549.192 88.6769C548.933 88.5364 548.485 88.4661 547.849 88.4661H546.42V90.6525H547.388C548.117 90.6525 548.665 90.5779 549.034 90.4286C549.403 90.2793 549.587 89.9632 549.587 89.4803ZM553.367 88.2357C553.367 89.1488 553.523 89.8008 553.835 90.1915C554.147 90.5779 554.647 90.771 555.336 90.771C555.644 90.771 555.914 90.7074 556.146 90.5801C556.379 90.4483 556.603 90.2376 556.818 89.9479L557.753 90.5274C557.49 90.9225 557.169 91.2276 556.792 91.4427C556.414 91.6535 555.903 91.7588 555.257 91.7588C554.23 91.7588 553.462 91.4603 552.953 90.8632C552.448 90.2661 552.195 89.364 552.195 88.1566C552.195 86.8922 552.441 85.9593 552.933 85.3578C553.429 84.752 554.175 84.4491 555.172 84.4491C556.067 84.4491 556.739 84.7081 557.187 85.2261C557.635 85.7398 557.859 86.5322 557.859 87.6035V88.2357H553.367ZM556.752 87.3466C556.744 86.7276 556.612 86.2469 556.357 85.9044C556.107 85.562 555.699 85.3908 555.132 85.3908C554.592 85.3908 554.186 85.5466 553.914 85.8583C553.646 86.1657 553.468 86.6618 553.381 87.3466H556.752ZM560.776 84.6466V87.5903H561.744C562.003 87.5903 562.223 87.4981 562.403 87.3137C562.583 87.1293 562.76 86.8198 562.936 86.3852C563.116 85.9461 563.289 85.3666 563.456 84.6466H564.609C564.442 85.3974 564.264 86.0142 564.075 86.4971C563.891 86.98 563.706 87.3379 563.522 87.5705C563.342 87.8032 563.114 87.9525 562.837 88.0183C563.166 88.1149 563.434 88.2708 563.641 88.4859C563.847 88.701 564.036 89.0237 564.207 89.454C564.378 89.8798 564.587 90.5801 564.833 91.5547H563.687C563.533 91.0147 563.395 90.5537 563.272 90.1718C563.153 89.7898 563.022 89.4803 562.877 89.2432C562.736 89.0018 562.569 88.8283 562.376 88.723C562.183 88.6132 561.937 88.5583 561.639 88.5583H560.776V91.5547H559.67V84.6466H560.776Z" fill="black"/>
<path d="M470.384 67.3727V69.2578H468.162V67.3727H462.44V65.2325L468.005 57.8651H470.384V65.3807H471.783V67.3727H470.384ZM468.162 60.9109L464.704 65.3807H468.162V60.9109ZM482.172 63.5615C482.172 65.6084 481.812 67.1121 481.094 68.0724C480.375 69.0328 479.25 69.513 477.719 69.513C476.198 69.513 475.079 69.0328 474.36 68.0724C473.641 67.1121 473.282 65.6139 473.282 63.5779C473.282 61.5419 473.641 60.041 474.36 59.0752C475.079 58.1093 476.198 57.6264 477.719 57.6264C479.25 57.6264 480.375 58.1066 481.094 59.0669C481.812 60.0273 482.172 61.5255 482.172 63.5615ZM479.776 63.5615C479.776 62.2005 479.609 61.2044 479.274 60.5733C478.945 59.9368 478.426 59.6185 477.719 59.6185C477.011 59.6185 476.492 59.9395 476.163 60.5816C475.839 61.2182 475.677 62.2169 475.677 63.5779C475.677 64.9389 475.839 65.9377 476.163 66.5743C476.492 67.2054 477.011 67.5209 477.719 67.5209C478.426 67.5209 478.945 67.2026 479.274 66.566C479.609 65.924 479.776 64.9224 479.776 63.5615ZM492.709 63.5615C492.709 65.6084 492.349 67.1121 491.63 68.0724C490.911 69.0328 489.786 69.513 488.255 69.513C486.735 69.513 485.616 69.0328 484.897 68.0724C484.178 67.1121 483.818 65.6139 483.818 63.5779C483.818 61.5419 484.178 60.041 484.897 59.0752C485.616 58.1093 486.735 57.6264 488.255 57.6264C489.786 57.6264 490.911 58.1066 491.63 59.0669C492.349 60.0273 492.709 61.5255 492.709 63.5615ZM490.313 63.5615C490.313 62.2005 490.146 61.2044 489.811 60.5733C489.482 59.9368 488.963 59.6185 488.255 59.6185C487.547 59.6185 487.029 59.9395 486.699 60.5816C486.376 61.2182 486.214 62.2169 486.214 63.5779C486.214 64.9389 486.376 65.9377 486.699 66.5743C487.029 67.2054 487.547 67.5209 488.255 67.5209C488.963 67.5209 489.482 67.2026 489.811 66.566C490.146 65.924 490.313 64.9224 490.313 63.5615ZM503.245 63.5615C503.245 65.6084 502.886 67.1121 502.167 68.0724C501.448 69.0328 500.323 69.513 498.792 69.513C497.272 69.513 496.152 69.0328 495.433 68.0724C494.714 67.1121 494.355 65.6139 494.355 63.5779C494.355 61.5419 494.714 60.041 495.433 59.0752C496.152 58.1093 497.272 57.6264 498.792 57.6264C500.323 57.6264 501.448 58.1066 502.167 59.0669C502.886 60.0273 503.245 61.5255 503.245 63.5615ZM500.85 63.5615C500.85 62.2005 500.682 61.2044 500.348 60.5733C500.018 59.9368 499.5 59.6185 498.792 59.6185C498.084 59.6185 497.565 59.9395 497.236 60.5816C496.912 61.2182 496.75 62.2169 496.75 63.5779C496.75 64.9389 496.912 65.9377 497.236 66.5743C497.565 67.2054 498.084 67.5209 498.792 67.5209C499.5 67.5209 500.018 67.2026 500.348 66.566C500.682 65.924 500.85 64.9224 500.85 63.5615ZM517.371 64.8785C517.371 65.806 517.231 66.6237 516.951 67.3316C516.671 68.0395 516.27 68.5801 515.749 68.9532C515.228 69.3264 514.605 69.513 513.88 69.513C512.926 69.513 512.111 69.2139 511.436 68.6157V72.5093H509.312V60.6227H511.271V61.4706C511.666 61.1304 512.08 60.8642 512.514 60.6721C512.953 60.4746 513.455 60.3758 514.02 60.3758C515.112 60.3758 515.944 60.7599 516.515 61.5282C517.085 62.2965 517.371 63.4133 517.371 64.8785ZM515.181 64.9115C515.181 64.0718 515.036 63.4188 514.745 62.9523C514.454 62.4804 514.02 62.2444 513.444 62.2444C513.098 62.2444 512.742 62.3267 512.374 62.4913C512.012 62.6505 511.699 62.848 511.436 63.084V66.8624C511.661 67.0654 511.938 67.2465 512.267 67.4057C512.602 67.5593 512.945 67.6362 513.296 67.6362C513.878 67.6362 514.336 67.3892 514.671 66.8953C515.011 66.3959 515.181 65.7346 515.181 64.9115ZM521.89 68.0642C521.89 68.5362 521.783 68.8737 521.569 69.0767C521.355 69.2743 521.012 69.3731 520.54 69.3731C520.024 69.3731 519.673 69.2606 519.486 69.0356C519.3 68.8106 519.206 68.4868 519.206 68.0642C519.206 67.6142 519.305 67.2822 519.503 67.0682C519.7 66.8542 520.046 66.7471 520.54 66.7471C521.045 66.7471 521.396 66.8514 521.594 67.0599C521.791 67.2685 521.89 67.6032 521.89 68.0642Z" fill="black"/>
</g>
<defs>
<clipPath id="clip0_471_10457">
<rect width="690" height="505" fill="white"/>
</clipPath>
</defs>
</svg>
