<svg width="690" height="505" viewBox="0 0 690 505" fill="none" xmlns="http://www.w3.org/2000/svg">
<g clip-path="url(#clip0_471_10567)">
<rect width="690" height="505" fill="white"/>
<circle cx="131.159" cy="413.034" r="42.1464" stroke="#BA402A" stroke-width="2.69737"/>
<circle cx="3.03454" cy="3.03454" r="1.68585" transform="matrix(-1 0 0 1 134.195 409.996)" fill="#BA402A" stroke="#BA402A" stroke-width="2.69737"/>
<line x1="124.075" y1="362.797" x2="124.075" y2="370.889" stroke="#BA402A" stroke-width="2.69737"/>
<line x1="124.075" y1="455.18" x2="124.075" y2="463.272" stroke="#BA402A" stroke-width="2.69737"/>
<line x1="126.103" y1="401.906" x2="126.103" y2="412.021" stroke="#BA402A" stroke-width="2.69737"/>
<line x1="126.103" y1="416.066" x2="126.103" y2="424.159" stroke="#BA402A" stroke-width="2.69737"/>
<line x1="141.61" y1="362.797" x2="141.61" y2="370.889" stroke="#BA402A" stroke-width="2.69737"/>
<line x1="141.61" y1="455.18" x2="141.61" y2="463.272" stroke="#BA402A" stroke-width="2.69737"/>
<line x1="138.239" y1="401.906" x2="138.239" y2="409.998" stroke="#BA402A" stroke-width="2.69737"/>
<line x1="149.703" y1="410.673" x2="136.891" y2="410.673" stroke="#BA402A" stroke-width="2.69737"/>
<line x1="125.426" y1="410.673" x2="112.613" y2="410.673" stroke="#BA402A" stroke-width="2.69737"/>
<line x1="149.703" y1="417.415" x2="136.891" y2="417.415" stroke="#BA402A" stroke-width="2.69737"/>
<line x1="125.426" y1="417.415" x2="112.613" y2="417.415" stroke="#BA402A" stroke-width="2.69737"/>
<line x1="138.239" y1="416.066" x2="138.239" y2="424.159" stroke="#BA402A" stroke-width="2.69737"/>
<circle cx="560.042" cy="413.034" r="42.1464" stroke="#BA402A" stroke-width="2.69737"/>
<circle cx="3.03454" cy="3.03454" r="1.68585" transform="matrix(-1 0 0 1 563.074 409.996)" fill="#BA402A" stroke="#BA402A" stroke-width="2.69737"/>
<line x1="552.962" y1="362.797" x2="552.962" y2="370.889" stroke="#BA402A" stroke-width="2.69737"/>
<line x1="552.962" y1="455.18" x2="552.962" y2="463.272" stroke="#BA402A" stroke-width="2.69737"/>
<line x1="554.985" y1="401.906" x2="554.985" y2="412.021" stroke="#BA402A" stroke-width="2.69737"/>
<line x1="554.985" y1="416.066" x2="554.985" y2="424.159" stroke="#BA402A" stroke-width="2.69737"/>
<line x1="570.493" y1="362.797" x2="570.493" y2="370.889" stroke="#BA402A" stroke-width="2.69737"/>
<line x1="570.493" y1="455.18" x2="570.493" y2="463.272" stroke="#BA402A" stroke-width="2.69737"/>
<line x1="567.118" y1="401.906" x2="567.118" y2="409.998" stroke="#BA402A" stroke-width="2.69737"/>
<line x1="578.586" y1="410.673" x2="565.773" y2="410.673" stroke="#BA402A" stroke-width="2.69737"/>
<line x1="554.305" y1="410.673" x2="541.492" y2="410.673" stroke="#BA402A" stroke-width="2.69737"/>
<line x1="578.586" y1="417.415" x2="565.773" y2="417.415" stroke="#BA402A" stroke-width="2.69737"/>
<line x1="554.305" y1="417.415" x2="541.492" y2="417.415" stroke="#BA402A" stroke-width="2.69737"/>
<line x1="567.118" y1="416.066" x2="567.118" y2="424.159" stroke="#BA402A" stroke-width="2.69737"/>
<circle cx="131.159" cy="224.89" r="42.1464" stroke="#BA402A" stroke-width="2.69737"/>
<circle cx="3.03454" cy="3.03454" r="1.68585" transform="matrix(-1 0 0 1 134.195 221.855)" fill="#BA402A" stroke="#BA402A" stroke-width="2.69737"/>
<line x1="124.075" y1="174.652" x2="124.075" y2="182.744" stroke="#BA402A" stroke-width="2.69737"/>
<line x1="124.075" y1="267.039" x2="124.075" y2="275.131" stroke="#BA402A" stroke-width="2.69737"/>
<line x1="124.075" y1="213.766" x2="124.075" y2="221.858" stroke="#BA402A" stroke-width="2.69737"/>
<line x1="124.751" y1="227.926" x2="124.751" y2="236.018" stroke="#BA402A" stroke-width="2.69737"/>
<line x1="141.61" y1="174.652" x2="141.61" y2="182.744" stroke="#BA402A" stroke-width="2.69737"/>
<line x1="141.61" y1="267.039" x2="141.61" y2="275.131" stroke="#BA402A" stroke-width="2.69737"/>
<line x1="138.915" y1="213.766" x2="138.915" y2="221.858" stroke="#BA402A" stroke-width="2.69737"/>
<line x1="150.379" y1="222.532" x2="137.566" y2="222.532" stroke="#BA402A" stroke-width="2.69737"/>
<line x1="125.426" y1="222.532" x2="112.613" y2="222.532" stroke="#BA402A" stroke-width="2.69737"/>
<line x1="150.379" y1="229.274" x2="137.566" y2="229.274" stroke="#BA402A" stroke-width="2.69737"/>
<line x1="126.098" y1="229.274" x2="113.285" y2="229.274" stroke="#BA402A" stroke-width="2.69737"/>
<line x1="138.239" y1="227.926" x2="138.239" y2="236.018" stroke="#BA402A" stroke-width="2.69737"/>
<circle cx="560.042" cy="224.89" r="42.1464" stroke="#BA402A" stroke-width="2.69737"/>
<circle cx="3.03454" cy="3.03454" r="1.68585" transform="matrix(-1 0 0 1 563.074 221.855)" fill="#BA402A" stroke="#BA402A" stroke-width="2.69737"/>
<line x1="552.962" y1="174.652" x2="552.962" y2="182.744" stroke="#BA402A" stroke-width="2.69737"/>
<line x1="552.962" y1="267.039" x2="552.962" y2="275.131" stroke="#BA402A" stroke-width="2.69737"/>
<line x1="552.962" y1="213.766" x2="552.962" y2="221.858" stroke="#BA402A" stroke-width="2.69737"/>
<line x1="553.634" y1="227.926" x2="553.634" y2="236.018" stroke="#BA402A" stroke-width="2.69737"/>
<line x1="570.493" y1="174.652" x2="570.493" y2="182.744" stroke="#BA402A" stroke-width="2.69737"/>
<line x1="570.493" y1="267.039" x2="570.493" y2="275.131" stroke="#BA402A" stroke-width="2.69737"/>
<line x1="567.798" y1="213.766" x2="567.798" y2="221.858" stroke="#BA402A" stroke-width="2.69737"/>
<line x1="579.262" y1="222.532" x2="566.449" y2="222.532" stroke="#BA402A" stroke-width="2.69737"/>
<line x1="554.305" y1="222.532" x2="541.492" y2="222.532" stroke="#BA402A" stroke-width="2.69737"/>
<line x1="579.262" y1="229.274" x2="566.449" y2="229.274" stroke="#BA402A" stroke-width="2.69737"/>
<line x1="554.984" y1="229.274" x2="542.172" y2="229.274" stroke="#BA402A" stroke-width="2.69737"/>
<line x1="567.118" y1="227.926" x2="567.118" y2="236.018" stroke="#BA402A" stroke-width="2.69737"/>
<rect x="252.875" y="142.285" width="5.39474" height="352.007" fill="#5060C4"/>
<rect x="342.562" y="327.73" width="5.39474" height="166.562" fill="#BA402A"/>
<rect x="342.562" y="142.285" width="5.39474" height="166.562" fill="#BA402A"/>
<rect x="431.578" y="142.285" width="5.39474" height="352.007" fill="#5060C4"/>
<circle cx="3.03454" cy="3.03454" r="3.03454" transform="matrix(-1 0 0 1 275.809 409.996)" fill="#BA402A"/>
<circle cx="3.03454" cy="3.03454" r="2.3602" transform="matrix(-1 0 0 1 347.965 314.918)" fill="#1A1A1A" stroke="#1A1A1A" stroke-width="1.34868"/>
<circle cx="3.03454" cy="3.03454" r="3.03454" transform="matrix(-1 0 0 1 275.809 221.855)" fill="#BA402A"/>
<circle cx="3.03454" cy="3.03454" r="3.03454" transform="matrix(-1 0 0 1 420.793 409.996)" fill="#BA402A"/>
<circle cx="3.03454" cy="3.03454" r="3.03454" transform="matrix(-1 0 0 1 420.793 221.855)" fill="#BA402A"/>
<mask id="mask0_471_10567" style="mask-type:alpha" maskUnits="userSpaceOnUse" x="64" y="280" width="44" height="83">
<rect x="64.7344" y="280.531" width="43.1579" height="82.2697" fill="#C9DEF2"/>
</mask>
<g mask="url(#mask0_471_10567)">
<circle cx="64.735" cy="318.962" r="27.9852" fill="#C9DEF2" stroke="#BA402A" stroke-width="2.02303"/>
</g>
<mask id="mask1_471_10567" style="mask-type:alpha" maskUnits="userSpaceOnUse" x="307" y="449" width="83" height="44">
<rect x="307.5" y="492.273" width="43.1579" height="82.2697" transform="rotate(-90 307.5 492.273)" fill="#C9DEF2"/>
</mask>
<g mask="url(#mask1_471_10567)">
<circle cx="345.938" cy="492.269" r="27.9852" transform="rotate(-90 345.938 492.269)" stroke="#BA402A" stroke-width="2.02303"/>
</g>
<mask id="mask2_471_10567" style="mask-type:alpha" maskUnits="userSpaceOnUse" x="581" y="280" width="45" height="83">
<rect x="-0.337171" y="0.337171" width="42.4836" height="81.5954" transform="matrix(-1 0 0 1 624.443 280.531)" fill="#C9DEF2" stroke="#C2526A" stroke-width="0.674342"/>
</mask>
<g mask="url(#mask2_471_10567)">
<circle cx="28.9967" cy="28.9967" r="27.9852" transform="matrix(-1 0 0 1 654.109 289.965)" fill="#C9DEF2" stroke="#BA402A" stroke-width="2.02303"/>
</g>
<circle cx="344.925" cy="317.952" r="43.4951" stroke="#1A1A1A" stroke-width="4.04605"/>
<rect x="63.3828" y="153.754" width="2.69737" height="329.079" fill="#BA402A"/>
<rect width="2.69737" height="329.079" transform="matrix(-1 0 0 1 626.465 153.754)" fill="#BA402A"/>
<rect x="4.0516" y="134.864" width="681.76" height="366.168" rx="113.29" stroke="#95D0EB" stroke-width="8.09211"/>
<rect x="10.4579" y="141.27" width="668.947" height="353.355" rx="106.883" stroke="#5060C4" stroke-width="4.7204"/>
<path opacity="0.45" d="M14.8359 249.505C14.8359 192.151 61.3306 145.656 118.685 145.656H250.856V314.916H14.8359V249.505Z" fill="#EC6707"/>
<path opacity="0.45" d="M14.8359 51.25C14.8359 22.9454 37.7814 0 66.086 0H250.856V77.5493H14.8359V51.25Z" fill="#EC6707"/>
<path d="M118.959 29.1836V20.0694H126.321V29.1836H124.418V21.6565H120.856V29.1836H118.959ZM135.725 24.6265C135.725 26.2114 135.389 27.399 134.718 28.1892C134.05 28.9794 133.078 29.3746 131.8 29.3746C130.453 29.3746 129.46 28.9597 128.824 28.1299C128.192 27.2958 127.876 26.128 127.876 24.6265C127.876 23.1163 128.192 21.9485 128.824 21.1231C129.46 20.2933 130.453 19.8785 131.8 19.8785C133.157 19.8785 134.149 20.2933 134.777 21.1231C135.409 21.9485 135.725 23.1163 135.725 24.6265ZM133.809 24.6265C133.809 23.5465 133.655 22.7607 133.348 22.269C133.045 21.7729 132.529 21.5248 131.8 21.5248C131.072 21.5248 130.554 21.7729 130.246 22.269C129.943 22.7607 129.792 23.5465 129.792 24.6265C129.792 25.7065 129.946 26.4946 130.253 26.9907C130.565 27.4824 131.08 27.7282 131.8 27.7282C132.529 27.7282 133.045 27.4824 133.348 26.9907C133.655 26.4946 133.809 25.7065 133.809 24.6265ZM140.256 21.617V22.3611C140.256 24.7846 140.041 26.5626 139.611 27.6953C139.18 28.8236 138.491 29.3877 137.543 29.3877C136.88 29.3877 136.322 29.2516 135.87 28.9794L136.45 27.5241C136.722 27.6426 136.97 27.7019 137.194 27.7019C137.501 27.7019 137.743 27.5197 137.918 27.1553C138.098 26.7909 138.232 26.196 138.32 25.3707C138.408 24.5409 138.452 23.4346 138.452 22.0516V20.0694H144.332V29.1836H142.482V21.617H140.256ZM153.73 24.6265C153.73 26.2114 153.394 27.399 152.722 28.1892C152.055 28.9794 151.082 29.3746 149.805 29.3746C148.457 29.3746 147.465 28.9597 146.828 28.1299C146.196 27.2958 145.88 26.128 145.88 24.6265C145.88 23.1163 146.196 21.9485 146.828 21.1231C147.465 20.2933 148.457 19.8785 149.805 19.8785C151.161 19.8785 152.154 20.2933 152.781 21.1231C153.414 21.9485 153.73 23.1163 153.73 24.6265ZM151.813 24.6265C151.813 23.5465 151.66 22.7607 151.352 22.269C151.049 21.7729 150.534 21.5248 149.805 21.5248C149.076 21.5248 148.558 21.7729 148.251 22.269C147.948 22.7607 147.796 23.5465 147.796 24.6265C147.796 25.7065 147.95 26.4946 148.257 26.9907C148.569 27.4824 149.085 27.7282 149.805 27.7282C150.534 27.7282 151.049 27.4824 151.352 26.9907C151.66 26.4946 151.813 25.7065 151.813 24.6265ZM162.264 26.5429C162.264 27.456 161.95 28.1255 161.323 28.5514C160.695 28.9729 159.823 29.1836 158.708 29.1836H155.284V20.0694H158.504C159.672 20.0694 160.508 20.2407 161.013 20.5831C161.518 20.9211 161.77 21.4589 161.77 22.1965C161.77 22.7629 161.632 23.2216 161.356 23.5729C161.083 23.9241 160.655 24.159 160.071 24.2775C160.835 24.3829 161.391 24.6243 161.738 25.0019C162.089 25.3794 162.264 25.8931 162.264 26.5429ZM159.894 22.6048C159.894 22.258 159.766 22.0187 159.512 21.887C159.257 21.7509 158.862 21.6829 158.326 21.6829H157.141V23.6387H158.274C158.822 23.6387 159.228 23.5619 159.492 23.4082C159.76 23.2546 159.894 22.9868 159.894 22.6048ZM160.368 26.3782C160.368 25.9699 160.229 25.6824 159.953 25.5155C159.676 25.3443 159.158 25.2587 158.399 25.2587H157.141V27.5373H158.083C158.807 27.5373 159.305 27.5021 159.578 27.4319C159.854 27.3616 160.054 27.2431 160.177 27.0763C160.304 26.9094 160.368 26.6768 160.368 26.3782ZM163.832 29.1836V20.0694H165.57V26.4177L168.942 20.0694H171.109V29.1836H169.37V22.4138L165.814 29.1836H163.832ZM178.537 29.1836V25.3114H174.948V29.1836H173.091V20.0694H174.948V23.6124H178.537V20.0694H180.4V29.1836H178.537ZM181.566 29.1836L184.582 20.0694H186.999L190.022 29.1836H188.119L187.513 27.3331H184.003L183.41 29.1836H181.566ZM184.529 25.7065H186.986L185.761 21.9397L184.529 25.7065ZM103.47 39.5992H104.741C105.997 39.5992 106.938 39.8472 107.566 40.3433C108.198 40.8351 108.515 41.5572 108.515 42.5099C108.515 43.4012 108.22 44.0707 107.632 44.5185C107.048 44.9619 106.102 45.1836 104.794 45.1836H101.613V36.0694H107.816V37.5907H103.47V39.5992ZM106.598 42.3914C106.598 42.0753 106.532 41.8251 106.401 41.6407C106.273 41.4563 106.078 41.3246 105.815 41.2455C105.551 41.1665 105.125 41.127 104.537 41.127H103.47V43.6624H104.655C105.279 43.6624 105.757 43.5746 106.091 43.399C106.429 43.2233 106.598 42.8875 106.598 42.3914ZM117.629 40.6265C117.629 42.2114 117.293 43.399 116.621 44.1892C115.954 44.9794 114.981 45.3746 113.704 45.3746C112.356 45.3746 111.364 44.9597 110.727 44.1299C110.095 43.2958 109.779 42.128 109.779 40.6265C109.779 39.1163 110.095 37.9485 110.727 37.1231C111.364 36.2933 112.356 35.8785 113.704 35.8785C115.06 35.8785 116.053 36.2933 116.68 37.1231C117.313 37.9485 117.629 39.1163 117.629 40.6265ZM115.712 40.6265C115.712 39.5465 115.559 38.7607 115.251 38.269C114.948 37.7729 114.433 37.5248 113.704 37.5248C112.975 37.5248 112.457 37.7729 112.15 38.269C111.847 38.7607 111.695 39.5465 111.695 40.6265C111.695 41.7065 111.849 42.4946 112.156 42.9907C112.468 43.4824 112.984 43.7282 113.704 43.7282C114.433 43.7282 114.948 43.4824 115.251 42.9907C115.559 42.4946 115.712 41.7065 115.712 40.6265ZM122.159 37.617V38.3611C122.159 40.7846 121.944 42.5626 121.514 43.6953C121.084 44.8236 120.395 45.3877 119.446 45.3877C118.783 45.3877 118.226 45.2516 117.774 44.9794L118.353 43.5241C118.625 43.6426 118.873 43.7019 119.097 43.7019C119.405 43.7019 119.646 43.5197 119.822 43.1553C120.002 42.7909 120.136 42.196 120.223 41.3707C120.311 40.5409 120.355 39.4346 120.355 38.0516V36.0694H126.236V45.1836H124.385V37.617H122.159ZM128.205 45.1836V36.0694H130.062V39.3029H131.465C132.725 39.3029 133.631 39.5399 134.184 40.0141C134.737 40.4838 135.014 41.2038 135.014 42.1741C135.014 43.219 134.724 43.9829 134.145 44.4658C133.565 44.9443 132.659 45.1836 131.425 45.1836H128.205ZM133.098 42.1741C133.098 41.7087 132.959 41.3816 132.683 41.1929C132.411 41.0041 131.974 40.9097 131.372 40.9097H130.062V43.5504H131.372C131.939 43.5504 132.367 43.4429 132.656 43.2277C132.951 43.0126 133.098 42.6614 133.098 42.1741ZM144.997 43.4846V36.0694H146.855V45.1836H136.516V36.0694H138.373V43.4846H140.763V36.0694H142.607V43.4846H144.997ZM156.258 40.6265C156.258 42.2114 155.923 43.399 155.251 44.1892C154.584 44.9794 153.611 45.3746 152.334 45.3746C150.986 45.3746 149.994 44.9597 149.357 44.1299C148.725 43.2958 148.409 42.128 148.409 40.6265C148.409 39.1163 148.725 37.9485 149.357 37.1231C149.994 36.2933 150.986 35.8785 152.334 35.8785C153.69 35.8785 154.682 36.2933 155.31 37.1231C155.942 37.9485 156.258 39.1163 156.258 40.6265ZM154.342 40.6265C154.342 39.5465 154.188 38.7607 153.881 38.269C153.578 37.7729 153.062 37.5248 152.334 37.5248C151.605 37.5248 151.087 37.7729 150.779 38.269C150.477 38.7607 150.325 39.5465 150.325 40.6265C150.325 41.7065 150.479 42.4946 150.786 42.9907C151.098 43.4824 151.614 43.7282 152.334 43.7282C153.062 43.7282 153.578 43.4824 153.881 42.9907C154.188 42.4946 154.342 41.7065 154.342 40.6265ZM157.813 45.1836V36.0694H159.551V42.4177L162.923 36.0694H165.089V45.1836H163.351V38.4138L159.795 45.1836H157.813ZM163.911 33.3299C163.911 33.6636 163.812 33.9709 163.614 34.2519C163.417 34.5285 163.138 34.7502 162.778 34.917C162.422 35.0794 162.008 35.1607 161.533 35.1607C161.068 35.1607 160.655 35.0794 160.295 34.917C159.935 34.7546 159.657 34.5328 159.459 34.2519C159.261 33.9709 159.163 33.6636 159.163 33.3299H160.618C160.618 33.9841 160.928 34.3111 161.547 34.3111C161.792 34.3111 162.005 34.2409 162.185 34.1004C162.365 33.9555 162.455 33.6987 162.455 33.3299H163.911ZM171.062 42.5824C171.554 43.4341 172.252 43.8599 173.157 43.8599C173.622 43.8599 174.01 43.7392 174.322 43.4977C174.638 43.2563 174.796 42.9336 174.796 42.5297C174.796 42.0863 174.684 41.7636 174.46 41.5616C174.237 41.3597 173.868 41.2587 173.354 41.2587H171.425V39.7243H173.453C173.844 39.7243 174.142 39.6211 174.349 39.4148C174.559 39.2041 174.665 38.8968 174.665 38.4929C174.665 38.1636 174.511 37.898 174.204 37.696C173.896 37.4897 173.51 37.3865 173.045 37.3865C172.702 37.3865 172.351 37.4414 171.991 37.5511C171.635 37.6565 171.236 37.8672 170.792 38.1833L169.864 36.8465C170.751 36.2011 171.833 35.8785 173.11 35.8785C173.852 35.8785 174.487 35.9794 175.014 36.1814C175.545 36.3833 175.947 36.6797 176.219 37.0704C176.495 37.4568 176.634 37.9177 176.634 38.4533C176.634 38.967 176.504 39.4082 176.245 39.777C175.99 40.1458 175.674 40.396 175.297 40.5277C176.267 40.9448 176.752 41.6253 176.752 42.5692C176.752 43.4912 176.443 44.1892 175.824 44.6633C175.205 45.1375 174.329 45.3746 173.196 45.3746C172.362 45.3746 171.646 45.2253 171.049 44.9268C170.452 44.6238 169.949 44.1431 169.541 43.4846L171.062 42.5824ZM185.761 40.6265C185.761 42.2114 185.425 43.399 184.753 44.1892C184.086 44.9794 183.114 45.3746 181.836 45.3746C180.488 45.3746 179.496 44.9597 178.859 44.1299C178.227 43.2958 177.911 42.128 177.911 40.6265C177.911 39.1163 178.227 37.9485 178.859 37.1231C179.496 36.2933 180.488 35.8785 181.836 35.8785C183.193 35.8785 184.185 36.2933 184.813 37.1231C185.445 37.9485 185.761 39.1163 185.761 40.6265ZM183.845 40.6265C183.845 39.5465 183.691 38.7607 183.384 38.269C183.081 37.7729 182.565 37.5248 181.836 37.5248C181.107 37.5248 180.589 37.7729 180.282 38.269C179.979 38.7607 179.828 39.5465 179.828 40.6265C179.828 41.7065 179.981 42.4946 180.289 42.9907C180.6 43.4824 181.116 43.7282 181.836 43.7282C182.565 43.7282 183.081 43.4824 183.384 42.9907C183.691 42.4946 183.845 41.7065 183.845 40.6265ZM192.761 45.1836V41.3114H189.172V45.1836H187.315V36.0694H189.172V39.6124H192.761V36.0694H194.625V45.1836H192.761ZM204.714 36.0694H206.564V45.1836H204.714V36.0694ZM196.6 45.1836V36.0694H198.458V39.3029H199.86C201.12 39.3029 202.027 39.5399 202.58 40.0141C203.133 40.4838 203.41 41.2038 203.41 42.1741C203.41 43.219 203.12 43.9829 202.541 44.4658C201.961 44.9443 201.054 45.1836 199.821 45.1836H196.6ZM201.493 42.1741C201.493 41.7087 201.355 41.3816 201.079 41.1929C200.806 41.0041 200.37 40.9097 199.768 40.9097H198.458V43.5504H199.768C200.334 43.5504 200.762 43.4429 201.052 43.2277C201.346 43.0126 201.493 42.6614 201.493 42.1741Z" fill="black"/>
<path d="M94.4493 91.5508V83.9974L91.9271 89.0681H91.1698L88.674 83.9974V91.5508H87.5149V82.4366H89.1613L91.5781 87.3954L94.0147 82.4366H95.6084V91.5508H94.4493ZM101.858 91.5508V90.6881C101.507 90.9954 101.153 91.25 100.798 91.452C100.442 91.654 100.04 91.7549 99.5925 91.7549C98.934 91.7549 98.4247 91.5552 98.0647 91.1557C97.7091 90.7518 97.5313 90.2359 97.5313 89.6081C97.5313 89.1339 97.6235 88.741 97.8079 88.4293C97.9967 88.1132 98.2667 87.8652 98.6179 87.6852C98.9735 87.5008 99.4872 87.3691 100.159 87.29L101.858 87.1386V86.8027C101.858 86.2715 101.709 85.9093 101.41 85.7161C101.116 85.523 100.708 85.4264 100.185 85.4264C99.7198 85.4264 99.3598 85.5076 99.1052 85.67C98.855 85.8325 98.675 86.0081 98.5652 86.1969L97.6367 85.6305C97.8474 85.2486 98.1679 84.9566 98.5981 84.7547C99.0328 84.5483 99.5706 84.4452 100.212 84.4452C101.204 84.4452 101.915 84.6252 102.345 84.9852C102.775 85.3452 102.991 85.9686 102.991 86.8554V91.5508H101.858ZM101.858 88.0474L100.752 88.1527C100.001 88.2186 99.4718 88.3657 99.1645 88.5939C98.8572 88.8179 98.7035 89.1471 98.7035 89.5818C98.7035 89.9944 98.8067 90.2908 99.013 90.4708C99.2194 90.6508 99.5289 90.7408 99.9415 90.7408C100.113 90.7408 100.282 90.71 100.449 90.6486C100.615 90.5827 100.78 90.5037 100.943 90.4115C101.105 90.3149 101.261 90.2074 101.41 90.0888C101.564 89.9659 101.713 89.8474 101.858 89.7332V88.0474ZM106.283 84.6427V87.5864H107.251C107.51 87.5864 107.73 87.4942 107.91 87.3098C108.09 87.1254 108.268 86.8159 108.443 86.3813C108.623 85.9422 108.797 85.3627 108.964 84.6427H110.116C109.949 85.3935 109.771 86.0103 109.583 86.4932C109.398 86.9761 109.214 87.3339 109.029 87.5666C108.849 87.7993 108.621 87.9486 108.344 88.0144C108.674 88.111 108.942 88.2669 109.148 88.482C109.354 88.6971 109.543 89.0198 109.714 89.45C109.885 89.8759 110.094 90.5761 110.34 91.5508H109.194C109.04 91.0108 108.902 90.5498 108.779 90.1679C108.661 89.7859 108.529 89.4764 108.384 89.2393C108.244 88.9979 108.077 88.8244 107.884 88.7191C107.69 88.6093 107.444 88.5544 107.146 88.5544H106.283V91.5508H105.177V84.6427H106.283ZM116.807 90.484C116.592 90.8527 116.293 91.1579 115.911 91.3993C115.529 91.6364 115.002 91.7549 114.331 91.7549C113.316 91.7549 112.553 91.4498 112.039 90.8396C111.525 90.2249 111.268 89.3161 111.268 88.1132C111.268 86.9103 111.523 85.9993 112.032 85.3803C112.542 84.7569 113.292 84.4452 114.284 84.4452C115.422 84.4452 116.232 84.8666 116.714 85.7096L115.786 86.2759C115.615 86.0081 115.413 85.7996 115.18 85.6503C114.952 85.501 114.649 85.4264 114.271 85.4264C113.608 85.4264 113.136 85.6678 112.855 86.1508C112.579 86.6293 112.441 87.2922 112.441 88.1396C112.441 88.7849 112.506 89.2876 112.638 89.6476C112.77 90.0076 112.974 90.2842 113.251 90.4774C113.532 90.6705 113.887 90.7671 114.317 90.7671C114.686 90.7671 114.987 90.6991 115.22 90.563C115.452 90.4225 115.672 90.2074 115.878 89.9176L116.807 90.484ZM119.599 91.5508H118.4V84.6427H119.467V90.0954L122.852 84.6427H123.998V91.5508H122.931V86.21L119.599 91.5508ZM132.631 91.5508H131.565V86.2891L129.688 89.7332H129.121L127.304 86.2891V91.5508H126.237V84.6427H127.422L129.431 88.1922L131.459 84.6427H132.631V91.5508ZM134.014 93.0193C134.3 93.1466 134.631 93.2103 135.009 93.2103C135.54 93.2103 135.99 92.7296 136.359 91.7681L136.589 91.1754L134.067 84.6427H135.292L137.195 89.7003L139.111 84.6427H140.297L137.346 92.0776C137.035 92.8371 136.701 93.3727 136.345 93.6844C135.99 93.9962 135.527 94.152 134.956 94.152C134.75 94.152 134.53 94.1322 134.297 94.0927C134.065 94.0532 133.876 94.0071 133.731 93.9544L134.014 93.0193ZM148.12 91.5508H147.053V86.2891L145.176 89.7332H144.61L142.793 86.2891V91.5508H141.726V84.6427H142.911L144.92 88.1922L146.948 84.6427H148.12V91.5508ZM159.842 88.9891C159.842 89.9242 159.535 90.6179 158.92 91.07C158.31 91.5179 157.469 91.7418 156.398 91.7418C155.634 91.7418 154.987 91.6035 154.455 91.3269C153.928 91.0459 153.553 90.6925 153.329 90.2666L154.824 89.2459C154.987 89.4961 155.188 89.6981 155.43 89.8518C155.671 90.0054 156.001 90.0822 156.418 90.0822C156.945 90.0822 157.327 89.9813 157.564 89.7793C157.805 89.5774 157.926 89.2679 157.926 88.8508C157.926 88.0078 157.368 87.5864 156.253 87.5864H155.443V85.9927H156.148C156.705 85.9927 157.111 85.883 157.366 85.6635C157.621 85.4439 157.748 85.1586 157.748 84.8074C157.748 84.5483 157.656 84.3332 157.471 84.162C157.287 83.9908 156.984 83.9052 156.563 83.9052C156.141 83.9052 155.803 83.9732 155.548 84.1093C155.298 84.241 155.083 84.443 154.903 84.7152L153.421 83.6747C153.781 83.1874 154.216 82.8274 154.725 82.5947C155.239 82.362 155.897 82.2456 156.701 82.2456C157.311 82.2456 157.842 82.3422 158.295 82.5354C158.751 82.7242 159.096 82.9876 159.328 83.3256C159.561 83.6637 159.677 84.05 159.677 84.4847C159.677 85.6744 159.063 86.4208 157.834 86.7237C158.435 86.7632 158.92 86.9915 159.289 87.4086C159.658 87.8213 159.842 88.3481 159.842 88.9891ZM165.012 84.6427H166.118V86.4142C166.118 86.9674 166.151 87.3866 166.217 87.672C166.283 87.953 166.39 88.1505 166.539 88.2647C166.693 88.3788 166.921 88.4359 167.224 88.4359C167.72 88.4359 168.386 88.2691 169.22 87.9354V84.6427H170.326V91.5508H169.22V88.91L168.673 89.1076C167.975 89.371 167.411 89.5027 166.981 89.5027C166.3 89.5027 165.802 89.281 165.486 88.8376C165.17 88.3942 165.012 87.7203 165.012 86.8159V84.6427ZM173.395 88.2318C173.395 89.1449 173.551 89.7969 173.862 90.1876C174.174 90.574 174.675 90.7671 175.364 90.7671C175.671 90.7671 175.941 90.7035 176.174 90.5761C176.407 90.4444 176.63 90.2337 176.846 89.9439L177.781 90.5235C177.517 90.9186 177.197 91.2237 176.819 91.4388C176.442 91.6496 175.93 91.7549 175.285 91.7549C174.258 91.7549 173.489 91.4564 172.98 90.8593C172.475 90.2622 172.223 89.36 172.223 88.1527C172.223 86.8883 172.468 85.9554 172.96 85.3539C173.456 84.7481 174.203 84.4452 175.199 84.4452C176.095 84.4452 176.767 84.7042 177.214 85.2222C177.662 85.7359 177.886 86.5283 177.886 87.5996V88.2318H173.395ZM176.78 87.3427C176.771 86.7237 176.639 86.243 176.385 85.9005C176.134 85.5581 175.726 85.3869 175.16 85.3869C174.62 85.3869 174.214 85.5427 173.941 85.8544C173.674 86.1617 173.496 86.6578 173.408 87.3427H176.78ZM181.706 85.5778V86.0586C181.706 87.1781 181.609 88.1703 181.416 89.0352C181.227 89.8957 180.957 90.5476 180.606 90.991C180.259 91.4344 179.848 91.6561 179.374 91.6561C179.265 91.6561 179.133 91.643 178.979 91.6166C178.83 91.5903 178.718 91.564 178.643 91.5376L178.861 90.5498C179.023 90.5805 179.161 90.5959 179.276 90.5959C180.176 90.5959 180.626 88.9539 180.626 85.67V84.6427H184.636V91.5508H183.53V85.5778H181.706ZM192.604 88.1132C192.604 89.3118 192.345 90.2183 191.827 90.833C191.314 91.4476 190.563 91.7549 189.575 91.7549C188.587 91.7549 187.832 91.452 187.31 90.8461C186.787 90.2359 186.526 89.3249 186.526 88.1132C186.526 86.8796 186.787 85.9598 187.31 85.3539C187.837 84.7481 188.592 84.4452 189.575 84.4452C190.567 84.4452 191.32 84.7547 191.834 85.3737C192.348 85.9883 192.604 86.9015 192.604 88.1132ZM191.432 88.1132C191.432 87.1737 191.276 86.491 190.965 86.0652C190.657 85.6393 190.194 85.4264 189.575 85.4264C188.939 85.4264 188.467 85.6415 188.159 86.0717C187.852 86.4976 187.698 87.1781 187.698 88.1132C187.698 89.0132 187.845 89.6805 188.139 90.1152C188.438 90.5498 188.917 90.7671 189.575 90.7671C190.203 90.7671 190.668 90.552 190.971 90.1218C191.279 89.6915 191.432 89.022 191.432 88.1132ZM199.934 89.45C199.934 90.192 199.681 90.7276 199.177 91.0569C198.676 91.3861 197.941 91.5508 196.97 91.5508H194.501V84.6427H196.944C197.936 84.6427 198.63 84.7635 199.025 85.0049C199.425 85.2464 199.624 85.6657 199.624 86.2627C199.624 87.0661 199.269 87.6105 198.558 87.8959C199.032 88.0013 199.379 88.1769 199.598 88.4227C199.822 88.6686 199.934 89.011 199.934 89.45ZM198.492 86.4405C198.492 86.0542 198.36 85.8061 198.097 85.6964C197.838 85.5822 197.44 85.5252 196.905 85.5252H195.607V87.5732H196.819C197.934 87.5732 198.492 87.1957 198.492 86.4405ZM198.775 89.4764C198.775 89.0769 198.643 88.8091 198.38 88.673C198.121 88.5325 197.673 88.4622 197.036 88.4622H195.607V90.6486H196.575C197.304 90.6486 197.853 90.574 198.222 90.4247C198.59 90.2754 198.775 89.9593 198.775 89.4764ZM202.555 88.2318C202.555 89.1449 202.711 89.7969 203.022 90.1876C203.334 90.574 203.835 90.7671 204.524 90.7671C204.831 90.7671 205.101 90.7035 205.334 90.5761C205.567 90.4444 205.79 90.2337 206.006 89.9439L206.941 90.5235C206.677 90.9186 206.357 91.2237 205.979 91.4388C205.602 91.6496 205.09 91.7549 204.445 91.7549C203.418 91.7549 202.649 91.4564 202.14 90.8593C201.635 90.2622 201.383 89.36 201.383 88.1527C201.383 86.8883 201.629 85.9554 202.12 85.3539C202.616 84.7481 203.363 84.4452 204.359 84.4452C205.255 84.4452 205.927 84.7042 206.374 85.2222C206.822 85.7359 207.046 86.5283 207.046 87.5996V88.2318H202.555ZM205.94 87.3427C205.931 86.7237 205.799 86.243 205.545 85.9005C205.294 85.5581 204.886 85.3869 204.32 85.3869C203.78 85.3869 203.374 85.5427 203.101 85.8544C202.834 86.1617 202.656 86.6578 202.568 87.3427H205.94ZM209.963 84.6427V87.5864H210.931C211.19 87.5864 211.41 87.4942 211.59 87.3098C211.77 87.1254 211.948 86.8159 212.123 86.3813C212.303 85.9422 212.477 85.3627 212.644 84.6427H213.796C213.629 85.3935 213.451 86.0103 213.263 86.4932C213.078 86.9761 212.894 87.3339 212.71 87.5666C212.53 87.7993 212.301 87.9486 212.025 88.0144C212.354 88.111 212.622 88.2669 212.828 88.482C213.034 88.6971 213.223 89.0198 213.394 89.45C213.566 89.8759 213.774 90.5761 214.02 91.5508H212.874C212.72 91.0108 212.582 90.5498 212.459 90.1679C212.341 89.7859 212.209 89.4764 212.064 89.2393C211.924 88.9979 211.757 88.8244 211.564 88.7191C211.37 88.6093 211.125 88.5544 210.826 88.5544H209.963V91.5508H208.857V84.6427H209.963ZM219.143 91.5508V90.6881C218.792 90.9954 218.439 91.25 218.083 91.452C217.728 91.654 217.326 91.7549 216.878 91.7549C216.22 91.7549 215.71 91.5552 215.35 91.1557C214.995 90.7518 214.817 90.2359 214.817 89.6081C214.817 89.1339 214.909 88.741 215.093 88.4293C215.282 88.1132 215.552 87.8652 215.903 87.6852C216.259 87.5008 216.773 87.3691 217.444 87.29L219.143 87.1386V86.8027C219.143 86.2715 218.994 85.9093 218.696 85.7161C218.401 85.523 217.993 85.4264 217.471 85.4264C217.005 85.4264 216.645 85.5076 216.391 85.67C216.14 85.8325 215.96 86.0081 215.851 86.1969L214.922 85.6305C215.133 85.2486 215.453 84.9566 215.884 84.7547C216.318 84.5483 216.856 84.4452 217.497 84.4452C218.489 84.4452 219.2 84.6252 219.631 84.9852C220.061 85.3452 220.276 85.9686 220.276 86.8554V91.5508H219.143ZM219.143 88.0474L218.037 88.1527C217.286 88.2186 216.757 88.3657 216.45 88.5939C216.143 88.8179 215.989 89.1471 215.989 89.5818C215.989 89.9944 216.092 90.2908 216.299 90.4708C216.505 90.6508 216.814 90.7408 217.227 90.7408C217.398 90.7408 217.567 90.71 217.734 90.6486C217.901 90.5827 218.066 90.5037 218.228 90.4115C218.39 90.3149 218.546 90.2074 218.696 90.0888C218.849 89.9659 218.999 89.8474 219.143 89.7332V88.0474Z" fill="black"/>
<path d="M128.21 69.2461V61.6071H125.444V60.043C126.234 59.9936 126.829 59.9003 127.23 59.7632C127.636 59.6205 127.957 59.401 128.193 59.1046C128.435 58.8083 128.624 58.3912 128.761 57.8534H130.531V69.2461H128.21ZM142.994 65.5007C142.994 66.7409 142.596 67.715 141.8 68.4229C141.01 69.1308 139.869 69.4848 138.376 69.4848C136.515 69.4848 135.171 68.8592 134.342 67.608L136.194 66.2991C136.617 67.04 137.333 67.4104 138.343 67.4104C139.858 67.4104 140.615 66.7574 140.615 65.4513C140.615 64.9025 140.415 64.4717 140.014 64.1589C139.619 63.8406 139.067 63.6815 138.359 63.6815C137.602 63.6815 137.029 63.8845 136.639 64.2906H135.017L135.692 57.8534H142.352V59.9772H137.544L137.314 61.9775C137.835 61.7635 138.414 61.6564 139.051 61.6564C140.269 61.6564 141.23 61.983 141.932 62.636C142.64 63.2891 142.994 64.244 142.994 65.5007ZM153.563 63.5497C153.563 65.5967 153.204 67.1004 152.485 68.0607C151.766 69.0211 150.641 69.5013 149.11 69.5013C147.59 69.5013 146.47 69.0211 145.751 68.0607C145.033 67.1004 144.673 65.6022 144.673 63.5662C144.673 61.5302 145.033 60.0293 145.751 59.0635C146.47 58.0976 147.59 57.6147 149.11 57.6147C150.641 57.6147 151.766 58.0949 152.485 59.0552C153.204 60.0156 153.563 61.5138 153.563 63.5497ZM151.168 63.5497C151.168 62.1888 151.001 61.1927 150.666 60.5616C150.337 59.925 149.818 59.6068 149.11 59.6068C148.402 59.6068 147.883 59.9278 147.554 60.5699C147.23 61.2064 147.069 62.2052 147.069 63.5662C147.069 64.9272 147.23 65.926 147.554 66.5626C147.883 67.1937 148.402 67.5092 149.11 67.5092C149.818 67.5092 150.337 67.1909 150.666 66.5543C151.001 65.9122 151.168 64.9107 151.168 63.5497ZM164.1 63.5497C164.1 65.5967 163.741 67.1004 163.022 68.0607C162.303 69.0211 161.178 69.5013 159.647 69.5013C158.126 69.5013 157.007 69.0211 156.288 68.0607C155.569 67.1004 155.21 65.6022 155.21 63.5662C155.21 61.5302 155.569 60.0293 156.288 59.0635C157.007 58.0976 158.126 57.6147 159.647 57.6147C161.178 57.6147 162.303 58.0949 163.022 59.0552C163.741 60.0156 164.1 61.5138 164.1 63.5497ZM161.705 63.5497C161.705 62.1888 161.537 61.1927 161.202 60.5616C160.873 59.925 160.355 59.6068 159.647 59.6068C158.939 59.6068 158.42 59.9278 158.091 60.5699C157.767 61.2064 157.605 62.2052 157.605 63.5662C157.605 64.9272 157.767 65.926 158.091 66.5626C158.42 67.1937 158.939 67.5092 159.647 67.5092C160.355 67.5092 160.873 67.1909 161.202 66.5543C161.537 65.9122 161.705 64.9107 161.705 63.5497ZM178.226 64.8668C178.226 65.7943 178.086 66.6119 177.806 67.3199C177.526 68.0278 177.125 68.5683 176.604 68.9415C176.083 69.3147 175.46 69.5013 174.735 69.5013C173.78 69.5013 172.966 69.2022 172.291 68.604V72.4976H170.167V60.611H172.126V61.4589C172.521 61.1186 172.935 60.8525 173.369 60.6604C173.808 60.4629 174.31 60.3641 174.875 60.3641C175.967 60.3641 176.799 60.7482 177.369 61.5165C177.94 62.2848 178.226 63.4016 178.226 64.8668ZM176.036 64.8997C176.036 64.0601 175.891 63.4071 175.6 62.9406C175.309 62.4686 174.875 62.2327 174.299 62.2327C173.953 62.2327 173.597 62.315 173.229 62.4796C172.867 62.6388 172.554 62.8363 172.291 63.0723V66.8507C172.516 67.0537 172.793 67.2348 173.122 67.394C173.457 67.5476 173.8 67.6244 174.151 67.6244C174.733 67.6244 175.191 67.3775 175.526 66.8836C175.866 66.3842 176.036 65.7229 176.036 64.8997ZM182.745 68.0525C182.745 68.5244 182.638 68.8619 182.424 69.065C182.21 69.2626 181.867 69.3613 181.395 69.3613C180.879 69.3613 180.528 69.2488 180.341 69.0238C180.155 68.7988 180.061 68.4751 180.061 68.0525C180.061 67.6025 180.16 67.2705 180.358 67.0565C180.555 66.8424 180.901 66.7354 181.395 66.7354C181.9 66.7354 182.251 66.8397 182.448 67.0482C182.646 67.2568 182.745 67.5915 182.745 68.0525Z" fill="black"/>
</g>
<defs>
<clipPath id="clip0_471_10567">
<rect width="690" height="505" fill="white"/>
</clipPath>
</defs>
</svg>
