<svg width="505" height="690" viewBox="0 0 505 690" fill="none" xmlns="http://www.w3.org/2000/svg">
<g clip-path="url(#clip0_492_11148)">
<rect width="690" height="505" transform="translate(505 2.20743e-05) rotate(90)" fill="white"/>
<circle cx="91.962" cy="131.153" r="42.1464" transform="rotate(90 91.962 131.153)" stroke="#BA402A" stroke-width="2.69737"/>
<circle cx="3.03454" cy="3.03454" r="1.68585" transform="matrix(4.37114e-08 -1 -1 -4.37114e-08 95 134.188)" fill="#BA402A" stroke="#BA402A" stroke-width="2.69737"/>
<line x1="142.203" y1="124.069" x2="134.111" y2="124.069" stroke="#BA402A" stroke-width="2.69737"/>
<line x1="49.8164" y1="124.069" x2="41.7243" y2="124.069" stroke="#BA402A" stroke-width="2.69737"/>
<line x1="103.094" y1="126.097" x2="92.9787" y2="126.097" stroke="#BA402A" stroke-width="2.69737"/>
<line x1="88.9336" y1="126.097" x2="80.8415" y2="126.097" stroke="#BA402A" stroke-width="2.69737"/>
<line x1="142.203" y1="141.605" x2="134.111" y2="141.605" stroke="#BA402A" stroke-width="2.69737"/>
<line x1="49.8164" y1="141.605" x2="41.7243" y2="141.605" stroke="#BA402A" stroke-width="2.69737"/>
<line x1="103.094" y1="138.235" x2="95.0017" y2="138.235" stroke="#BA402A" stroke-width="2.69737"/>
<line x1="94.3271" y1="149.695" x2="94.3271" y2="136.883" stroke="#BA402A" stroke-width="2.69737"/>
<line x1="94.3271" y1="125.42" x2="94.3271" y2="112.607" stroke="#BA402A" stroke-width="2.69737"/>
<line x1="87.5849" y1="149.695" x2="87.5849" y2="136.883" stroke="#BA402A" stroke-width="2.69737"/>
<line x1="87.5849" y1="125.42" x2="87.5849" y2="112.607" stroke="#BA402A" stroke-width="2.69737"/>
<line x1="88.9336" y1="138.235" x2="80.8415" y2="138.235" stroke="#BA402A" stroke-width="2.69737"/>
<circle cx="91.962" cy="560.032" r="42.1464" transform="rotate(90 91.962 560.032)" stroke="#BA402A" stroke-width="2.69737"/>
<circle cx="3.03454" cy="3.03454" r="1.68585" transform="matrix(4.37114e-08 -1 -1 -4.37114e-08 95 563.066)" fill="#BA402A" stroke="#BA402A" stroke-width="2.69737"/>
<line x1="142.203" y1="552.952" x2="134.111" y2="552.952" stroke="#BA402A" stroke-width="2.69737"/>
<line x1="49.8164" y1="552.952" x2="41.7243" y2="552.952" stroke="#BA402A" stroke-width="2.69737"/>
<line x1="103.094" y1="554.976" x2="92.9787" y2="554.976" stroke="#BA402A" stroke-width="2.69737"/>
<line x1="88.9336" y1="554.976" x2="80.8415" y2="554.976" stroke="#BA402A" stroke-width="2.69737"/>
<line x1="142.203" y1="570.483" x2="134.111" y2="570.483" stroke="#BA402A" stroke-width="2.69737"/>
<line x1="49.8164" y1="570.483" x2="41.7243" y2="570.483" stroke="#BA402A" stroke-width="2.69737"/>
<line x1="103.094" y1="567.11" x2="95.0017" y2="567.11" stroke="#BA402A" stroke-width="2.69737"/>
<line x1="94.3271" y1="578.578" x2="94.3271" y2="565.766" stroke="#BA402A" stroke-width="2.69737"/>
<line x1="94.3271" y1="554.299" x2="94.3271" y2="541.486" stroke="#BA402A" stroke-width="2.69737"/>
<line x1="87.5849" y1="578.578" x2="87.5849" y2="565.766" stroke="#BA402A" stroke-width="2.69737"/>
<line x1="87.5849" y1="554.299" x2="87.5849" y2="541.486" stroke="#BA402A" stroke-width="2.69737"/>
<line x1="88.9336" y1="567.11" x2="80.8415" y2="567.11" stroke="#BA402A" stroke-width="2.69737"/>
<circle cx="280.103" cy="131.153" r="42.1464" transform="rotate(90 280.103 131.153)" stroke="#BA402A" stroke-width="2.69737"/>
<circle cx="3.03454" cy="3.03454" r="1.68585" transform="matrix(4.37114e-08 -1 -1 -4.37114e-08 283.137 134.188)" fill="#BA402A" stroke="#BA402A" stroke-width="2.69737"/>
<line x1="330.344" y1="124.069" x2="322.252" y2="124.069" stroke="#BA402A" stroke-width="2.69737"/>
<line x1="237.965" y1="124.069" x2="229.873" y2="124.069" stroke="#BA402A" stroke-width="2.69737"/>
<line x1="291.234" y1="124.069" x2="283.142" y2="124.069" stroke="#BA402A" stroke-width="2.69737"/>
<line x1="277.078" y1="124.745" x2="268.986" y2="124.745" stroke="#BA402A" stroke-width="2.69737"/>
<line x1="330.344" y1="141.605" x2="322.252" y2="141.605" stroke="#BA402A" stroke-width="2.69737"/>
<line x1="237.965" y1="141.605" x2="229.873" y2="141.605" stroke="#BA402A" stroke-width="2.69737"/>
<line x1="291.234" y1="138.911" x2="283.142" y2="138.911" stroke="#BA402A" stroke-width="2.69737"/>
<line x1="282.468" y1="150.371" x2="282.468" y2="137.559" stroke="#BA402A" stroke-width="2.69737"/>
<line x1="282.468" y1="125.42" x2="282.468" y2="112.607" stroke="#BA402A" stroke-width="2.69737"/>
<line x1="275.729" y1="150.371" x2="275.729" y2="137.559" stroke="#BA402A" stroke-width="2.69737"/>
<line x1="275.729" y1="126.092" x2="275.729" y2="113.279" stroke="#BA402A" stroke-width="2.69737"/>
<line x1="277.078" y1="138.235" x2="268.986" y2="138.235" stroke="#BA402A" stroke-width="2.69737"/>
<circle cx="280.103" cy="560.032" r="42.1464" transform="rotate(90 280.103 560.032)" stroke="#BA402A" stroke-width="2.69737"/>
<circle cx="3.03454" cy="3.03454" r="1.68585" transform="matrix(4.37114e-08 -1 -1 -4.37114e-08 283.137 563.066)" fill="#BA402A" stroke="#BA402A" stroke-width="2.69737"/>
<line x1="330.344" y1="552.952" x2="322.252" y2="552.952" stroke="#BA402A" stroke-width="2.69737"/>
<line x1="237.965" y1="552.952" x2="229.873" y2="552.952" stroke="#BA402A" stroke-width="2.69737"/>
<line x1="291.234" y1="552.952" x2="283.142" y2="552.952" stroke="#BA402A" stroke-width="2.69737"/>
<line x1="277.078" y1="553.624" x2="268.986" y2="553.624" stroke="#BA402A" stroke-width="2.69737"/>
<line x1="330.344" y1="570.483" x2="322.252" y2="570.483" stroke="#BA402A" stroke-width="2.69737"/>
<line x1="237.965" y1="570.483" x2="229.873" y2="570.483" stroke="#BA402A" stroke-width="2.69737"/>
<line x1="291.234" y1="567.79" x2="283.142" y2="567.79" stroke="#BA402A" stroke-width="2.69737"/>
<line x1="282.468" y1="579.254" x2="282.468" y2="566.441" stroke="#BA402A" stroke-width="2.69737"/>
<line x1="282.468" y1="554.299" x2="282.468" y2="541.486" stroke="#BA402A" stroke-width="2.69737"/>
<line x1="275.729" y1="579.254" x2="275.729" y2="566.441" stroke="#BA402A" stroke-width="2.69737"/>
<line x1="275.729" y1="554.979" x2="275.729" y2="542.166" stroke="#BA402A" stroke-width="2.69737"/>
<line x1="277.078" y1="567.11" x2="268.986" y2="567.11" stroke="#BA402A" stroke-width="2.69737"/>
<rect x="362.715" y="252.869" width="5.39474" height="352.007" transform="rotate(90 362.715 252.869)" fill="#5060C4"/>
<rect x="177.27" y="342.557" width="5.39474" height="166.562" transform="rotate(90 177.27 342.557)" fill="#BA402A"/>
<rect x="362.715" y="342.557" width="5.39474" height="166.562" transform="rotate(90 362.715 342.557)" fill="#BA402A"/>
<rect x="362.715" y="431.572" width="5.39474" height="352.007" transform="rotate(90 362.715 431.572)" fill="#5060C4"/>
<circle cx="3.03454" cy="3.03454" r="3.03454" transform="matrix(4.37114e-08 -1 -1 -4.37114e-08 95 275.803)" fill="#BA402A"/>
<circle cx="3.03454" cy="3.03454" r="2.3602" transform="matrix(4.37114e-08 -1 -1 -4.37114e-08 190.082 347.959)" fill="#1A1A1A" stroke="#1A1A1A" stroke-width="1.34868"/>
<circle cx="3.03454" cy="3.03454" r="3.03454" transform="matrix(4.37114e-08 -1 -1 -4.37114e-08 283.137 275.803)" fill="#BA402A"/>
<circle cx="3.03454" cy="3.03454" r="3.03454" transform="matrix(4.37114e-08 -1 -1 -4.37114e-08 95 420.787)" fill="#BA402A"/>
<circle cx="3.03454" cy="3.03454" r="3.03454" transform="matrix(4.37114e-08 -1 -1 -4.37114e-08 283.137 420.787)" fill="#BA402A"/>
<mask id="mask0_492_11148" style="mask-type:alpha" maskUnits="userSpaceOnUse" x="142" y="64" width="83" height="44">
<rect x="224.473" y="64.7324" width="43.1579" height="82.2697" transform="rotate(90 224.473 64.7324)" fill="#C9DEF2"/>
</mask>
<g mask="url(#mask0_492_11148)">
<circle cx="186.038" cy="64.7311" r="27.9852" transform="rotate(90 186.038 64.7311)" fill="#C9DEF2" stroke="#BA402A" stroke-width="2.02303"/>
</g>
<mask id="mask1_492_11148" style="mask-type:alpha" maskUnits="userSpaceOnUse" x="12" y="307" width="44" height="83">
<rect x="12.7305" y="307.494" width="43.1579" height="82.2697" fill="#C9DEF2"/>
</mask>
<g mask="url(#mask1_492_11148)">
<circle cx="12.7311" cy="345.93" r="27.9852" stroke="#BA402A" stroke-width="2.02303"/>
</g>
<mask id="mask2_492_11148" style="mask-type:alpha" maskUnits="userSpaceOnUse" x="142" y="581" width="83" height="45">
<rect x="-0.337171" y="-0.337171" width="42.4836" height="81.5954" transform="matrix(4.37114e-08 -1 -1 -4.37114e-08 223.798 624.433)" fill="#C9DEF2" stroke="#C2526A" stroke-width="0.674342"/>
</mask>
<g mask="url(#mask2_492_11148)">
<circle cx="28.9967" cy="28.9967" r="27.9852" transform="matrix(4.37114e-08 -1 -1 -4.37114e-08 215.035 654.102)" fill="#C9DEF2" stroke="#BA402A" stroke-width="2.02303"/>
</g>
<circle cx="187.048" cy="344.921" r="43.4951" transform="rotate(90 187.048 344.921)" stroke="#1A1A1A" stroke-width="4.04605"/>
<rect x="351.25" y="63.3789" width="2.69737" height="329.079" transform="rotate(90 351.25 63.3789)" fill="#BA402A"/>
<rect width="2.69737" height="329.079" transform="matrix(4.37114e-08 -1 -1 -4.37114e-08 351.25 626.457)" fill="#BA402A"/>
<rect x="370.128" y="4.04381" width="681.76" height="366.168" rx="113.29" transform="rotate(90 370.128 4.04381)" stroke="#95D0EB" stroke-width="8.09211"/>
<rect x="363.722" y="10.4501" width="668.947" height="353.355" rx="106.883" transform="rotate(90 363.722 10.4501)" stroke="#5060C4" stroke-width="4.7204"/>
<path d="M453.75 14.834C482.055 14.834 505 37.7794 505 66.084L505 429.554L387.664 429.554L387.665 66.084C387.665 37.7794 410.61 14.834 438.915 14.834L453.75 14.834Z" fill="#C8DAFA" fill-opacity="0.61"/>
<path d="M481.401 170.429L481.401 171.7C481.401 172.956 481.153 173.898 480.657 174.525C480.165 175.158 479.443 175.474 478.49 175.474C477.599 175.474 476.929 175.179 476.482 174.591C476.038 174.007 475.816 173.061 475.816 171.753L475.816 168.572L484.931 168.572L484.931 174.776L483.409 174.776L483.409 170.429L481.401 170.429ZM478.609 173.557C478.925 173.557 479.175 173.491 479.359 173.36C479.544 173.232 479.675 173.037 479.754 172.774C479.834 172.51 479.873 172.084 479.873 171.496L479.873 170.429L477.338 170.429L477.338 171.615C477.338 172.238 477.425 172.717 477.601 173.05C477.777 173.388 478.113 173.557 478.609 173.557ZM480.374 184.588C478.789 184.588 477.601 184.252 476.811 183.58C476.021 182.913 475.625 181.94 475.625 180.663C475.625 179.315 476.04 178.323 476.87 177.686C477.704 177.054 478.872 176.738 480.374 176.738C481.884 176.738 483.052 177.054 483.877 177.686C484.707 178.323 485.122 179.315 485.122 180.663C485.122 182.019 484.707 183.012 483.877 183.639C483.052 184.272 481.884 184.588 480.374 184.588ZM480.374 182.671C481.454 182.671 482.239 182.518 482.731 182.21C483.227 181.908 483.475 181.392 483.475 180.663C483.475 179.934 483.227 179.416 482.731 179.109C482.239 178.806 481.454 178.654 480.374 178.654C479.294 178.654 478.505 178.808 478.009 179.115C477.518 179.427 477.272 179.943 477.272 180.663C477.272 181.392 477.518 181.908 478.009 182.21C478.505 182.518 479.294 182.671 480.374 182.671ZM483.383 189.118L482.639 189.118C480.215 189.118 478.437 188.903 477.305 188.473C476.176 188.043 475.612 187.354 475.612 186.405C475.612 185.742 475.748 185.185 476.021 184.733L477.476 185.312C477.357 185.584 477.298 185.832 477.298 186.056C477.298 186.364 477.48 186.605 477.845 186.781C478.209 186.961 478.804 187.095 479.629 187.182C480.459 187.27 481.565 187.314 482.948 187.314L484.931 187.314L484.931 193.195L475.816 193.195L475.816 191.344L483.383 191.344L483.383 189.118ZM475.816 195.164L484.931 195.164L484.931 197.021L481.697 197.021L481.697 198.424C481.697 199.684 481.46 200.59 480.986 201.143C480.516 201.697 479.796 201.973 478.826 201.973C477.781 201.973 477.017 201.683 476.534 201.104C476.056 200.524 475.816 199.618 475.816 198.384L475.816 195.164ZM478.826 200.057C479.291 200.057 479.618 199.919 479.807 199.642C479.996 199.37 480.09 198.933 480.09 198.331L480.09 197.021L477.45 197.021L477.45 198.331C477.45 198.898 477.557 199.326 477.772 199.616C477.987 199.91 478.339 200.057 478.826 200.057ZM477.515 211.957L484.931 211.957L484.931 213.814L475.816 213.814L475.816 203.475L484.931 203.475L484.931 205.332L477.515 205.332L477.515 207.722L484.931 207.722L484.931 209.566L477.515 209.566L477.515 211.957ZM475.816 214.979L484.931 217.995L484.931 220.412L475.816 223.435L475.816 221.532L477.667 220.926L477.667 217.416L475.816 216.823L475.816 214.979ZM479.294 217.943L479.294 220.399L483.06 219.174L479.294 217.943ZM475.816 223.83L479.484 226.267C479.603 225.674 479.893 225.211 480.354 224.877C480.819 224.548 481.443 224.383 482.224 224.383C483.185 224.383 483.877 224.651 484.298 225.187C484.72 225.727 484.931 226.587 484.931 227.768L484.931 231.087L475.816 231.087L475.816 229.223L479.267 229.223L479.267 228.282L475.816 225.957L475.816 223.83ZM482.145 226.267C481.798 226.267 481.541 226.315 481.374 226.411C481.208 226.512 481.085 226.675 481.006 226.899C480.927 227.123 480.887 227.443 480.887 227.86L480.887 229.223L483.317 229.223L483.317 227.781C483.317 227.241 483.238 226.853 483.08 226.616C482.922 226.383 482.61 226.267 482.145 226.267ZM475.816 239.536L484.931 239.536L484.931 241.275L478.582 241.275L484.931 244.646L484.931 246.813L475.816 246.813L475.816 245.074L482.586 245.074L475.816 241.518L475.816 239.536ZM461.324 167.084C460.741 166.693 460.31 166.212 460.034 165.642C459.762 165.075 459.625 164.377 459.625 163.547C459.625 160.725 461.208 159.313 464.374 159.313C465.994 159.313 467.19 159.671 467.963 160.387C468.735 161.102 469.122 162.134 469.122 163.482C469.122 164.373 468.97 165.099 468.667 165.661C468.369 166.223 467.976 166.651 467.488 166.946L466.369 165.503C466.685 165.293 466.913 165.099 467.054 164.924C467.194 164.748 467.3 164.548 467.37 164.325C467.44 164.101 467.475 163.833 467.475 163.521C467.475 162.775 467.236 162.206 466.757 161.816C466.283 161.425 465.489 161.229 464.374 161.229C463.333 161.229 462.556 161.412 462.042 161.776C461.529 162.145 461.272 162.731 461.272 163.534C461.272 164.074 461.375 164.494 461.581 164.792C461.788 165.095 462.062 165.369 462.404 165.615L461.324 167.084ZM465.875 175.111C464.777 175.111 463.963 174.852 463.432 174.334C462.901 173.821 462.635 172.984 462.635 171.825L462.635 170.311L459.816 170.311L459.816 168.454L468.931 168.454L468.931 171.878C468.931 172.91 468.689 173.707 468.206 174.268C467.728 174.83 466.951 175.111 465.875 175.111ZM465.862 173.195C466.375 173.195 466.746 173.052 466.975 172.767C467.203 172.486 467.317 171.977 467.317 171.239L467.317 170.311L464.255 170.311L464.255 171.068C464.255 171.748 464.301 172.218 464.393 172.477C464.49 172.741 464.65 172.925 464.874 173.03C465.098 173.14 465.427 173.195 465.862 173.195ZM459.816 176.619L468.931 176.619L468.931 182.54L467.291 182.54L467.291 178.477L465.348 178.477L465.348 181.901L463.702 181.901L463.702 178.477L461.515 178.477L461.515 182.54L459.816 182.54L459.816 176.619ZM458.196 183.383L461.338 183.383L461.338 184.219C462.361 184.68 463.498 185.014 464.749 185.22C466 185.431 467.394 185.536 468.931 185.536L468.931 190.916L461.338 190.916L461.338 191.996L458.196 191.996L458.196 190.139L459.816 190.139L459.816 185.24L458.196 185.24L458.196 183.383ZM467.383 189.072L467.383 187.222C465.978 187.16 464.773 187.007 463.768 186.761C462.762 186.519 461.963 186.287 461.371 186.063L461.371 189.072L467.383 189.072ZM459.816 198.608L463.689 198.608L463.689 195.019L459.816 195.019L459.816 193.162L468.931 193.162L468.931 195.019L465.388 195.019L465.388 198.608L468.931 198.608L468.931 200.472L459.816 200.472L459.816 198.608ZM459.816 201.677L463.484 204.113C463.603 203.521 463.893 203.058 464.354 202.724C464.819 202.395 465.443 202.23 466.224 202.23C467.185 202.23 467.877 202.498 468.298 203.033C468.72 203.573 468.931 204.434 468.931 205.615L468.931 208.934L459.816 208.934L459.816 207.07L463.267 207.07L463.267 206.129L459.816 203.804L459.816 201.677ZM466.145 204.113C465.798 204.113 465.541 204.162 465.374 204.258C465.208 204.359 465.085 204.522 465.006 204.746C464.927 204.969 464.887 205.29 464.887 205.707L464.887 207.07L467.317 207.07L467.317 205.628C467.317 205.088 467.238 204.699 467.08 204.462C466.922 204.23 466.61 204.113 466.145 204.113ZM459.816 210.132L463.484 212.569C463.603 211.976 463.893 211.513 464.354 211.18C464.819 210.85 465.443 210.686 466.224 210.686C467.185 210.686 467.877 210.953 468.298 211.489C468.72 212.029 468.931 212.89 468.931 214.07L468.931 217.39L459.816 217.39L459.816 215.526L463.267 215.526L463.267 214.584L459.816 212.26L459.816 210.132ZM466.145 212.569C465.798 212.569 465.541 212.617 465.374 212.714C465.208 212.815 465.085 212.977 465.006 213.201C464.927 213.425 464.887 213.746 464.887 214.163L464.887 215.526L467.317 215.526L467.317 214.084C467.317 213.544 467.238 213.155 467.08 212.918C466.922 212.685 466.61 212.569 466.145 212.569ZM462.418 223.349C461.566 223.841 461.14 224.539 461.14 225.443C461.14 225.909 461.261 226.297 461.502 226.609C461.744 226.925 462.066 227.083 462.47 227.083C462.914 227.083 463.236 226.971 463.438 226.747C463.64 226.523 463.741 226.155 463.741 225.641L463.741 223.711L465.276 223.711L465.276 225.74C465.276 226.131 465.379 226.429 465.585 226.635C465.796 226.846 466.103 226.951 466.507 226.951C466.836 226.951 467.102 226.798 467.304 226.491C467.51 226.183 467.614 225.797 467.614 225.331C467.614 224.989 467.559 224.638 467.449 224.278C467.344 223.922 467.133 223.523 466.817 223.079L468.154 222.151C468.799 223.038 469.122 224.12 469.122 225.397C469.122 226.139 469.021 226.774 468.819 227.301C468.617 227.832 468.32 228.233 467.93 228.506C467.543 228.782 467.082 228.921 466.547 228.921C466.033 228.921 465.592 228.791 465.223 228.532C464.854 228.277 464.604 227.961 464.472 227.584C464.055 228.554 463.375 229.039 462.431 229.039C461.509 229.039 460.811 228.73 460.337 228.111C459.863 227.491 459.625 226.616 459.625 225.483C459.625 224.649 459.775 223.933 460.073 223.336C460.376 222.739 460.857 222.236 461.515 221.828L462.418 223.349ZM464.374 238.048C462.789 238.048 461.601 237.712 460.811 237.04C460.021 236.373 459.625 235.401 459.625 234.123C459.625 232.775 460.04 231.783 460.87 231.146C461.704 230.514 462.872 230.198 464.374 230.198C465.884 230.198 467.052 230.514 467.877 231.146C468.707 231.783 469.122 232.775 469.122 234.123C469.122 235.48 468.707 236.472 467.877 237.1C467.052 237.732 465.884 238.048 464.374 238.048ZM464.374 236.131C465.454 236.131 466.239 235.978 466.731 235.671C467.227 235.368 467.475 234.852 467.475 234.123C467.475 233.394 467.227 232.876 466.731 232.569C466.239 232.266 465.454 232.114 464.374 232.114C463.294 232.114 462.505 232.268 462.009 232.575C461.518 232.887 461.272 233.403 461.272 234.123C461.272 234.852 461.518 235.368 462.009 235.671C462.505 235.978 463.294 236.131 464.374 236.131ZM459.816 245.048L463.689 245.048L463.689 241.459L459.816 241.459L459.816 239.602L468.931 239.602L468.931 241.459L465.388 241.459L465.388 245.048L468.931 245.048L468.931 246.912L459.816 246.912L459.816 245.048ZM459.816 248.077L468.931 251.093L468.931 253.51L459.816 256.533L459.816 254.63L461.667 254.024L461.667 250.514L459.816 249.921L459.816 248.077ZM463.294 251.041L463.294 253.497L467.06 252.272L463.294 251.041Z" fill="black"/>
<path d="M413.453 151.764L421.007 151.764L415.936 149.242L415.936 148.484L421.007 145.988L413.453 145.988L413.453 144.829L422.567 144.829L422.567 146.476L417.609 148.893L422.567 151.329L422.567 152.923L413.453 152.923L413.453 151.764ZM413.453 159.172L414.316 159.172C414.009 158.821 413.754 158.468 413.552 158.112C413.35 157.757 413.249 157.355 413.249 156.907C413.249 156.248 413.449 155.739 413.848 155.379C414.252 155.024 414.768 154.846 415.396 154.846C415.87 154.846 416.263 154.938 416.575 155.122C416.891 155.311 417.139 155.581 417.319 155.932C417.503 156.288 417.635 156.802 417.714 157.473L417.865 159.172L418.201 159.172C418.732 159.172 419.095 159.023 419.288 158.725C419.481 158.43 419.578 158.022 419.578 157.5C419.578 157.034 419.496 156.674 419.334 156.42C419.171 156.169 418.996 155.989 418.807 155.88L419.373 154.951C419.755 155.162 420.047 155.482 420.249 155.913C420.456 156.347 420.559 156.885 420.559 157.526C420.559 158.518 420.379 159.229 420.019 159.66C419.659 160.09 419.035 160.305 418.149 160.305L413.453 160.305L413.453 159.172ZM416.957 159.172L416.851 158.066C416.785 157.315 416.638 156.786 416.41 156.479C416.186 156.172 415.857 156.018 415.422 156.018C415.009 156.018 414.713 156.121 414.533 156.327C414.353 156.534 414.263 156.843 414.263 157.256C414.263 157.427 414.294 157.596 414.355 157.763C414.421 157.93 414.5 158.095 414.592 158.257C414.689 158.419 414.797 158.575 414.915 158.725C415.038 158.878 415.157 159.027 415.271 159.172L416.957 159.172ZM420.361 163.598L417.418 163.598L417.418 164.566C417.418 164.825 417.51 165.044 417.694 165.224C417.879 165.404 418.188 165.582 418.623 165.758C419.062 165.938 419.641 166.111 420.361 166.278L420.361 167.43C419.61 167.264 418.994 167.086 418.511 166.897C418.028 166.713 417.67 166.528 417.437 166.344C417.205 166.164 417.055 165.936 416.99 165.659C416.893 165.988 416.737 166.256 416.522 166.462C416.307 166.669 415.984 166.857 415.554 167.029C415.128 167.2 414.428 167.408 413.453 167.654L413.453 166.508C413.993 166.355 414.454 166.217 414.836 166.094C415.218 165.975 415.528 165.843 415.765 165.698C416.006 165.558 416.179 165.391 416.285 165.198C416.395 165.005 416.449 164.759 416.449 164.46L416.449 163.598L413.453 163.598L413.453 162.491L420.361 162.491L420.361 163.598ZM414.52 174.121C414.151 173.906 413.846 173.608 413.605 173.226C413.368 172.844 413.249 172.317 413.249 171.645C413.249 170.631 413.554 169.867 414.164 169.353C414.779 168.84 415.688 168.583 416.891 168.583C418.094 168.583 419.005 168.838 419.624 169.347C420.247 169.856 420.559 170.607 420.559 171.599C420.559 172.736 420.137 173.546 419.294 174.029L418.728 173.1C418.996 172.929 419.204 172.727 419.354 172.495C419.503 172.266 419.578 171.963 419.578 171.586C419.578 170.923 419.336 170.451 418.853 170.17C418.375 169.893 417.712 169.755 416.864 169.755C416.219 169.755 415.716 169.821 415.356 169.953C414.996 170.084 414.72 170.288 414.527 170.565C414.333 170.846 414.237 171.202 414.237 171.632C414.237 172.001 414.305 172.301 414.441 172.534C414.581 172.767 414.797 172.986 415.086 173.193L414.52 174.121ZM413.453 176.913L413.453 175.715L420.361 175.715L420.361 176.782L414.909 176.782L420.361 180.167L420.361 181.312L413.453 181.312L413.453 180.246L418.794 180.246L413.453 176.913ZM413.453 189.946L413.453 188.879L418.715 188.879L415.271 187.002L415.271 186.436L418.715 184.618L413.453 184.618L413.453 183.551L420.361 183.551L420.361 184.737L416.812 186.745L420.361 188.774L420.361 189.946L413.453 189.946ZM411.985 191.329C411.857 191.614 411.794 191.946 411.794 192.323C411.794 192.854 412.274 193.304 413.236 193.673L413.829 193.904L420.361 191.381L420.361 192.606L415.304 194.509L420.361 196.426L420.361 197.611L412.926 194.661C412.167 194.349 411.631 194.016 411.319 193.66C411.008 193.304 410.852 192.841 410.852 192.27C410.852 192.064 410.872 191.845 410.911 191.612C410.951 191.379 410.997 191.19 411.049 191.046L411.985 191.329ZM413.453 205.435L413.453 204.368L418.715 204.368L415.271 202.491L415.271 201.925L418.715 200.107L413.453 200.107L413.453 199.04L420.361 199.04L420.361 200.226L416.812 202.234L420.361 204.262L420.361 205.435L413.453 205.435ZM413.453 214.055L419.564 214.055L419.564 211.842L420.816 211.842C420.855 212.474 420.93 212.951 421.04 213.271C421.154 213.596 421.329 213.853 421.566 214.042C421.803 214.235 422.137 214.386 422.567 214.496L422.567 215.912L413.453 215.912L413.453 214.055ZM413.453 219.336L415.007 219.336C415.609 220.052 416.184 220.704 416.733 221.292C417.281 221.881 417.736 222.335 418.096 222.655C418.46 222.976 418.807 223.224 419.136 223.4C419.47 223.58 419.819 223.67 420.183 223.67C420.469 223.67 420.695 223.562 420.862 223.347C421.029 223.132 421.112 222.835 421.112 222.458C421.112 222.05 421.018 221.716 420.829 221.457C420.64 221.198 420.416 220.983 420.157 220.811L421.211 219.31C421.768 219.683 422.166 220.124 422.403 220.634C422.64 221.147 422.758 221.786 422.758 222.55C422.758 223.49 422.539 224.229 422.1 224.769C421.661 225.314 421.044 225.586 420.249 225.586C419.665 225.586 419.152 225.478 418.708 225.263C418.269 225.052 417.841 224.75 417.424 224.354C417.011 223.964 416.555 223.474 416.054 222.886C415.554 222.302 415.253 221.942 415.152 221.806L415.152 225.882L413.453 225.882L413.453 219.336ZM420.361 230.755L420.361 231.862L418.59 231.862C418.037 231.862 417.617 231.895 417.332 231.961C417.051 232.026 416.853 232.134 416.739 232.283C416.625 232.437 416.568 232.665 416.568 232.968C416.568 233.464 416.735 234.129 417.069 234.963L420.361 234.963L420.361 236.07L413.453 236.07L413.453 234.963L416.094 234.963L415.896 234.417C415.633 233.719 415.501 233.155 415.501 232.724C415.501 232.044 415.723 231.546 416.166 231.23C416.61 230.913 417.284 230.755 418.188 230.755L420.361 230.755ZM416.772 239.139C415.859 239.139 415.207 239.294 414.816 239.606C414.43 239.918 414.237 240.418 414.237 241.108C414.237 241.415 414.3 241.685 414.428 241.918C414.559 242.15 414.77 242.374 415.06 242.589L414.48 243.524C414.085 243.261 413.78 242.941 413.565 242.563C413.354 242.185 413.249 241.674 413.249 241.029C413.249 240.001 413.548 239.233 414.145 238.724C414.742 238.219 415.644 237.966 416.851 237.966C418.116 237.966 419.049 238.212 419.65 238.704C420.256 239.2 420.559 239.946 420.559 240.943C420.559 241.839 420.3 242.51 419.782 242.958C419.268 243.406 418.476 243.63 417.404 243.63L416.772 243.63L416.772 239.139ZM417.661 242.523C418.28 242.515 418.761 242.383 419.103 242.128C419.446 241.878 419.617 241.47 419.617 240.903C419.617 240.363 419.461 239.957 419.15 239.685C418.842 239.417 418.346 239.24 417.661 239.152L417.661 242.523ZM419.426 247.449L418.945 247.449C417.826 247.449 416.834 247.353 415.969 247.16C415.108 246.971 414.456 246.701 414.013 246.35C413.569 246.003 413.348 245.592 413.348 245.118C413.348 245.008 413.361 244.877 413.387 244.723C413.414 244.574 413.44 244.462 413.466 244.387L414.454 244.604C414.423 244.767 414.408 244.905 414.408 245.019C414.408 245.919 416.05 246.369 419.334 246.369L420.361 246.369L420.361 250.38L413.453 250.38L413.453 249.273L419.426 249.273L419.426 247.449ZM416.891 258.348C415.692 258.348 414.786 258.089 414.171 257.571C413.556 257.057 413.249 256.307 413.249 255.319C413.249 254.331 413.552 253.576 414.158 253.053C414.768 252.531 415.679 252.27 416.891 252.27C418.124 252.27 419.044 252.531 419.65 253.053C420.256 253.58 420.559 254.335 420.559 255.319C420.559 256.311 420.249 257.064 419.63 257.578C419.016 258.091 418.102 258.348 416.891 258.348ZM416.891 257.176C417.83 257.176 418.513 257.02 418.939 256.708C419.365 256.401 419.578 255.938 419.578 255.319C419.578 254.682 419.362 254.21 418.932 253.903C418.506 253.596 417.826 253.442 416.891 253.442C415.991 253.442 415.323 253.589 414.889 253.883C414.454 254.182 414.237 254.66 414.237 255.319C414.237 255.947 414.452 256.412 414.882 256.715C415.312 257.022 415.982 257.176 416.891 257.176ZM415.554 265.678C414.812 265.678 414.276 265.425 413.947 264.92C413.618 264.42 413.453 263.684 413.453 262.714L413.453 260.245L420.361 260.245L420.361 262.688C420.361 263.68 420.24 264.374 419.999 264.769C419.758 265.168 419.338 265.368 418.741 265.368C417.938 265.368 417.393 265.013 417.108 264.301C417.003 264.775 416.827 265.122 416.581 265.342C416.335 265.566 415.993 265.678 415.554 265.678ZM418.563 264.235C418.95 264.235 419.198 264.104 419.308 263.84C419.422 263.581 419.479 263.184 419.479 262.648L419.479 261.351L417.431 261.351L417.431 262.563C417.431 263.678 417.808 264.235 418.563 264.235ZM415.528 264.519C415.927 264.519 416.195 264.387 416.331 264.123C416.471 263.864 416.542 263.417 416.542 262.78L416.542 261.351L414.355 261.351L414.355 262.319C414.355 263.048 414.43 263.597 414.579 263.965C414.729 264.334 415.045 264.519 415.528 264.519ZM416.772 268.299C415.859 268.299 415.207 268.454 414.816 268.766C414.43 269.078 414.237 269.578 414.237 270.268C414.237 270.575 414.3 270.845 414.428 271.078C414.559 271.31 414.77 271.534 415.06 271.749L414.48 272.684C414.085 272.421 413.78 272.101 413.565 271.723C413.354 271.345 413.249 270.834 413.249 270.189C413.249 269.161 413.548 268.393 414.145 267.884C414.742 267.379 415.644 267.126 416.851 267.126C418.116 267.126 419.049 267.372 419.65 267.864C420.256 268.36 420.559 269.106 420.559 270.103C420.559 270.999 420.3 271.67 419.782 272.118C419.268 272.566 418.476 272.79 417.404 272.79L416.772 272.79L416.772 268.299ZM417.661 271.683C418.28 271.675 418.761 271.543 419.103 271.288C419.446 271.038 419.617 270.63 419.617 270.063C419.617 269.523 419.461 269.117 419.149 268.845C418.842 268.577 418.346 268.4 417.661 268.312L417.661 271.683ZM420.361 275.707L417.418 275.707L417.418 276.675C417.418 276.934 417.51 277.154 417.694 277.334C417.879 277.514 418.188 277.692 418.623 277.867C419.062 278.047 419.641 278.221 420.361 278.387L420.361 279.54C419.61 279.373 418.994 279.195 418.511 279.006C418.028 278.822 417.67 278.638 417.437 278.453C417.205 278.273 417.055 278.045 416.989 277.768C416.893 278.098 416.737 278.365 416.522 278.572C416.307 278.778 415.984 278.967 415.554 279.138C415.128 279.309 414.428 279.518 413.453 279.764L413.453 278.618C413.993 278.464 414.454 278.326 414.836 278.203C415.218 278.084 415.528 277.953 415.765 277.808C416.006 277.667 416.179 277.501 416.285 277.307C416.395 277.114 416.449 276.868 416.449 276.57L416.449 275.707L413.453 275.707L413.453 274.601L420.361 274.601L420.361 275.707Z" fill="black"/>
<path d="M439.495 186.405C438.255 186.405 437.281 186.007 436.573 185.211C435.865 184.421 435.511 183.279 435.511 181.787C435.511 179.926 436.137 178.582 437.388 177.753L438.697 179.605C437.956 180.028 437.586 180.744 437.586 181.754C437.586 183.268 438.239 184.026 439.545 184.026C440.094 184.026 440.524 183.825 440.837 183.425C441.156 183.03 441.315 182.478 441.315 181.77C441.315 181.013 441.112 180.439 440.706 180.05L440.706 178.428L447.143 179.103L447.143 185.762L445.019 185.762L445.019 180.955L443.019 180.725C443.233 181.246 443.34 181.825 443.34 182.462C443.34 183.68 443.013 184.64 442.36 185.343C441.707 186.051 440.752 186.405 439.495 186.405ZM441.446 196.974C439.399 196.974 437.896 196.615 436.935 195.896C435.975 195.177 435.495 194.052 435.495 192.521C435.495 191.001 435.975 189.881 436.935 189.162C437.896 188.443 439.394 188.084 441.43 188.084C443.466 188.084 444.967 188.443 445.933 189.162C446.899 189.881 447.381 191.001 447.381 192.521C447.381 194.052 446.901 195.177 445.941 195.896C444.981 196.615 443.482 196.974 441.446 196.974ZM441.446 194.579C442.807 194.579 443.803 194.411 444.434 194.076C445.071 193.747 445.389 193.229 445.389 192.521C445.389 191.813 445.068 191.294 444.426 190.965C443.79 190.641 442.791 190.479 441.43 190.479C440.069 190.479 439.07 190.641 438.434 190.965C437.802 191.294 437.487 191.813 437.487 192.521C437.487 193.229 437.805 193.747 438.442 194.076C439.084 194.411 440.085 194.579 441.446 194.579ZM441.446 207.511C439.399 207.511 437.896 207.151 436.935 206.432C435.975 205.713 435.495 204.588 435.495 203.057C435.495 201.537 435.975 200.418 436.935 199.699C437.896 198.98 439.394 198.62 441.43 198.62C443.466 198.62 444.967 198.98 445.933 199.699C446.899 200.418 447.381 201.537 447.381 203.057C447.381 204.588 446.901 205.713 445.941 206.432C444.981 207.151 443.482 207.511 441.446 207.511ZM441.446 205.115C442.807 205.115 443.803 204.948 444.434 204.613C445.071 204.284 445.389 203.765 445.389 203.057C445.389 202.349 445.068 201.831 444.426 201.501C443.79 201.178 442.791 201.016 441.43 201.016C440.069 201.016 439.07 201.178 438.434 201.501C437.802 201.831 437.487 202.349 437.487 203.057C437.487 203.765 437.805 204.284 438.442 204.613C439.084 204.948 440.085 205.115 441.446 205.115ZM441.446 218.047C439.399 218.047 437.896 217.688 436.935 216.969C435.975 216.25 435.495 215.125 435.495 213.594C435.495 212.074 435.975 210.954 436.935 210.235C437.896 209.516 439.394 209.157 441.43 209.157C443.466 209.157 444.967 209.516 445.933 210.235C446.899 210.954 447.381 212.074 447.381 213.594C447.381 215.125 446.901 216.25 445.941 216.969C444.981 217.688 443.482 218.047 441.446 218.047ZM441.446 215.652C442.807 215.652 443.803 215.484 444.434 215.15C445.071 214.82 445.389 214.302 445.389 213.594C445.389 212.886 445.068 212.367 444.426 212.038C443.79 211.714 442.791 211.552 441.43 211.552C440.069 211.552 439.07 211.714 438.434 212.038C437.802 212.367 437.487 212.886 437.487 213.594C437.487 214.302 437.805 214.82 438.442 215.15C439.084 215.484 440.085 215.652 441.446 215.652ZM440.129 232.173C439.202 232.173 438.384 232.033 437.676 231.753C436.968 231.473 436.428 231.073 436.055 230.551C435.681 230.03 435.495 229.407 435.495 228.683C435.495 227.728 435.794 226.913 436.392 226.238L432.498 226.238L432.498 224.114L444.385 224.114L444.385 226.073L443.537 226.073C443.877 226.468 444.144 226.883 444.336 227.316C444.533 227.755 444.632 228.257 444.632 228.823C444.632 229.915 444.248 230.746 443.48 231.317C442.711 231.888 441.595 232.173 440.129 232.173ZM440.096 229.983C440.936 229.983 441.589 229.838 442.056 229.547C442.527 229.256 442.763 228.823 442.763 228.246C442.763 227.901 442.681 227.544 442.517 227.176C442.357 226.814 442.16 226.501 441.924 226.238L438.145 226.238C437.942 226.463 437.761 226.74 437.602 227.069C437.449 227.404 437.372 227.747 437.372 228.098C437.372 228.68 437.619 229.138 438.113 229.473C438.612 229.813 439.273 229.983 440.096 229.983ZM436.944 236.692C436.472 236.692 436.134 236.585 435.931 236.371C435.734 236.157 435.635 235.814 435.635 235.342C435.635 234.826 435.747 234.475 435.972 234.288C436.197 234.102 436.521 234.009 436.944 234.009C437.394 234.009 437.726 234.107 437.94 234.305C438.154 234.502 438.261 234.848 438.261 235.342C438.261 235.847 438.156 236.198 437.948 236.396C437.739 236.593 437.405 236.692 436.944 236.692Z" fill="black"/>
<path opacity="0.59" d="M255.491 14.834C312.845 14.834 359.34 61.3287 359.34 118.683L359.34 429.554L14.751 429.554L14.7511 118.683C14.7511 61.3286 61.2457 14.834 118.6 14.834L255.491 14.834Z" fill="#DDE8FC"/>
</g>
<defs>
<clipPath id="clip0_492_11148">
<rect width="690" height="505" fill="white" transform="translate(505 2.20743e-05) rotate(90)"/>
</clipPath>
</defs>
</svg>
