<svg width="690" height="505" viewBox="0 0 690 505" fill="none" xmlns="http://www.w3.org/2000/svg">
<g clip-path="url(#clip0_471_10677)">
<rect width="690" height="505" fill="white"/>
<circle cx="131.159" cy="413.03" r="42.1464" stroke="#BA402A" stroke-width="2.69737"/>
<circle cx="3.03454" cy="3.03454" r="1.68585" transform="matrix(-1 0 0 1 134.195 409.996)" fill="#BA402A" stroke="#BA402A" stroke-width="2.69737"/>
<line x1="124.075" y1="362.789" x2="124.075" y2="370.881" stroke="#BA402A" stroke-width="2.69737"/>
<line x1="124.075" y1="455.18" x2="124.075" y2="463.272" stroke="#BA402A" stroke-width="2.69737"/>
<line x1="126.103" y1="401.906" x2="126.103" y2="412.021" stroke="#BA402A" stroke-width="2.69737"/>
<line x1="126.103" y1="416.066" x2="126.103" y2="424.159" stroke="#BA402A" stroke-width="2.69737"/>
<line x1="141.61" y1="362.789" x2="141.61" y2="370.881" stroke="#BA402A" stroke-width="2.69737"/>
<line x1="141.61" y1="455.18" x2="141.61" y2="463.272" stroke="#BA402A" stroke-width="2.69737"/>
<line x1="138.239" y1="401.906" x2="138.239" y2="409.998" stroke="#BA402A" stroke-width="2.69737"/>
<line x1="149.703" y1="410.673" x2="136.891" y2="410.673" stroke="#BA402A" stroke-width="2.69737"/>
<line x1="125.426" y1="410.673" x2="112.613" y2="410.673" stroke="#BA402A" stroke-width="2.69737"/>
<line x1="149.703" y1="417.415" x2="136.891" y2="417.415" stroke="#BA402A" stroke-width="2.69737"/>
<line x1="125.426" y1="417.415" x2="112.613" y2="417.415" stroke="#BA402A" stroke-width="2.69737"/>
<line x1="138.239" y1="416.066" x2="138.239" y2="424.159" stroke="#BA402A" stroke-width="2.69737"/>
<circle cx="560.042" cy="413.03" r="42.1464" stroke="#BA402A" stroke-width="2.69737"/>
<circle cx="3.03454" cy="3.03454" r="1.68585" transform="matrix(-1 0 0 1 563.074 409.996)" fill="#BA402A" stroke="#BA402A" stroke-width="2.69737"/>
<line x1="552.962" y1="362.789" x2="552.962" y2="370.881" stroke="#BA402A" stroke-width="2.69737"/>
<line x1="552.962" y1="455.18" x2="552.962" y2="463.272" stroke="#BA402A" stroke-width="2.69737"/>
<line x1="554.985" y1="401.906" x2="554.985" y2="412.021" stroke="#BA402A" stroke-width="2.69737"/>
<line x1="554.985" y1="416.066" x2="554.985" y2="424.159" stroke="#BA402A" stroke-width="2.69737"/>
<line x1="570.493" y1="362.789" x2="570.493" y2="370.881" stroke="#BA402A" stroke-width="2.69737"/>
<line x1="570.493" y1="455.18" x2="570.493" y2="463.272" stroke="#BA402A" stroke-width="2.69737"/>
<line x1="567.118" y1="401.906" x2="567.118" y2="409.998" stroke="#BA402A" stroke-width="2.69737"/>
<line x1="578.586" y1="410.673" x2="565.773" y2="410.673" stroke="#BA402A" stroke-width="2.69737"/>
<line x1="554.305" y1="410.673" x2="541.492" y2="410.673" stroke="#BA402A" stroke-width="2.69737"/>
<line x1="578.586" y1="417.415" x2="565.773" y2="417.415" stroke="#BA402A" stroke-width="2.69737"/>
<line x1="554.305" y1="417.415" x2="541.492" y2="417.415" stroke="#BA402A" stroke-width="2.69737"/>
<line x1="567.118" y1="416.066" x2="567.118" y2="424.159" stroke="#BA402A" stroke-width="2.69737"/>
<circle cx="131.159" cy="224.89" r="42.1464" stroke="#BA402A" stroke-width="2.69737"/>
<circle cx="3.03454" cy="3.03454" r="1.68585" transform="matrix(-1 0 0 1 134.195 221.855)" fill="#BA402A" stroke="#BA402A" stroke-width="2.69737"/>
<line x1="124.075" y1="174.652" x2="124.075" y2="182.744" stroke="#BA402A" stroke-width="2.69737"/>
<line x1="124.075" y1="267.039" x2="124.075" y2="275.131" stroke="#BA402A" stroke-width="2.69737"/>
<line x1="124.075" y1="213.758" x2="124.075" y2="221.85" stroke="#BA402A" stroke-width="2.69737"/>
<line x1="124.751" y1="227.926" x2="124.751" y2="236.018" stroke="#BA402A" stroke-width="2.69737"/>
<line x1="141.61" y1="174.652" x2="141.61" y2="182.744" stroke="#BA402A" stroke-width="2.69737"/>
<line x1="141.61" y1="267.039" x2="141.61" y2="275.131" stroke="#BA402A" stroke-width="2.69737"/>
<line x1="138.915" y1="213.758" x2="138.915" y2="221.85" stroke="#BA402A" stroke-width="2.69737"/>
<line x1="150.379" y1="222.532" x2="137.566" y2="222.532" stroke="#BA402A" stroke-width="2.69737"/>
<line x1="125.426" y1="222.532" x2="112.613" y2="222.532" stroke="#BA402A" stroke-width="2.69737"/>
<line x1="150.379" y1="229.274" x2="137.566" y2="229.274" stroke="#BA402A" stroke-width="2.69737"/>
<line x1="126.098" y1="229.274" x2="113.285" y2="229.274" stroke="#BA402A" stroke-width="2.69737"/>
<line x1="138.239" y1="227.926" x2="138.239" y2="236.018" stroke="#BA402A" stroke-width="2.69737"/>
<circle cx="560.042" cy="224.89" r="42.1464" stroke="#BA402A" stroke-width="2.69737"/>
<circle cx="3.03454" cy="3.03454" r="1.68585" transform="matrix(-1 0 0 1 563.074 221.855)" fill="#BA402A" stroke="#BA402A" stroke-width="2.69737"/>
<line x1="552.962" y1="174.652" x2="552.962" y2="182.744" stroke="#BA402A" stroke-width="2.69737"/>
<line x1="552.962" y1="267.039" x2="552.962" y2="275.131" stroke="#BA402A" stroke-width="2.69737"/>
<line x1="552.962" y1="213.758" x2="552.962" y2="221.85" stroke="#BA402A" stroke-width="2.69737"/>
<line x1="553.634" y1="227.926" x2="553.634" y2="236.018" stroke="#BA402A" stroke-width="2.69737"/>
<line x1="570.493" y1="174.652" x2="570.493" y2="182.744" stroke="#BA402A" stroke-width="2.69737"/>
<line x1="570.493" y1="267.039" x2="570.493" y2="275.131" stroke="#BA402A" stroke-width="2.69737"/>
<line x1="567.798" y1="213.758" x2="567.798" y2="221.85" stroke="#BA402A" stroke-width="2.69737"/>
<line x1="579.262" y1="222.532" x2="566.449" y2="222.532" stroke="#BA402A" stroke-width="2.69737"/>
<line x1="554.305" y1="222.532" x2="541.492" y2="222.532" stroke="#BA402A" stroke-width="2.69737"/>
<line x1="579.262" y1="229.274" x2="566.449" y2="229.274" stroke="#BA402A" stroke-width="2.69737"/>
<line x1="554.984" y1="229.274" x2="542.172" y2="229.274" stroke="#BA402A" stroke-width="2.69737"/>
<line x1="567.118" y1="227.926" x2="567.118" y2="236.018" stroke="#BA402A" stroke-width="2.69737"/>
<rect x="252.875" y="142.281" width="5.39474" height="352.007" fill="#5060C4"/>
<rect x="342.562" y="327.723" width="5.39474" height="166.562" fill="#BA402A"/>
<rect x="342.562" y="142.281" width="5.39474" height="166.562" fill="#BA402A"/>
<rect x="431.578" y="142.281" width="5.39474" height="352.007" fill="#5060C4"/>
<circle cx="3.03454" cy="3.03454" r="3.03454" transform="matrix(-1 0 0 1 275.809 409.996)" fill="#BA402A"/>
<circle cx="3.03454" cy="3.03454" r="2.3602" transform="matrix(-1 0 0 1 347.965 314.918)" fill="#1A1A1A" stroke="#1A1A1A" stroke-width="1.34868"/>
<circle cx="3.03454" cy="3.03454" r="3.03454" transform="matrix(-1 0 0 1 275.809 221.855)" fill="#BA402A"/>
<circle cx="3.03454" cy="3.03454" r="3.03454" transform="matrix(-1 0 0 1 420.793 409.996)" fill="#BA402A"/>
<circle cx="3.03454" cy="3.03454" r="3.03454" transform="matrix(-1 0 0 1 420.793 221.855)" fill="#BA402A"/>
<mask id="mask0_471_10677" style="mask-type:alpha" maskUnits="userSpaceOnUse" x="64" y="280" width="44" height="83">
<rect x="64.7344" y="280.523" width="43.1579" height="82.2697" fill="#C9DEF2"/>
</mask>
<g mask="url(#mask0_471_10677)">
<circle cx="64.735" cy="318.962" r="27.9852" fill="#C9DEF2" stroke="#BA402A" stroke-width="2.02303"/>
</g>
<mask id="mask1_471_10677" style="mask-type:alpha" maskUnits="userSpaceOnUse" x="307" y="449" width="83" height="44">
<rect x="307.5" y="492.266" width="43.1579" height="82.2697" transform="rotate(-90 307.5 492.266)" fill="#C9DEF2"/>
</mask>
<g mask="url(#mask1_471_10677)">
<circle cx="345.938" cy="492.269" r="27.9852" transform="rotate(-90 345.938 492.269)" stroke="#BA402A" stroke-width="2.02303"/>
</g>
<mask id="mask2_471_10677" style="mask-type:alpha" maskUnits="userSpaceOnUse" x="581" y="280" width="45" height="83">
<rect x="-0.337171" y="0.337171" width="42.4836" height="81.5954" transform="matrix(-1 0 0 1 624.443 280.523)" fill="#C9DEF2" stroke="#C2526A" stroke-width="0.674342"/>
</mask>
<g mask="url(#mask2_471_10677)">
<circle cx="28.9967" cy="28.9967" r="27.9852" transform="matrix(-1 0 0 1 654.109 289.965)" fill="#C9DEF2" stroke="#BA402A" stroke-width="2.02303"/>
</g>
<circle cx="344.925" cy="317.952" r="43.4951" stroke="#1A1A1A" stroke-width="4.04605"/>
<rect x="63.3828" y="153.75" width="2.69737" height="329.079" fill="#BA402A"/>
<rect width="2.69737" height="329.079" transform="matrix(-1 0 0 1 626.465 153.75)" fill="#BA402A"/>
<rect x="4.0516" y="134.868" width="681.76" height="366.168" rx="113.29" stroke="#95D0EB" stroke-width="8.09211"/>
<rect x="10.4579" y="141.274" width="668.947" height="353.355" rx="106.883" stroke="#5060C4" stroke-width="4.7204"/>
<path opacity="0.59" d="M675.016 249.505C675.016 192.151 628.521 145.656 571.167 145.656H438.996V490.245H571.167C628.521 490.245 675.016 443.75 675.016 386.396V249.505Z" fill="#A5E891"/>
<path opacity="0.59" d="M675.02 51.2501C675.02 22.9454 652.074 0 623.77 0H439V117.336H623.769C652.074 117.336 675.02 94.3901 675.02 66.0855V51.2501Z" fill="#9ED090"/>
<path d="M493.607 37.0836H494.878C496.134 37.0836 497.075 37.3316 497.703 37.8277C498.335 38.3194 498.652 39.0416 498.652 39.9943C498.652 40.8855 498.357 41.555 497.769 42.0028C497.185 42.4463 496.239 42.668 494.931 42.668H491.75V33.5538H497.954V35.075H493.607V37.0836ZM496.735 39.8758C496.735 39.5597 496.669 39.3094 496.538 39.125C496.41 38.9406 496.215 38.8089 495.952 38.7299C495.688 38.6509 495.262 38.6114 494.674 38.6114H493.607V41.1467H494.793C495.416 41.1467 495.895 41.0589 496.228 40.8833C496.566 40.7077 496.735 40.3719 496.735 39.8758ZM507.766 38.1109C507.766 39.6958 507.43 40.8833 506.758 41.6736C506.091 42.4638 505.118 42.8589 503.841 42.8589C502.493 42.8589 501.501 42.4441 500.864 41.6143C500.232 40.7802 499.916 39.6124 499.916 38.1109C499.916 36.6006 500.232 35.4328 500.864 34.6075C501.501 33.7777 502.493 33.3628 503.841 33.3628C505.197 33.3628 506.19 33.7777 506.817 34.6075C507.45 35.4328 507.766 36.6006 507.766 38.1109ZM505.849 38.1109C505.849 37.0309 505.696 36.245 505.388 35.7533C505.086 35.2572 504.57 35.0092 503.841 35.0092C503.112 35.0092 502.594 35.2572 502.287 35.7533C501.984 36.245 501.832 37.0309 501.832 38.1109C501.832 39.1909 501.986 39.9789 502.293 40.475C502.605 40.9667 503.121 41.2126 503.841 41.2126C504.57 41.2126 505.086 40.9667 505.388 40.475C505.696 39.9789 505.849 39.1909 505.849 38.1109ZM512.296 35.1014V35.8455C512.296 38.2689 512.081 40.047 511.651 41.1797C511.221 42.308 510.532 42.8721 509.583 42.8721C508.92 42.8721 508.363 42.736 507.911 42.4638L508.49 41.0085C508.762 41.127 509.01 41.1863 509.234 41.1863C509.542 41.1863 509.783 41.0041 509.959 40.6397C510.139 40.2753 510.273 39.6804 510.36 38.855C510.448 38.0253 510.492 36.9189 510.492 35.536V33.5538H516.373V42.668H514.522V35.1014H512.296ZM518.342 42.668V33.5538H520.199V36.7872H521.602C522.862 36.7872 523.768 37.0243 524.321 37.4984C524.875 37.9682 525.151 38.6882 525.151 39.6585C525.151 40.7033 524.861 41.4672 524.282 41.9502C523.702 42.4287 522.796 42.668 521.562 42.668H518.342ZM523.235 39.6585C523.235 39.1931 523.097 38.866 522.82 38.6772C522.548 38.4885 522.111 38.3941 521.509 38.3941H520.199V41.0348H521.509C522.076 41.0348 522.504 40.9272 522.794 40.7121C523.088 40.497 523.235 40.1458 523.235 39.6585ZM535.135 40.9689V33.5538H536.992V42.668H526.653V33.5538H528.51V40.9689H530.9V33.5538H532.744V40.9689H535.135ZM538.157 42.668L541.173 33.5538H543.59L546.613 42.668H544.71L544.104 40.8175H540.594L540.001 42.668H538.157ZM541.121 39.1909H543.577L542.352 35.4241L541.121 39.1909ZM547.008 42.668L549.445 38.9999C548.852 38.8814 548.389 38.5916 548.055 38.1306C547.726 37.6653 547.561 37.0419 547.561 36.2604C547.561 35.2989 547.829 34.6075 548.365 34.186C548.905 33.7645 549.765 33.5538 550.946 33.5538H554.265V42.668H552.401V39.2172H551.46L549.135 42.668H547.008ZM549.445 36.3394C549.445 36.6863 549.493 36.9431 549.589 37.1099C549.69 37.2767 549.853 37.3997 550.077 37.4787C550.301 37.5577 550.621 37.5972 551.038 37.5972H552.401V35.1672H550.959C550.419 35.1672 550.031 35.2463 549.794 35.4043C549.561 35.5623 549.445 35.8741 549.445 36.3394ZM560.225 40.0667C560.717 40.9185 561.415 41.3443 562.319 41.3443C562.784 41.3443 563.173 41.2236 563.485 40.9821C563.801 40.7406 563.959 40.418 563.959 40.0141C563.959 39.5706 563.847 39.248 563.623 39.046C563.399 38.8441 563.03 38.7431 562.517 38.7431H560.587V37.2087H562.615C563.006 37.2087 563.305 37.1055 563.511 36.8992C563.722 36.6884 563.827 36.3811 563.827 35.9772C563.827 35.648 563.673 35.3823 563.366 35.1804C563.059 34.9741 562.672 34.8709 562.207 34.8709C561.865 34.8709 561.513 34.9258 561.153 35.0355C560.798 35.1409 560.398 35.3516 559.955 35.6677L559.026 34.3309C559.913 33.6855 560.995 33.3628 562.273 33.3628C563.015 33.3628 563.649 33.4638 564.176 33.6658C564.707 33.8677 565.109 34.1641 565.381 34.5548C565.658 34.9411 565.796 35.4021 565.796 35.9377C565.796 36.4514 565.667 36.8926 565.408 37.2614C565.153 37.6302 564.837 37.8804 564.459 38.0121C565.429 38.4292 565.915 39.1097 565.915 40.0536C565.915 40.9755 565.605 41.6736 564.986 42.1477C564.367 42.6219 563.491 42.8589 562.359 42.8589C561.524 42.8589 560.809 42.7097 560.212 42.4111C559.615 42.1082 559.112 41.6275 558.704 40.9689L560.225 40.0667ZM574.923 38.1109C574.923 39.6958 574.588 40.8833 573.916 41.6736C573.249 42.4638 572.276 42.8589 570.999 42.8589C569.651 42.8589 568.659 42.4441 568.022 41.6143C567.39 40.7802 567.074 39.6124 567.074 38.1109C567.074 36.6006 567.39 35.4328 568.022 34.6075C568.659 33.7777 569.651 33.3628 570.999 33.3628C572.355 33.3628 573.347 33.7777 573.975 34.6075C574.607 35.4328 574.923 36.6006 574.923 38.1109ZM573.007 38.1109C573.007 37.0309 572.853 36.245 572.546 35.7533C572.243 35.2572 571.727 35.0092 570.999 35.0092C570.27 35.0092 569.752 35.2572 569.444 35.7533C569.141 36.245 568.99 37.0309 568.99 38.1109C568.99 39.1909 569.144 39.9789 569.451 40.475C569.763 40.9667 570.279 41.2126 570.999 41.2126C571.727 41.2126 572.243 40.9667 572.546 40.475C572.853 39.9789 573.007 39.1909 573.007 38.1109ZM581.924 42.668V38.7958H578.335V42.668H576.478V33.5538H578.335V37.0967H581.924V33.5538H583.787V42.668H581.924ZM584.953 42.668L587.969 33.5538H590.386L593.409 42.668H591.505L590.9 40.8175H587.39L586.797 42.668H584.953ZM587.916 39.1909H590.373L589.148 35.4241L587.916 39.1909Z" fill="black"/>
<path d="M486.242 91.5469V83.9934L483.72 89.0642H482.963L480.467 83.9934V91.5469H479.308V82.4327H480.954L483.371 87.3915L485.808 82.4327H487.401V91.5469H486.242ZM493.651 91.5469V90.6842C493.3 90.9915 492.946 91.2461 492.591 91.4481C492.235 91.65 491.833 91.751 491.385 91.751C490.727 91.751 490.218 91.5513 489.858 91.1518C489.502 90.7478 489.324 90.232 489.324 89.6042C489.324 89.13 489.416 88.7371 489.601 88.4254C489.79 88.1093 490.06 87.8613 490.411 87.6813C490.766 87.4969 491.28 87.3652 491.952 87.2861L493.651 87.1347V86.7988C493.651 86.2676 493.502 85.9054 493.203 85.7122C492.909 85.5191 492.501 85.4225 491.978 85.4225C491.513 85.4225 491.153 85.5037 490.898 85.6661C490.648 85.8286 490.468 86.0042 490.358 86.193L489.43 85.6266C489.64 85.2447 489.961 84.9527 490.391 84.7508C490.826 84.5444 491.364 84.4413 492.005 84.4413C492.997 84.4413 493.708 84.6213 494.138 84.9813C494.568 85.3413 494.784 85.9647 494.784 86.8515V91.5469H493.651ZM493.651 88.0435L492.545 88.1488C491.794 88.2147 491.265 88.3617 490.957 88.59C490.65 88.8139 490.496 89.1432 490.496 89.5778C490.496 89.9905 490.6 90.2869 490.806 90.4669C491.012 90.6469 491.322 90.7369 491.735 90.7369C491.906 90.7369 492.075 90.7061 492.242 90.6447C492.408 90.5788 492.573 90.4998 492.735 90.4076C492.898 90.311 493.054 90.2035 493.203 90.0849C493.357 89.962 493.506 89.8435 493.651 89.7293V88.0435ZM498.076 84.6388V87.5825H499.044C499.303 87.5825 499.523 87.4903 499.703 87.3059C499.883 87.1215 500.061 86.812 500.236 86.3774C500.416 85.9383 500.59 85.3588 500.756 84.6388H501.909C501.742 85.3895 501.564 86.0064 501.376 86.4893C501.191 86.9722 501.007 87.33 500.822 87.5627C500.642 87.7954 500.414 87.9447 500.137 88.0105C500.467 88.1071 500.735 88.263 500.941 88.4781C501.147 88.6932 501.336 89.0159 501.507 89.4461C501.678 89.872 501.887 90.5722 502.133 91.5469H500.987C500.833 91.0069 500.695 90.5459 500.572 90.1639C500.454 89.782 500.322 89.4725 500.177 89.2354C500.036 88.9939 499.87 88.8205 499.676 88.7152C499.483 88.6054 499.237 88.5505 498.939 88.5505H498.076V91.5469H496.97V84.6388H498.076ZM508.6 90.48C508.385 90.8488 508.086 91.1539 507.704 91.3954C507.322 91.6325 506.795 91.751 506.124 91.751C505.109 91.751 504.346 91.4459 503.832 90.8357C503.318 90.221 503.061 89.3122 503.061 88.1093C503.061 86.9064 503.316 85.9954 503.825 85.3764C504.335 84.753 505.085 84.4413 506.077 84.4413C507.215 84.4413 508.025 84.8627 508.507 85.7056L507.579 86.272C507.408 86.0042 507.206 85.7956 506.973 85.6464C506.745 85.4971 506.442 85.4225 506.064 85.4225C505.401 85.4225 504.929 85.6639 504.648 86.1469C504.372 86.6254 504.234 87.2883 504.234 88.1357C504.234 88.781 504.299 89.2837 504.431 89.6437C504.563 90.0037 504.767 90.2803 505.044 90.4735C505.325 90.6666 505.68 90.7632 506.11 90.7632C506.479 90.7632 506.78 90.6952 507.013 90.5591C507.245 90.4186 507.465 90.2035 507.671 89.9137L508.6 90.48ZM511.392 91.5469H510.193V84.6388H511.26V90.0915L514.645 84.6388H515.791V91.5469H514.724V86.2061L511.392 91.5469ZM524.424 91.5469H523.357V86.2852L521.481 89.7293H520.914L519.097 86.2852V91.5469H518.03V84.6388H519.215L521.224 88.1883L523.252 84.6388H524.424V91.5469ZM525.807 93.0154C526.093 93.1427 526.424 93.2064 526.802 93.2064C527.333 93.2064 527.783 92.7257 528.152 91.7642L528.382 91.1715L525.86 84.6388H527.085L528.988 89.6964L530.904 84.6388H532.09L529.139 92.0737C528.828 92.8332 528.494 93.3688 528.138 93.6805C527.783 93.9922 527.32 94.1481 526.749 94.1481C526.543 94.1481 526.323 94.1283 526.09 94.0888C525.858 94.0493 525.669 94.0032 525.524 93.9505L525.807 93.0154ZM539.913 91.5469H538.846V86.2852L536.969 89.7293H536.403L534.586 86.2852V91.5469H533.519V84.6388H534.704L536.713 88.1883L538.741 84.6388H539.913V91.5469ZM548.79 91.7379C547.693 91.7379 546.843 91.3757 546.242 90.6513C545.645 89.9225 545.346 88.8864 545.346 87.543C545.346 85.822 545.669 84.5093 546.314 83.6049C546.959 82.6961 547.901 82.2417 549.139 82.2417C550.311 82.2417 551.178 82.4898 551.74 82.9859L550.687 84.4149C550.472 84.2261 550.243 84.0835 550.002 83.9869C549.76 83.8859 549.473 83.8354 549.139 83.8354C548.547 83.8354 548.114 84.0374 547.842 84.4413C547.574 84.8452 547.403 85.4203 547.328 86.1666C547.679 85.9296 547.993 85.7649 548.27 85.6727C548.551 85.5805 548.885 85.5344 549.271 85.5344C550.127 85.5344 550.805 85.7978 551.306 86.3247C551.811 86.8471 552.063 87.6022 552.063 88.59C552.063 89.5647 551.769 90.333 551.181 90.8949C550.592 91.4569 549.796 91.7379 548.79 91.7379ZM548.803 90.1442C549.216 90.1442 549.552 90.0344 549.811 89.8149C550.074 89.5954 550.206 89.2025 550.206 88.6361C550.206 88.1708 550.077 87.7998 549.818 87.5232C549.558 87.2466 549.212 87.1083 548.777 87.1083C548.435 87.1083 548.132 87.1654 547.868 87.2796C547.609 87.3893 547.412 87.4991 547.276 87.6088C547.276 88.2805 547.326 88.7744 547.427 89.0905C547.528 89.4066 547.688 89.6613 547.908 89.8544C548.127 90.0476 548.426 90.1442 548.803 90.1442ZM556.805 84.6388H557.911V86.4103C557.911 86.9635 557.944 87.3827 558.01 87.6681C558.076 87.9491 558.183 88.1466 558.332 88.2608C558.486 88.3749 558.714 88.432 559.017 88.432C559.513 88.432 560.179 88.2652 561.013 87.9315V84.6388H562.119V91.5469H561.013V88.9061L560.466 89.1037C559.768 89.3671 559.204 89.4988 558.774 89.4988C558.093 89.4988 557.595 89.2771 557.279 88.8337C556.963 88.3903 556.805 87.7164 556.805 86.812V84.6388ZM565.188 88.2278C565.188 89.141 565.344 89.793 565.655 90.1837C565.967 90.57 566.468 90.7632 567.157 90.7632C567.464 90.7632 567.734 90.6996 567.967 90.5722C568.199 90.4405 568.423 90.2298 568.639 89.94L569.574 90.5196C569.31 90.9147 568.99 91.2198 568.612 91.4349C568.235 91.6457 567.723 91.751 567.078 91.751C566.05 91.751 565.282 91.4525 564.773 90.8554C564.268 90.2583 564.016 89.3561 564.016 88.1488C564.016 86.8844 564.261 85.9515 564.753 85.35C565.249 84.7442 565.996 84.4413 566.992 84.4413C567.888 84.4413 568.559 84.7003 569.007 85.2183C569.455 85.732 569.679 86.5244 569.679 87.5957V88.2278H565.188ZM568.573 87.3388C568.564 86.7198 568.432 86.2391 568.178 85.8966C567.927 85.5542 567.519 85.383 566.953 85.383C566.413 85.383 566.007 85.5388 565.734 85.8505C565.467 86.1578 565.289 86.6539 565.201 87.3388H568.573ZM573.499 85.5739V86.0547C573.499 87.1742 573.402 88.1664 573.209 89.0313C573.02 89.8918 572.75 90.5437 572.399 90.9871C572.052 91.4305 571.641 91.6522 571.167 91.6522C571.058 91.6522 570.926 91.6391 570.772 91.6127C570.623 91.5864 570.511 91.56 570.436 91.5337L570.654 90.5459C570.816 90.5766 570.954 90.592 571.069 90.592C571.969 90.592 572.419 88.95 572.419 85.6661V84.6388H576.429V91.5469H575.323V85.5739H573.499ZM584.397 88.1093C584.397 89.3078 584.138 90.2144 583.62 90.8291C583.107 91.4437 582.356 91.751 581.368 91.751C580.38 91.751 579.625 91.4481 579.103 90.8422C578.58 90.232 578.319 89.321 578.319 88.1093C578.319 86.8756 578.58 85.9559 579.103 85.35C579.63 84.7442 580.385 84.4413 581.368 84.4413C582.36 84.4413 583.113 84.7508 583.627 85.3698C584.14 85.9844 584.397 86.8976 584.397 88.1093ZM583.225 88.1093C583.225 87.1698 583.069 86.4871 582.758 86.0613C582.45 85.6354 581.987 85.4225 581.368 85.4225C580.731 85.4225 580.26 85.6376 579.952 86.0678C579.645 86.4937 579.491 87.1742 579.491 88.1093C579.491 89.0093 579.638 89.6766 579.932 90.1113C580.231 90.5459 580.71 90.7632 581.368 90.7632C581.996 90.7632 582.461 90.5481 582.764 90.1178C583.071 89.6876 583.225 89.0181 583.225 88.1093ZM591.727 89.4461C591.727 90.1881 591.474 90.7237 590.97 91.053C590.469 91.3822 589.734 91.5469 588.763 91.5469H586.294V84.6388H588.737C589.729 84.6388 590.423 84.7595 590.818 85.001C591.218 85.2425 591.417 85.6617 591.417 86.2588C591.417 87.0622 591.062 87.6066 590.351 87.892C590.825 87.9974 591.171 88.173 591.391 88.4188C591.615 88.6647 591.727 89.0071 591.727 89.4461ZM590.285 86.4366C590.285 86.0503 590.153 85.8022 589.89 85.6925C589.631 85.5783 589.233 85.5213 588.698 85.5213H587.4V87.5693H588.612C589.727 87.5693 590.285 87.1917 590.285 86.4366ZM590.568 89.4725C590.568 89.073 590.436 88.8052 590.173 88.6691C589.914 88.5286 589.466 88.4583 588.829 88.4583H587.4V90.6447H588.368C589.097 90.6447 589.646 90.57 590.015 90.4208C590.383 90.2715 590.568 89.9554 590.568 89.4725ZM594.348 88.2278C594.348 89.141 594.504 89.793 594.815 90.1837C595.127 90.57 595.628 90.7632 596.317 90.7632C596.624 90.7632 596.894 90.6996 597.127 90.5722C597.36 90.4405 597.583 90.2298 597.799 89.94L598.734 90.5196C598.47 90.9147 598.15 91.2198 597.772 91.4349C597.395 91.6457 596.883 91.751 596.238 91.751C595.211 91.751 594.442 91.4525 593.933 90.8554C593.428 90.2583 593.176 89.3561 593.176 88.1488C593.176 86.8844 593.421 85.9515 593.913 85.35C594.409 84.7442 595.156 84.4413 596.152 84.4413C597.048 84.4413 597.72 84.7003 598.167 85.2183C598.615 85.732 598.839 86.5244 598.839 87.5957V88.2278H594.348ZM597.733 87.3388C597.724 86.7198 597.592 86.2391 597.338 85.8966C597.087 85.5542 596.679 85.383 596.113 85.383C595.573 85.383 595.167 85.5388 594.894 85.8505C594.627 86.1578 594.449 86.6539 594.361 87.3388H597.733ZM601.756 84.6388V87.5825H602.724C602.983 87.5825 603.203 87.4903 603.383 87.3059C603.563 87.1215 603.741 86.812 603.916 86.3774C604.096 85.9383 604.27 85.3588 604.437 84.6388H605.589C605.422 85.3895 605.244 86.0064 605.056 86.4893C604.871 86.9722 604.687 87.33 604.502 87.5627C604.322 87.7954 604.094 87.9447 603.818 88.0105C604.147 88.1071 604.415 88.263 604.621 88.4781C604.827 88.6932 605.016 89.0159 605.187 89.4461C605.359 89.872 605.567 90.5722 605.813 91.5469H604.667C604.513 91.0069 604.375 90.5459 604.252 90.1639C604.134 89.782 604.002 89.4725 603.857 89.2354C603.717 88.9939 603.55 88.8205 603.357 88.7152C603.163 88.6054 602.918 88.5505 602.619 88.5505H601.756V91.5469H600.65V84.6388H601.756Z" fill="black"/>
<path d="M520.513 66.044C520.513 67.2129 520.128 68.0799 519.36 68.6452C518.597 69.2049 517.546 69.4848 516.207 69.4848C515.253 69.4848 514.443 69.3119 513.779 68.9662C513.121 68.615 512.651 68.1732 512.371 67.6409L514.24 66.365C514.443 66.6778 514.696 66.9302 514.997 67.1223C515.299 67.3144 515.711 67.4104 516.232 67.4104C516.891 67.4104 517.368 67.2842 517.664 67.0318C517.966 66.7793 518.117 66.3924 518.117 65.8711C518.117 64.8174 517.42 64.2906 516.026 64.2906H515.014V62.2985H515.895C516.592 62.2985 517.099 62.1613 517.417 61.8869C517.736 61.6125 517.895 61.2558 517.895 60.8168C517.895 60.493 517.78 60.2241 517.549 60.0101C517.319 59.7961 516.94 59.6891 516.413 59.6891C515.886 59.6891 515.464 59.7741 515.146 59.9443C514.833 60.1089 514.564 60.3613 514.339 60.7016L512.487 59.401C512.937 58.7918 513.48 58.3418 514.117 58.051C514.759 57.7601 515.582 57.6147 516.586 57.6147C517.349 57.6147 518.013 57.7354 518.578 57.9769C519.149 58.2128 519.58 58.5421 519.871 58.9647C520.161 59.3872 520.307 59.8702 520.307 60.4135C520.307 61.9007 519.539 62.8336 518.002 63.2122C518.754 63.2616 519.36 63.547 519.821 64.0683C520.282 64.5842 520.513 65.2427 520.513 66.044ZM531.453 63.5497C531.453 65.5967 531.093 67.1004 530.374 68.0607C529.655 69.0211 528.53 69.5013 526.999 69.5013C525.479 69.5013 524.36 69.0211 523.641 68.0607C522.922 67.1004 522.562 65.6022 522.562 63.5662C522.562 61.5302 522.922 60.0293 523.641 59.0635C524.36 58.0976 525.479 57.6147 526.999 57.6147C528.53 57.6147 529.655 58.0949 530.374 59.0552C531.093 60.0156 531.453 61.5138 531.453 63.5497ZM529.057 63.5497C529.057 62.1888 528.89 61.1927 528.555 60.5616C528.226 59.925 527.707 59.6068 526.999 59.6068C526.291 59.6068 525.773 59.9278 525.443 60.5699C525.12 61.2064 524.958 62.2052 524.958 63.5662C524.958 64.9272 525.12 65.926 525.443 66.5626C525.773 67.1937 526.291 67.5092 526.999 67.5092C527.707 67.5092 528.226 67.1909 528.555 66.5543C528.89 65.9122 529.057 64.9107 529.057 63.5497ZM541.989 63.5497C541.989 65.5967 541.63 67.1004 540.911 68.0607C540.192 69.0211 539.067 69.5013 537.536 69.5013C536.016 69.5013 534.896 69.0211 534.177 68.0607C533.458 67.1004 533.099 65.6022 533.099 63.5662C533.099 61.5302 533.458 60.0293 534.177 59.0635C534.896 58.0976 536.016 57.6147 537.536 57.6147C539.067 57.6147 540.192 58.0949 540.911 59.0552C541.63 60.0156 541.989 61.5138 541.989 63.5497ZM539.594 63.5497C539.594 62.1888 539.426 61.1927 539.092 60.5616C538.762 59.925 538.244 59.6068 537.536 59.6068C536.828 59.6068 536.309 59.9278 535.98 60.5699C535.656 61.2064 535.494 62.2052 535.494 63.5662C535.494 64.9272 535.656 65.926 535.98 66.5626C536.309 67.1937 536.828 67.5092 537.536 67.5092C538.244 67.5092 538.762 67.1909 539.092 66.5543C539.426 65.9122 539.594 64.9107 539.594 63.5497ZM552.526 63.5497C552.526 65.5967 552.166 67.1004 551.447 68.0607C550.728 69.0211 549.603 69.5013 548.072 69.5013C546.552 69.5013 545.433 69.0211 544.714 68.0607C543.995 67.1004 543.635 65.6022 543.635 63.5662C543.635 61.5302 543.995 60.0293 544.714 59.0635C545.433 58.0976 546.552 57.6147 548.072 57.6147C549.603 57.6147 550.728 58.0949 551.447 59.0552C552.166 60.0156 552.526 61.5138 552.526 63.5497ZM550.13 63.5497C550.13 62.1888 549.963 61.1927 549.628 60.5616C549.299 59.925 548.78 59.6068 548.072 59.6068C547.364 59.6068 546.846 59.9278 546.517 60.5699C546.193 61.2064 546.031 62.2052 546.031 63.5662C546.031 64.9272 546.193 65.926 546.517 66.5626C546.846 67.1937 547.364 67.5092 548.072 67.5092C548.78 67.5092 549.299 67.1909 549.628 66.5543C549.963 65.9122 550.13 64.9107 550.13 63.5497ZM566.651 64.8668C566.651 65.7943 566.511 66.6119 566.232 67.3199C565.952 68.0278 565.551 68.5683 565.03 68.9415C564.508 69.3147 563.886 69.5013 563.161 69.5013C562.206 69.5013 561.391 69.2022 560.716 68.604V72.4976H558.593V60.611H560.552V61.4589C560.947 61.1186 561.361 60.8525 561.795 60.6604C562.234 60.4629 562.736 60.3641 563.301 60.3641C564.393 60.3641 565.225 60.7482 565.795 61.5165C566.366 62.2848 566.651 63.4016 566.651 64.8668ZM564.462 64.8997C564.462 64.0601 564.316 63.4071 564.025 62.9406C563.735 62.4686 563.301 62.2327 562.725 62.2327C562.379 62.2327 562.022 62.315 561.655 62.4796C561.293 62.6388 560.98 62.8363 560.716 63.0723V66.8507C560.941 67.0537 561.218 67.2348 561.548 67.394C561.882 67.5476 562.225 67.6244 562.577 67.6244C563.158 67.6244 563.617 67.3775 563.951 66.8836C564.292 66.3842 564.462 65.7229 564.462 64.8997ZM571.171 68.0525C571.171 68.5244 571.064 68.8619 570.85 69.065C570.636 69.2626 570.293 69.3613 569.821 69.3613C569.305 69.3613 568.954 69.2488 568.767 69.0238C568.58 68.7988 568.487 68.4751 568.487 68.0525C568.487 67.6025 568.586 67.2705 568.783 67.0565C568.981 66.8424 569.327 66.7354 569.821 66.7354C570.325 66.7354 570.677 66.8397 570.874 67.0482C571.072 67.2568 571.171 67.5915 571.171 68.0525Z" fill="black"/>
</g>
<defs>
<clipPath id="clip0_471_10677">
<rect width="690" height="505" fill="white"/>
</clipPath>
</defs>
</svg>
