<svg width="690" height="505" viewBox="0 0 690 505" fill="none" xmlns="http://www.w3.org/2000/svg">
<g clip-path="url(#clip0_471_10787)">
<rect width="690" height="505" fill="white"/>
<circle cx="131.159" cy="413.034" r="42.1464" stroke="#BA402A" stroke-width="2.69737"/>
<circle cx="3.03454" cy="3.03454" r="1.68585" transform="matrix(-1 0 0 1 134.195 410.004)" fill="#BA402A" stroke="#BA402A" stroke-width="2.69737"/>
<line x1="124.075" y1="362.801" x2="124.075" y2="370.893" stroke="#BA402A" stroke-width="2.69737"/>
<line x1="124.075" y1="455.18" x2="124.075" y2="463.272" stroke="#BA402A" stroke-width="2.69737"/>
<line x1="126.103" y1="401.91" x2="126.103" y2="412.025" stroke="#BA402A" stroke-width="2.69737"/>
<line x1="126.103" y1="416.066" x2="126.103" y2="424.159" stroke="#BA402A" stroke-width="2.69737"/>
<line x1="141.61" y1="362.801" x2="141.61" y2="370.893" stroke="#BA402A" stroke-width="2.69737"/>
<line x1="141.61" y1="455.18" x2="141.61" y2="463.272" stroke="#BA402A" stroke-width="2.69737"/>
<line x1="138.239" y1="401.91" x2="138.239" y2="410.002" stroke="#BA402A" stroke-width="2.69737"/>
<line x1="149.703" y1="410.673" x2="136.891" y2="410.673" stroke="#BA402A" stroke-width="2.69737"/>
<line x1="125.426" y1="410.673" x2="112.613" y2="410.673" stroke="#BA402A" stroke-width="2.69737"/>
<line x1="149.703" y1="417.415" x2="136.891" y2="417.415" stroke="#BA402A" stroke-width="2.69737"/>
<line x1="125.426" y1="417.415" x2="112.613" y2="417.415" stroke="#BA402A" stroke-width="2.69737"/>
<line x1="138.239" y1="416.066" x2="138.239" y2="424.159" stroke="#BA402A" stroke-width="2.69737"/>
<circle cx="560.042" cy="413.034" r="42.1464" stroke="#BA402A" stroke-width="2.69737"/>
<circle cx="3.03454" cy="3.03454" r="1.68585" transform="matrix(-1 0 0 1 563.074 410.004)" fill="#BA402A" stroke="#BA402A" stroke-width="2.69737"/>
<line x1="552.962" y1="362.801" x2="552.962" y2="370.893" stroke="#BA402A" stroke-width="2.69737"/>
<line x1="552.962" y1="455.18" x2="552.962" y2="463.272" stroke="#BA402A" stroke-width="2.69737"/>
<line x1="554.985" y1="401.91" x2="554.985" y2="412.025" stroke="#BA402A" stroke-width="2.69737"/>
<line x1="554.985" y1="416.066" x2="554.985" y2="424.159" stroke="#BA402A" stroke-width="2.69737"/>
<line x1="570.493" y1="362.801" x2="570.493" y2="370.893" stroke="#BA402A" stroke-width="2.69737"/>
<line x1="570.493" y1="455.18" x2="570.493" y2="463.272" stroke="#BA402A" stroke-width="2.69737"/>
<line x1="567.118" y1="401.91" x2="567.118" y2="410.002" stroke="#BA402A" stroke-width="2.69737"/>
<line x1="578.586" y1="410.673" x2="565.773" y2="410.673" stroke="#BA402A" stroke-width="2.69737"/>
<line x1="554.305" y1="410.673" x2="541.492" y2="410.673" stroke="#BA402A" stroke-width="2.69737"/>
<line x1="578.586" y1="417.415" x2="565.773" y2="417.415" stroke="#BA402A" stroke-width="2.69737"/>
<line x1="554.305" y1="417.415" x2="541.492" y2="417.415" stroke="#BA402A" stroke-width="2.69737"/>
<line x1="567.118" y1="416.066" x2="567.118" y2="424.159" stroke="#BA402A" stroke-width="2.69737"/>
<circle cx="131.159" cy="224.894" r="42.1464" stroke="#BA402A" stroke-width="2.69737"/>
<circle cx="3.03454" cy="3.03454" r="1.68585" transform="matrix(-1 0 0 1 134.195 221.859)" fill="#BA402A" stroke="#BA402A" stroke-width="2.69737"/>
<line x1="124.075" y1="174.656" x2="124.075" y2="182.748" stroke="#BA402A" stroke-width="2.69737"/>
<line x1="124.075" y1="267.039" x2="124.075" y2="275.131" stroke="#BA402A" stroke-width="2.69737"/>
<line x1="124.075" y1="213.77" x2="124.075" y2="221.862" stroke="#BA402A" stroke-width="2.69737"/>
<line x1="124.751" y1="227.926" x2="124.751" y2="236.018" stroke="#BA402A" stroke-width="2.69737"/>
<line x1="141.61" y1="174.656" x2="141.61" y2="182.748" stroke="#BA402A" stroke-width="2.69737"/>
<line x1="141.61" y1="267.039" x2="141.61" y2="275.131" stroke="#BA402A" stroke-width="2.69737"/>
<line x1="138.915" y1="213.77" x2="138.915" y2="221.862" stroke="#BA402A" stroke-width="2.69737"/>
<line x1="150.379" y1="222.532" x2="137.566" y2="222.532" stroke="#BA402A" stroke-width="2.69737"/>
<line x1="125.426" y1="222.532" x2="112.613" y2="222.532" stroke="#BA402A" stroke-width="2.69737"/>
<line x1="150.379" y1="229.274" x2="137.566" y2="229.274" stroke="#BA402A" stroke-width="2.69737"/>
<line x1="126.098" y1="229.274" x2="113.285" y2="229.274" stroke="#BA402A" stroke-width="2.69737"/>
<line x1="138.239" y1="227.926" x2="138.239" y2="236.018" stroke="#BA402A" stroke-width="2.69737"/>
<circle cx="560.042" cy="224.894" r="42.1464" stroke="#BA402A" stroke-width="2.69737"/>
<circle cx="3.03454" cy="3.03454" r="1.68585" transform="matrix(-1 0 0 1 563.074 221.859)" fill="#BA402A" stroke="#BA402A" stroke-width="2.69737"/>
<line x1="552.962" y1="174.656" x2="552.962" y2="182.748" stroke="#BA402A" stroke-width="2.69737"/>
<line x1="552.962" y1="267.039" x2="552.962" y2="275.131" stroke="#BA402A" stroke-width="2.69737"/>
<line x1="552.962" y1="213.77" x2="552.962" y2="221.862" stroke="#BA402A" stroke-width="2.69737"/>
<line x1="553.634" y1="227.926" x2="553.634" y2="236.018" stroke="#BA402A" stroke-width="2.69737"/>
<line x1="570.493" y1="174.656" x2="570.493" y2="182.748" stroke="#BA402A" stroke-width="2.69737"/>
<line x1="570.493" y1="267.039" x2="570.493" y2="275.131" stroke="#BA402A" stroke-width="2.69737"/>
<line x1="567.798" y1="213.77" x2="567.798" y2="221.862" stroke="#BA402A" stroke-width="2.69737"/>
<line x1="579.262" y1="222.532" x2="566.449" y2="222.532" stroke="#BA402A" stroke-width="2.69737"/>
<line x1="554.305" y1="222.532" x2="541.492" y2="222.532" stroke="#BA402A" stroke-width="2.69737"/>
<line x1="579.262" y1="229.274" x2="566.449" y2="229.274" stroke="#BA402A" stroke-width="2.69737"/>
<line x1="554.984" y1="229.274" x2="542.172" y2="229.274" stroke="#BA402A" stroke-width="2.69737"/>
<line x1="567.118" y1="227.926" x2="567.118" y2="236.018" stroke="#BA402A" stroke-width="2.69737"/>
<rect x="252.875" y="142.289" width="5.39474" height="352.007" fill="#5060C4"/>
<rect x="342.562" y="327.73" width="5.39474" height="166.562" fill="#BA402A"/>
<rect x="342.562" y="142.289" width="5.39474" height="166.562" fill="#BA402A"/>
<rect x="431.578" y="142.289" width="5.39474" height="352.007" fill="#5060C4"/>
<circle cx="3.03454" cy="3.03454" r="3.03454" transform="matrix(-1 0 0 1 275.809 410.004)" fill="#BA402A"/>
<circle cx="3.03454" cy="3.03454" r="2.3602" transform="matrix(-1 0 0 1 347.965 314.918)" fill="#1A1A1A" stroke="#1A1A1A" stroke-width="1.34868"/>
<circle cx="3.03454" cy="3.03454" r="3.03454" transform="matrix(-1 0 0 1 275.809 221.859)" fill="#BA402A"/>
<circle cx="3.03454" cy="3.03454" r="3.03454" transform="matrix(-1 0 0 1 420.793 410.004)" fill="#BA402A"/>
<circle cx="3.03454" cy="3.03454" r="3.03454" transform="matrix(-1 0 0 1 420.793 221.859)" fill="#BA402A"/>
<mask id="mask0_471_10787" style="mask-type:alpha" maskUnits="userSpaceOnUse" x="64" y="280" width="44" height="83">
<rect x="64.7344" y="280.527" width="43.1579" height="82.2697" fill="#C9DEF2"/>
</mask>
<g mask="url(#mask0_471_10787)">
<circle cx="64.735" cy="318.965" r="27.9852" fill="#C9DEF2" stroke="#BA402A" stroke-width="2.02303"/>
</g>
<mask id="mask1_471_10787" style="mask-type:alpha" maskUnits="userSpaceOnUse" x="307" y="449" width="83" height="44">
<rect x="307.5" y="492.273" width="43.1579" height="82.2697" transform="rotate(-90 307.5 492.273)" fill="#C9DEF2"/>
</mask>
<g mask="url(#mask1_471_10787)">
<circle cx="345.938" cy="492.269" r="27.9852" transform="rotate(-90 345.938 492.269)" stroke="#BA402A" stroke-width="2.02303"/>
</g>
<mask id="mask2_471_10787" style="mask-type:alpha" maskUnits="userSpaceOnUse" x="581" y="280" width="45" height="83">
<rect x="-0.337171" y="0.337171" width="42.4836" height="81.5954" transform="matrix(-1 0 0 1 624.443 280.527)" fill="#C9DEF2" stroke="#C2526A" stroke-width="0.674342"/>
</mask>
<g mask="url(#mask2_471_10787)">
<circle cx="28.9967" cy="28.9967" r="27.9852" transform="matrix(-1 0 0 1 654.109 289.969)" fill="#C9DEF2" stroke="#BA402A" stroke-width="2.02303"/>
</g>
<circle cx="344.925" cy="317.956" r="43.4951" stroke="#1A1A1A" stroke-width="4.04605"/>
<rect x="63.3828" y="153.75" width="2.69737" height="329.079" fill="#BA402A"/>
<rect width="2.69737" height="329.079" transform="matrix(-1 0 0 1 626.465 153.75)" fill="#BA402A"/>
<rect x="4.0516" y="134.868" width="681.76" height="366.168" rx="113.29" stroke="#95D0EB" stroke-width="8.09211"/>
<rect x="10.4579" y="141.274" width="668.947" height="353.355" rx="106.883" stroke="#5060C4" stroke-width="4.7204"/>
<rect x="260.301" y="145.66" width="169.26" height="344.589" fill="#D2C8FA" fill-opacity="0.61"/>
<rect x="260.301" width="169.26" height="117.336" fill="#D2C8FA" fill-opacity="0.61"/>
<path d="M304.648 41.1599C304.258 41.7438 303.777 42.1741 303.206 42.4507C302.64 42.7228 301.942 42.8589 301.112 42.8589C298.289 42.8589 296.878 41.2763 296.878 38.1109C296.878 36.4909 297.236 35.2945 297.951 34.5219C298.667 33.7492 299.698 33.3628 301.046 33.3628C301.937 33.3628 302.664 33.5143 303.226 33.8172C303.788 34.1158 304.216 34.5087 304.51 34.996L303.068 36.1155C302.857 35.7994 302.664 35.5711 302.488 35.4306C302.313 35.2902 302.113 35.1848 301.889 35.1145C301.665 35.0443 301.397 35.0092 301.086 35.0092C300.339 35.0092 299.771 35.2484 299.38 35.727C298.989 36.2011 298.794 36.9958 298.794 38.1109C298.794 39.1514 298.976 39.9285 299.341 40.4421C299.709 40.9558 300.296 41.2126 301.099 41.2126C301.639 41.2126 302.058 41.1094 302.357 40.9031C302.66 40.6967 302.934 40.4224 303.18 40.0799L304.648 41.1599ZM312.676 36.6094C312.676 37.707 312.417 38.5214 311.899 39.0526C311.385 39.5838 310.549 39.8494 309.39 39.8494H307.875V42.668H306.018V33.5538H309.443C310.474 33.5538 311.271 33.7953 311.833 34.2782C312.395 34.7567 312.676 35.5338 312.676 36.6094ZM310.76 36.6226C310.76 36.1089 310.617 35.738 310.332 35.5097C310.051 35.2814 309.541 35.1672 308.804 35.1672H307.875V38.2294H308.633C309.313 38.2294 309.783 38.1833 310.042 38.0911C310.305 37.9945 310.49 37.8343 310.595 37.6104C310.705 37.3865 310.76 37.0572 310.76 36.6226ZM314.184 42.668V33.5538H320.104V35.1936H316.041V37.1363H319.466V38.7826H316.041V40.9689H320.104V42.668H314.184ZM320.947 44.288V41.1467H321.784C322.245 40.1238 322.578 38.9867 322.785 37.7355C322.995 36.4843 323.101 35.0904 323.101 33.5538H328.481V41.1467H329.561V44.288H327.704V42.668H322.804V44.288H320.947ZM326.637 35.1014H324.787C324.725 36.5063 324.571 37.7114 324.326 38.7167C324.084 39.7221 323.851 40.5211 323.628 41.1138H326.637V35.1014ZM336.173 42.668V38.7958H332.584V42.668H330.727V33.5538H332.584V37.0967H336.173V33.5538H338.036V42.668H336.173ZM339.241 42.668L341.678 38.9999C341.085 38.8814 340.622 38.5916 340.289 38.1306C339.959 37.6653 339.795 37.0419 339.795 36.2604C339.795 35.2989 340.062 34.6075 340.598 34.186C341.138 33.7645 341.999 33.5538 343.18 33.5538H346.499V42.668H344.635V39.2172H343.693L341.369 42.668H339.241ZM341.678 36.3394C341.678 36.6863 341.726 36.9431 341.823 37.1099C341.924 37.2767 342.086 37.3997 342.31 37.4787C342.534 37.5577 342.855 37.5972 343.272 37.5972H344.635V35.1672H343.193C342.653 35.1672 342.264 35.2463 342.027 35.4043C341.794 35.5623 341.678 35.8741 341.678 36.3394ZM347.697 42.668L350.134 38.9999C349.541 38.8814 349.078 38.5916 348.744 38.1306C348.415 37.6653 348.25 37.0419 348.25 36.2604C348.25 35.2989 348.518 34.6075 349.054 34.186C349.594 33.7645 350.454 33.5538 351.635 33.5538H354.954V42.668H353.09V39.2172H352.149L349.824 42.668H347.697ZM350.134 36.3394C350.134 36.6863 350.182 36.9431 350.279 37.1099C350.38 37.2767 350.542 37.3997 350.766 37.4787C350.99 37.5577 351.31 37.5972 351.727 37.5972H353.09V35.1672H351.648C351.108 35.1672 350.72 35.2463 350.483 35.4043C350.25 35.5623 350.134 35.8741 350.134 36.3394ZM360.914 40.0667C361.406 40.9185 362.104 41.3443 363.008 41.3443C363.473 41.3443 363.862 41.2236 364.174 40.9821C364.49 40.7406 364.648 40.418 364.648 40.0141C364.648 39.5706 364.536 39.248 364.312 39.046C364.088 38.8441 363.719 38.7431 363.206 38.7431H361.276V37.2087H363.304C363.695 37.2087 363.994 37.1055 364.2 36.8992C364.411 36.6884 364.516 36.3811 364.516 35.9772C364.516 35.648 364.362 35.3823 364.055 35.1804C363.748 34.9741 363.361 34.8709 362.896 34.8709C362.554 34.8709 362.202 34.9258 361.842 35.0355C361.487 35.1409 361.087 35.3516 360.644 35.6677L359.715 34.3309C360.602 33.6855 361.684 33.3628 362.962 33.3628C363.704 33.3628 364.338 33.4638 364.865 33.6658C365.396 33.8677 365.798 34.1641 366.07 34.5548C366.347 34.9411 366.485 35.4021 366.485 35.9377C366.485 36.4514 366.356 36.8926 366.097 37.2614C365.842 37.6302 365.526 37.8804 365.148 38.0121C366.119 38.4292 366.604 39.1097 366.604 40.0536C366.604 40.9755 366.294 41.6736 365.675 42.1477C365.056 42.6219 364.18 42.8589 363.048 42.8589C362.213 42.8589 361.498 42.7097 360.901 42.4111C360.304 42.1082 359.801 41.6275 359.393 40.9689L360.914 40.0667ZM375.612 38.1109C375.612 39.6958 375.277 40.8833 374.605 41.6736C373.938 42.4638 372.965 42.8589 371.688 42.8589C370.34 42.8589 369.348 42.4441 368.711 41.6143C368.079 40.7802 367.763 39.6124 367.763 38.1109C367.763 36.6006 368.079 35.4328 368.711 34.6075C369.348 33.7777 370.34 33.3628 371.688 33.3628C373.044 33.3628 374.036 33.7777 374.664 34.6075C375.296 35.4328 375.612 36.6006 375.612 38.1109ZM373.696 38.1109C373.696 37.0309 373.542 36.245 373.235 35.7533C372.932 35.2572 372.416 35.0092 371.688 35.0092C370.959 35.0092 370.441 35.2572 370.133 35.7533C369.831 36.245 369.679 37.0309 369.679 38.1109C369.679 39.1909 369.833 39.9789 370.14 40.475C370.452 40.9667 370.968 41.2126 371.688 41.2126C372.416 41.2126 372.932 40.9667 373.235 40.475C373.542 39.9789 373.696 39.1909 373.696 38.1109ZM382.613 42.668V38.7958H379.024V42.668H377.167V33.5538H379.024V37.0967H382.613V33.5538H384.476V42.668H382.613ZM385.642 42.668L388.658 33.5538H391.075L394.098 42.668H392.194L391.589 40.8175H388.079L387.486 42.668H385.642ZM388.605 39.1909H391.062L389.837 35.4241L388.605 39.1909Z" fill="black"/>
<path d="M289.336 91.5469V83.9934L286.814 89.0642H286.057L283.561 83.9934V91.5469H282.402V82.4327H284.048L286.465 87.3915L288.901 82.4327H290.495V91.5469H289.336ZM296.745 91.5469V90.6842C296.393 90.9915 296.04 91.2461 295.684 91.4481C295.329 91.65 294.927 91.751 294.479 91.751C293.821 91.751 293.311 91.5513 292.951 91.1518C292.596 90.7478 292.418 90.232 292.418 89.6042C292.418 89.13 292.51 88.7371 292.695 88.4254C292.883 88.1093 293.153 87.8613 293.505 87.6813C293.86 87.4969 294.374 87.3652 295.046 87.2861L296.745 87.1347V86.7988C296.745 86.2676 296.595 85.9054 296.297 85.7122C296.003 85.5191 295.594 85.4225 295.072 85.4225C294.607 85.4225 294.247 85.5037 293.992 85.6661C293.742 85.8286 293.562 86.0042 293.452 86.193L292.523 85.6266C292.734 85.2447 293.055 84.9527 293.485 84.7508C293.919 84.5444 294.457 84.4413 295.098 84.4413C296.09 84.4413 296.802 84.6213 297.232 84.9813C297.662 85.3413 297.877 85.9647 297.877 86.8515V91.5469H296.745ZM296.745 88.0435L295.638 88.1488C294.888 88.2147 294.359 88.3617 294.051 88.59C293.744 88.8139 293.59 89.1432 293.59 89.5778C293.59 89.9905 293.693 90.2869 293.9 90.4669C294.106 90.6469 294.416 90.7369 294.828 90.7369C294.999 90.7369 295.169 90.7061 295.335 90.6447C295.502 90.5788 295.667 90.4998 295.829 90.4076C295.992 90.311 296.148 90.2035 296.297 90.0849C296.45 89.962 296.6 89.8435 296.745 89.7293V88.0435ZM301.17 84.6388V87.5825H302.138C302.397 87.5825 302.617 87.4903 302.797 87.3059C302.977 87.1215 303.154 86.812 303.33 86.3774C303.51 85.9383 303.683 85.3588 303.85 84.6388H305.003C304.836 85.3895 304.658 86.0064 304.469 86.4893C304.285 86.9722 304.1 87.33 303.916 87.5627C303.736 87.7954 303.508 87.9447 303.231 88.0105C303.56 88.1071 303.828 88.263 304.035 88.4781C304.241 88.6932 304.43 89.0159 304.601 89.4461C304.772 89.872 304.981 90.5722 305.227 91.5469H304.081C303.927 91.0069 303.789 90.5459 303.666 90.1639C303.547 89.782 303.416 89.4725 303.271 89.2354C303.13 88.9939 302.963 88.8205 302.77 88.7152C302.577 88.6054 302.331 88.5505 302.033 88.5505H301.17V91.5469H300.064V84.6388H301.17ZM311.693 90.48C311.478 90.8488 311.18 91.1539 310.798 91.3954C310.416 91.6325 309.889 91.751 309.217 91.751C308.203 91.751 307.439 91.4459 306.926 90.8357C306.412 90.221 306.155 89.3122 306.155 88.1093C306.155 86.9064 306.41 85.9954 306.919 85.3764C307.428 84.753 308.179 84.4413 309.171 84.4413C310.308 84.4413 311.118 84.8627 311.601 85.7056L310.673 86.272C310.501 86.0042 310.3 85.7956 310.067 85.6464C309.839 85.4971 309.536 85.4225 309.158 85.4225C308.495 85.4225 308.023 85.6639 307.742 86.1469C307.466 86.6254 307.327 87.2883 307.327 88.1357C307.327 88.781 307.393 89.2837 307.525 89.6437C307.657 90.0037 307.861 90.2803 308.137 90.4735C308.418 90.6666 308.774 90.7632 309.204 90.7632C309.573 90.7632 309.874 90.6952 310.106 90.5591C310.339 90.4186 310.559 90.2035 310.765 89.9137L311.693 90.48ZM314.486 91.5469H313.287V84.6388H314.354V90.0915L317.739 84.6388H318.885V91.5469H317.818V86.2061L314.486 91.5469ZM327.518 91.5469H326.451V86.2852L324.574 89.7293H324.008L322.19 86.2852V91.5469H321.124V84.6388H322.309L324.318 88.1883L326.346 84.6388H327.518V91.5469ZM328.901 93.0154C329.186 93.1427 329.518 93.2064 329.895 93.2064C330.427 93.2064 330.877 92.7257 331.245 91.7642L331.476 91.1715L328.954 84.6388H330.179L332.082 89.6964L333.998 84.6388H335.183L332.233 92.0737C331.921 92.8332 331.588 93.3688 331.232 93.6805C330.877 93.9922 330.413 94.1481 329.843 94.1481C329.636 94.1481 329.417 94.1283 329.184 94.0888C328.951 94.0493 328.763 94.0032 328.618 93.9505L328.901 93.0154ZM343.007 91.5469H341.94V86.2852L340.063 89.7293H339.497L337.679 86.2852V91.5469H336.612V84.6388H337.798L339.806 88.1883L341.835 84.6388H343.007V91.5469ZM355.025 88.5505C355.025 89.5427 354.707 90.322 354.07 90.8883C353.438 91.4547 352.525 91.7379 351.331 91.7379C349.842 91.7379 348.767 91.2374 348.104 90.2364L349.586 89.1893C349.924 89.782 350.497 90.0783 351.304 90.0783C352.516 90.0783 353.122 89.5559 353.122 88.511C353.122 88.072 352.962 87.7274 352.641 87.4771C352.325 87.2225 351.884 87.0952 351.318 87.0952C350.712 87.0952 350.253 87.2576 349.941 87.5825H348.644L349.184 82.4327H354.512V84.1317H350.666L350.481 85.732C350.898 85.5608 351.362 85.4752 351.871 85.4752C352.845 85.4752 353.614 85.7364 354.176 86.2588C354.742 86.7813 355.025 87.5452 355.025 88.5505ZM359.898 84.6388H361.005V86.4103C361.005 86.9635 361.038 87.3827 361.103 87.6681C361.169 87.9491 361.277 88.1466 361.426 88.2608C361.58 88.3749 361.808 88.432 362.111 88.432C362.607 88.432 363.272 88.2652 364.106 87.9315V84.6388H365.213V91.5469H364.106V88.9061L363.56 89.1037C362.862 89.3671 362.298 89.4988 361.867 89.4988C361.187 89.4988 360.689 89.2771 360.373 88.8337C360.056 88.3903 359.898 87.7164 359.898 86.812V84.6388ZM368.282 88.2278C368.282 89.141 368.437 89.793 368.749 90.1837C369.061 90.57 369.561 90.7632 370.251 90.7632C370.558 90.7632 370.828 90.6996 371.061 90.5722C371.293 90.4405 371.517 90.2298 371.732 89.94L372.667 90.5196C372.404 90.9147 372.083 91.2198 371.706 91.4349C371.328 91.6457 370.817 91.751 370.172 91.751C369.144 91.751 368.376 91.4525 367.867 90.8554C367.362 90.2583 367.109 89.3561 367.109 88.1488C367.109 86.8844 367.355 85.9515 367.847 85.35C368.343 84.7442 369.089 84.4413 370.086 84.4413C370.982 84.4413 371.653 84.7003 372.101 85.2183C372.549 85.732 372.773 86.5244 372.773 87.5957V88.2278H368.282ZM371.666 87.3388C371.658 86.7198 371.526 86.2391 371.271 85.8966C371.021 85.5542 370.613 85.383 370.046 85.383C369.506 85.383 369.1 85.5388 368.828 85.8505C368.56 86.1578 368.383 86.6539 368.295 87.3388H371.666ZM376.592 85.5739V86.0547C376.592 87.1742 376.496 88.1664 376.303 89.0313C376.114 89.8918 375.844 90.5437 375.493 90.9871C375.146 91.4305 374.735 91.6522 374.261 91.6522C374.151 91.6522 374.02 91.6391 373.866 91.6127C373.717 91.5864 373.605 91.56 373.53 91.5337L373.747 90.5459C373.91 90.5766 374.048 90.592 374.162 90.592C375.062 90.592 375.512 88.95 375.512 85.6661V84.6388H379.523V91.5469H378.416V85.5739H376.592ZM387.491 88.1093C387.491 89.3078 387.232 90.2144 386.714 90.8291C386.2 91.4437 385.45 91.751 384.462 91.751C383.474 91.751 382.719 91.4481 382.196 90.8422C381.674 90.232 381.413 89.321 381.413 88.1093C381.413 86.8756 381.674 85.9559 382.196 85.35C382.723 84.7442 383.478 84.4413 384.462 84.4413C385.454 84.4413 386.207 84.7508 386.721 85.3698C387.234 85.9844 387.491 86.8976 387.491 88.1093ZM386.319 88.1093C386.319 87.1698 386.163 86.4871 385.851 86.0613C385.544 85.6354 385.081 85.4225 384.462 85.4225C383.825 85.4225 383.353 85.6376 383.046 86.0678C382.739 86.4937 382.585 87.1742 382.585 88.1093C382.585 89.0093 382.732 89.6766 383.026 90.1113C383.325 90.5459 383.803 90.7632 384.462 90.7632C385.09 90.7632 385.555 90.5481 385.858 90.1178C386.165 89.6876 386.319 89.0181 386.319 88.1093ZM394.821 89.4461C394.821 90.1881 394.568 90.7237 394.063 91.053C393.563 91.3822 392.827 91.5469 391.857 91.5469H389.388V84.6388H391.831C392.823 84.6388 393.517 84.7595 393.912 85.001C394.311 85.2425 394.511 85.6617 394.511 86.2588C394.511 87.0622 394.155 87.6066 393.444 87.892C393.918 87.9974 394.265 88.173 394.485 88.4188C394.709 88.6647 394.821 89.0071 394.821 89.4461ZM393.378 86.4366C393.378 86.0503 393.247 85.8022 392.983 85.6925C392.724 85.5783 392.327 85.5213 391.791 85.5213H390.494V87.5693H391.706C392.821 87.5693 393.378 87.1917 393.378 86.4366ZM393.662 89.4725C393.662 89.073 393.53 88.8052 393.266 88.6691C393.007 88.5286 392.56 88.4583 391.923 88.4583H390.494V90.6447H391.462C392.191 90.6447 392.74 90.57 393.108 90.4208C393.477 90.2715 393.662 89.9554 393.662 89.4725ZM397.442 88.2278C397.442 89.141 397.597 89.793 397.909 90.1837C398.221 90.57 398.721 90.7632 399.411 90.7632C399.718 90.7632 399.988 90.6996 400.221 90.5722C400.453 90.4405 400.677 90.2298 400.892 89.94L401.827 90.5196C401.564 90.9147 401.244 91.2198 400.866 91.4349C400.488 91.6457 399.977 91.751 399.332 91.751C398.304 91.751 397.536 91.4525 397.027 90.8554C396.522 90.2583 396.269 89.3561 396.269 88.1488C396.269 86.8844 396.515 85.9515 397.007 85.35C397.503 84.7442 398.249 84.4413 399.246 84.4413C400.142 84.4413 400.813 84.7003 401.261 85.2183C401.709 85.732 401.933 86.5244 401.933 87.5957V88.2278H397.442ZM400.826 87.3388C400.818 86.7198 400.686 86.2391 400.431 85.8966C400.181 85.5542 399.773 85.383 399.206 85.383C398.666 85.383 398.26 85.5388 397.988 85.8505C397.72 86.1578 397.543 86.6539 397.455 87.3388H400.826ZM404.85 84.6388V87.5825H405.818C406.077 87.5825 406.297 87.4903 406.477 87.3059C406.657 87.1215 406.835 86.812 407.01 86.3774C407.19 85.9383 407.364 85.3588 407.53 84.6388H408.683C408.516 85.3895 408.338 86.0064 408.149 86.4893C407.965 86.9722 407.781 87.33 407.596 87.5627C407.416 87.7954 407.188 87.9447 406.911 88.0105C407.241 88.1071 407.508 88.263 407.715 88.4781C407.921 88.6932 408.11 89.0159 408.281 89.4461C408.452 89.872 408.661 90.5722 408.907 91.5469H407.761C407.607 91.0069 407.469 90.5459 407.346 90.1639C407.227 89.782 407.096 89.4725 406.951 89.2354C406.81 88.9939 406.644 88.8205 406.45 88.7152C406.257 88.6054 406.011 88.5505 405.713 88.5505H404.85V91.5469H403.744V84.6388H404.85Z" fill="black"/>
<path d="M315.791 69.25V67.3073C316.685 66.5555 317.5 65.8366 318.235 65.1506C318.971 64.4646 319.539 63.8966 319.939 63.4466C320.34 62.9912 320.65 62.5576 320.87 62.146C321.095 61.729 321.207 61.2927 321.207 60.8372C321.207 60.4805 321.073 60.1979 320.804 59.9893C320.535 59.7808 320.164 59.6765 319.692 59.6765C319.182 59.6765 318.765 59.7945 318.441 60.0305C318.117 60.2665 317.848 60.5463 317.634 60.8701L315.758 59.553C316.224 58.8561 316.776 58.3594 317.412 58.0631C318.054 57.7668 318.853 57.6186 319.808 57.6186C320.982 57.6186 321.907 57.893 322.582 58.4418C323.262 58.9905 323.602 59.7616 323.602 60.7549C323.602 61.4847 323.468 62.1268 323.199 62.6811C322.936 63.2299 322.557 63.7649 322.063 64.2863C321.575 64.8021 320.963 65.3729 320.227 65.9985C319.498 66.6241 319.048 67 318.877 67.1262H323.973V69.25H315.791ZM334.542 63.5537C334.542 65.6006 334.183 67.1043 333.464 68.0646C332.745 69.025 331.62 69.5052 330.089 69.5052C328.569 69.5052 327.449 69.025 326.73 68.0646C326.012 67.1043 325.652 65.6061 325.652 63.5701C325.652 61.5341 326.012 60.0332 326.73 59.0674C327.449 58.1015 328.569 57.6186 330.089 57.6186C331.62 57.6186 332.745 58.0988 333.464 59.0591C334.183 60.0195 334.542 61.5177 334.542 63.5537ZM332.147 63.5537C332.147 62.1927 331.98 61.1966 331.645 60.5655C331.316 59.929 330.797 59.6107 330.089 59.6107C329.381 59.6107 328.862 59.9317 328.533 60.5738C328.209 61.2104 328.048 62.2091 328.048 63.5701C328.048 64.9311 328.209 65.9299 328.533 66.5665C328.862 67.1976 329.381 67.5131 330.089 67.5131C330.797 67.5131 331.316 67.1948 331.645 66.5582C331.98 65.9162 332.147 64.9146 332.147 63.5537ZM345.079 63.5537C345.079 65.6006 344.72 67.1043 344.001 68.0646C343.282 69.025 342.157 69.5052 340.626 69.5052C339.106 69.5052 337.986 69.025 337.267 68.0646C336.548 67.1043 336.189 65.6061 336.189 63.5701C336.189 61.5341 336.548 60.0332 337.267 59.0674C337.986 58.1015 339.106 57.6186 340.626 57.6186C342.157 57.6186 343.282 58.0988 344.001 59.0591C344.72 60.0195 345.079 61.5177 345.079 63.5537ZM342.684 63.5537C342.684 62.1927 342.516 61.1966 342.181 60.5655C341.852 59.929 341.334 59.6107 340.626 59.6107C339.918 59.6107 339.399 59.9317 339.07 60.5738C338.746 61.2104 338.584 62.2091 338.584 63.5701C338.584 64.9311 338.746 65.9299 339.07 66.5665C339.399 67.1976 339.918 67.5131 340.626 67.5131C341.334 67.5131 341.852 67.1948 342.181 66.5582C342.516 65.9162 342.684 64.9146 342.684 63.5537ZM355.616 63.5537C355.616 65.6006 355.256 67.1043 354.537 68.0646C353.818 69.025 352.693 69.5052 351.162 69.5052C349.642 69.5052 348.523 69.025 347.804 68.0646C347.085 67.1043 346.725 65.6061 346.725 63.5701C346.725 61.5341 347.085 60.0332 347.804 59.0674C348.523 58.1015 349.642 57.6186 351.162 57.6186C352.693 57.6186 353.818 58.0988 354.537 59.0591C355.256 60.0195 355.616 61.5177 355.616 63.5537ZM353.22 63.5537C353.22 62.1927 353.053 61.1966 352.718 60.5655C352.389 59.929 351.87 59.6107 351.162 59.6107C350.454 59.6107 349.936 59.9317 349.606 60.5738C349.283 61.2104 349.121 62.2091 349.121 63.5701C349.121 64.9311 349.283 65.9299 349.606 66.5665C349.936 67.1976 350.454 67.5131 351.162 67.5131C351.87 67.5131 352.389 67.1948 352.718 66.5582C353.053 65.9162 353.22 64.9146 353.22 63.5537ZM369.741 64.8707C369.741 65.7982 369.601 66.6159 369.321 67.3238C369.042 68.0317 368.641 68.5723 368.12 68.9454C367.598 69.3186 366.975 69.5052 366.251 69.5052C365.296 69.5052 364.481 69.2061 363.806 68.6079V72.5015H361.682V60.6149H363.642V61.4628C364.037 61.1226 364.451 60.8564 364.884 60.6643C365.324 60.4668 365.826 60.368 366.391 60.368C367.483 60.368 368.314 60.7521 368.885 61.5204C369.456 62.2887 369.741 63.4055 369.741 64.8707ZM367.552 64.9037C367.552 64.064 367.406 63.411 367.115 62.9445C366.824 62.4726 366.391 62.2366 365.815 62.2366C365.469 62.2366 365.112 62.3189 364.745 62.4835C364.382 62.6427 364.07 62.8402 363.806 63.0762V66.8546C364.031 67.0576 364.308 67.2387 364.638 67.3979C364.972 67.5515 365.315 67.6284 365.667 67.6284C366.248 67.6284 366.706 67.3814 367.041 66.8875C367.381 66.3881 367.552 65.7268 367.552 64.9037ZM374.26 68.0564C374.26 68.5284 374.153 68.8659 373.939 69.0689C373.725 69.2665 373.382 69.3652 372.91 69.3652C372.395 69.3652 372.043 69.2527 371.857 69.0277C371.67 68.8027 371.577 68.479 371.577 68.0564C371.577 67.6064 371.676 67.2744 371.873 67.0604C372.071 66.8463 372.417 66.7393 372.91 66.7393C373.415 66.7393 373.767 66.8436 373.964 67.0521C374.162 67.2607 374.26 67.5954 374.26 68.0564Z" fill="black"/>
</g>
<defs>
<clipPath id="clip0_471_10787">
<rect width="690" height="505" fill="white"/>
</clipPath>
</defs>
</svg>
