<svg width="690" height="505" viewBox="0 0 690 505" fill="none" xmlns="http://www.w3.org/2000/svg">
<g clip-path="url(#clip0_471_10353)">
<rect width="690" height="505" fill="white"/>
<circle cx="131.159" cy="413.038" r="42.1464" stroke="#BA402A" stroke-width="2.69737"/>
<circle cx="3.03454" cy="3.03454" r="1.68585" transform="matrix(-1 0 0 1 134.195 410)" fill="#BA402A" stroke="#BA402A" stroke-width="2.69737"/>
<line x1="124.075" y1="362.797" x2="124.075" y2="370.889" stroke="#BA402A" stroke-width="2.69737"/>
<line x1="124.075" y1="455.184" x2="124.075" y2="463.276" stroke="#BA402A" stroke-width="2.69737"/>
<line x1="126.103" y1="401.906" x2="126.103" y2="412.021" stroke="#BA402A" stroke-width="2.69737"/>
<line x1="126.103" y1="416.066" x2="126.103" y2="424.159" stroke="#BA402A" stroke-width="2.69737"/>
<line x1="141.61" y1="362.797" x2="141.61" y2="370.889" stroke="#BA402A" stroke-width="2.69737"/>
<line x1="141.61" y1="455.184" x2="141.61" y2="463.276" stroke="#BA402A" stroke-width="2.69737"/>
<line x1="138.239" y1="401.906" x2="138.239" y2="409.998" stroke="#BA402A" stroke-width="2.69737"/>
<line x1="149.703" y1="410.673" x2="136.891" y2="410.673" stroke="#BA402A" stroke-width="2.69737"/>
<line x1="125.426" y1="410.673" x2="112.613" y2="410.673" stroke="#BA402A" stroke-width="2.69737"/>
<line x1="149.703" y1="417.415" x2="136.891" y2="417.415" stroke="#BA402A" stroke-width="2.69737"/>
<line x1="125.426" y1="417.415" x2="112.613" y2="417.415" stroke="#BA402A" stroke-width="2.69737"/>
<line x1="138.239" y1="416.066" x2="138.239" y2="424.159" stroke="#BA402A" stroke-width="2.69737"/>
<circle cx="560.042" cy="413.038" r="42.1464" stroke="#BA402A" stroke-width="2.69737"/>
<circle cx="3.03454" cy="3.03454" r="1.68585" transform="matrix(-1 0 0 1 563.074 410)" fill="#BA402A" stroke="#BA402A" stroke-width="2.69737"/>
<line x1="552.962" y1="362.797" x2="552.962" y2="370.889" stroke="#BA402A" stroke-width="2.69737"/>
<line x1="552.962" y1="455.184" x2="552.962" y2="463.276" stroke="#BA402A" stroke-width="2.69737"/>
<line x1="554.985" y1="401.906" x2="554.985" y2="412.021" stroke="#BA402A" stroke-width="2.69737"/>
<line x1="554.985" y1="416.066" x2="554.985" y2="424.159" stroke="#BA402A" stroke-width="2.69737"/>
<line x1="570.493" y1="362.797" x2="570.493" y2="370.889" stroke="#BA402A" stroke-width="2.69737"/>
<line x1="570.493" y1="455.184" x2="570.493" y2="463.276" stroke="#BA402A" stroke-width="2.69737"/>
<line x1="567.118" y1="401.906" x2="567.118" y2="409.998" stroke="#BA402A" stroke-width="2.69737"/>
<line x1="578.586" y1="410.673" x2="565.773" y2="410.673" stroke="#BA402A" stroke-width="2.69737"/>
<line x1="554.305" y1="410.673" x2="541.492" y2="410.673" stroke="#BA402A" stroke-width="2.69737"/>
<line x1="578.586" y1="417.415" x2="565.773" y2="417.415" stroke="#BA402A" stroke-width="2.69737"/>
<line x1="554.305" y1="417.415" x2="541.492" y2="417.415" stroke="#BA402A" stroke-width="2.69737"/>
<line x1="567.118" y1="416.066" x2="567.118" y2="424.159" stroke="#BA402A" stroke-width="2.69737"/>
<circle cx="131.159" cy="224.897" r="42.1464" stroke="#BA402A" stroke-width="2.69737"/>
<circle cx="3.03454" cy="3.03454" r="1.68585" transform="matrix(-1 0 0 1 134.195 221.863)" fill="#BA402A" stroke="#BA402A" stroke-width="2.69737"/>
<line x1="124.075" y1="174.656" x2="124.075" y2="182.748" stroke="#BA402A" stroke-width="2.69737"/>
<line x1="124.075" y1="267.035" x2="124.075" y2="275.127" stroke="#BA402A" stroke-width="2.69737"/>
<line x1="124.075" y1="213.766" x2="124.075" y2="221.858" stroke="#BA402A" stroke-width="2.69737"/>
<line x1="124.751" y1="227.922" x2="124.751" y2="236.014" stroke="#BA402A" stroke-width="2.69737"/>
<line x1="141.61" y1="174.656" x2="141.61" y2="182.748" stroke="#BA402A" stroke-width="2.69737"/>
<line x1="141.61" y1="267.035" x2="141.61" y2="275.127" stroke="#BA402A" stroke-width="2.69737"/>
<line x1="138.915" y1="213.766" x2="138.915" y2="221.858" stroke="#BA402A" stroke-width="2.69737"/>
<line x1="150.379" y1="222.532" x2="137.566" y2="222.532" stroke="#BA402A" stroke-width="2.69737"/>
<line x1="125.426" y1="222.532" x2="112.613" y2="222.532" stroke="#BA402A" stroke-width="2.69737"/>
<line x1="150.379" y1="229.271" x2="137.566" y2="229.271" stroke="#BA402A" stroke-width="2.69737"/>
<line x1="126.098" y1="229.271" x2="113.285" y2="229.271" stroke="#BA402A" stroke-width="2.69737"/>
<line x1="138.239" y1="227.922" x2="138.239" y2="236.014" stroke="#BA402A" stroke-width="2.69737"/>
<circle cx="560.042" cy="224.897" r="42.1464" stroke="#BA402A" stroke-width="2.69737"/>
<circle cx="3.03454" cy="3.03454" r="1.68585" transform="matrix(-1 0 0 1 563.074 221.863)" fill="#BA402A" stroke="#BA402A" stroke-width="2.69737"/>
<line x1="552.962" y1="174.656" x2="552.962" y2="182.748" stroke="#BA402A" stroke-width="2.69737"/>
<line x1="552.962" y1="267.035" x2="552.962" y2="275.127" stroke="#BA402A" stroke-width="2.69737"/>
<line x1="552.962" y1="213.766" x2="552.962" y2="221.858" stroke="#BA402A" stroke-width="2.69737"/>
<line x1="553.634" y1="227.922" x2="553.634" y2="236.014" stroke="#BA402A" stroke-width="2.69737"/>
<line x1="570.493" y1="174.656" x2="570.493" y2="182.748" stroke="#BA402A" stroke-width="2.69737"/>
<line x1="570.493" y1="267.035" x2="570.493" y2="275.127" stroke="#BA402A" stroke-width="2.69737"/>
<line x1="567.798" y1="213.766" x2="567.798" y2="221.858" stroke="#BA402A" stroke-width="2.69737"/>
<line x1="579.262" y1="222.532" x2="566.449" y2="222.532" stroke="#BA402A" stroke-width="2.69737"/>
<line x1="554.305" y1="222.532" x2="541.492" y2="222.532" stroke="#BA402A" stroke-width="2.69737"/>
<line x1="579.262" y1="229.271" x2="566.449" y2="229.271" stroke="#BA402A" stroke-width="2.69737"/>
<line x1="554.984" y1="229.271" x2="542.172" y2="229.271" stroke="#BA402A" stroke-width="2.69737"/>
<line x1="567.118" y1="227.922" x2="567.118" y2="236.014" stroke="#BA402A" stroke-width="2.69737"/>
<rect x="252.875" y="142.285" width="5.39474" height="352.007" fill="#5060C4"/>
<rect x="342.562" y="327.73" width="5.39474" height="166.562" fill="#BA402A"/>
<rect x="342.562" y="142.285" width="5.39474" height="166.562" fill="#BA402A"/>
<rect x="431.578" y="142.285" width="5.39474" height="352.007" fill="#5060C4"/>
<circle cx="3.03454" cy="3.03454" r="3.03454" transform="matrix(-1 0 0 1 275.809 410)" fill="#BA402A"/>
<circle cx="3.03454" cy="3.03454" r="2.3602" transform="matrix(-1 0 0 1 347.965 314.918)" fill="#1A1A1A" stroke="#1A1A1A" stroke-width="1.34868"/>
<circle cx="3.03454" cy="3.03454" r="3.03454" transform="matrix(-1 0 0 1 275.809 221.863)" fill="#BA402A"/>
<circle cx="3.03454" cy="3.03454" r="3.03454" transform="matrix(-1 0 0 1 420.793 410)" fill="#BA402A"/>
<circle cx="3.03454" cy="3.03454" r="3.03454" transform="matrix(-1 0 0 1 420.793 221.863)" fill="#BA402A"/>
<mask id="mask0_471_10353" style="mask-type:alpha" maskUnits="userSpaceOnUse" x="64" y="280" width="44" height="83">
<rect x="64.7344" y="280.527" width="43.1579" height="82.2697" fill="#C9DEF2"/>
</mask>
<g mask="url(#mask0_471_10353)">
<circle cx="64.735" cy="318.962" r="27.9852" fill="#C9DEF2" stroke="#BA402A" stroke-width="2.02303"/>
</g>
<mask id="mask1_471_10353" style="mask-type:alpha" maskUnits="userSpaceOnUse" x="307" y="449" width="83" height="44">
<rect x="307.5" y="492.27" width="43.1579" height="82.2697" transform="rotate(-90 307.5 492.27)" fill="#C9DEF2"/>
</mask>
<g mask="url(#mask1_471_10353)">
<circle cx="345.938" cy="492.269" r="27.9852" transform="rotate(-90 345.938 492.269)" stroke="#BA402A" stroke-width="2.02303"/>
</g>
<mask id="mask2_471_10353" style="mask-type:alpha" maskUnits="userSpaceOnUse" x="581" y="280" width="45" height="83">
<rect x="-0.337171" y="0.337171" width="42.4836" height="81.5954" transform="matrix(-1 0 0 1 624.443 280.527)" fill="#C9DEF2" stroke="#C2526A" stroke-width="0.674342"/>
</mask>
<g mask="url(#mask2_471_10353)">
<circle cx="28.9967" cy="28.9967" r="27.9852" transform="matrix(-1 0 0 1 654.109 289.965)" fill="#C9DEF2" stroke="#BA402A" stroke-width="2.02303"/>
</g>
<circle cx="344.925" cy="317.952" r="43.4951" stroke="#1A1A1A" stroke-width="4.04605"/>
<rect x="63.3828" y="153.75" width="2.69737" height="329.079" fill="#BA402A"/>
<rect width="2.69737" height="329.079" transform="matrix(-1 0 0 1 626.465 153.75)" fill="#BA402A"/>
<rect x="4.0516" y="134.872" width="681.76" height="366.168" rx="113.29" stroke="#95D0EB" stroke-width="8.09211"/>
<rect x="10.4579" y="141.278" width="668.947" height="353.355" rx="106.883" stroke="#5060C4" stroke-width="4.7204"/>
<path d="M14.8359 51.2501C14.8359 22.9454 37.7814 0 66.086 0H429.556V117.336H66.0859C37.7813 117.336 14.8359 94.3901 14.8359 66.0855V51.2501Z" fill="#C8DAFA" fill-opacity="0.61"/>
<path d="M170.431 23.5992H171.702C172.958 23.5992 173.899 23.8472 174.527 24.3433C175.159 24.8351 175.476 25.5572 175.476 26.5099C175.476 27.4012 175.181 28.0707 174.593 28.5185C174.009 28.9619 173.063 29.1836 171.755 29.1836H168.574V20.0694H174.777V21.5907H170.431V23.5992ZM173.559 26.3914C173.559 26.0753 173.493 25.8251 173.362 25.6407C173.234 25.4563 173.039 25.3246 172.776 25.2455C172.512 25.1665 172.086 25.127 171.498 25.127H170.431V27.6624H171.617C172.24 27.6624 172.718 27.5746 173.052 27.399C173.39 27.2233 173.559 26.8875 173.559 26.3914ZM184.59 24.6265C184.59 26.2114 184.254 27.399 183.582 28.1892C182.915 28.9794 181.942 29.3746 180.665 29.3746C179.317 29.3746 178.325 28.9597 177.688 28.1299C177.056 27.2958 176.74 26.128 176.74 24.6265C176.74 23.1163 177.056 21.9485 177.688 21.1231C178.325 20.2933 179.317 19.8785 180.665 19.8785C182.021 19.8785 183.014 20.2933 183.641 21.1231C184.274 21.9485 184.59 23.1163 184.59 24.6265ZM182.673 24.6265C182.673 23.5465 182.52 22.7607 182.212 22.269C181.909 21.7729 181.394 21.5248 180.665 21.5248C179.936 21.5248 179.418 21.7729 179.111 22.269C178.808 22.7607 178.656 23.5465 178.656 24.6265C178.656 25.7065 178.81 26.4946 179.117 26.9907C179.429 27.4824 179.945 27.7282 180.665 27.7282C181.394 27.7282 181.909 27.4824 182.212 26.9907C182.52 26.4946 182.673 25.7065 182.673 24.6265ZM189.12 21.617V22.3611C189.12 24.7846 188.905 26.5626 188.475 27.6953C188.045 28.8236 187.356 29.3877 186.407 29.3877C185.744 29.3877 185.187 29.2516 184.735 28.9794L185.314 27.5241C185.586 27.6426 185.834 27.7019 186.058 27.7019C186.366 27.7019 186.607 27.5197 186.783 27.1553C186.963 26.7909 187.097 26.196 187.184 25.3707C187.272 24.5409 187.316 23.4346 187.316 22.0516V20.0694H193.197V29.1836H191.346V21.617H189.12ZM195.166 29.1836V20.0694H197.023V23.3029H198.426C199.686 23.3029 200.592 23.5399 201.145 24.0141C201.698 24.4838 201.975 25.2038 201.975 26.1741C201.975 27.219 201.685 27.9829 201.106 28.4658C200.526 28.9443 199.62 29.1836 198.386 29.1836H195.166ZM200.059 26.1741C200.059 25.7087 199.92 25.3816 199.644 25.1929C199.372 25.0041 198.935 24.9097 198.333 24.9097H197.023V27.5504H198.333C198.9 27.5504 199.328 27.4429 199.618 27.2277C199.912 27.0126 200.059 26.6614 200.059 26.1741ZM211.959 27.4846V20.0694H213.816V29.1836H203.477V20.0694H205.334V27.4846H207.724V20.0694H209.568V27.4846H211.959ZM214.981 29.1836L217.997 20.0694H220.414L223.437 29.1836H221.534L220.928 27.3331H217.418L216.825 29.1836H214.981ZM217.945 25.7065H220.401L219.176 21.9397L217.945 25.7065ZM223.832 29.1836L226.269 25.5155C225.676 25.397 225.213 25.1072 224.879 24.6463C224.55 24.1809 224.385 23.5575 224.385 22.776C224.385 21.8146 224.653 21.1231 225.189 20.7016C225.729 20.2802 226.589 20.0694 227.77 20.0694H231.089V29.1836H229.225V25.7329H228.284L225.959 29.1836H223.832ZM226.269 22.855C226.269 23.2019 226.317 23.4587 226.413 23.6255C226.514 23.7924 226.677 23.9153 226.901 23.9943C227.125 24.0733 227.445 24.1129 227.862 24.1129H229.225V21.6829H227.783C227.243 21.6829 226.855 21.7619 226.618 21.9199C226.385 22.078 226.269 22.3897 226.269 22.855ZM239.538 29.1836V20.0694H241.277V26.4177L244.648 20.0694H246.815V29.1836H245.076V22.4138L241.52 29.1836H239.538ZM167.086 43.6755C166.695 44.2594 166.214 44.6897 165.644 44.9663C165.077 45.2385 164.379 45.3746 163.549 45.3746C160.726 45.3746 159.315 43.7919 159.315 40.6265C159.315 39.0065 159.673 37.8102 160.388 37.0375C161.104 36.2648 162.136 35.8785 163.484 35.8785C164.375 35.8785 165.101 36.0299 165.663 36.3328C166.225 36.6314 166.653 37.0243 166.947 37.5116L165.505 38.6311C165.295 38.315 165.101 38.0868 164.926 37.9463C164.75 37.8058 164.55 37.7004 164.326 37.6302C164.103 37.5599 163.835 37.5248 163.523 37.5248C162.777 37.5248 162.208 37.7641 161.817 38.2426C161.427 38.7168 161.231 39.5114 161.231 40.6265C161.231 41.667 161.414 42.4441 161.778 42.9577C162.147 43.4714 162.733 43.7282 163.536 43.7282C164.076 43.7282 164.496 43.6251 164.794 43.4187C165.097 43.2124 165.371 42.938 165.617 42.5955L167.086 43.6755ZM175.113 39.125C175.113 40.2226 174.854 41.037 174.336 41.5682C173.823 42.0994 172.986 42.3651 171.827 42.3651H170.313V45.1836H168.456V36.0694H171.88C172.912 36.0694 173.708 36.3109 174.27 36.7938C174.832 37.2724 175.113 38.0494 175.113 39.125ZM173.197 39.1382C173.197 38.6246 173.054 38.2536 172.769 38.0253C172.488 37.797 171.979 37.6829 171.241 37.6829H170.313V40.7451H171.07C171.75 40.7451 172.22 40.699 172.479 40.6068C172.743 40.5102 172.927 40.3499 173.032 40.126C173.142 39.9021 173.197 39.5729 173.197 39.1382ZM176.621 45.1836V36.0694H182.542V37.7092H178.478V39.6519H181.903V41.2982H178.478V43.4846H182.542V45.1836H176.621ZM183.385 46.8036V43.6624H184.221C184.682 42.6394 185.016 41.5024 185.222 40.2511C185.433 38.9999 185.538 37.606 185.538 36.0694H190.918V43.6624H191.998V46.8036H190.141V45.1836H185.242V46.8036H183.385ZM189.074 37.617H187.224C187.162 39.0219 187.009 40.227 186.763 41.2324C186.521 42.2377 186.289 43.0368 186.065 43.6294H189.074V37.617ZM198.61 45.1836V41.3114H195.021V45.1836H193.164V36.0694H195.021V39.6124H198.61V36.0694H200.474V45.1836H198.61ZM201.679 45.1836L204.115 41.5155C203.523 41.397 203.059 41.1072 202.726 40.6463C202.397 40.1809 202.232 39.5575 202.232 38.776C202.232 37.8146 202.5 37.1231 203.035 36.7016C203.575 36.2802 204.436 36.0694 205.617 36.0694H208.936V45.1836H207.072V41.7329H206.13L203.806 45.1836H201.679ZM204.115 38.855C204.115 39.2019 204.164 39.4587 204.26 39.6255C204.361 39.7924 204.524 39.9153 204.748 39.9943C204.971 40.0733 205.292 40.1129 205.709 40.1129H207.072V37.6829H205.63C205.09 37.6829 204.701 37.7619 204.464 37.9199C204.232 38.078 204.115 38.3897 204.115 38.855ZM210.134 45.1836L212.571 41.5155C211.978 41.397 211.515 41.1072 211.181 40.6463C210.852 40.1809 210.688 39.5575 210.688 38.776C210.688 37.8146 210.955 37.1231 211.491 36.7016C212.031 36.2802 212.891 36.0694 214.072 36.0694H217.391V45.1836H215.528V41.7329H214.586L212.261 45.1836H210.134ZM212.571 38.855C212.571 39.2019 212.619 39.4587 212.716 39.6255C212.817 39.7924 212.979 39.9153 213.203 39.9943C213.427 40.0733 213.748 40.1129 214.165 40.1129H215.528V37.6829H214.086C213.546 37.6829 213.157 37.7619 212.92 37.9199C212.687 38.078 212.571 38.3897 212.571 38.855ZM223.351 42.5824C223.843 43.4341 224.541 43.8599 225.445 43.8599C225.911 43.8599 226.299 43.7392 226.611 43.4977C226.927 43.2563 227.085 42.9336 227.085 42.5297C227.085 42.0863 226.973 41.7636 226.749 41.5616C226.525 41.3597 226.157 41.2587 225.643 41.2587H223.713V39.7243H225.742C226.132 39.7243 226.431 39.6211 226.637 39.4148C226.848 39.2041 226.953 38.8968 226.953 38.4929C226.953 38.1636 226.8 37.898 226.492 37.696C226.185 37.4897 225.799 37.3865 225.333 37.3865C224.991 37.3865 224.64 37.4414 224.28 37.5511C223.924 37.6565 223.525 37.8672 223.081 38.1833L222.153 36.8465C223.04 36.2011 224.122 35.8785 225.399 35.8785C226.141 35.8785 226.776 35.9794 227.302 36.1814C227.834 36.3833 228.235 36.6797 228.508 37.0704C228.784 37.4568 228.922 37.9177 228.922 38.4533C228.922 38.967 228.793 39.4082 228.534 39.777C228.279 40.1458 227.963 40.396 227.586 40.5277C228.556 40.9448 229.041 41.6253 229.041 42.5692C229.041 43.4912 228.731 44.1892 228.112 44.6633C227.493 45.1375 226.618 45.3746 225.485 45.3746C224.651 45.3746 223.935 45.2253 223.338 44.9268C222.741 44.6238 222.238 44.1431 221.83 43.4846L223.351 42.5824ZM238.05 40.6265C238.05 42.2114 237.714 43.399 237.042 44.1892C236.375 44.9794 235.402 45.3746 234.125 45.3746C232.777 45.3746 231.785 44.9597 231.148 44.1299C230.516 43.2958 230.2 42.128 230.2 40.6265C230.2 39.1163 230.516 37.9485 231.148 37.1231C231.785 36.2933 232.777 35.8785 234.125 35.8785C235.481 35.8785 236.474 36.2933 237.101 37.1231C237.734 37.9485 238.05 39.1163 238.05 40.6265ZM236.133 40.6265C236.133 39.5465 235.98 38.7607 235.672 38.269C235.37 37.7729 234.854 37.5248 234.125 37.5248C233.396 37.5248 232.878 37.7729 232.571 38.269C232.268 38.7607 232.116 39.5465 232.116 40.6265C232.116 41.7065 232.27 42.4946 232.577 42.9907C232.889 43.4824 233.405 43.7282 234.125 43.7282C234.854 43.7282 235.37 43.4824 235.672 42.9907C235.98 42.4946 236.133 41.7065 236.133 40.6265ZM245.05 45.1836V41.3114H241.461V45.1836H239.604V36.0694H241.461V39.6124H245.05V36.0694H246.914V45.1836H245.05ZM248.079 45.1836L251.095 36.0694H253.512L256.535 45.1836H254.632L254.026 43.3331H250.516L249.923 45.1836H248.079ZM251.043 41.7065H253.499L252.274 37.9397L251.043 41.7065Z" fill="black"/>
<path d="M151.766 91.5469V83.9934L149.244 89.0642H148.486L145.99 83.9934V91.5469H144.831V82.4327H146.478L148.895 87.3915L151.331 82.4327H152.925V91.5469H151.766ZM159.174 91.5469V90.6842C158.823 90.9915 158.47 91.2461 158.114 91.4481C157.758 91.65 157.357 91.751 156.909 91.751C156.25 91.751 155.741 91.5513 155.381 91.1518C155.026 90.7478 154.848 90.232 154.848 89.6042C154.848 89.13 154.94 88.7371 155.124 88.4254C155.313 88.1093 155.583 87.8613 155.934 87.6813C156.29 87.4969 156.804 87.3652 157.475 87.2861L159.174 87.1347V86.7988C159.174 86.2676 159.025 85.9054 158.726 85.7122C158.432 85.5191 158.024 85.4225 157.502 85.4225C157.036 85.4225 156.676 85.5037 156.422 85.6661C156.171 85.8286 155.991 86.0042 155.882 86.193L154.953 85.6266C155.164 85.2447 155.484 84.9527 155.915 84.7508C156.349 84.5444 156.887 84.4413 157.528 84.4413C158.52 84.4413 159.231 84.6213 159.662 84.9813C160.092 85.3413 160.307 85.9647 160.307 86.8515V91.5469H159.174ZM159.174 88.0435L158.068 88.1488C157.317 88.2147 156.788 88.3617 156.481 88.59C156.174 88.8139 156.02 89.1432 156.02 89.5778C156.02 89.9905 156.123 90.2869 156.329 90.4669C156.536 90.6469 156.845 90.7369 157.258 90.7369C157.429 90.7369 157.598 90.7061 157.765 90.6447C157.932 90.5788 158.096 90.4998 158.259 90.4076C158.421 90.311 158.577 90.2035 158.726 90.0849C158.88 89.962 159.029 89.8435 159.174 89.7293V88.0435ZM163.6 84.6388V87.5825H164.568C164.827 87.5825 165.046 87.4903 165.226 87.3059C165.406 87.1215 165.584 86.812 165.76 86.3774C165.94 85.9383 166.113 85.3588 166.28 84.6388H167.432C167.266 85.3895 167.088 86.0064 166.899 86.4893C166.715 86.9722 166.53 87.33 166.346 87.5627C166.166 87.7954 165.937 87.9447 165.661 88.0105C165.99 88.1071 166.258 88.263 166.464 88.4781C166.671 88.6932 166.859 89.0159 167.031 89.4461C167.202 89.872 167.41 90.5722 167.656 91.5469H166.51C166.357 91.0069 166.218 90.5459 166.096 90.1639C165.977 89.782 165.845 89.4725 165.7 89.2354C165.56 88.9939 165.393 88.8205 165.2 88.7152C165.007 88.6054 164.761 88.5505 164.462 88.5505H163.6V91.5469H162.493V84.6388H163.6ZM174.123 90.48C173.908 90.8488 173.609 91.1539 173.227 91.3954C172.846 91.6325 172.319 91.751 171.647 91.751C170.633 91.751 169.869 91.4459 169.355 90.8357C168.842 90.221 168.585 89.3122 168.585 88.1093C168.585 86.9064 168.839 85.9954 169.349 85.3764C169.858 84.753 170.609 84.4413 171.601 84.4413C172.738 84.4413 173.548 84.8627 174.031 85.7056L173.102 86.272C172.931 86.0042 172.729 85.7956 172.497 85.6464C172.268 85.4971 171.965 85.4225 171.588 85.4225C170.925 85.4225 170.453 85.6639 170.172 86.1469C169.895 86.6254 169.757 87.2883 169.757 88.1357C169.757 88.781 169.823 89.2837 169.955 89.6437C170.086 90.0037 170.29 90.2803 170.567 90.4735C170.848 90.6666 171.204 90.7632 171.634 90.7632C172.003 90.7632 172.303 90.6952 172.536 90.5591C172.769 90.4186 172.988 90.2035 173.195 89.9137L174.123 90.48ZM176.915 91.5469H175.717V84.6388H176.784V90.0915L180.168 84.6388H181.314V91.5469H180.247V86.2061L176.915 91.5469ZM189.948 91.5469H188.881V86.2852L187.004 89.7293H186.438L184.62 86.2852V91.5469H183.553V84.6388H184.739L186.747 88.1883L188.776 84.6388H189.948V91.5469ZM191.331 93.0154C191.616 93.1427 191.948 93.2064 192.325 93.2064C192.856 93.2064 193.306 92.7257 193.675 91.7642L193.906 91.1715L191.383 84.6388H192.608L194.511 89.6964L196.428 84.6388H197.613L194.663 92.0737C194.351 92.8332 194.018 93.3688 193.662 93.6805C193.306 93.9922 192.843 94.1481 192.272 94.1481C192.066 94.1481 191.847 94.1283 191.614 94.0888C191.381 94.0493 191.192 94.0032 191.048 93.9505L191.331 93.0154ZM205.437 91.5469H204.37V86.2852L202.493 89.7293H201.927L200.109 86.2852V91.5469H199.042V84.6388H200.228L202.236 88.1883L204.264 84.6388H205.437V91.5469ZM214.057 91.5469V85.4356H211.844V84.1844C212.476 84.1449 212.953 84.0703 213.273 83.9605C213.598 83.8464 213.855 83.6708 214.044 83.4337C214.237 83.1966 214.388 82.863 214.498 82.4327H215.914V91.5469H214.057ZM219.338 91.5469V89.9927C220.054 89.3913 220.706 88.8161 221.294 88.2674C221.882 87.7186 222.337 87.2642 222.657 86.9042C222.978 86.5398 223.226 86.193 223.401 85.8637C223.581 85.53 223.671 85.181 223.671 84.8166C223.671 84.5313 223.564 84.3052 223.349 84.1383C223.134 83.9715 222.837 83.8881 222.46 83.8881C222.051 83.8881 221.718 83.9825 221.459 84.1713C221.2 84.36 220.985 84.5839 220.813 84.843L219.312 83.7893C219.685 83.2317 220.126 82.8344 220.636 82.5974C221.149 82.3603 221.788 82.2417 222.552 82.2417C223.491 82.2417 224.231 82.4613 224.771 82.9003C225.316 83.3393 225.588 83.9561 225.588 84.7508C225.588 85.3347 225.48 85.8483 225.265 86.2917C225.054 86.7308 224.751 87.1588 224.356 87.5759C223.966 87.9886 223.476 88.4452 222.888 88.9457C222.304 89.4461 221.944 89.7469 221.808 89.8478H225.884V91.5469H219.338ZM230.757 84.6388H231.864V86.4103C231.864 86.9635 231.897 87.3827 231.962 87.6681C232.028 87.9491 232.136 88.1466 232.285 88.2608C232.439 88.3749 232.667 88.432 232.97 88.432C233.466 88.432 234.131 88.2652 234.965 87.9315V84.6388H236.072V91.5469H234.965V88.9061L234.419 89.1037C233.721 89.3671 233.157 89.4988 232.726 89.4988C232.046 89.4988 231.548 89.2771 231.231 88.8337C230.915 88.3903 230.757 87.7164 230.757 86.812V84.6388ZM239.141 88.2278C239.141 89.141 239.296 89.793 239.608 90.1837C239.92 90.57 240.42 90.7632 241.11 90.7632C241.417 90.7632 241.687 90.6996 241.92 90.5722C242.152 90.4405 242.376 90.2298 242.591 89.94L243.526 90.5196C243.263 90.9147 242.942 91.2198 242.565 91.4349C242.187 91.6457 241.676 91.751 241.031 91.751C240.003 91.751 239.235 91.4525 238.726 90.8554C238.221 90.2583 237.968 89.3561 237.968 88.1488C237.968 86.8844 238.214 85.9515 238.706 85.35C239.202 84.7442 239.948 84.4413 240.945 84.4413C241.841 84.4413 242.512 84.7003 242.96 85.2183C243.408 85.732 243.632 86.5244 243.632 87.5957V88.2278H239.141ZM242.525 87.3388C242.517 86.7198 242.385 86.2391 242.13 85.8966C241.88 85.5542 241.472 85.383 240.905 85.383C240.365 85.383 239.959 85.5388 239.687 85.8505C239.419 86.1578 239.241 86.6539 239.154 87.3388H242.525ZM247.451 85.5739V86.0547C247.451 87.1742 247.355 88.1664 247.161 89.0313C246.973 89.8918 246.703 90.5437 246.351 90.9871C246.005 91.4305 245.594 91.6522 245.12 91.6522C245.01 91.6522 244.879 91.6391 244.725 91.6127C244.576 91.5864 244.464 91.56 244.389 91.5337L244.606 90.5459C244.769 90.5766 244.907 90.592 245.021 90.592C245.921 90.592 246.371 88.95 246.371 85.6661V84.6388H250.382V91.5469H249.275V85.5739H247.451ZM258.35 88.1093C258.35 89.3078 258.091 90.2144 257.573 90.8291C257.059 91.4437 256.309 91.751 255.321 91.751C254.333 91.751 253.578 91.4481 253.055 90.8422C252.533 90.232 252.272 89.321 252.272 88.1093C252.272 86.8756 252.533 85.9559 253.055 85.35C253.582 84.7442 254.337 84.4413 255.321 84.4413C256.313 84.4413 257.066 84.7508 257.58 85.3698C258.093 85.9844 258.35 86.8976 258.35 88.1093ZM257.178 88.1093C257.178 87.1698 257.022 86.4871 256.71 86.0613C256.403 85.6354 255.94 85.4225 255.321 85.4225C254.684 85.4225 254.212 85.6376 253.905 86.0678C253.598 86.4937 253.444 87.1742 253.444 88.1093C253.444 89.0093 253.591 89.6766 253.885 90.1113C254.184 90.5459 254.662 90.7632 255.321 90.7632C255.949 90.7632 256.414 90.5481 256.717 90.1178C257.024 89.6876 257.178 89.0181 257.178 88.1093ZM265.68 89.4461C265.68 90.1881 265.427 90.7237 264.922 91.053C264.422 91.3822 263.686 91.5469 262.716 91.5469H260.247V84.6388H262.69C263.682 84.6388 264.376 84.7595 264.771 85.001C265.17 85.2425 265.37 85.6617 265.37 86.2588C265.37 87.0622 265.014 87.6066 264.303 87.892C264.777 87.9974 265.124 88.173 265.344 88.4188C265.568 88.6647 265.68 89.0071 265.68 89.4461ZM264.237 86.4366C264.237 86.0503 264.106 85.8022 263.842 85.6925C263.583 85.5783 263.186 85.5213 262.65 85.5213H261.353V87.5693H262.565C263.68 87.5693 264.237 87.1917 264.237 86.4366ZM264.521 89.4725C264.521 89.073 264.389 88.8052 264.125 88.6691C263.866 88.5286 263.419 88.4583 262.782 88.4583H261.353V90.6447H262.321C263.05 90.6447 263.599 90.57 263.967 90.4208C264.336 90.2715 264.521 89.9554 264.521 89.4725ZM268.301 88.2278C268.301 89.141 268.456 89.793 268.768 90.1837C269.08 90.57 269.58 90.7632 270.27 90.7632C270.577 90.7632 270.847 90.6996 271.08 90.5722C271.312 90.4405 271.536 90.2298 271.751 89.94L272.686 90.5196C272.423 90.9147 272.102 91.2198 271.725 91.4349C271.347 91.6457 270.836 91.751 270.191 91.751C269.163 91.751 268.395 91.4525 267.886 90.8554C267.381 90.2583 267.128 89.3561 267.128 88.1488C267.128 86.8844 267.374 85.9515 267.866 85.35C268.362 84.7442 269.108 84.4413 270.105 84.4413C271.001 84.4413 271.672 84.7003 272.12 85.2183C272.568 85.732 272.792 86.5244 272.792 87.5957V88.2278H268.301ZM271.685 87.3388C271.677 86.7198 271.545 86.2391 271.29 85.8966C271.04 85.5542 270.632 85.383 270.065 85.383C269.525 85.383 269.119 85.5388 268.847 85.8505C268.579 86.1578 268.402 86.6539 268.314 87.3388H271.685ZM275.709 84.6388V87.5825H276.677C276.936 87.5825 277.156 87.4903 277.336 87.3059C277.516 87.1215 277.693 86.812 277.869 86.3774C278.049 85.9383 278.223 85.3588 278.389 84.6388H279.542C279.375 85.3895 279.197 86.0064 279.008 86.4893C278.824 86.9722 278.64 87.33 278.455 87.5627C278.275 87.7954 278.047 87.9447 277.77 88.0105C278.1 88.1071 278.367 88.263 278.574 88.4781C278.78 88.6932 278.969 89.0159 279.14 89.4461C279.311 89.872 279.52 90.5722 279.766 91.5469H278.62C278.466 91.0069 278.328 90.5459 278.205 90.1639C278.086 89.782 277.955 89.4725 277.81 89.2354C277.669 88.9939 277.503 88.8205 277.309 88.7152C277.116 88.6054 276.87 88.5505 276.572 88.5505H275.709V91.5469H274.603V84.6388H275.709Z" fill="black"/>
<path d="M186.406 65.5046C186.406 66.7448 186.009 67.7189 185.213 68.4268C184.423 69.1348 183.281 69.4887 181.788 69.4887C179.928 69.4887 178.584 68.8631 177.755 67.6119L179.607 66.303C180.03 67.0439 180.746 67.4143 181.756 67.4143C183.27 67.4143 184.027 66.7613 184.027 65.4552C184.027 64.9064 183.827 64.4756 183.427 64.1628C183.031 63.8445 182.48 63.6854 181.772 63.6854C181.015 63.6854 180.441 63.8884 180.052 64.2945H178.43L179.105 57.8573H185.764V59.9811H180.957L180.727 61.9814C181.248 61.7674 181.827 61.6604 182.463 61.6604C183.682 61.6604 184.642 61.9869 185.345 62.6399C186.052 63.293 186.406 64.2479 186.406 65.5046ZM196.976 63.5537C196.976 65.6006 196.617 67.1043 195.898 68.0646C195.179 69.025 194.054 69.5052 192.523 69.5052C191.002 69.5052 189.883 69.025 189.164 68.0646C188.445 67.1043 188.086 65.6061 188.086 63.5701C188.086 61.5341 188.445 60.0332 189.164 59.0674C189.883 58.1015 191.002 57.6186 192.523 57.6186C194.054 57.6186 195.179 58.0988 195.898 59.0591C196.617 60.0195 196.976 61.5177 196.976 63.5537ZM194.581 63.5537C194.581 62.1927 194.413 61.1966 194.078 60.5655C193.749 59.929 193.231 59.6107 192.523 59.6107C191.815 59.6107 191.296 59.9317 190.967 60.5738C190.643 61.2104 190.481 62.2091 190.481 63.5701C190.481 64.9311 190.643 65.9299 190.967 66.5665C191.296 67.1976 191.815 67.5131 192.523 67.5131C193.231 67.5131 193.749 67.1948 194.078 66.5582C194.413 65.9162 194.581 64.9146 194.581 63.5537ZM207.513 63.5537C207.513 65.6006 207.153 67.1043 206.434 68.0646C205.715 69.025 204.59 69.5052 203.059 69.5052C201.539 69.5052 200.42 69.025 199.701 68.0646C198.982 67.1043 198.622 65.6061 198.622 63.5701C198.622 61.5341 198.982 60.0332 199.701 59.0674C200.42 58.1015 201.539 57.6186 203.059 57.6186C204.59 57.6186 205.715 58.0988 206.434 59.0591C207.153 60.0195 207.513 61.5177 207.513 63.5537ZM205.117 63.5537C205.117 62.1927 204.95 61.1966 204.615 60.5655C204.286 59.929 203.767 59.6107 203.059 59.6107C202.351 59.6107 201.833 59.9317 201.503 60.5738C201.18 61.2104 201.018 62.2091 201.018 63.5701C201.018 64.9311 201.18 65.9299 201.503 66.5665C201.833 67.1976 202.351 67.5131 203.059 67.5131C203.767 67.5131 204.286 67.1948 204.615 66.5582C204.95 65.9162 205.117 64.9146 205.117 63.5537ZM218.049 63.5537C218.049 65.6006 217.69 67.1043 216.971 68.0646C216.252 69.025 215.127 69.5052 213.596 69.5052C212.076 69.5052 210.956 69.025 210.237 68.0646C209.518 67.1043 209.159 65.6061 209.159 63.5701C209.159 61.5341 209.518 60.0332 210.237 59.0674C210.956 58.1015 212.076 57.6186 213.596 57.6186C215.127 57.6186 216.252 58.0988 216.971 59.0591C217.69 60.0195 218.049 61.5177 218.049 63.5537ZM215.654 63.5537C215.654 62.1927 215.486 61.1966 215.152 60.5655C214.822 59.929 214.304 59.6107 213.596 59.6107C212.888 59.6107 212.369 59.9317 212.04 60.5738C211.716 61.2104 211.554 62.2091 211.554 63.5701C211.554 64.9311 211.716 65.9299 212.04 66.5665C212.369 67.1976 212.888 67.5131 213.596 67.5131C214.304 67.5131 214.822 67.1948 215.152 66.5582C215.486 65.9162 215.654 64.9146 215.654 63.5537ZM232.175 64.8707C232.175 65.7982 232.035 66.6159 231.755 67.3238C231.475 68.0317 231.075 68.5723 230.553 68.9454C230.032 69.3186 229.409 69.5052 228.685 69.5052C227.73 69.5052 226.915 69.2061 226.24 68.6079V72.5015H224.116V60.6149H226.075V61.4628C226.47 61.1226 226.885 60.8564 227.318 60.6643C227.757 60.4668 228.259 60.368 228.824 60.368C229.917 60.368 230.748 60.7521 231.319 61.5204C231.889 62.2887 232.175 63.4055 232.175 64.8707ZM229.985 64.9037C229.985 64.064 229.84 63.411 229.549 62.9445C229.258 62.4726 228.824 62.2366 228.248 62.2366C227.903 62.2366 227.546 62.3189 227.178 62.4835C226.816 62.6427 226.503 62.8402 226.24 63.0762V66.8546C226.465 67.0576 226.742 67.2387 227.071 67.3979C227.406 67.5515 227.749 67.6284 228.1 67.6284C228.682 67.6284 229.14 67.3814 229.475 66.8875C229.815 66.3881 229.985 65.7268 229.985 64.9037ZM236.694 68.0564C236.694 68.5284 236.587 68.8659 236.373 69.0689C236.159 69.2665 235.816 69.3652 235.344 69.3652C234.828 69.3652 234.477 69.2527 234.29 69.0277C234.104 68.8027 234.01 68.479 234.01 68.0564C234.01 67.6064 234.109 67.2744 234.307 67.0604C234.504 66.8463 234.85 66.7393 235.344 66.7393C235.849 66.7393 236.2 66.8436 236.398 67.0521C236.595 67.2607 236.694 67.5954 236.694 68.0564Z" fill="black"/>
<path opacity="0.59" d="M14.8359 249.509C14.8359 192.155 61.3306 145.66 118.685 145.66H429.556V490.249H118.685C61.3305 490.249 14.8359 443.754 14.8359 386.4V249.509Z" fill="#DDE8FC"/>
</g>
<defs>
<clipPath id="clip0_471_10353">
<rect width="690" height="505" fill="white"/>
</clipPath>
</defs>
</svg>
