<svg width="26" height="26" viewBox="0 0 26 26" fill="none" xmlns="http://www.w3.org/2000/svg">
<path d="M4 0C1.79086 0 0 1.79086 0 4V22C0 24.2091 1.79086 26 4 26H22C24.2091 26 26 24.2091 26 22V4C26 1.79086 24.2091 0 22 0H4ZM13.216 16.4389C11.8473 18.0684 9.35373 18.111 7.93026 16.5291L6.25651 14.6691C5.88702 14.2585 5.92034 13.6261 6.33093 13.2566C6.74153 12.887 7.37394 12.9203 7.74347 13.3309L8.70211 14.396C9.69111 15.4949 11.4234 15.4651 12.3741 14.333L18.233 7.35584C18.5877 6.93337 19.2176 6.87799 19.6406 7.23207C20.0646 7.58697 20.1201 8.21863 19.7645 8.64205L13.216 16.4389Z" fill="currentColor"/>
</svg>
