<svg xmlns="http://www.w3.org/2000/svg" xmlns:xlink="http://www.w3.org/1999/xlink" viewBox="0 0 20 14.78"><defs><clipPath id="a" transform="translate(0 0)"><rect width="20" height="14.78" fill="none"/></clipPath></defs><g clip-path="url(#a)"><path d="M18.07,0H1.93A1.92,1.92,0,0,0,0,1.93V12.85a1.92,1.92,0,0,0,1.93,1.93H18.07A1.92,1.92,0,0,0,20,12.85V1.93A1.92,1.92,0,0,0,18.07,0m-12,12.38H3.2a.5.5,0,0,1-.5-.5.5.5,0,0,1,.5-.5H6.05a.5.5,0,0,1,.5.5.5.5,0,0,1-.5.5M18.9,1.88,10.33,9a.52.52,0,0,1-.27.1H9.93A.52.52,0,0,1,9.66,9L1.1,1.89A.49.49,0,0,1,1,1.19a.51.51,0,0,1,.71-.07L10,8l8.25-6.88a.51.51,0,0,1,.71.06.49.49,0,0,1-.06.7" transform="translate(0 0)" fill="currentColor"/></g></svg>