<svg xmlns="http://www.w3.org/2000/svg" xmlns:xlink="http://www.w3.org/1999/xlink" viewBox="0 0 14 18.38"><defs><clipPath id="a" transform="translate(0 0)"><rect width="14" height="18.38" fill="none"/></clipPath></defs><g clip-path="url(#a)"><path d="M13.66,4.78A6.81,6.81,0,0,0,9.22.34a7.12,7.12,0,0,0-6.37,1A7,7,0,0,0,0,7a6.91,6.91,0,0,0,1.4,4.2L7,18.38l5.6-7.19a7.06,7.06,0,0,0,1.06-6.41M7,9.19A2.41,2.41,0,1,1,9.41,6.78,2.41,2.41,0,0,1,7,9.19" transform="translate(0 0)" fill="currentColor"/></g></svg>