<svg xmlns="http://www.w3.org/2000/svg" xmlns:xlink="http://www.w3.org/1999/xlink" viewBox="0 0 15 15"><defs><clipPath id="a" transform="translate(0 0)"><rect width="15" height="15" fill="none"/></clipPath></defs><g clip-path="url(#a)"><path d="M14.61,11.57l-3-2a.89.89,0,0,0-1.19.19L9.5,10.88A.37.37,0,0,1,9,11l-.17-.09A10.51,10.51,0,0,1,6.2,8.81,10.19,10.19,0,0,1,4.12,6.16L4,6a.39.39,0,0,1,.1-.49l1.14-.88a.89.89,0,0,0,.19-1.19l-2-3A.88.88,0,0,0,2.24.13L1,.89A1.78,1.78,0,0,0,.15,2C-.3,3.61,0,6.49,4.28,10.73,7.65,14.09,10.15,15,11.88,15a4.64,4.64,0,0,0,1.17-.15A1.78,1.78,0,0,0,14.11,14l.77-1.27a.89.89,0,0,0-.27-1.19" transform="translate(0 0)" fill="currentColor"/><path d="M8.46.67a5.65,5.65,0,0,1,5.66,5.66.34.34,0,1,0,.67,0A6.34,6.34,0,0,0,8.46,0a.33.33,0,0,0-.33.33.33.33,0,0,0,.33.34" transform="translate(0 0)" fill="currentColor"/><path d="M8.46,2.67a3.66,3.66,0,0,1,3.66,3.66.34.34,0,1,0,.67,0A4.33,4.33,0,0,0,8.46,2a.34.34,0,0,0,0,.67" transform="translate(0 0)" fill="currentColor"/><path d="M8.46,4.67a1.66,1.66,0,0,1,1.66,1.66.34.34,0,1,0,.67,0A2.33,2.33,0,0,0,8.46,4a.34.34,0,0,0,0,.67" transform="translate(0 0)" fill="currentColor"/></g></svg>