<svg xmlns="http://www.w3.org/2000/svg" xmlns:xlink="http://www.w3.org/1999/xlink" viewBox="0 0 26 26"><defs><clipPath id="a" transform="translate(0 0)"><rect width="26" height="26" fill="none"/></clipPath></defs><g clip-path="url(#a)"><path d="M10.23,8.2A1.37,1.37,0,1,0,8.86,9.56,1.37,1.37,0,0,0,10.23,8.2" transform="translate(0 0)" fill="currentColor"/><path d="M17.14,16.31a1.37,1.37,0,1,0,1.36,1.36,1.37,1.37,0,0,0-1.36-1.36" transform="translate(0 0)" fill="currentColor"/><path d="M13,0A13,13,0,1,0,26,13,13,13,0,0,0,13,0M6,8.2a2.87,2.87,0,1,1,2.86,2.86A2.86,2.86,0,0,1,6,8.2M9.4,20.4a.76.76,0,0,1-.65.36.67.67,0,0,1-.38-.11.75.75,0,0,1-.26-1l8.49-14a.75.75,0,0,1,1.29.78Zm7.74.14A2.87,2.87,0,1,1,20,17.68a2.87,2.87,0,0,1-2.86,2.86" transform="translate(0 0)" fill="currentColor"/></g></svg>