<svg xmlns="http://www.w3.org/2000/svg" xmlns:xlink="http://www.w3.org/1999/xlink" viewBox="0 0 20.74 20.74"><defs><clipPath id="a" transform="translate(0 0)"><rect width="20.74" height="20.74" fill="none"/></clipPath></defs><g clip-path="url(#a)"><path d="M10.56,0A10.14,10.14,0,0,0,.38,10.1a10,10,0,0,0,1.46,5.22L0,20.74,5.64,19a10.19,10.19,0,0,0,15.1-8.85A10.14,10.14,0,0,0,10.56,0" transform="translate(0 0)" fill="currentColor"/><path d="M16,12.31c-.29-.14-1.68-.82-1.94-.91s-.44-.14-.63.14-.73.91-.9,1.1-.33.21-.61.07a7.87,7.87,0,0,1-2.27-1.39A8.66,8.66,0,0,1,8.06,9.38c-.16-.28,0-.44.13-.58s.28-.32.42-.49a1.72,1.72,0,0,0,.28-.47.5.5,0,0,0,0-.49C8.8,7.21,8.23,5.83,8,5.27s-.49-.49-.66-.49H6.82a1,1,0,0,0-.75.35,3.13,3.13,0,0,0-1,2.34,5.46,5.46,0,0,0,1.15,2.9,11.6,11.6,0,0,0,4.83,4.24c2.88,1.12,2.88.75,3.39.7A2.86,2.86,0,0,0,16.36,14a2.33,2.33,0,0,0,.17-1.34c-.07-.12-.26-.19-.54-.33" transform="translate(0 0)" fill="#fff"/></g></svg>