<svg width="68" height="68" viewBox="0 0 68 68" fill="none" xmlns="http://www.w3.org/2000/svg">
<g clip-path="url(#clip0_102_84)">
<path d="M7.37458 67.1111C7.70036 66.8444 8.02615 66.5481 8.35193 66.2519C9.892 64.7111 11.4321 63.1704 12.9721 61.6296C15.9338 58.6667 18.8955 55.7037 21.8868 52.7407C22.3014 52.3259 22.8345 51.9704 23.3676 51.763C30.5349 48.9481 37.791 46.1037 44.8101 43.3481L45.8171 42.963C48.0087 42.1037 49.993 40.9185 51.7108 39.4667L57.1307 34.8741C59.3815 32.9778 61.6324 31.0519 63.8833 29.1556C66.6673 26.8148 68.0592 23.8815 68 20.5037C67.9704 18.163 67.23 16.2074 65.7788 14.7556C61.3659 10.2222 56.8641 5.74815 53.4286 2.37037C52.1847 1.15556 50.5558 0.385185 48.6011 0.118519C48.453 0.0888889 48.3049 0.0592593 48.216 0H46.291C46.0244 0.0592593 45.7282 0.148148 45.4617 0.207407C44.7805 0.385185 44.0993 0.533333 43.4774 0.77037C41.7596 1.39259 40.2788 2.45926 38.9164 4.05926L35.5993 7.97037C33.23 10.7852 30.8606 13.5704 28.4913 16.3852C26.9808 18.163 25.7962 20.2963 24.6411 23.3185C22.2126 29.6296 19.7248 35.9704 17.2962 42.1037L16.23 44.8C15.993 45.3926 15.608 45.8667 15.3119 46.1333L14.2457 47.2C10.3363 51.1407 6.30838 55.1704 2.2805 59.1407C1.06622 60.3259 0.207332 61.4222 -0.0296021 62.8148V63.9704C0.296182 65.3333 0.888516 66.3111 1.7474 67.0222C3.37632 68.2963 5.83451 68.3259 7.37458 67.1111ZM36.4582 41.7778L40.1011 38.0444L43.9512 41.7778H36.4582ZM40.3972 28.0593L44.514 23.9407L48.9861 28.4148L44.8694 32.5037L40.3972 28.0593ZM44.3363 33.0963L40.2195 37.1259L35.777 32.6519L39.8641 28.5926L44.3363 33.0963ZM45.0174 23.437L49.1934 19.2889L53.6655 23.763L49.5488 27.9111L45.0174 23.437ZM49.6376 18.8148L53.784 14.637L58.2561 19.0815L54.0505 23.2593L49.6376 18.8148ZM49.1638 18.3111L44.7213 13.8963L48.9268 9.65926L53.3694 14.1037L49.1638 18.3111ZM48.6899 18.7852L44.4843 22.9926L40.0714 18.5778L44.3066 14.4L48.6899 18.7852ZM44.0697 23.5259L39.953 27.6148L35.5401 23.2L39.6568 19.0815L44.0697 23.5259ZM39.4495 28.237L35.3624 32.2963L30.8606 27.7926L34.9477 23.7037L39.4495 28.237ZM34.7997 32.7407L29.439 38.1037L28.284 35.7926C27.8397 34.9333 27.4251 34.0444 27.0105 33.1556C26.7735 32.6222 26.8031 31.763 27.277 31.2593C27.8101 30.6667 28.3728 30.1333 28.9059 29.6C29.0836 29.4222 29.2317 29.2741 29.4094 29.0963L30.2387 28.2667L34.7997 32.7407ZM35.3031 33.2148L39.8345 37.7481L38.5018 39.0815C37.939 39.6444 37.3467 40.237 36.7248 40.8C36.4582 41.037 36.1028 41.1852 35.6882 41.1852C35.4216 41.1852 35.1551 41.1259 34.9181 41.0074C34 40.5926 33.1115 40.1185 32.223 39.7037L29.9425 38.5778L35.3031 33.2148ZM47.5349 39.5852L47.2091 38.9333L47.5349 39.5852C46.7648 39.9704 45.9652 40.3556 45.1951 40.7111C44.9878 40.8 44.7509 40.8593 44.4843 40.8593C44.0401 40.8593 43.6255 40.7111 43.3293 40.4444C42.8258 40 42.3223 39.5259 41.8484 39.0519L41.8188 39.0222C41.6707 38.8741 41.5227 38.7259 41.3746 38.6074L40.4861 37.7778L44.7509 33.5111L49.7561 38.5185L47.5349 39.5852ZM50.1411 37.7481L45.3728 33.0074L49.5192 28.8889L54.6133 33.9556L50.1411 37.7481ZM55.0871 33.5704L49.9338 28.3852L54.0802 24.237L59.5592 29.7481L55.0871 33.5704ZM60.1516 29.3333L54.6133 23.763L58.8188 19.5556L64.6237 25.363L60.1516 29.3333ZM63.9721 16.1481C65.5418 18.0444 66.0157 20.2667 65.4234 22.7556L64.9199 24.8L59.2335 19.1111L63.1429 15.1704L63.9721 16.1481ZM62.5209 14.7556L58.7004 18.5481L54.2875 14.1333L58.0784 10.3111L62.5209 14.7556ZM57.5453 9.8963L53.7248 13.7185L49.3119 9.3037L53.1917 5.57037L57.5453 9.8963ZM45.0767 2.75556C46.9129 1.74815 50.2892 2.45926 51.8885 4.14815L52.6882 4.97778L48.8972 8.71111L43.6551 3.46667L45.0767 2.75556ZM42.6185 3.40741L48.453 9.24444L44.2474 13.4222L38.6795 7.85185L42.6185 3.40741ZM38.3241 8.35556L43.8031 13.837L39.568 18.0148L34.4443 12.9185L38.3241 8.35556ZM34.0296 13.4222L39.1829 18.5481L35.0366 22.6963L30.2387 17.8963L34.0296 13.4222ZM27.277 22.8148C27.6324 22.0148 28.0174 21.2444 28.4025 20.5037L29.4687 18.3111L34.385 23.2296L30.1202 27.437L29.291 26.5481C29.1429 26.4 29.0244 26.2519 28.8763 26.1037C28.4321 25.6296 27.9582 25.1556 27.514 24.6222C27.0697 24.1481 27.0697 23.3185 27.277 22.8148ZM26.2404 23.7037L29.9425 28.0296L26.2404 31.1111V23.7037ZM18.7178 44.8889C19.8432 41.9852 20.939 39.1407 22.1237 36.1481L23.8711 31.7037L24.9965 34.3704C26.7439 38.4593 29.5575 41.3037 33.615 43.0222L36.0732 44.0593L33.6742 45.1852C33.5854 45.2148 33.4965 45.2741 33.4373 45.3037C33.2892 45.363 33.1411 45.4519 32.9634 45.5111L30.1795 46.6074C27.9582 47.4667 25.6777 48.3556 23.4565 49.2741C23.1603 49.3926 22.8641 49.4519 22.5976 49.4519C22.0645 49.4519 21.561 49.2148 21.1464 48.7704C20.8206 48.4148 20.4652 48.0889 20.1394 47.7333C19.8136 47.4074 19.4878 47.1111 19.1917 46.7556C18.7474 46.3111 18.4512 45.5407 18.7178 44.8889ZM2.69514 62.1333C2.84322 61.8963 3.02092 61.7481 3.13939 61.6L3.169 61.5704C7.37458 57.363 11.5505 53.1852 15.7561 48.9778C15.845 48.8889 15.9338 48.8296 16.0227 48.7407L16.9704 47.8815L20.1098 51.1111L19.1917 52.0889C19.0732 52.2074 18.9547 52.3259 18.8362 52.4444C14.7491 56.5333 10.6917 60.6222 6.60454 64.6815L6.51569 64.7704C6.36761 64.9185 6.16029 65.1259 5.92336 65.3037C5.50873 65.5704 5.03486 65.7185 4.59061 65.7185C3.99827 65.7185 3.43555 65.4815 2.9913 65.037C2.19165 64.237 2.07319 63.1111 2.69514 62.1333Z" fill="#EC6608"/>
</g>
<defs>
<clipPath id="clip0_102_84">
<rect width="68" height="68" fill="white"/>
</clipPath>
</defs>
</svg>
