<svg width="67" height="54" viewBox="0 0 67 54" fill="none" xmlns="http://www.w3.org/2000/svg">
<g clip-path="url(#clip0_102_43)">
<path d="M67 48.6709C66.8953 49.0343 66.7906 49.4149 66.6685 49.7783C65.831 52.2525 63.5279 53.9654 60.8932 53.9827C52.6229 54 44.3701 54 36.0997 53.9827C35.1227 53.9827 34.2852 53.6021 33.5 52.8754C32.3484 54.1384 30.8305 54 29.3125 54C21.775 54 14.2201 54 6.68255 54C2.61719 53.9827 0 51.4047 0 47.3906C0 34.7254 0 22.0429 0 9.37777C0 6.95547 1.04688 5.90004 3.47214 5.86544C3.59427 5.86544 3.73385 5.84813 3.92578 5.84813C3.92578 5.48479 3.90833 5.13875 3.92578 4.81001C3.97813 3.25281 5.21693 2.02436 6.78724 1.98976C7.76432 1.97245 8.74141 1.98976 9.77083 1.98976C9.78828 1.83404 9.80573 1.71292 9.80573 1.59181C9.91042 0.640189 10.5385 0.0519157 11.4982 0.0346136C13.4174 0.0173114 15.3367 0.0173114 17.256 0.0346136C18.3029 0.0519157 18.9659 0.709397 18.9659 1.76483C18.9833 5.06954 18.9659 8.37425 18.9659 11.6963C18.9659 12.4056 18.6518 12.9593 17.9888 13.2535C17.3258 13.5649 16.7151 13.4092 16.1742 12.942C15.5984 12.4403 15.0227 11.9558 14.3771 11.4021C13.8188 11.8866 13.2604 12.3364 12.7195 12.8382C12.1438 13.3573 11.4982 13.5995 10.7479 13.2535C9.99766 12.9074 9.78828 12.2672 9.78828 11.4886C9.80573 8.99713 9.78828 6.52292 9.78828 3.9622C8.72396 3.9622 7.67708 3.89299 6.64766 3.99681C6.36849 4.03141 6.08932 4.49857 5.87995 4.82731C5.77526 4.98303 5.8625 5.24256 5.8625 5.46749C5.8625 19.2054 5.8625 32.926 5.8625 46.6639C5.8625 47.9443 6.10677 48.1865 7.36302 48.1865C15.2495 48.1865 23.1534 48.1865 31.0398 48.1865C32.2089 48.1865 32.4706 47.927 32.4706 46.785C32.4706 46.1967 32.4706 45.6258 32.4706 45.0548C31.1096 44.6915 30.8479 44.4838 30.9177 43.861C30.9875 43.2727 31.3539 43.0477 32.4008 42.9612C32.4008 41.2656 32.4008 39.5873 32.4008 37.8917C31.2143 37.6495 30.9003 37.4246 30.9003 36.819C30.9003 36.1961 31.2667 35.9366 32.4182 35.7981C32.4182 34.1198 32.4182 32.4415 32.4182 30.7113C31.7029 30.6421 30.8654 30.6421 30.9177 29.5867C30.9526 28.9984 31.3365 28.7735 32.4008 28.687C32.4008 26.9914 32.4008 25.313 32.4008 23.6174C31.1794 23.3579 30.8654 23.1157 30.9003 22.4928C30.9352 21.9045 31.2841 21.6623 32.4008 21.5412C32.4008 19.8629 32.4008 18.1673 32.4008 16.4717C31.2318 16.2986 30.8654 16.0391 30.9003 15.3989C30.9177 14.776 31.319 14.4992 32.4008 14.43C32.4008 12.7863 32.4008 11.1426 32.4008 9.48159C31.319 9.22205 31.0049 8.96252 31.0398 8.35695C31.0747 7.76867 31.4411 7.50914 32.4182 7.40533C32.4182 6.52292 32.4706 5.6059 32.4008 4.7235C32.3484 4.10062 31.8076 3.9449 31.2318 3.9449C28.4924 3.9449 25.7357 3.9449 22.9964 3.9449C22.8044 3.9449 22.5951 3.9622 22.4031 3.9276C21.8622 3.82378 21.5482 3.49504 21.5656 2.94137C21.5831 2.42231 21.8971 2.11087 22.4031 2.00706C22.5776 1.97245 22.7521 1.98976 22.9266 1.98976C25.7008 1.98976 28.475 1.95515 31.2318 2.00706C31.8773 2.02436 32.5055 2.3358 33.151 2.49152C33.343 2.54342 33.5698 2.52612 33.7792 2.47422C34.4247 2.3185 35.0703 2.00706 35.6984 2.00706C43.6721 1.97245 51.6633 1.98976 59.637 1.98976C61.8703 1.98976 62.987 3.1144 63.0219 5.34637C63.0219 5.50209 63.0219 5.64051 63.0219 5.90004C64.9411 5.69242 66.3195 6.3499 66.9477 8.21853C66.9477 19.1535 66.9477 30.1057 66.9477 41.058C66.6161 41.4906 66.2497 41.8539 65.6391 41.6463C65.0458 41.4213 64.9411 40.9369 64.976 40.3659C64.976 40.2102 64.976 40.0718 64.976 39.9161C64.976 30.1576 64.976 20.4165 64.976 10.6581C64.976 10.0526 64.9935 9.44698 64.976 8.84141C64.9586 8.28774 64.6794 7.94169 64.1211 7.85518C63.7721 7.80328 63.4057 7.83788 63.0044 7.83788C63.0044 8.18392 63.0044 8.42616 63.0044 8.68569C63.0044 21.4028 63.0044 34.1025 63.0044 46.8196C63.0044 48.9824 61.8529 50.1243 59.6544 50.1243C51.9424 50.1243 44.213 50.1243 36.501 50.1243C35.838 50.1243 35.175 50.1243 34.4945 50.1243C34.3026 51.2317 34.9656 52.0622 36.1695 52.0622C44.3875 52.0622 52.6055 52.0795 60.8234 52.0622C63.0917 52.0622 64.9062 50.2108 64.976 47.9616C64.9935 47.183 64.9935 46.4044 64.976 45.6258C64.9586 45.0721 65.0458 44.5703 65.6391 44.3454C66.2497 44.1205 66.6161 44.4838 66.9477 44.9337C67 46.1621 67 47.4079 67 48.6709ZM34.5294 44.951C34.512 45.0548 34.4945 45.124 34.4945 45.1759C34.4945 45.7123 34.4771 46.2486 34.4945 46.8023C34.4945 47.8577 34.7911 48.1519 35.8555 48.1519C43.8117 48.1519 51.768 48.1519 59.7417 48.1519C60.8409 48.1519 61.1375 47.8577 61.1375 46.7677C61.1375 32.9433 61.1375 19.1362 61.1375 5.31177C61.1375 4.16983 60.8583 3.89299 59.7068 3.89299C51.7854 3.89299 43.8815 3.89299 35.9602 3.89299C35.7682 3.89299 35.5065 3.82378 35.3844 3.91029C35.0703 4.13522 34.6167 4.39475 34.5818 4.68889C34.4771 5.554 34.5469 6.43641 34.5469 7.31882C35.6984 7.47454 36.0474 7.71677 36.0648 8.33964C36.0823 8.96252 35.7508 9.20475 34.5643 9.41238C34.5643 11.0561 34.5643 12.7171 34.5643 14.3608C35.524 14.4646 35.9078 14.7414 35.9253 15.3124C35.9602 15.918 35.6635 16.1602 34.5469 16.437C34.5469 18.1154 34.5469 19.7937 34.5469 21.4547C35.5589 21.6104 35.9078 21.8872 35.9253 22.4755C35.9427 23.0811 35.5938 23.3579 34.5469 23.5482C34.5469 25.2438 34.5469 26.9395 34.5469 28.6178C35.5065 28.7216 35.8729 28.9984 35.9078 29.5694C35.9427 30.175 35.6461 30.4172 34.5294 30.694C34.5294 32.3723 34.5294 34.0506 34.5294 35.7116C35.5414 35.8674 35.8904 36.1442 35.9078 36.7325C35.9253 37.338 35.5763 37.6322 34.5294 37.8052C34.5294 39.5008 34.5294 41.1964 34.5294 42.8747C35.524 42.9958 35.9078 43.29 35.9078 43.8956C35.9078 44.5357 35.524 44.8299 34.5294 44.951ZM3.92578 7.85518C2.26823 7.66486 1.97161 7.92439 1.97161 9.44698C1.97161 22.0949 1.97161 34.7427 1.97161 47.3906C1.97161 50.3147 3.69896 52.0449 6.63021 52.0449C14.569 52.0449 22.5078 52.0449 30.4466 52.0449C30.656 52.0449 30.8828 52.0622 31.0922 52.0276C32.1042 51.8891 32.6974 50.9721 32.4182 50.0378C31.9995 50.0551 31.5807 50.107 31.1794 50.107C23.2232 50.107 15.2669 50.107 7.31068 50.107C5.07734 50.107 3.94323 48.9824 3.94323 46.7504C3.94323 34.0506 3.94323 21.3682 3.94323 8.66838C3.92578 8.40885 3.92578 8.14932 3.92578 7.85518ZM16.9594 10.9869C16.9594 7.90709 16.9594 4.94842 16.9594 2.00706C15.2146 2.00706 13.5047 2.00706 11.7948 2.00706C11.7948 5.00033 11.7948 7.94169 11.7948 11.0042C12.2659 10.5889 12.6846 10.2429 13.0859 9.89684C14.0107 9.10094 14.7435 9.10094 15.6857 9.89684C16.1044 10.2429 16.4883 10.5889 16.9594 10.9869Z" fill="#EC6608"/>
<path d="M17.2211 21.6277C17.4828 21.3855 17.6573 21.2124 17.8318 21.0567C19.594 19.3092 21.3388 17.5617 23.1011 15.8315C24.2701 14.6895 26.0847 14.7241 27.2188 15.8315C28.3354 16.9388 28.4401 18.7209 27.306 19.8629C24.6539 22.562 21.9844 25.2092 19.2625 27.8392C18.111 28.9638 16.3662 28.8946 15.1972 27.7527C13.8537 26.455 12.5276 25.14 11.219 23.8078C10.0675 22.6312 10.0675 20.8664 11.1841 19.7245C12.3357 18.5479 14.1328 18.5133 15.3542 19.6726C15.9998 20.2954 16.593 20.9529 17.2211 21.6277ZM26.1719 17.9942C26.1196 17.7866 26.0847 17.6482 26.0323 17.5271C25.7357 16.835 24.9331 16.7485 24.305 17.3541C22.3857 19.24 20.4839 21.1432 18.5646 23.0465C17.7097 23.877 16.8373 23.877 15.9823 23.0465C15.3542 22.4409 14.7435 21.818 14.1328 21.2124C13.5745 20.6761 13.0162 20.6415 12.5974 21.0913C12.1787 21.5239 12.231 22.0602 12.7545 22.5793C13.9758 23.8078 15.2146 25.0362 16.4534 26.2474C17.0117 26.801 17.5352 26.8183 18.0935 26.2647C20.6409 23.7559 23.1883 21.2297 25.7183 18.6863C25.9451 18.496 26.0498 18.2019 26.1719 17.9942Z" fill="#EC6608"/>
<path d="M19.2101 33.8776C17.0989 33.8776 14.9877 33.8949 12.8765 33.8603C12.5276 33.8603 12.0739 33.6008 11.8646 33.324C11.7075 33.1336 11.7599 32.5973 11.9344 32.3896C12.1263 32.1474 12.545 31.9571 12.8765 31.9571C17.1164 31.9225 21.3737 31.9398 25.6135 31.9398C26.3289 31.9398 26.7476 32.3204 26.7651 32.9087C26.7651 33.497 26.3463 33.8776 25.631 33.8776C23.4849 33.8776 21.3388 33.8776 19.2101 33.8776Z" fill="#EC6608"/>
<path d="M19.2974 35.8155C20.5187 35.8155 21.7401 35.8155 22.9615 35.8155C23.6943 35.8155 24.113 36.1788 24.1305 36.7498C24.1479 37.3727 23.7117 37.7533 22.9615 37.7533C20.4839 37.7533 18.0062 37.7533 15.5112 37.7533C14.7784 37.7533 14.3596 37.39 14.3422 36.819C14.3247 36.1961 14.7609 35.8155 15.5112 35.8155C16.7849 35.8155 18.0411 35.8155 19.2974 35.8155Z" fill="#EC6608"/>
<path d="M43.8466 15.0529C45.0156 15.0529 45.6961 15.347 46.2719 15.9007C46.743 16.3505 47.2141 16.8004 47.6503 17.2849C47.9643 17.6309 48.2086 17.5963 48.5052 17.2676C48.924 16.8177 49.3602 16.4025 49.7964 15.9872C50.9828 14.8799 52.78 14.8799 53.9141 15.9872C55.0656 17.1118 55.1005 18.8594 53.9839 20.0705C53.5651 20.5377 53.1115 20.9702 52.6404 21.4028C52.2914 21.7142 52.3263 21.9564 52.6578 22.2506C53.094 22.6485 53.4953 23.0638 53.9141 23.479C55.118 24.7248 55.118 26.5069 53.9141 27.6661C52.7625 28.7908 50.9479 28.7562 49.744 27.5969C49.3078 27.1817 48.8716 26.7491 48.4529 26.3166C48.1737 26.0224 47.9469 26.0397 47.6852 26.3339C47.2315 26.801 46.7779 27.2682 46.3068 27.7008C45.0505 28.8773 43.2359 28.8773 42.0844 27.7008C40.9328 26.5415 40.9677 24.794 42.1542 23.5655C42.5904 23.1157 43.0266 22.6658 43.4977 22.2333C43.8292 21.9218 43.8117 21.6796 43.4802 21.3682C42.9742 20.901 42.4682 20.4166 42.0146 19.8975C41.1945 18.9632 41.0026 17.8904 41.526 16.7658C42.032 15.6412 42.9568 15.0702 43.8466 15.0529ZM52.9719 25.6245C52.7625 25.2785 52.6229 25.0016 52.431 24.794C52.0297 24.3441 51.5761 23.9462 51.1399 23.4963C50.1453 22.4582 50.1279 21.1778 51.1224 20.157C51.5586 19.7072 52.0297 19.2746 52.4659 18.8248C52.937 18.323 52.9544 17.8039 52.5357 17.3887C52.1344 16.9907 51.5586 17.008 51.0875 17.4579C50.6513 17.8558 50.25 18.2884 49.8313 18.6863C48.6972 19.7937 47.4235 19.7937 46.2719 18.669C45.888 18.2884 45.5042 17.9077 45.1203 17.5271C44.5096 16.9215 43.9164 16.8523 43.4802 17.3022C43.044 17.752 43.1138 18.2884 43.707 18.8767C44.1432 19.3092 44.5794 19.7245 44.9982 20.157C45.9753 21.1605 45.9753 22.4582 45.0156 23.4617C44.5445 23.9462 44.056 24.396 43.5849 24.8805C43.0964 25.3996 43.0789 25.9532 43.5151 26.3685C43.9164 26.7491 44.4748 26.7145 44.9633 26.2474C45.4169 25.8148 45.8531 25.365 46.3068 24.9151C47.4234 23.8424 48.6972 23.8424 49.8138 24.9324C50.2675 25.365 50.6688 25.8667 51.1748 26.2301C51.4539 26.4204 51.925 26.5069 52.2391 26.4031C52.5531 26.3166 52.7276 25.9186 52.9719 25.6245Z" fill="#EC6608"/>
<path d="M48.0167 33.8776C45.9055 33.8776 43.7943 33.8776 41.6831 33.8776C40.9503 33.8776 40.5315 33.5143 40.5141 32.926C40.4966 32.3031 40.9328 31.9225 41.6831 31.9225C43.864 31.9225 46.045 31.9225 48.226 31.9225C50.25 31.9225 52.2739 31.9225 54.2979 31.9225C55.0831 31.9225 55.5192 32.2685 55.5192 32.8741C55.5367 33.5143 55.083 33.8776 54.2804 33.8776C52.2041 33.8776 50.1104 33.8776 48.0167 33.8776Z" fill="#EC6608"/>
<path d="M48.0341 37.7706C46.7953 37.7706 45.5565 37.7706 44.3177 37.7706C43.5674 37.7706 43.1312 37.39 43.1487 36.7671C43.1661 36.1788 43.5849 35.8328 44.3177 35.8328C46.7953 35.8328 49.2729 35.8328 51.768 35.8328C52.5182 35.8328 52.9544 36.2134 52.937 36.8363C52.9195 37.4246 52.5008 37.7706 51.768 37.7706C50.5117 37.7706 49.2729 37.7706 48.0341 37.7706Z" fill="#EC6608"/>
</g>
<defs>
<clipPath id="clip0_102_43">
<rect width="67" height="54" fill="white"/>
</clipPath>
</defs>
</svg>
