<svg width="66" height="66" viewBox="0 0 66 66" fill="none" xmlns="http://www.w3.org/2000/svg">
<g clip-path="url(#clip0_102_59)">
<path d="M27.8828 29.8064C27.9183 29.6113 27.936 29.5048 27.9715 29.4161C28.2553 28.7597 28.0247 28.3693 27.4394 27.979C25.9495 26.9677 24.8852 25.6016 24.2112 23.9339C24.0516 23.5258 23.8387 23.4371 23.4308 23.4193C20.2026 23.3484 18.2515 20.1193 19.6528 17.2097C19.7769 16.9435 19.8124 16.5532 19.7415 16.2871C18.7659 13.129 19.1207 10.1306 20.7525 7.25644C21.6039 5.73064 22.3311 4.13386 23.1647 2.44838C23.9274 3.31773 24.6369 4.11612 25.3641 4.94999C27.4216 2.76773 29.692 1.33063 32.4235 0.798377C34.3924 0.408054 36.4144 0.266118 38.4187 0.0354731C38.6138 0.0177312 38.8799 0.159667 39.0395 0.301602C40.6358 1.88063 42.2499 3.42418 43.7753 5.05644C46.5068 7.98386 47.4114 11.4258 46.4891 15.329C46.294 16.1984 46.2053 16.9613 46.56 17.8661C47.5711 20.5097 45.549 23.3661 42.7111 23.4371C42.1967 23.4548 41.9484 23.579 41.7355 24.0758C41.1857 25.4597 40.2811 26.5952 39.075 27.6597C39.7845 27.7129 40.4053 27.7661 41.0261 27.8371C42.9062 28.0322 44.6444 28.6177 46.294 29.5581C46.5246 29.6823 46.7729 29.8419 47.0212 29.8419C50.48 29.8597 53.9387 29.8597 57.4507 29.8597C57.4684 29.6113 57.4861 29.3984 57.4861 29.1855C57.4861 25.1226 57.5039 21.0774 57.4684 17.0145C57.4684 16.7129 57.3088 16.3226 57.0959 16.1097C55.9075 14.9032 55.3045 13.5016 55.3577 11.7984C55.3754 11.0887 55.3577 10.379 55.3577 9.66935C55.3754 8.40967 55.943 7.4516 57.0427 6.84838C57.3442 6.67096 57.4861 6.51128 57.5039 6.15644C57.6812 3.81451 59.5969 2.09354 61.9204 2.18225C64.173 2.25322 66 4.11612 66 6.44031C66.0177 14.9742 66.0354 23.5081 66 32.0597C65.9822 36.1581 62.7186 39.3694 58.6213 39.4403C56.8121 39.4758 54.9852 39.4403 53.1051 39.4403C53.1583 39.9726 53.2115 40.4339 53.2292 40.9129C53.3534 44.6919 52.0763 47.9564 49.4335 50.6532C49.1142 50.9726 48.9723 51.2919 48.9723 51.7532C48.99 56.2597 48.99 60.7484 48.99 65.2548C48.99 65.4855 48.99 65.7339 48.99 66.0532C48.7062 66.0532 48.4579 66.0532 48.2273 66.0532C38.738 66.0532 29.2486 66.0532 19.7592 66.0532C18.3757 66.0532 17.2405 65.6274 16.2295 64.6694C11.6533 60.3403 7.04165 56.0645 2.46546 51.7355C-0.88686 48.5774 -0.7627 43.8935 2.73152 40.8952C3.8667 39.9371 4.98414 38.9613 6.11932 37.9855C8.4961 35.9452 10.8729 33.9403 13.2319 31.8822C14.8283 30.4984 16.6375 29.8064 18.7659 29.8419C21.5506 29.8774 24.3531 29.8419 27.1379 29.8419C27.3507 29.8064 27.5813 29.8064 27.8828 29.8064ZM29.1599 32.8048C28.6455 32.0419 28.007 31.9 27.2088 31.9177C24.2999 31.9532 21.4088 31.9355 18.4999 31.9355C17.0809 31.9355 15.857 32.379 14.7751 33.3016C13.3206 34.5613 11.8484 35.821 10.3762 37.0629C10.2343 37.1871 10.057 37.2758 9.8796 37.4C11.3163 39.0677 12.6466 40.629 13.9946 42.1903C14.6332 41.7113 15.1653 41.2323 15.7683 40.8774C16.7084 40.3274 17.2583 39.6177 17.0454 38.4823C17.0454 38.4468 17.0809 38.4113 17.0986 38.3758C17.7726 38.3758 18.4466 38.3758 19.1561 38.3758C19.1561 41.0193 19.1561 43.6097 19.1561 46.2C19.1561 48.7903 19.1561 51.3806 19.1561 53.9887C19.5818 54.0952 19.9898 54.1484 20.3445 54.3081C21.2846 54.7161 21.9763 54.4677 22.5439 53.6694C22.9164 53.1726 23.484 52.8532 23.6436 52.1435C24.3886 48.5952 25.169 45.0468 25.9317 41.4984C26.6235 38.429 27.0314 35.2887 29.1599 32.8048ZM39.0927 50.671C39.3588 51.079 39.6603 51.4161 39.7845 51.7887C40.015 52.5339 40.4407 52.5516 41.1325 52.4274C43.5625 51.9484 45.8151 51.1323 47.6598 49.3758C52.3956 44.8339 52.2359 37.3645 47.2873 32.8226C40.8842 26.9322 30.7562 29.9839 28.8229 38.4113C27.7587 43.0774 26.7831 47.7613 25.7898 52.4274C25.7366 52.6403 25.8253 52.9597 25.9672 53.1194C26.5525 53.7581 27.1733 54.3613 27.7941 54.9645C27.9183 55.0887 28.1489 55.2129 28.2908 55.1774C28.8051 55.1064 29.3195 54.9468 29.8162 54.8403C29.7984 52.1613 30.8272 50.7242 32.7428 49.5C31.7495 48.5065 30.774 47.5129 29.763 46.5548C29.4437 46.2355 29.3373 45.9516 29.4437 45.5081C29.9403 43.3258 30.4015 41.1435 30.8981 38.9613C32.0156 33.9758 36.6804 31.0484 41.6646 32.1839C45.9038 33.1597 48.99 37.0452 49.0078 41.3919C49.0078 45.4371 46.1876 49.2516 41.7533 50.1032C40.8487 50.2629 39.9973 50.4758 39.0927 50.671ZM23.0583 63.8177C30.9691 63.8177 38.8799 63.8177 46.7729 63.8177C46.7729 60.0919 46.7729 56.4194 46.7729 52.871C45.3717 53.3323 43.9704 53.8113 42.5692 54.2548C42.0016 54.4323 41.3985 54.4855 40.8309 54.6629C40.6358 54.7161 40.4053 54.9645 40.352 55.1597C39.8731 57.4129 38.5606 58.921 36.3257 59.4532C34.0199 60.0032 32.1575 59.1693 30.7562 57.271C30.6675 57.1468 30.4724 56.9339 30.3838 56.9694C29.4969 57.2177 28.4859 57.0758 27.7409 57.8565C26.7299 58.921 25.7189 59.9677 24.6369 60.9613C23.7855 61.7242 23.1293 62.5936 23.0583 63.8177ZM23.7678 6.01451C22.2069 8.97741 20.4332 11.7452 21.728 15.1871C22.2956 15.0629 22.8455 14.9387 23.4308 14.8145C23.4308 14.3532 23.4308 13.9097 23.4308 13.4661C23.4485 11.7984 24.2999 10.6629 25.8963 10.2016C27.4749 9.74031 29.0357 9.29677 30.6143 8.85322C31.8205 8.51612 33.0621 8.3387 34.2859 8.64031C36.3789 9.15483 38.4896 9.70483 40.5471 10.379C41.842 10.8048 42.4805 11.8693 42.5692 13.2355C42.6047 13.7855 42.5692 14.3355 42.5692 14.8322C43.19 14.9742 43.7221 15.0806 44.2897 15.2048C44.3429 15.0984 44.3961 15.0097 44.4138 14.9032C45.1588 11.6742 44.4493 8.83547 42.1612 6.44031C40.8842 5.10967 39.5716 3.81451 38.2591 2.53709C38.0639 2.35967 37.7269 2.25322 37.4609 2.27096C36.4676 2.34193 35.4743 2.46612 34.481 2.57257C31.0578 2.94515 28.3085 4.4887 26.251 7.25644C26.0736 7.50483 25.8785 7.73547 25.6479 8.03709C25.0094 7.34515 24.4241 6.72418 23.7678 6.01451ZM61.7076 31.9532C59.5614 31.9532 57.4684 31.9532 55.3577 31.9532C55.3577 32.8935 55.3577 33.7452 55.3577 34.6145C55.3577 35.4839 55.3577 36.371 55.3577 37.2581C56.4042 37.2581 57.3265 37.2581 58.2488 37.2581C61.6012 37.2581 63.8538 34.9871 63.8715 31.6161C63.8715 28.4048 63.8715 25.1935 63.8715 21.9823C63.8715 21.7693 63.8538 21.5564 63.836 21.3435C62.4171 21.3435 61.0336 21.3435 59.6678 21.3435C59.6678 24.1823 59.6678 26.9855 59.6678 29.8419C60.3773 29.8419 61.0336 29.8419 61.7076 29.8419C61.7076 30.5339 61.7076 31.1903 61.7076 31.9532ZM8.33646 38.8371C6.91749 40.0435 5.51626 41.25 4.13276 42.4387C3.90217 42.6339 3.67159 42.8468 3.45874 43.0774C1.7205 44.9403 1.7205 47.85 3.47648 49.7129C4.06181 50.3161 4.68261 50.8839 5.30341 51.4516C6.26122 52.3564 7.23676 53.2613 8.10588 54.0774C9.22332 52.9597 10.3053 51.8774 11.405 50.7774C9.50712 48.6661 7.57377 46.5193 5.62268 44.3371C6.17253 43.8581 6.66917 43.3968 7.20129 42.9355C8.01719 43.8226 8.77989 44.6742 9.56033 45.5258C10.5004 44.8161 11.3873 44.1419 12.3096 43.45C10.9438 41.8887 9.64901 40.3806 8.33646 38.8371ZM25.7189 21.2903C25.7721 24.5548 29.3018 27.6419 32.9379 27.6774C36.645 27.7129 40.1747 24.6613 40.2988 21.2903C39.0218 21.2903 37.7269 21.1661 36.4499 21.3258C34.9599 21.5032 34.0199 21.0774 33.5942 19.5871C33.541 19.4097 33.1862 19.1968 32.9734 19.1968C32.7783 19.179 32.53 19.4097 32.4058 19.5871C32.1752 19.9419 31.9801 20.3145 31.8382 20.7048C31.6608 21.1661 31.3948 21.3081 30.8981 21.3081C29.1776 21.2726 27.4394 21.2903 25.7189 21.2903ZM40.423 14.9387C35.4388 14.9387 30.5257 14.9387 25.5947 14.9387C25.5947 16.3581 25.5947 17.7242 25.5947 19.1435C26.8363 19.1435 28.0602 19.0903 29.2663 19.1613C29.9935 19.1968 30.4547 19.0371 30.6498 18.3097C30.9336 17.2097 31.6608 17.0145 32.7428 16.9613C34.215 16.8903 35.2083 17.2097 35.5807 18.7177C35.5985 18.7887 35.634 18.8597 35.6694 18.8952C35.7936 18.9839 35.9355 19.1258 36.0774 19.1435C37.5141 19.1613 38.9508 19.1613 40.4053 19.1613C40.423 17.7242 40.423 16.3581 40.423 14.9387ZM63.8538 14.9032C63.8538 11.9403 63.8893 9.06612 63.836 6.19193C63.8183 5.14515 62.8605 4.31128 61.814 4.25805C60.7675 4.22257 59.792 4.98547 59.6501 6.03225C59.6146 6.24515 59.7565 6.59999 59.9339 6.70644C61.406 7.61128 61.9382 8.74676 61.6721 10.6097C60.9981 10.6097 60.3241 10.6097 59.6146 10.6097C59.6146 10.2548 59.6323 9.95322 59.6146 9.6516C59.5791 8.97741 59.1534 8.53386 58.5504 8.53386C57.9473 8.53386 57.5216 8.97741 57.5039 9.66935C57.4861 10.379 57.5216 11.0887 57.4861 11.7984C57.4329 12.9693 57.8764 13.9097 58.7632 14.6726C58.9228 14.7968 59.1357 14.921 59.3308 14.921C60.803 14.9032 62.2929 14.9032 63.8538 14.9032ZM13.0368 58.7258C14.7218 60.3048 16.3359 61.8661 18.0032 63.3565C19.1384 64.3677 20.8412 63.8355 21.2314 62.3984C21.4442 61.6177 21.1604 60.9613 20.5928 60.4113C19.7947 59.6129 18.9965 58.8323 18.0387 57.8742C18.6772 57.3597 19.2271 56.8984 19.8834 56.3661C18.6772 56.0645 17.6307 55.7806 16.5842 55.5323C16.4423 55.4968 16.2295 55.5677 16.1231 55.6565C15.0943 56.6677 14.0656 57.679 13.0368 58.7258ZM16.9922 53.4742C16.9922 49.7839 16.9922 46.2532 16.9922 42.6161C14.9524 44.1419 13.0013 45.6145 11.0502 47.0694C11.0857 47.1758 11.0857 47.2113 11.1035 47.2468C12.8594 49.2161 14.6154 51.1677 16.3891 53.1371C16.5133 53.279 16.7439 53.35 16.9922 53.4742ZM35.1196 51.0968C33.3813 51.0968 31.9446 52.5339 31.9446 54.2726C31.9446 56.0468 33.3813 57.4839 35.1551 57.4839C36.8933 57.4839 38.33 56.0468 38.33 54.3081C38.33 52.5339 36.8933 51.079 35.1196 51.0968ZM25.6834 12.7032C30.6498 12.7032 35.4034 12.7032 40.1569 12.7032C39.9441 12.4371 39.6958 12.2952 39.4297 12.2242C38.0462 11.8161 36.6627 11.4435 35.2969 11.0355C34.144 10.6806 32.9556 10.4677 31.7673 10.7871C29.9581 11.2661 28.1489 11.7806 26.3397 12.2952C26.1623 12.3484 26.0027 12.5081 25.6834 12.7032ZM24.5837 54.8758C23.5017 55.9581 22.4375 57.0226 21.3555 58.1048C21.8167 58.5839 22.3133 59.1339 22.739 59.5952C23.8387 58.5129 24.9384 57.4129 26.0027 56.3484C25.5415 55.8871 25.0271 55.3371 24.5837 54.8758ZM49.4867 31.9532C49.5931 32.0952 49.6286 32.1661 49.6818 32.2371C50.9057 33.6032 51.828 35.1468 52.4665 36.8677C52.5375 37.0806 52.8745 37.1871 53.1937 37.4355C53.1937 35.4484 53.1937 33.7097 53.1937 31.9532C51.9521 31.9532 50.7638 31.9532 49.4867 31.9532ZM11.4227 57.2177C12.4515 56.1887 13.4448 55.2129 14.4558 54.2016C13.9769 53.6694 13.4625 53.1016 13.0013 52.5871C11.9371 53.6516 10.9084 54.6806 9.84412 55.7274C10.3408 56.1887 10.8906 56.7032 11.4227 57.2177ZM63.836 17.0677C62.3993 17.0677 61.0336 17.0677 59.6501 17.0677C59.6501 17.7774 59.6501 18.4516 59.6501 19.1258C61.069 19.1258 62.4525 19.1258 63.836 19.1258C63.836 18.4161 63.836 17.7597 63.836 17.0677ZM39.4652 36.6548C38.7734 35.9806 38.0994 35.3064 37.4077 34.6677C37.319 34.579 37.0707 34.5258 36.9642 34.579C36.3257 34.8984 35.7226 35.271 35.1728 35.5726C36.1306 36.5306 36.9997 37.4 37.8688 38.2871C38.33 37.8081 38.8621 37.2758 39.4652 36.6548ZM45.3007 45.7742C45.6377 45.171 45.9925 44.55 46.3295 43.929C46.3827 43.8403 46.3649 43.6452 46.3117 43.5742C45.6022 42.8468 44.8928 42.1548 44.2542 41.5161C43.6512 42.0839 43.119 42.5984 42.6047 43.0774C43.4915 43.9645 44.3606 44.8339 45.3007 45.7742ZM34.4278 41.4984C35.0664 40.8952 35.6162 40.3629 36.0596 39.9726C35.2615 39.1742 34.4456 38.3581 33.5942 37.4887C33.3813 38.1274 33.133 38.8193 32.9379 39.5113C32.8847 39.671 32.9734 39.9548 33.0975 40.079C33.541 40.5935 34.0376 41.0726 34.4278 41.4984ZM39.2878 46.3419C39.8377 46.8742 40.3343 47.371 40.8487 47.85C40.9551 47.9565 41.1857 48.0452 41.3098 48.0097C42.0548 47.7968 42.7643 47.5484 43.4028 47.3355C42.516 46.4484 41.6823 45.6145 40.8487 44.7806C40.423 45.2242 39.9086 45.7387 39.2878 46.3419ZM23.4131 17.05C22.1005 17.1564 21.2669 18.0435 21.3023 19.2145C21.3378 20.35 22.2247 21.2193 23.4131 21.2371C23.4131 19.8532 23.4131 18.4693 23.4131 17.05ZM42.6047 17.05C42.6047 18.4871 42.6047 19.871 42.6047 21.2371C43.5979 21.3435 44.6976 20.3677 44.7154 19.1968C44.7331 18.0435 43.864 17.1387 42.6047 17.05ZM34.3214 48.0806C34.9599 47.4774 35.5807 46.9097 36.1483 46.3774C35.634 45.8097 35.1196 45.2419 34.6229 44.6919C33.9844 45.3129 33.3813 45.9161 32.8315 46.4839C33.3459 47.0339 33.878 47.5839 34.3214 48.0806ZM37.9221 41.5871C37.3367 42.1548 36.7869 42.6871 36.3257 43.1129C36.7869 43.6274 37.2835 44.1774 37.6737 44.6032C38.2413 44.0532 38.7912 43.521 39.3233 43.0064C38.8621 42.5452 38.3655 42.0129 37.9221 41.5871ZM42.5514 39.9903C42.0016 39.4048 41.4872 38.8726 41.0615 38.4113C40.5117 38.9435 39.9796 39.4758 39.5184 39.9193C39.9973 40.4339 40.5117 40.9661 40.9906 41.4806C41.505 40.9661 42.0548 40.4516 42.5514 39.9903ZM42.5869 36.6726C43.1368 37.2403 43.6512 37.7903 44.1655 38.3226C44.5735 37.9145 44.9814 37.5064 45.4249 37.0629C44.9105 36.4952 44.4139 35.9452 43.9172 35.4129C43.3674 35.9274 42.9771 36.3177 42.5869 36.6726ZM32.2816 29.8064C31.5012 29.6645 30.8449 29.5403 30.1886 29.4161C29.8339 30.5693 29.8339 30.5693 30.6321 31.1016C31.1465 30.7113 31.6608 30.3032 32.2816 29.8064ZM46.7374 40.8952C46.7729 40.8774 46.8084 40.8597 46.8438 40.8419C46.7374 40.3097 46.631 39.7952 46.4891 39.1387C46.1876 39.4581 45.9747 39.6887 45.7796 39.9016C46.0989 40.2387 46.4181 40.5758 46.7374 40.8952ZM40.9551 35.0581C41.2034 34.8629 41.434 34.6855 41.7887 34.4016C41.097 34.2774 40.5649 34.171 39.9973 34.0645C40.3698 34.4548 40.6713 34.7742 40.9551 35.0581ZM31.9446 44.0355C32.2994 43.7516 32.6896 43.4323 32.9202 43.2371C32.7251 42.9355 32.5477 42.6871 32.3171 42.3323C32.1575 43.0064 32.051 43.5564 31.9446 44.0355ZM36.6982 49.0032C37.3722 48.8613 37.9043 48.7371 38.4896 48.6129C38.2236 48.3113 38.0285 48.0806 37.8334 47.85C37.4431 48.2403 37.1239 48.5597 36.6982 49.0032Z" fill="#EC6608"/>
</g>
<defs>
<clipPath id="clip0_102_59">
<rect width="66" height="66" fill="white"/>
</clipPath>
</defs>
</svg>
