<svg width="68" height="68" viewBox="0 0 68 68" fill="none" xmlns="http://www.w3.org/2000/svg">
<g clip-path="url(#clip0_102_68)">
<path d="M39.8571 67.4741C47.5275 66.1141 54.0917 62.4512 59.3504 56.6123C63.92 51.5349 66.7307 45.4421 67.7099 38.5333C67.7824 37.9893 67.8549 37.4091 67.9275 36.8651C67.9637 36.6112 67.9819 36.3755 68.0181 36.1216V31.8784C67.9637 31.4976 67.9093 31.1168 67.8731 30.7541C67.7643 29.92 67.6555 29.0496 67.5104 28.1973C66.9301 24.6613 65.7515 21.2341 64.0107 18.0427C63.4667 17.0453 63.8837 16.3925 64.3008 15.9392C65.6971 14.416 67.184 12.5483 67.8187 10.1909C67.8731 10.0096 67.9275 9.82827 67.9819 9.6288C68 9.59253 68 9.55627 68.0181 9.50187V7.97867C67.6917 6.61867 67.184 5.62133 66.4768 4.8416C64.4277 2.64747 61.0731 2.15787 58.4619 3.68107C58.2987 3.77173 58.1173 3.89867 57.936 4.00747C57.8453 4.06187 57.7365 4.1344 57.6459 4.1888L57.1744 4.47893L56.7211 4.15253C55.3067 3.1008 53.7653 2.6656 52.1515 2.84693C51.7344 2.90133 51.2992 3.01013 50.8459 3.13707C50.5557 3.22773 50.2475 3.30027 49.9392 3.3728C49.4133 3.4816 48.9963 3.46347 48.6699 3.30027C44.7168 1.4688 40.6005 0.3808 36.4299 0.0906667C36.2667 0.0725333 36.1216 0.0362667 36.0128 0H31.8603C31.4795 0.0544 31.0987 0.1088 30.7179 0.145067C29.8837 0.253867 29.0133 0.362667 28.1792 0.507733C21.1072 1.72267 14.9419 4.9504 9.84639 10.0821C4.84159 15.1232 1.68639 21.1979 0.471456 28.1611C-0.743477 35.1061 0.181323 41.9424 3.20959 48.4704C3.24586 48.5611 3.30026 48.6517 3.33652 48.7424L3.71732 49.5403L3.02826 50.0299C2.91946 50.1024 2.81066 50.1749 2.71999 50.2475C0.290123 51.8795 -0.616544 54.5813 0.38079 57.3195C1.14239 59.3867 2.48426 61.3088 4.49706 63.1765C5.80266 64.3915 7.21706 65.5339 8.57706 66.6581C9.10292 67.0933 9.64692 67.5285 10.1909 67.9819H11.2427C11.6053 67.6917 11.9499 67.4197 12.3125 67.1296C13.5456 66.1504 14.8331 65.1349 16.0843 64.1195C16.3381 63.9019 16.9547 63.4123 17.8613 63.9019C22.0501 66.1867 26.5835 67.5104 31.3163 67.8731C31.5157 67.8912 31.6789 67.9275 31.824 67.9637C31.8421 67.9637 31.8603 67.9819 31.8784 67.9819H36.0672C36.448 67.9275 36.8469 67.8731 37.2277 67.8368C38.1344 67.7461 39.0048 67.6373 39.8571 67.4741ZM49.9755 6.6912C50.7915 5.80267 52.0427 5.36747 53.2757 5.5488C54.4181 5.712 55.3611 6.3648 55.8507 7.344C56.0864 7.81547 56.6304 8.14187 57.2288 8.14187C57.5189 8.14187 58.208 8.06933 58.5888 7.344C59.0784 6.40107 59.9851 5.74827 61.1093 5.56693C62.3061 5.36747 63.5029 5.74827 64.3371 6.56427C65.2619 7.47093 65.552 8.61333 65.1349 9.66507C64.6816 10.8256 64.2464 11.6416 63.7387 12.3488C62.016 14.7424 59.84 16.6101 57.7365 18.2603L57.2288 18.6592L56.7211 18.2603C54.4907 16.4832 52.1877 14.4704 50.4651 11.9499C49.9029 11.1339 49.5584 10.2272 49.3045 9.52C48.9237 8.55893 49.1776 7.54347 49.9755 6.6912ZM17.952 57.7184C16.9909 59.0603 15.8485 60.4203 14.3616 62.016C13.7269 62.7051 13.0016 63.3035 12.2944 63.8837C11.9861 64.1376 11.6597 64.4096 11.3515 64.6816L10.8437 65.1349L10.3179 64.7179C8.05119 62.9045 5.71199 60.8736 3.89866 58.2261C3.60852 57.8091 3.35466 57.3376 3.10079 56.7936C2.30292 55.0528 2.86506 53.8741 3.48159 53.1851C4.40639 52.1333 5.65759 51.7525 7.09012 52.0427C8.12372 52.2603 8.92159 52.8405 9.48372 53.7835C9.79199 54.3093 10.2635 54.6176 10.7712 54.6176C11.2971 54.6176 11.7685 54.3093 12.0949 53.7653C12.9109 52.3872 14.4704 51.6981 16.0299 52.0064C17.6619 52.3328 18.8043 53.5296 18.7861 54.9077C18.768 55.9595 18.4597 57.0112 17.952 57.7184ZM33.9637 65.2981C28.8501 65.2981 23.8453 64.0651 19.8016 61.7803L19.1307 61.3995L19.4752 60.7104C19.6747 60.3115 19.8741 59.9125 20.0917 59.5317C20.5269 58.6976 20.944 57.9179 21.2341 57.1019C21.7963 55.4517 21.6331 53.7109 20.7445 52.2421C19.856 50.7371 18.3328 49.6853 16.5557 49.3771C14.688 49.0325 12.9291 49.4133 11.4603 50.4651L11.1157 50.7189L10.7168 50.5739C10.3723 50.4469 10.0459 50.3381 9.73759 50.2293C8.86719 49.9211 8.03306 49.6128 7.19892 49.3045C6.81812 49.1595 6.45546 48.8149 6.23786 48.3797C4.38826 44.8619 3.26399 41.1083 2.88319 37.2277C2.15786 29.7205 3.86239 22.848 7.94239 16.7915C13.2555 8.88533 20.7083 4.26133 30.0832 2.992C35.2693 2.2848 40.5099 2.95573 45.6235 4.96853C45.8229 5.04107 46.0043 5.13173 46.2037 5.2224C46.2944 5.25867 46.3851 5.29493 46.4757 5.34933L47.2011 5.67573L46.9109 6.4192C45.6779 9.4656 47.056 11.9861 48.5429 14.0352C50.4107 16.592 52.9131 18.9493 56.4491 21.4517C56.9568 21.8144 57.4827 21.7963 58.0448 21.3973C58.6251 20.9803 59.2053 20.5451 59.7675 20.128C60.0213 19.9285 60.2752 19.7472 60.5291 19.5477L61.2725 19.0037L61.7259 19.8016C64.464 24.5525 65.7152 30.8085 65.1349 36.9557C64.6635 41.9787 62.7595 49.3408 56.3221 55.9051C51.1904 61.1456 44.6624 64.3189 37.4453 65.1349C36.2848 65.2256 35.1243 65.2981 33.9637 65.2981Z" fill="#EC6608"/>
<path d="M49.0507 41.616C48.7061 41.7067 48.3072 41.9787 47.872 42.3776C43.9552 46.0043 39.3131 47.8539 34.0907 47.872C28.6507 47.8901 23.8635 45.9317 19.856 42.0875C19.5115 41.7611 19.0944 41.5797 18.7136 41.5797C18.3691 41.5797 18.0608 41.7248 17.8069 41.9968C17.2448 42.5952 17.2992 43.3931 17.9883 44.0459C22.3221 48.2347 27.5627 50.5013 33.1659 50.6101C37.1371 50.6101 40.4011 49.9755 43.4475 48.5973C45.9136 47.4912 48.1803 45.9317 50.1568 43.9733C50.6645 43.4837 50.7733 42.8853 50.4651 42.3232C50.1931 41.8336 49.6672 41.4347 49.0507 41.616Z" fill="#EC6608"/>
<path d="M27.3632 29.4304C27.2725 25.9488 24.4619 23.2288 20.9621 23.2288H20.944C19.2032 23.2288 17.5712 23.9179 16.3381 25.1691C15.1413 26.384 14.4885 27.9797 14.5248 29.648C14.5429 30.2827 14.8874 30.7723 15.504 30.9536C16.0661 31.1349 16.6645 30.9173 16.9365 30.464C17.0816 30.2101 17.1904 29.8112 17.2448 29.3035C17.4624 27.3995 18.9674 25.9851 20.8352 25.9488C22.9387 25.8944 24.4256 27.3269 24.6432 29.5573C24.7339 30.4821 25.296 31.0443 26.0939 31.008C26.8736 30.9717 27.3813 30.3371 27.3632 29.4304Z" fill="#EC6608"/>
<path d="M53.4752 29.5211C53.4208 26.0395 50.5557 23.2288 47.056 23.2288C47.0379 23.2288 47.0379 23.2288 47.0197 23.2288C45.2789 23.2288 43.6651 23.9179 42.4501 25.1691C41.2533 26.384 40.6187 27.9616 40.6368 29.6299C40.6368 30.2827 41.0539 30.8267 41.6885 30.9717C42.2688 31.1168 42.9035 30.8267 43.1573 30.3008C43.2843 30.0288 43.3387 29.6661 43.3749 29.3216C43.5563 27.5445 44.9163 26.1301 46.6208 25.9669C48.5067 25.7675 50.1749 26.8736 50.6464 28.6507C50.7189 28.9227 50.7371 29.1765 50.7552 29.4123C50.7552 29.5029 50.7733 29.6117 50.7915 29.7024C50.9003 30.5184 51.4987 31.0443 52.2421 30.9899C52.9675 30.9536 53.4933 30.3371 53.4752 29.5211Z" fill="#EC6608"/>
</g>
<defs>
<clipPath id="clip0_102_68">
<rect width="68" height="68" fill="white"/>
</clipPath>
</defs>
</svg>
