<svg width="65" height="65" viewBox="0 0 65 65" fill="none" xmlns="http://www.w3.org/2000/svg">
<g clip-path="url(#clip0_102_79)">
<path d="M38.1824 64.4892C44.3142 63.5027 50.2697 60.4729 54.9742 55.9634C59.6788 51.4539 62.9737 45.6233 64.2247 39.5461C64.4362 38.5596 64.5595 37.5027 64.7005 36.4987C64.7709 35.9878 64.8414 35.4594 64.9119 34.9309C64.9295 34.7548 64.9824 34.5962 65 34.4553V30.4743C64.9471 30.1043 64.9119 29.752 64.859 29.3821V29.3645C64.7533 28.5366 64.6476 27.6911 64.5066 26.8808C62.3923 14.1978 52.5427 3.75204 40.0325 0.880765C38.9401 0.634153 37.7596 0.475616 36.6319 0.31708H36.6143C36.068 0.246619 35.4866 0.158543 34.9227 0.0704672C34.7642 0.0528521 34.6056 0.0176217 34.4822 -0.0176086H34.4646H30.4825C30.1125 0.0352369 29.7425 0.0880824 29.3548 0.123313C28.5267 0.229004 27.6457 0.334695 26.8176 0.475616C13.8317 2.64228 3.04825 13.1762 0.599075 26.1585C-0.828141 33.6978 0.281916 41.1843 3.77067 47.79C7.27704 54.3957 12.8273 59.4688 19.8401 62.4634C23.0293 63.8198 26.4123 64.6477 29.8834 64.8943C30.1301 64.9119 30.3239 64.9648 30.4825 65H30.5001H34.4999C34.8699 64.9472 35.2399 64.8943 35.6099 64.8591C36.4733 64.7358 37.3367 64.6301 38.1824 64.4892ZM32.544 62.3577H32.4736C24.5446 62.3577 17.0561 59.2575 11.4177 53.6206C5.7441 47.9661 2.62537 40.4621 2.64299 32.5C2.64299 16.0474 16.0342 2.64228 32.4912 2.64228C48.9482 2.64228 62.3394 16.0298 62.357 32.4648C62.3746 48.9174 49.0011 62.3225 32.544 62.3577Z" fill="#EC6608"/>
<path d="M32.6322 10.2697C30.0773 10.2697 27.9805 12.3306 27.9629 14.8848C27.9452 16.1355 28.4386 17.3157 29.3196 18.2141C30.2006 19.0949 31.3635 19.5881 32.5969 19.6057C32.6145 19.6057 32.6145 19.6057 32.6322 19.6057C33.8655 19.6057 35.0461 19.1301 35.9271 18.2493C36.8081 17.3686 37.3014 16.206 37.3014 14.9553C37.3014 13.7046 36.8257 12.5244 35.9447 11.6436C35.0461 10.7453 33.8832 10.2697 32.6322 10.2697Z" fill="#EC6608" stroke="#EC6608" stroke-width="4"/>
<path d="M19.0119 30.7561C19.8929 31.6369 21.0558 32.1301 22.3068 32.1301H22.3245C23.5755 32.1301 24.7384 31.6545 25.6194 30.7737C26.5004 29.893 26.9938 28.7128 26.9938 27.4797C26.9938 24.9255 24.9322 22.8293 22.3773 22.8117C22.3597 22.8117 22.3597 22.8117 22.3421 22.8117C21.1087 22.8117 19.9282 23.2873 19.0472 24.168C18.1662 25.0488 17.6728 26.2114 17.6552 27.4445C17.6376 28.6951 18.1309 29.8754 19.0119 30.7561Z" fill="#EC6608" stroke="#EC6608" stroke-width="4"/>
</g>
<defs>
<clipPath id="clip0_102_79">
<rect width="65" height="65" fill="white"/>
</clipPath>
</defs>
</svg>
