<svg xmlns="http://www.w3.org/2000/svg" xmlns:xlink="http://www.w3.org/1999/xlink" width="73.57" height="98.08" viewBox="0 0 73.57 98.08" fill="#fff"><defs><clipPath id="a" transform="translate(0 0)"><rect width="73.57" height="98.08" fill="none"/></clipPath></defs><g clip-path="url(#a)"><path d="M68.57,2.43A2.57,2.57,0,0,1,71.13,5V93.08a2.57,2.57,0,0,1-2.56,2.57H5a2.57,2.57,0,0,1-2.57-2.57V5A2.57,2.57,0,0,1,5,2.43H68.57m0-2.43H5A5,5,0,0,0,0,5V93.08a5,5,0,0,0,5,5H68.57a5,5,0,0,0,5-5V5a5,5,0,0,0-5-5" transform="translate(0 0)"/><rect y="57.44" width="73.57" height="2.43"/><rect x="35.57" y="57.44" width="2.43" height="40.64"/><path d="M18.67,76.11H2.43V59.87H18.67ZM21.1,57.44H0v21.1H21.1Z" transform="translate(0 0)"/><path d="M71.14,76.11H54.9V59.87H71.14Zm2.43-18.67H52.47v21.1h21.1Z" transform="translate(0 0)"/></g></svg>