<svg xmlns="http://www.w3.org/2000/svg" xmlns:xlink="http://www.w3.org/1999/xlink" width="88.19" height="98.08" viewBox="0 0 88.19 98.08" fill="#fff"><defs><clipPath id="a" transform="translate(0 0)"><rect width="88.19" height="98.08" fill="none"/></clipPath></defs><g clip-path="url(#a)"><path d="M25,13.7a1.22,1.22,0,0,0,1.21-1.22V1.22a1.22,1.22,0,1,0-2.43,0V12.48A1.22,1.22,0,0,0,25,13.7" transform="translate(0 0)"/><path d="M36,13.7a1.22,1.22,0,0,0,1.21-1.22V1.22a1.22,1.22,0,1,0-2.43,0V12.48A1.22,1.22,0,0,0,36,13.7" transform="translate(0 0)"/><path d="M47,13.7a1.22,1.22,0,0,0,1.21-1.22V1.22a1.22,1.22,0,1,0-2.43,0V12.48A1.22,1.22,0,0,0,47,13.7" transform="translate(0 0)"/><path d="M58,13.7a1.22,1.22,0,0,0,1.21-1.22V1.22a1.22,1.22,0,1,0-2.43,0V12.48A1.22,1.22,0,0,0,58,13.7" transform="translate(0 0)"/><path d="M79.91,36.82h-7V28.44A4.88,4.88,0,0,0,68,23.56H14.94a4.88,4.88,0,0,0-4.89,4.88V70.86a18.82,18.82,0,0,0,9.61,16.41H0A10.81,10.81,0,0,0,10.8,98.08H72.13a10.8,10.8,0,0,0,10.8-10.81H63.28a18.81,18.81,0,0,0,9.6-16.41V69.44h7a8.28,8.28,0,0,0,8.28-8.28V45.1a8.28,8.28,0,0,0-8.28-8.28M14.94,26H68a2.45,2.45,0,0,1,2.45,2.45v8.38h-58V28.44A2.46,2.46,0,0,1,14.94,26m65.2,63.72a8.39,8.39,0,0,1-8,5.94H10.8a8.39,8.39,0,0,1-8-5.94H80.14Zm5.62-28.55A5.86,5.86,0,0,1,79.91,67H70.45v3.85A16.42,16.42,0,0,1,54.11,87.27H28.82A16.43,16.43,0,0,1,12.48,70.86V39.25H79.91a5.86,5.86,0,0,1,5.85,5.85Z" transform="translate(0 0)"/><path d="M78.66,43H70.45V63.24h8.21A3.35,3.35,0,0,0,82,59.9V46.36A3.35,3.35,0,0,0,78.66,43m.91,16.88a.91.91,0,0,1-.91.91H72.88V45.45h5.78a.91.91,0,0,1,.91.91Z" transform="translate(0 0)"/><path d="M48.48,53.9a7,7,0,1,0-7,7,7,7,0,0,0,7-7m-7,4.58a4.58,4.58,0,1,1,4.58-4.58,4.58,4.58,0,0,1-4.58,4.58" transform="translate(0 0)"/><path d="M32.79,62.43a7,7,0,1,0,7,7,7,7,0,0,0-7-7m0,11.59a4.58,4.58,0,1,1,4.58-4.58A4.59,4.59,0,0,1,32.79,74" transform="translate(0 0)"/><path d="M50.15,62.43a7,7,0,1,0,7,7,7,7,0,0,0-7-7m0,11.59a4.58,4.58,0,1,1,4.57-4.58A4.59,4.59,0,0,1,50.15,74" transform="translate(0 0)"/></g></svg>