<svg xmlns="http://www.w3.org/2000/svg" xmlns:xlink="http://www.w3.org/1999/xlink" width="73.57" height="98.08" viewBox="0 0 73.57 98.08" fill="#fff"><defs><clipPath id="a" transform="translate(0 0)"><rect width="73.57" height="98.08" fill="none"/></clipPath></defs><g clip-path="url(#a)"><path d="M68.57,2.43A2.57,2.57,0,0,1,71.13,5V93.08a2.57,2.57,0,0,1-2.56,2.57H5a2.57,2.57,0,0,1-2.57-2.57V5A2.57,2.57,0,0,1,5,2.43H68.57m0-2.43H5A5,5,0,0,0,0,5V93.08a5,5,0,0,0,5,5H68.57a5,5,0,0,0,5-5V5a5,5,0,0,0-5-5" transform="translate(0 0)"/><path d="M36.2,20.84a18.8,18.8,0,0,1,0,37.59H29.09V77.24H22.57V20.84H36.2m0-2.43H20.14V79.67H31.52V60.86H36.2a21.23,21.23,0,0,0,0-42.45" transform="translate(0 0)"/><path d="M36.33,30.71a8.93,8.93,0,1,1,0,17.85h-3.9V30.71h3.9m0-2.43H30V51h6.33a11.36,11.36,0,1,0,0-22.71" transform="translate(0 0)"/></g></svg>