<svg xmlns="http://www.w3.org/2000/svg" xmlns:xlink="http://www.w3.org/1999/xlink" width="111.1" height="104.08" viewBox="0 0 111.1 104.08" fill="#fff"><defs><clipPath id="a" transform="translate(0 0)"><rect width="111.1" height="104.08" fill="none"/></clipPath></defs><g clip-path="url(#a)"><path d="M50.35,48.49c-.25-.12-.51-.22-.75-.35l.9-.91a33.18,33.18,0,0,1,.94-4.38l-4,4a18,18,0,0,1-2.32-2,19.05,19.05,0,0,1-2-2.35l4.1-4.11,4.24,4.23c0-.14.07-.28.11-.41.23-.73.49-1.45.76-2.15L49,36.67l3.95-4L55,34.78c.43-.7.89-1.39,1.37-2.07L54.66,31l3.94-4L60,28.43c.57-.56,1.23-1.15,1.79-1.64l-1.45-1.45,3.95-3.95,2,2c.71-.46,1.42-.89,2.15-1.3L66,19.67l3.94-3.94,3.91,3.91a29.52,29.52,0,0,1,5.56-1.31l.26-.25c0,.06.08.14.12.21.9-.11,1.8-.18,2.7-.2a25.9,25.9,0,0,0-4.55-6,24.67,24.67,0,0,0-8.16-5.56,19.4,19.4,0,0,0-8.41-1.37c-5.78.34-11.69,3.26-16.64,8.21A26,26,0,0,0,40.46,19a.21.21,0,0,0,0,.06c-5.1,9.07-4.18,20.35,3,27.55a21,21,0,0,0,6.74,4.52c0-.86.08-1.73.17-2.6M47.27,35,43,30.63l3.94-3.94L51.22,31Zm5.67-5.66L48.62,25l4-3.95,4.31,4.32Zm5.66-5.67L54.29,19.3l3.94-3.94,4.32,4.31ZM76.21,13.8a26.21,26.21,0,0,1,2,2.26L76,18.33,71.65,14l2.26-2.26a25.61,25.61,0,0,1,2.3,2.05m-10.49-6a17.89,17.89,0,0,1,3.14.93,19.37,19.37,0,0,1,3,1.55l-2,2L65.62,8l.1-.12M63.9,9.69,68.21,14l-3.94,4L60,13.64ZM61.5,7.58l.35,0a1.44,1.44,0,0,0,.23.32l.1.09-4,4L55.33,9A19.48,19.48,0,0,1,61.5,7.58M53,10.13l3.51,3.51-3.94,3.95-4.24-4.25A26.81,26.81,0,0,1,53,10.13m-6.56,4.95.09-.09,4.32,4.31-4,3.95L43,19.38a23.77,23.77,0,0,1,3.41-4.3M41.82,21.6,45.18,25l-3.94,3.94L39.92,27.6a22.39,22.39,0,0,1,1.9-6m-2,12.2,1.44-1.45,4.31,4.32-3.69,3.7A19.3,19.3,0,0,1,39.8,33.8" transform="translate(0 0)"/><path d="M81.38,8.63C75.82,3.07,69.24.09,62.36,0,55.94-.08,49.53,2.34,43.84,7a1.22,1.22,0,0,0,1.53,1.89C56.52-.22,69.66.35,79.66,10.35a28.75,28.75,0,0,1,5.65,7.82,26.7,26.7,0,0,1,2.83.37,30.45,30.45,0,0,0-6.76-9.91" transform="translate(0 0)"/><path d="M20.29,46.49A12,12,0,1,0,.44,34.42,1.22,1.22,0,0,0,1.23,36a1.23,1.23,0,0,0,1.53-.8A9.4,9.4,0,0,1,5.1,31.3,9.5,9.5,0,0,1,12,28.52L11,29.58a6.59,6.59,0,0,0,9.31,9.32l1.07-1.06A9.52,9.52,0,0,1,5.1,44.77a9.4,9.4,0,0,1-2.68-5.3A1.22,1.22,0,0,0,0,39.83a12,12,0,0,0,20.28,6.66m-1.71-9.31A4.16,4.16,0,0,1,12.7,31.3L15,29a9.49,9.49,0,0,1,5.88,5.87Z" transform="translate(0 0)"/><path d="M106,49.73a19.34,19.34,0,0,0-1.37-8.4A24.6,24.6,0,0,0,99,33.16a24.5,24.5,0,0,0-8.17-5.56,19.26,19.26,0,0,0-8.41-1.37c-5.78.34-11.68,3.26-16.64,8.21A26.21,26.21,0,0,0,61.54,40l0,.06c-5.11,9.08-4.19,20.36,3,27.56A21.52,21.52,0,0,0,79.94,73.9l1,0a25.27,25.27,0,0,0,16.82-7.51c5-5,7.86-10.86,8.21-16.64m-8.19,13-4.28-4.27,3.94-4L101,58.09a27,27,0,0,1-3.21,4.67M87.44,52.45l4-3.94,4.31,4.31-3.94,4Zm2.6,6-4,3.94-4.31-4.31,3.94-3.95Zm7.38-7.39-4.31-4.31,3.94-3.95,4.32,4.32ZM95,32.83a27.06,27.06,0,0,1,2.3,2.05,26.39,26.39,0,0,1,2,2.26L97.05,39.4l-4.31-4.31ZM82.59,28.65h.35a1.1,1.1,0,0,0,.22.31l.1.1L79.32,33l-2.9-2.9a19.71,19.71,0,0,1,6.17-1.45M74.08,31.2l3.52,3.52-3.95,3.94-4.24-4.24a27.84,27.84,0,0,1,4.67-3.22M62.32,50,61,48.67a22.66,22.66,0,0,1,1.89-6l3.37,3.37ZM68,44.33l-3.87-3.88a23.65,23.65,0,0,1,3.4-4.29l.1-.09,4.31,4.31Zm-5,17.11a19.45,19.45,0,0,1-2.06-6.57l1.44-1.44,4.32,4.32ZM68.36,56,64,51.71l3.95-4,4.31,4.32ZM74,50.36l-4.31-4.31,3.94-3.95L78,46.42Zm1.35-10,3.95-3.94,4.31,4.31-3.94,4Zm10-1.35L81,34.72,85,30.77l4.32,4.32Zm1.35-10,.1-.12a16.59,16.59,0,0,1,3.14.92,20.74,20.74,0,0,1,3,1.55l-2,2ZM68.56,67.89a17.88,17.88,0,0,1-2.31-2,18.51,18.51,0,0,1-2-2.36l4.11-4.1,4.31,4.31Zm5.83-5.83-4.31-4.31,3.94-4,4.32,4.32Zm5.67-5.66-4.32-4.32,4-3.94L84,52.45Zm1.35-10,3.94-4,4.32,4.32-4,3.94Zm10-1.35-4.32-4.32,4-3.94,4.31,4.31ZM80.06,59.84l4.31,4.31L80.43,68.1l-4.32-4.32Zm-9.38,9.37,3.71-3.71,4.32,4.32-1.47,1.47a19.31,19.31,0,0,1-6.56-2.08M103.1,45.42v0l-4.32-4.32,2-2a19.51,19.51,0,0,1,1.58,3.08,16.42,16.42,0,0,1,.91,3.08l-.13.11m0,3.46.13.13a1.18,1.18,0,0,0,.32.23c0,.11,0,.23,0,.35a19.41,19.41,0,0,1-1.44,6.17l-2.94-2.94ZM83.5,71.17l-1.35-1.35,3.94-3.95,3.41,3.41a22.29,22.29,0,0,1-6,1.89m4.31-7,4-3.94,4.35,4.35-.09.09a23.61,23.61,0,0,1-4.3,3.41Z" transform="translate(0 0)"/><path d="M111.05,50.49c.45-7.53-2.52-14.71-8.58-20.78-5.57-5.57-12.14-8.55-19-8.63-6.43-.08-12.83,2.33-18.53,7a34.75,34.75,0,0,0-3.6,3.35s0,0,0,0-.05,0-.07.06a29.87,29.87,0,0,0-6.75,11.61,29.2,29.2,0,0,0-1,12.81v0a25,25,0,0,1,.07,7.14,22.44,22.44,0,0,1-5.94,12.18,2.52,2.52,0,0,0-2.49.63l-1.94,1.94A2.52,2.52,0,0,0,42.86,81l-10.4,10.4-3.13,1.88a2.53,2.53,0,0,0-1.22,1.87,2.56,2.56,0,0,0,.73,2.12l6.08,6.07a2.49,2.49,0,0,0,1.8.75l.31,0a2.54,2.54,0,0,0,1.88-1.22l1.87-3.12,10.4-10.4a2.56,2.56,0,0,0,1.38.41A2.5,2.5,0,0,0,54.34,89l1.94-2a2.48,2.48,0,0,0,.64-2.45,22.45,22.45,0,0,1,12.2-5.95,25.76,25.76,0,0,1,7.2.06h0a29.76,29.76,0,0,0,25.16-8.56c5.74-5.74,9.13-12.72,9.54-19.66M36.74,101.65a.13.13,0,0,1-.1,0l-6.08-6.07a.13.13,0,0,1,0-.19L33,93.89l.9-.52,1-1L37,90.3l1.72-1.72,2-2,1.72-1.72,2.06-2.06,4.88,4.89-1.3,1.3-.75.75-1.72,1.72-2.06,2.06-1.72,1.72-2,2-1,1-.52.89-1.47,2.44a.11.11,0,0,1-.08.06M52.51,87.28,44.9,79.67a.09.09,0,0,1,0-.12l1.94-1.94.06,0,.06,0,7.6,7.61a.08.08,0,0,1,0,.11l-1.94,2a.08.08,0,0,1-.11,0m24.21-11a28,28,0,0,0-8-.07,24.72,24.72,0,0,0-13.32,6.42l-5.9-5.91A24.75,24.75,0,0,0,56,63.43a27.1,27.1,0,0,0-.07-7.9A27,27,0,0,1,63,33.13a27.9,27.9,0,0,1,3.44-3.2c11.15-9.07,24.29-8.5,34.29,1.5,11,11,10.57,25.47-1,37a27.39,27.39,0,0,1-23.08,7.88" transform="translate(0 0)"/><path d="M50.64,57.36c-.06-.56-.11-.89-.11-.9l0-.08v0c-.07-.47-.12-.94-.17-1.41a22.84,22.84,0,0,0-2.66.24,24.75,24.75,0,0,0-13.32,6.41l-5.91-5.9a24.72,24.72,0,0,0,6.42-13.32,27.39,27.39,0,0,0-.08-7.91,27,27,0,0,1,7.15-22.39,1.22,1.22,0,0,0-.07-1.72,1.2,1.2,0,0,0-1.71.06A29.91,29.91,0,0,0,33.41,22a29.17,29.17,0,0,0-1,12.81,0,0,0,0,0,0,0A25.69,25.69,0,0,1,32.46,42a22.27,22.27,0,0,1-5.94,12.18,2.51,2.51,0,0,0-2.48.64L22.1,56.76a2.52,2.52,0,0,0-.33,3.16L11.38,70.31,8.25,72.19A2.54,2.54,0,0,0,7,74.07a2.52,2.52,0,0,0,.73,2.11l6.08,6.08a2.53,2.53,0,0,0,1.79.75L16,83a2.57,2.57,0,0,0,1.88-1.22l1.87-3.13,10.4-10.4a2.47,2.47,0,0,0,1.38.41,2.51,2.51,0,0,0,1.78-.73L35.2,66a2.51,2.51,0,0,0,.64-2.45,22.33,22.33,0,0,1,12.2-6,21.65,21.65,0,0,1,2.6-.21m-35,23.21a.1.1,0,0,1-.09,0L9.48,74.46a.13.13,0,0,1,0-.1.11.11,0,0,1,.06-.08l2.44-1.47.9-.52,4.78-4.78,2.06-2.06,1.72-1.72.48-.48,1.57-1.57,4.89,4.88-1.57,1.58-.49.48-1.72,1.72-2,2-1.72,1.72-2.06,2.06-1,1-.52.9-1.46,2.43a.11.11,0,0,1-.09.06M31.54,66.2a.09.09,0,0,1-.12,0l-7.6-7.61a.07.07,0,0,1,0-.11l1.94-1.94a.06.06,0,0,1,.06,0,.05.05,0,0,1,.05,0l7.61,7.6a.09.09,0,0,1,0,.12Z" transform="translate(0 0)"/></g></svg>