<svg xmlns="http://www.w3.org/2000/svg" xmlns:xlink="http://www.w3.org/1999/xlink" width="101.58" height="98.08" viewBox="0 0 101.58 98.08" fill="#fff"><defs><clipPath id="a" transform="translate(0 0)"><rect width="101.58" height="98.08" fill="none"/></clipPath></defs><g clip-path="url(#a)"><path d="M26,60.87A11.23,11.23,0,1,1,14.75,72.1,11.25,11.25,0,0,1,26,60.87m0-2.43A13.66,13.66,0,1,0,39.63,72.1,13.67,13.67,0,0,0,26,58.44" transform="translate(0 0)"/><path d="M26,54.08h0a1.22,1.22,0,0,1-1.22-1.22V47.34a1.22,1.22,0,1,1,2.43,0v5.52A1.21,1.21,0,0,1,26,54.08" transform="translate(0 0)"/><path d="M26,98.08h0a1.22,1.22,0,0,1-1.22-1.22V91.34a1.22,1.22,0,1,1,2.43,0v5.52A1.21,1.21,0,0,1,26,98.08" transform="translate(0 0)"/><path d="M44,72.1h0a1.21,1.21,0,0,1,1.22-1.21h5.52a1.22,1.22,0,1,1,0,2.43H45.22A1.22,1.22,0,0,1,44,72.1" transform="translate(0 0)"/><path d="M0,72.1H0a1.21,1.21,0,0,1,1.22-1.21H6.74a1.22,1.22,0,1,1,0,2.43H1.22A1.22,1.22,0,0,1,0,72.1" transform="translate(0 0)"/><path d="M38.72,59.36h0a1.23,1.23,0,0,1,0-1.72l3.91-3.91a1.22,1.22,0,0,1,1.72,1.72l-3.91,3.91a1.23,1.23,0,0,1-1.72,0" transform="translate(0 0)"/><path d="M7.61,90.47h0a1.21,1.21,0,0,1,0-1.72l3.91-3.91a1.21,1.21,0,0,1,1.71,1.72l-3.9,3.91a1.21,1.21,0,0,1-1.72,0" transform="translate(0 0)"/><path d="M13.23,59.36h0a1.21,1.21,0,0,1-1.71,0L7.61,55.45a1.21,1.21,0,0,1,0-1.72,1.23,1.23,0,0,1,1.72,0l3.9,3.91a1.21,1.21,0,0,1,0,1.72" transform="translate(0 0)"/><path d="M44.35,90.47h0a1.21,1.21,0,0,1-1.72,0l-3.91-3.91a1.22,1.22,0,0,1,1.72-1.72l3.91,3.91a1.23,1.23,0,0,1,0,1.72" transform="translate(0 0)"/><path d="M100.36,47.83h-2V5a5,5,0,0,0-5-5H29.76a5,5,0,0,0-5,5V43.32a4.45,4.45,0,0,1,1.22-.2,4.09,4.09,0,0,1,1.21.2V5a2.57,2.57,0,0,1,2.57-2.57h4.57V50.26h26V77.44H41.73a17.41,17.41,0,0,1-1,2.43H86.33V95.65H30.19v1.21a4.1,4.1,0,0,1-.2,1.22H93.32a5,5,0,0,0,5-5V50.26h2a1.22,1.22,0,1,0,0-2.43m-40,0H36.76V20.64H60.33Zm26,29.61H62.76V50.25H86.33Zm0-29.61H62.76V20.64H86.33Zm0-29.62H36.75V2.43H86.33Zm9.56,74.87a2.57,2.57,0,0,1-2.57,2.57H88.75V50.26h7.14Zm0-45.25H88.75V2.43h4.57A2.57,2.57,0,0,1,95.89,5Z" transform="translate(0 0)"/></g></svg>