<svg xmlns="http://www.w3.org/2000/svg" xmlns:xlink="http://www.w3.org/1999/xlink" width="108.69" height="98.06" viewBox="0 0 108.69 98.06" fill="#fff"><defs><clipPath id="a" transform="translate(0 0)"><rect width="108.69" height="98.06" fill="none"/></clipPath></defs><g clip-path="url(#a)"><path d="M46.13,81.6a5.64,5.64,0,1,0,5.65,5.64,5.65,5.65,0,0,0-5.65-5.64m0,8.85a3.21,3.21,0,1,1,3.21-3.21,3.21,3.21,0,0,1-3.21,3.21" transform="translate(0 0)"/><path d="M83.51,81.6a5.64,5.64,0,1,0,5.64,5.64,5.64,5.64,0,0,0-5.64-5.64m0,8.85a3.21,3.21,0,1,1,3.21-3.21,3.21,3.21,0,0,1-3.21,3.21" transform="translate(0 0)"/><path d="M83.51,76.42A10.81,10.81,0,0,0,72.77,86H56.88a10.82,10.82,0,1,0,0,2.43H72.77a10.81,10.81,0,1,0,10.74-12M46.13,95.63a8.39,8.39,0,1,1,8.39-8.39,8.4,8.4,0,0,1-8.39,8.39m37.38,0a8.39,8.39,0,1,1,8.38-8.39,8.4,8.4,0,0,1-8.38,8.39" transform="translate(0 0)"/><path d="M108.44,20.59a1.2,1.2,0,0,0-1-.47H39.26a1.22,1.22,0,1,0,0,2.43h66.63l-2,7.47H42a1.22,1.22,0,0,0,0,2.43h61.26l-2,7.47H44.7a1.22,1.22,0,1,0,0,2.43h55.85l-2,7.47H47.39a1.22,1.22,0,0,0,0,2.44H97.88l-4.2,15.57H37.48L19.09.89A1.22,1.22,0,0,0,17.92,0H1.22a1.22,1.22,0,1,0,0,2.43H17L35.38,69.37a1.2,1.2,0,0,0,1.17.89H94.61a1.21,1.21,0,0,0,1.17-.9l12.87-47.71a1.22,1.22,0,0,0-.21-1.06" transform="translate(0 0)"/></g></svg>