<svg xmlns="http://www.w3.org/2000/svg" xmlns:xlink="http://www.w3.org/1999/xlink" width="99.12" height="98.08" viewBox="0 0 99.12 98.08" fill="#fff"><defs><clipPath id="a" transform="translate(0 0)"><rect width="99.12" height="98.08" fill="none"/></clipPath></defs><g clip-path="url(#a)"><path d="M22.41,60.68,52,90.26l-5.39,5.39-24.2-24.2L7.82,86.05,2.43,80.66l20-20m0-2.43a2.43,2.43,0,0,0-1.72.71l-20,20a2.43,2.43,0,0,0,0,3.44L6.1,87.76a2.4,2.4,0,0,0,3.43,0L22.41,74.89,44.89,97.37a2.44,2.44,0,0,0,3.44,0L53.71,92a2.42,2.42,0,0,0,0-3.43L24.13,59a2.41,2.41,0,0,0-1.72-.71" transform="translate(0 0)"/><path d="M34.3,95.65V91l-2.43-2.43v7.06H27.3a2.57,2.57,0,0,1-2.57-2.57V81.45l-2.32-2.32-.11.11V93.08a5,5,0,0,0,5,5H41.36l-2.43-2.43Z" transform="translate(0 0)"/><path d="M97.9,47.83h-2V5a5,5,0,0,0-5-5H27.3a5,5,0,0,0-5,5V47.83h-2a1.22,1.22,0,1,0,0,2.43h2v5h.11a5.41,5.41,0,0,1,2.32.54V50.26h7.14v12.2l2.43,2.43V50.26H57.87V77.44h-11l2.43,2.43H83.87V95.65H54.29l-2.43,2.43h39a5,5,0,0,0,5-5V50.26h2a1.22,1.22,0,1,0,0-2.43m-66-29.62V47.83H24.73V5A2.57,2.57,0,0,1,27.3,2.43h4.57Zm26,29.62H34.3V20.64H57.87Zm26,29.61H60.3V50.25H83.87Zm0-29.61H60.3V20.64H83.87Zm0-29.62H34.3V2.43H83.87Zm9.56,74.87a2.57,2.57,0,0,1-2.57,2.57H86.3V50.26h7.13Zm0-45.25H86.3V2.43h4.56A2.57,2.57,0,0,1,93.43,5Z" transform="translate(0 0)"/></g></svg>