<svg xmlns="http://www.w3.org/2000/svg" xmlns:xlink="http://www.w3.org/1999/xlink" width="107.53" height="98.08" viewBox="0 0 107.53 98.08" fill="#fff"><defs><clipPath id="a" transform="translate(0 0)"><rect width="107.53" height="98.08" fill="none"/></clipPath></defs><g clip-path="url(#a)"><path d="M83.4,98.08H24.13a1.22,1.22,0,0,1,0-2.43H83.4a1.22,1.22,0,1,1,0,2.43" transform="translate(0 0)"/><path d="M68.68,26.71l-9.14-1.33L55.46,17.1a1.86,1.86,0,0,0-1.69-1h0a1.86,1.86,0,0,0-1.69,1L48,25.38l-9.12,1.33A1.89,1.89,0,0,0,37.32,28a1.91,1.91,0,0,0,.48,1.94l6.61,6.44-1.56,9.09a1.92,1.92,0,0,0,.75,1.85,1.88,1.88,0,0,0,2,.15l8.16-4.3,8.17,4.3a2,2,0,0,0,2-.14,1.86,1.86,0,0,0,.75-1.85l-1.56-9.1,6.62-6.44a1.89,1.89,0,0,0-1-3.22M60.5,35.52l1.59,9.28-8.33-4.38L45.43,44.8,47,35.52,40.28,29,49.6,27.6l4.16-8.44,4.17,8.44L67.24,29Z" transform="translate(0 0)"/><path d="M87.42,8.66H82.51V6.93h.6a3.47,3.47,0,0,0,0-6.93H24.42a3.47,3.47,0,0,0,0,6.93H25V8.66H20.11a20.12,20.12,0,0,0,0,40.23h5.42A28.77,28.77,0,0,0,46.46,71.34v8.48a5.81,5.81,0,0,0-5.56,5.81v1.69A10.8,10.8,0,0,0,31,98.08H76.49a10.81,10.81,0,0,0-9.86-10.76V85.63a5.82,5.82,0,0,0-5.56-5.81V71.34A28.78,28.78,0,0,0,82,48.89h5.42a20.12,20.12,0,0,0,0-40.23M65.69,89.71a8.37,8.37,0,0,1,8,5.94H33.83a8.37,8.37,0,0,1,8-5.94ZM64.2,85.63v1.64H43.33V85.63a3.39,3.39,0,0,1,3.39-3.39H60.81a3.39,3.39,0,0,1,3.39,3.39M48.89,79.81v-8a29.19,29.19,0,0,0,9.75,0v8ZM87.42,46.46H79.91a26.31,26.31,0,0,1-52.29,0H20.11a17.69,17.69,0,0,1,0-35.37h7.35V8.66h0V5a2.73,2.73,0,0,1,.05-.5H24.42a1,1,0,0,1,0-2.07H83.11a1,1,0,0,1,0,2.07H80a2.07,2.07,0,0,1,.06.5v6.09h7.34a17.69,17.69,0,0,1,0,35.37" transform="translate(0 0)"/><path d="M25,17.48V40.07H20.11a11.3,11.3,0,0,1,0-22.59H25m2.43-2.43H20.11a13.73,13.73,0,0,0,0,27.45h7.35Z" transform="translate(0 0)"/><path d="M87.42,17.48a11.3,11.3,0,0,1,0,22.59H82.5V17.48h4.92m0-2.43H80.07V42.5h7.35a13.73,13.73,0,0,0,0-27.45" transform="translate(0 0)"/></g></svg>