<svg xmlns="http://www.w3.org/2000/svg" xmlns:xlink="http://www.w3.org/1999/xlink" viewBox="0 0 226.77 97.19"><defs><clipPath id="a" transform="translate(0 0)"><rect width="226.77" height="97.19" fill="none"/></clipPath></defs><rect y="64.79" width="226.77" height="32.4" fill="#eb6608"/><path d="M24.3,43.74l2.87-.66L38.45,10.43h5.06l11,32.67,2.85.64v2.57H45.29V43.74l3.62-.66-2.09-6.8H33.56l-2.1,6.8,3.77.66v2.57H24.32ZM45.89,33.29,41.15,17.84l-.94-3.78-1,3.78L34.49,33.29Z" transform="translate(0 0)" fill="#1d1d1b"/><g clip-path="url(#a)"><path d="M68.39,43.74l3.74-.61V13.94l-3.47-.63V10.74h6c.75,0,1.38,0,1.92-.05l1.62-.12,1.82-.11c.66,0,1.48-.05,2.46-.05a19.84,19.84,0,0,1,5.66.69,8.93,8.93,0,0,1,3.65,2,7.12,7.12,0,0,1,2,3.19,14.53,14.53,0,0,1,.58,4.3,13.12,13.12,0,0,1-1,5.28,11.12,11.12,0,0,1-2.77,3.9,12,12,0,0,1-4.18,2.42,15.94,15.94,0,0,1-5.21.83L79.9,33l-1.19-.05-.94-.06a3,3,0,0,1-.56-.08V43.1l5.88.64v2.57H68.39ZM77.21,30c.22,0,.45.08.69.1s.51.05.82.06l1.08,0h1.44a9.14,9.14,0,0,0,2.85-.45,6,6,0,0,0,2.47-1.54,8,8,0,0,0,1.75-2.95A14.57,14.57,0,0,0,89,20.58a10.22,10.22,0,0,0-.5-3.43A5.62,5.62,0,0,0,87,14.84a5.86,5.86,0,0,0-2.47-1.31,13.16,13.16,0,0,0-3.45-.41c-.53,0-1,0-1.35,0s-.68.05-1,.09l-.78.1a4.62,4.62,0,0,1-.76.05Z" transform="translate(0 0)" fill="#1d1d1b"/><path d="M107.35,43.74l3.74-.61V13.94l-3.47-.63V10.74h6q.9,0,1.74-.06l1.68-.12,1.68-.12c.57,0,1.16,0,1.78,0a23.18,23.18,0,0,1,5.69.59A9.67,9.67,0,0,1,130,12.75a6.63,6.63,0,0,1,2.08,2.92,11.49,11.49,0,0,1,.65,4.06,11.3,11.3,0,0,1-.45,3.17A11.09,11.09,0,0,1,131,25.8a9.51,9.51,0,0,1-2.06,2.37,8.19,8.19,0,0,1-2.75,1.54A7.49,7.49,0,0,1,128,31.5a27.61,27.61,0,0,1,1.69,2.62c.55,1,1.07,1.94,1.58,3s1,2,1.47,2.81A19.45,19.45,0,0,0,134,42.08a2.37,2.37,0,0,0,1.25,1l1.8.64v2.57h-6.41a1.3,1.3,0,0,1-.93-.59,9.65,9.65,0,0,1-1-1.55c-.35-.65-.73-1.39-1.11-2.23s-.78-1.72-1.18-2.63-.81-1.83-1.22-2.74S124.37,34.81,124,34A20.42,20.42,0,0,0,122.68,32a4.74,4.74,0,0,0-1.28-1.29h-3l-1.37,0c-.41,0-.7,0-.88,0V43.15l4.34.59v2.57H107.35Zm8.82-15.87a9,9,0,0,0,1,.06h1.42l1.46,0h1.1a5.65,5.65,0,0,0,4.52-1.9c1.1-1.27,1.65-3.22,1.65-5.83a10.55,10.55,0,0,0-.34-2.74,5.35,5.35,0,0,0-1.16-2.23,5.74,5.74,0,0,0-2.26-1.5,10.31,10.31,0,0,0-3.61-.55c-.58,0-1.07,0-1.48,0s-.75.05-1,.08l-.72.09a4.19,4.19,0,0,1-.52.07Z" transform="translate(0 0)" fill="#1d1d1b"/><polygon points="149.07 43.74 153.1 43.08 153.1 13.94 149.07 13.31 149.07 10.74 162.2 10.74 162.2 13.31 158.22 13.94 158.22 43.1 162.2 43.83 162.2 46.31 149.07 46.31 149.07 43.74" fill="#1d1d1b"/><polygon points="176.61 43.74 180.35 43.08 180.35 13.94 176.7 13.31 176.7 10.74 189.72 10.74 189.72 13.31 185.45 13.94 185.45 43.08 196.8 42.64 199.51 35.21 202.47 35.81 200.96 46.31 176.61 46.31 176.61 43.74" fill="#1d1d1b"/><path d="M198.42,2.29a26.1,26.1,0,0,1,26.07,26.06V54.41H2.28V28.35A26.1,26.1,0,0,1,28.35,2.29H198.42m0-2.29H28.35A28.44,28.44,0,0,0,0,28.35V56.69H226.77V28.35A28.43,28.43,0,0,0,198.42,0" transform="translate(0 0)" fill="#1d1d1b"/><polygon points="46.62 87.7 48.49 87.41 48.49 74.54 46.62 74.26 46.62 73.13 52.71 73.13 52.71 74.26 50.86 74.54 50.86 87.42 52.71 87.74 52.71 88.84 46.62 88.84 46.62 87.7" fill="#1d1d1b"/><path d="M59.72,80.94A8.8,8.8,0,0,1,60,78.73a8.19,8.19,0,0,1,.77-1.93A7.28,7.28,0,0,1,62,75.2,7.53,7.53,0,0,1,63.51,74a7.8,7.8,0,0,1,3.89-1,12.55,12.55,0,0,1,1.36.08c.45.06.87.12,1.27.19l1.07.22.78.17-.19,3.64H70.2l-.6-2.38a1.93,1.93,0,0,0-.92-.48,6.58,6.58,0,0,0-1.8-.19,3.72,3.72,0,0,0-1.76.42,4,4,0,0,0-1.39,1.25,6.24,6.24,0,0,0-.91,2,10.44,10.44,0,0,0-.33,2.76,13.2,13.2,0,0,0,.12,1.78A9.88,9.88,0,0,0,63,84.12a8.48,8.48,0,0,0,.6,1.48,5,5,0,0,0,.88,1.17,3.87,3.87,0,0,0,1.17.78,3.69,3.69,0,0,0,1.48.29,6.85,6.85,0,0,0,1-.06,5.16,5.16,0,0,0,.73-.15,2.17,2.17,0,0,0,.53-.25,2.05,2.05,0,0,0,.38-.34l1-2,1.33.2-.5,3.05a2.78,2.78,0,0,0-.82.16l-.9.27a11.19,11.19,0,0,1-1.16.27,9.2,9.2,0,0,1-1.61.12,7.86,7.86,0,0,1-3.12-.59,6.31,6.31,0,0,1-2.28-1.65,7.19,7.19,0,0,1-1.41-2.57,10.89,10.89,0,0,1-.48-3.33" transform="translate(0 0)" fill="#1d1d1b"/><polygon points="78.94 87.7 80.67 87.42 80.67 74.54 78.98 74.26 78.98 73.13 89.62 73.13 89.9 76.33 88.58 76.33 87.91 74.45 83.05 74.32 83.05 80.17 86.39 80.09 86.71 78.41 88.11 78.41 88.11 83.16 86.71 83.16 86.4 81.46 83.05 81.39 83.05 87.52 88.68 87.29 89.87 84.76 91.19 85.15 90.56 88.84 78.94 88.84 78.94 87.7" fill="#1d1d1b"/><path d="M109.5,80.94a8.8,8.8,0,0,1,.27-2.21,8.19,8.19,0,0,1,.77-1.93A7.52,7.52,0,0,1,113.29,74a7.8,7.8,0,0,1,3.89-1,12.22,12.22,0,0,1,1.35.08c.46.06.88.12,1.27.19l1.08.22.78.17-.19,3.64H120l-.6-2.38a1.93,1.93,0,0,0-.92-.48,6.58,6.58,0,0,0-1.8-.19,3.72,3.72,0,0,0-1.76.42,4,4,0,0,0-1.39,1.25,6,6,0,0,0-.91,2,10.44,10.44,0,0,0-.33,2.76,13.2,13.2,0,0,0,.12,1.78,9.88,9.88,0,0,0,.35,1.67,8.48,8.48,0,0,0,.6,1.48,5,5,0,0,0,.88,1.17,3.87,3.87,0,0,0,1.17.78,3.69,3.69,0,0,0,1.48.29,7,7,0,0,0,1-.06,5.48,5.48,0,0,0,.73-.15,2.17,2.17,0,0,0,.53-.25,2.05,2.05,0,0,0,.38-.34l1-2,1.33.2-.5,3.05a2.91,2.91,0,0,0-.83.16c-.26.08-.56.18-.89.27a10.83,10.83,0,0,1-1.17.27,9.12,9.12,0,0,1-1.61.12,7.81,7.81,0,0,1-3.11-.59,6.31,6.31,0,0,1-2.28-1.65A7.19,7.19,0,0,1,110,84.27a10.89,10.89,0,0,1-.48-3.33" transform="translate(0 0)" fill="#1d1d1b"/><polygon points="128.72 87.7 130.45 87.41 130.45 74.54 128.76 74.26 128.76 73.13 134.8 73.13 134.8 74.26 132.81 74.54 132.81 87.41 138.08 87.22 139.34 83.93 140.71 84.2 140.01 88.84 128.72 88.84 128.72 87.7" fill="#1d1d1b"/><path d="M148.25,74.55l-1.5-.29V73.13h5.62v1.13l-1.69.28V82.4A9.87,9.87,0,0,0,151,85a4.54,4.54,0,0,0,.81,1.65,2.84,2.84,0,0,0,1.23.87,4.47,4.47,0,0,0,1.53.25,3.19,3.19,0,0,0,2.78-1.33,6.62,6.62,0,0,0,1-3.9v-8l-1.64-.29V73.13h4.87v1.13l-1.52.28v7.9a8.9,8.9,0,0,1-.44,3,5.77,5.77,0,0,1-1.19,2,4.7,4.7,0,0,1-1.8,1.18,6.3,6.3,0,0,1-2.23.38,8,8,0,0,1-2.74-.41,4.32,4.32,0,0,1-1.89-1.26,5.25,5.25,0,0,1-1.1-2.13,11.79,11.79,0,0,1-.35-3Z" transform="translate(0 0)" fill="#1d1d1b"/><path d="M168,87.7l1.73-.28V74.54l-1.69-.28V73.13h2.87c.32,0,.61,0,.89,0l.79,0,.74,0c.25,0,.5,0,.77,0a11.46,11.46,0,0,1,2.45.23,4.83,4.83,0,0,1,1.65.69,2.66,2.66,0,0,1,.93,1.11,3.65,3.65,0,0,1,.3,1.52,4.88,4.88,0,0,1-.2,1.4,4,4,0,0,1-.59,1.17,3.52,3.52,0,0,1-1,.88,4.09,4.09,0,0,1-1.32.52,5,5,0,0,1,1.73.23,3.85,3.85,0,0,1,1.32.73,3.36,3.36,0,0,1,.84,1.16,3.67,3.67,0,0,1,.3,1.51,5.56,5.56,0,0,1-.13,1.22,3.89,3.89,0,0,1-.43,1.15,4.26,4.26,0,0,1-2,1.77,7.55,7.55,0,0,1-1.66.52,12,12,0,0,1-2.19.18c-.26,0-.5,0-.73,0l-.72,0-.83,0-1.07,0H168Zm4.09-7.7a3,3,0,0,0,.46,0h1.56a3,3,0,0,0,2.26-.75,3.21,3.21,0,0,0,.7-2.28,4.15,4.15,0,0,0-.16-1.24,1.93,1.93,0,0,0-.53-.88,2.46,2.46,0,0,0-1-.53,6,6,0,0,0-1.54-.17,10.81,10.81,0,0,0-1.15,0l-.61.07Zm0,7.55a1,1,0,0,0,.34.11l.5,0,.59,0h.56a6.35,6.35,0,0,0,1.82-.23,3.4,3.4,0,0,0,1.23-.63,2.45,2.45,0,0,0,.68-1,4,4,0,0,0,.21-1.35,4.37,4.37,0,0,0-.2-1.43,2.15,2.15,0,0,0-.64-1,2.78,2.78,0,0,0-1.14-.57,6.79,6.79,0,0,0-1.68-.17h-2.27Z" transform="translate(0 0)" fill="#1d1d1b"/></g></svg>