<svg xmlns="http://www.w3.org/2000/svg" xmlns:xlink="http://www.w3.org/1999/xlink" viewBox="0 0 226.77 97.19"><defs><clipPath id="a" transform="translate(0 0)"><rect width="226.77" height="97.19" fill="none"/></clipPath></defs><path d="M24.3,43.74l2.87-.66L38.45,10.43h5.06l11,32.67,2.85.64v2.57H45.29V43.74l3.63-.66-2.09-6.8H33.56l-2.1,6.8,3.77.66v2.57H24.32ZM45.89,33.29,41.15,17.84l-.94-3.78-1,3.78L34.49,33.29Z" transform="translate(0 0)" fill="#c3c3c3"/><g clip-path="url(#a)"><path d="M91.82,13.09a8.93,8.93,0,0,0-3.65-2,19.84,19.84,0,0,0-5.66-.69c-1,0-1.8,0-2.46.05l-1.82.11-1.62.12c-.53,0-1.17.05-1.92.05h-6v2.57l3.48.63V43.13l-3.74.61v2.57H83.09V43.74l-5.88-.64V32.8a3,3,0,0,0,.56.08l.94.06L79.9,33l1.29,0a15.94,15.94,0,0,0,5.21-.83,12,12,0,0,0,4.18-2.42,11.12,11.12,0,0,0,2.77-3.9,13.12,13.12,0,0,0,1-5.28,14.53,14.53,0,0,0-.58-4.3,7,7,0,0,0-2-3.19m-3.51,12.2a7.84,7.84,0,0,1-1.75,2.95,6,6,0,0,1-2.47,1.54,9.14,9.14,0,0,1-2.85.45H79.8l-1.08,0c-.31,0-.58,0-.82-.06s-.47-.06-.69-.1V13.4a4.62,4.62,0,0,0,.76-.05l.78-.1c.28,0,.6-.07,1-.09s.81,0,1.34,0a13.16,13.16,0,0,1,3.45.41A5.8,5.8,0,0,1,87,14.84a5.52,5.52,0,0,1,1.48,2.31,10.22,10.22,0,0,1,.5,3.43,14.57,14.57,0,0,1-.65,4.71" transform="translate(0 0)" fill="#c3c3c3"/><path d="M134,42.08a19.45,19.45,0,0,1-1.35-2.19c-.48-.86-1-1.8-1.47-2.81s-1-2-1.58-3A29.72,29.72,0,0,0,128,31.5a7.71,7.71,0,0,0-1.77-1.79,8.19,8.19,0,0,0,2.75-1.54A9.76,9.76,0,0,0,131,25.8a11.8,11.8,0,0,0,1.28-2.9,11.66,11.66,0,0,0,.44-3.17,11.49,11.49,0,0,0-.65-4.06A6.63,6.63,0,0,0,130,12.75,9.67,9.67,0,0,0,126.24,11a23.15,23.15,0,0,0-5.68-.59c-.63,0-1.22,0-1.79,0l-1.68.12-1.68.12c-.56,0-1.14.06-1.73.06h-6.06v2.57l3.47.63V43.13l-3.74.61v2.57h13.16V43.74l-4.34-.59V30.6c.18,0,.47,0,.88,0l1.37,0h3A4.74,4.74,0,0,1,122.68,32,18.76,18.76,0,0,1,124,34c.42.78.84,1.63,1.26,2.54s.82,1.83,1.22,2.74.79,1.79,1.18,2.63.76,1.58,1.11,2.23a9.65,9.65,0,0,0,1,1.55,1.32,1.32,0,0,0,.93.59h6.41V43.74l-1.8-.64a2.37,2.37,0,0,1-1.25-1M121.13,27.89H120l-1.46,0h-1.42a9,9,0,0,1-1-.06V13.42a4,4,0,0,0,.52-.07l.73-.09c.28,0,.62-.06,1-.08s.9,0,1.48,0a10.27,10.27,0,0,1,3.61.55,5.74,5.74,0,0,1,2.26,1.5A5.49,5.49,0,0,1,127,17.42a11,11,0,0,1,.33,2.74c0,2.61-.55,4.56-1.65,5.83a5.65,5.65,0,0,1-4.52,1.9" transform="translate(0 0)" fill="#c3c3c3"/><polygon points="149.07 13.31 153.1 13.94 153.1 43.08 149.07 43.74 149.07 46.31 162.21 46.31 162.21 43.83 158.22 43.1 158.22 13.94 162.21 13.31 162.21 10.74 149.07 10.74 149.07 13.31" fill="#c3c3c3"/><polygon points="196.8 42.64 185.45 43.08 185.45 13.94 189.72 13.31 189.72 10.74 176.7 10.74 176.7 13.31 180.35 13.94 180.35 43.08 176.61 43.74 176.61 46.31 200.96 46.31 202.47 35.81 199.51 35.21 196.8 42.64" fill="#c3c3c3"/><path d="M198.42,0H28.35A28.44,28.44,0,0,0,0,28.35V56.69H226.77V28.35A28.43,28.43,0,0,0,198.42,0m26.07,54.41H2.28V28.35A26.1,26.1,0,0,1,28.35,2.29H198.42a26.09,26.09,0,0,1,26.07,26.06Z" transform="translate(0 0)" fill="#c3c3c3"/><path d="M177.2,82.1a2.78,2.78,0,0,0-1.14-.57,6.75,6.75,0,0,0-1.68-.18h-2.27v6.18a1,1,0,0,0,.34.11l.5,0,.59,0h.56a6.38,6.38,0,0,0,1.82-.22,3.4,3.4,0,0,0,1.23-.63,2.45,2.45,0,0,0,.68-1,4,4,0,0,0,.21-1.35,4.33,4.33,0,0,0-.2-1.43,2.15,2.15,0,0,0-.64-1" transform="translate(0 0)" fill="#c3c3c3"/><path d="M173.12,80h1a3,3,0,0,0,2.26-.75,3.21,3.21,0,0,0,.7-2.28,4.15,4.15,0,0,0-.16-1.24,1.93,1.93,0,0,0-.53-.88,2.46,2.46,0,0,0-1-.53,6,6,0,0,0-1.54-.17,10.81,10.81,0,0,0-1.15,0l-.61.07V80a3,3,0,0,0,.46,0h.55" transform="translate(0 0)" fill="#c3c3c3"/><path d="M0,97.19H226.77V64.79H0ZM52.71,74.26l-1.85.28V87.43l1.85.31v1.1H46.62V87.7l1.87-.29V74.54l-1.87-.28V73.13h6.09Zm18.79,14a2.49,2.49,0,0,0-.82.16l-.9.27a11.19,11.19,0,0,1-1.16.27,9.31,9.31,0,0,1-1.61.11,7.86,7.86,0,0,1-3.12-.58,6.31,6.31,0,0,1-2.28-1.65,7.19,7.19,0,0,1-1.41-2.57,10.89,10.89,0,0,1-.48-3.33A8.8,8.8,0,0,1,60,78.73a8.19,8.19,0,0,1,.77-1.93A7.52,7.52,0,0,1,63.51,74a7.8,7.8,0,0,1,3.89-1,12.55,12.55,0,0,1,1.36.08c.45.06.87.12,1.27.19l1.07.22.78.17-.19,3.64H70.2l-.6-2.38a1.93,1.93,0,0,0-.92-.48,6.58,6.58,0,0,0-1.8-.19,3.72,3.72,0,0,0-1.76.42,4,4,0,0,0-1.39,1.25,6.24,6.24,0,0,0-.91,2,10.44,10.44,0,0,0-.33,2.76,13.2,13.2,0,0,0,.12,1.78A9.88,9.88,0,0,0,63,84.12a8.48,8.48,0,0,0,.6,1.48,5,5,0,0,0,.88,1.17,3.87,3.87,0,0,0,1.17.78,3.69,3.69,0,0,0,1.48.29,6.85,6.85,0,0,0,1-.06,5.16,5.16,0,0,0,.73-.15,2.17,2.17,0,0,0,.53-.25,2.05,2.05,0,0,0,.38-.34l1-2,1.33.2Zm19.06.58H78.94V87.7l1.73-.27V74.54L79,74.26V73.13H89.62l.28,3.2H88.58l-.67-1.88-4.86-.13v5.85l3.34-.07.32-1.69h1.4v4.75h-1.4l-.31-1.7-3.35-.06v6.12l5.63-.23,1.19-2.53,1.32.39Zm30.71-.58a2.59,2.59,0,0,0-.82.16c-.26.08-.56.18-.89.27a10.83,10.83,0,0,1-1.17.27,9.23,9.23,0,0,1-1.61.11,7.81,7.81,0,0,1-3.11-.58,6.44,6.44,0,0,1-2.29-1.65A7.51,7.51,0,0,1,110,84.27a11.21,11.21,0,0,1-.47-3.33,8.8,8.8,0,0,1,.27-2.21,8.19,8.19,0,0,1,.77-1.93,7.52,7.52,0,0,1,1.2-1.6A7.27,7.27,0,0,1,113.29,74a7.8,7.8,0,0,1,3.89-1,12.22,12.22,0,0,1,1.35.08c.45.06.88.12,1.27.19l1.08.22.78.17-.19,3.64H120l-.59-2.38a1.93,1.93,0,0,0-.92-.48,6.63,6.63,0,0,0-1.8-.19,3.79,3.79,0,0,0-1.77.42,4.08,4.08,0,0,0-1.38,1.25,6,6,0,0,0-.91,2,10.44,10.44,0,0,0-.33,2.76,13.2,13.2,0,0,0,.12,1.78,9.88,9.88,0,0,0,.35,1.67,8.48,8.48,0,0,0,.6,1.48,5,5,0,0,0,.88,1.17,3.87,3.87,0,0,0,1.17.78,3.69,3.69,0,0,0,1.48.29,7,7,0,0,0,1-.06,5.48,5.48,0,0,0,.73-.15,2.17,2.17,0,0,0,.53-.25,2.05,2.05,0,0,0,.38-.34l1-2,1.33.2Zm18.74.58H128.72V87.7l1.73-.29V74.54l-1.69-.28V73.13h6v1.13l-2,.28V87.41l5.27-.19,1.26-3.28,1.37.26Zm21.5-14.58-1.52.28v7.9a8.9,8.9,0,0,1-.44,3,5.64,5.64,0,0,1-1.2,2,4.59,4.59,0,0,1-1.79,1.18,6.26,6.26,0,0,1-2.23.38,8.23,8.23,0,0,1-2.74-.41,4.32,4.32,0,0,1-1.89-1.26,5.25,5.25,0,0,1-1.1-2.13,11.79,11.79,0,0,1-.35-3V74.55l-1.5-.29V73.13h5.62v1.13l-1.69.28V82.4A9.87,9.87,0,0,0,151,85a4.62,4.62,0,0,0,.81,1.65,2.9,2.9,0,0,0,1.23.87,4.47,4.47,0,0,0,1.53.25,3.19,3.19,0,0,0,2.78-1.33,6.62,6.62,0,0,0,1-3.9v-8l-1.64-.29V73.13h4.87Zm18.93,11.08a3.89,3.89,0,0,1-.43,1.15,4.26,4.26,0,0,1-2,1.77,7.55,7.55,0,0,1-1.66.52,12,12,0,0,1-2.19.18l-.73,0-.72,0-.83,0-1.07,0H168V87.7l1.73-.28V74.54l-1.69-.28V73.13h2.87c.32,0,.61,0,.89,0l.79,0,.74,0c.24,0,.5,0,.77,0a11.46,11.46,0,0,1,2.45.23,4.83,4.83,0,0,1,1.65.69,2.66,2.66,0,0,1,.93,1.11,3.65,3.65,0,0,1,.3,1.52,4.88,4.88,0,0,1-.2,1.4,4,4,0,0,1-.59,1.17,3.52,3.52,0,0,1-1,.88,4.09,4.09,0,0,1-1.32.52,5,5,0,0,1,1.73.23,3.85,3.85,0,0,1,1.32.73,3.36,3.36,0,0,1,.84,1.16,3.67,3.67,0,0,1,.3,1.51,5.56,5.56,0,0,1-.13,1.22" transform="translate(0 0)" fill="#c3c3c3"/></g></svg>