<svg xmlns="http://www.w3.org/2000/svg" xmlns:xlink="http://www.w3.org/1999/xlink" viewBox="0 0 226.77 97.19"><defs><clipPath id="a" transform="translate(0 0)"><rect width="226.77" height="97.19" fill="none"/></clipPath></defs><rect y="64.79" width="226.77" height="32.4" fill="#ec6608"/><path d="M24.3,43.74l2.87-.66L38.45,10.43h5.06l11,32.67,2.85.64v2.57H45.29V43.74l3.63-.66-2.1-6.8H33.56l-2.1,6.8,3.77.66v2.57H24.32ZM45.89,33.29,41.15,17.84l-.94-3.78-1,3.78L34.49,33.29Z" transform="translate(0 0)" fill="#1d1d1b"/><g clip-path="url(#a)"><path d="M68.4,43.74l3.74-.61V13.94l-3.48-.63V10.74h6c.75,0,1.39,0,1.92-.05l1.62-.12,1.82-.11c.66,0,1.48-.05,2.46-.05a19.84,19.84,0,0,1,5.66.69,8.93,8.93,0,0,1,3.65,2,7,7,0,0,1,2,3.19,14.53,14.53,0,0,1,.58,4.3,13.12,13.12,0,0,1-1,5.28,11.12,11.12,0,0,1-2.77,3.9,12,12,0,0,1-4.18,2.42,15.94,15.94,0,0,1-5.21.83L79.9,33l-1.19-.05-.94-.06a3,3,0,0,1-.56-.08V43.1l5.88.64v2.57H68.4ZM77.21,30c.22,0,.45.08.69.1s.51.05.82.06l1.08,0h1.44a9.14,9.14,0,0,0,2.85-.45,6,6,0,0,0,2.47-1.54,7.84,7.84,0,0,0,1.75-2.95A14.3,14.3,0,0,0,89,20.58a10.22,10.22,0,0,0-.5-3.43A5.52,5.52,0,0,0,87,14.84a5.8,5.8,0,0,0-2.47-1.31,13.16,13.16,0,0,0-3.45-.41c-.53,0-1,0-1.35,0s-.68.05-1,.09l-.78.1a4.62,4.62,0,0,1-.76.05Z" transform="translate(0 0)" fill="#1d1d1b"/><path d="M107.35,43.74l3.74-.61V13.94l-3.47-.63V10.74h6q.9,0,1.74-.06l1.68-.12,1.68-.12c.57,0,1.16,0,1.79,0a23.15,23.15,0,0,1,5.68.59A9.67,9.67,0,0,1,130,12.75a6.63,6.63,0,0,1,2.08,2.92,11.49,11.49,0,0,1,.65,4.06,11.3,11.3,0,0,1-.45,3.17A11.09,11.09,0,0,1,131,25.8,9.67,9.67,0,0,1,129,28.17a8.34,8.34,0,0,1-2.76,1.54A7.49,7.49,0,0,1,128,31.5a27.61,27.61,0,0,1,1.69,2.62c.55,1,1.07,1.94,1.58,3s1,2,1.47,2.81A19.45,19.45,0,0,0,134,42.08a2.37,2.37,0,0,0,1.25,1l1.8.64v2.57h-6.41a1.32,1.32,0,0,1-.93-.59,9.65,9.65,0,0,1-1-1.55c-.35-.65-.72-1.39-1.11-2.23s-.78-1.72-1.18-2.63-.81-1.83-1.22-2.74S124.37,34.81,124,34A20.42,20.42,0,0,0,122.68,32a4.74,4.74,0,0,0-1.28-1.29h-3l-1.37,0c-.41,0-.7,0-.88,0V43.15l4.34.59v2.57H107.35Zm8.82-15.87a9,9,0,0,0,1,.06h1.42l1.46,0h1.1a5.65,5.65,0,0,0,4.52-1.9c1.1-1.27,1.65-3.22,1.65-5.83a10.55,10.55,0,0,0-.34-2.74,5.35,5.35,0,0,0-1.16-2.23,5.74,5.74,0,0,0-2.26-1.5,10.27,10.27,0,0,0-3.61-.55c-.58,0-1.07,0-1.48,0s-.75.05-1,.08l-.72.09a4,4,0,0,1-.52.07Z" transform="translate(0 0)" fill="#1d1d1b"/><polygon points="149.07 43.74 153.1 43.08 153.1 13.94 149.07 13.31 149.07 10.74 162.21 10.74 162.21 13.31 158.22 13.94 158.22 43.1 162.21 43.83 162.21 46.31 149.07 46.31 149.07 43.74" fill="#1d1d1b"/><polygon points="176.61 43.74 180.35 43.08 180.35 13.94 176.7 13.31 176.7 10.74 189.72 10.74 189.72 13.31 185.45 13.94 185.45 43.08 196.8 42.64 199.51 35.21 202.47 35.81 200.96 46.31 176.61 46.31 176.61 43.74" fill="#1d1d1b"/><polygon points="27.51 87.71 30.34 87.42 30.34 74.31 26.71 74.41 25.89 78.61 24.3 78.61 24.66 73.07 38.62 73.07 38.89 78.61 37.3 78.61 36.56 74.41 32.94 74.31 32.94 87.42 35.99 87.71 35.99 88.85 27.51 88.85 27.51 87.71" fill="#1d1d1b"/><polygon points="42.68 87.71 44.52 87.43 44.52 74.49 42.72 74.21 42.72 73.07 54.07 73.07 54.37 76.28 52.96 76.28 52.24 74.39 47.06 74.27 47.06 80.14 50.62 80.07 50.97 78.38 52.46 78.38 52.46 83.15 50.97 83.15 50.63 81.44 47.06 81.37 47.06 87.52 53.07 87.3 54.33 84.75 55.74 85.15 55.07 88.85 42.68 88.85 42.68 87.71" fill="#1d1d1b"/><polygon points="59.67 87.71 61.51 87.43 61.51 74.49 59.67 74.21 59.67 73.07 63.93 73.07 71.45 83.29 72.54 85.21 72.54 74.49 70.55 74.21 70.55 73.07 76.08 73.07 76.08 74.21 74.22 74.5 74.22 88.85 72.59 88.85 64.91 78.47 63.19 75.7 63.19 87.43 65.23 87.71 65.23 88.85 59.67 88.85 59.67 87.71" fill="#1d1d1b"/><polygon points="79.94 87.71 81.78 87.43 81.78 74.49 79.94 74.21 79.94 73.07 84.2 73.07 91.72 83.29 92.81 85.21 92.81 74.49 90.82 74.21 90.82 73.07 96.36 73.07 96.36 74.21 94.5 74.5 94.5 88.85 92.87 88.85 85.18 78.47 83.47 75.7 83.47 87.43 85.5 87.71 85.5 88.85 79.94 88.85 79.94 87.71" fill="#1d1d1b"/><polygon points="100.4 87.71 102.4 87.42 102.4 74.49 100.4 74.21 100.4 73.07 106.9 73.07 106.9 74.21 104.93 74.49 104.93 87.43 106.9 87.75 106.9 88.85 100.4 88.85 100.4 87.71" fill="#1d1d1b"/><path d="M112,84.3h1.52l.46,2.57a2.26,2.26,0,0,0,.5.38,4.74,4.74,0,0,0,.71.3,6.63,6.63,0,0,0,.85.2,6,6,0,0,0,1,.07,3.64,3.64,0,0,0,2.45-.69,2.37,2.37,0,0,0,.79-1.89,2.33,2.33,0,0,0-.26-1.11,2.88,2.88,0,0,0-.75-.87,6.84,6.84,0,0,0-1.18-.74c-.46-.23-1-.47-1.55-.72l-1-.43a11,11,0,0,1-1-.56,7,7,0,0,1-1-.7,4.89,4.89,0,0,1-.78-.86,4.37,4.37,0,0,1-.55-1,3.87,3.87,0,0,1-.2-1.26,3.57,3.57,0,0,1,.38-1.64,3.94,3.94,0,0,1,1.1-1.28,5,5,0,0,1,1.71-.83,7.76,7.76,0,0,1,2.23-.3,11.1,11.1,0,0,1,1.44.1c.45.07.87.15,1.25.24l1,.26c.29.08.52.13.68.16l-.14,3.51h-1.46l-.54-2.43a1.24,1.24,0,0,0-.33-.22,3.55,3.55,0,0,0-.53-.19c-.2,0-.42-.1-.67-.14a4.9,4.9,0,0,0-.77-.06,3.54,3.54,0,0,0-2.2.56,2,2,0,0,0-.71,1.66,2.08,2.08,0,0,0,.25,1.06,2.78,2.78,0,0,0,.72.83,7,7,0,0,0,1.17.74c.47.24,1,.5,1.62.79l1.09.53a11.4,11.4,0,0,1,1.08.6,9.46,9.46,0,0,1,1,.69,4.7,4.7,0,0,1,.79.82,3.86,3.86,0,0,1,.53,1,3.38,3.38,0,0,1,.19,1.17,3.89,3.89,0,0,1-.38,1.64,4.46,4.46,0,0,1-1.14,1.45,6,6,0,0,1-1.86,1,7.85,7.85,0,0,1-2.58.4,11,11,0,0,1-1.8-.14,13.73,13.73,0,0,1-1.47-.32c-.44-.11-.81-.23-1.12-.33a4.17,4.17,0,0,0-.73-.18Z" transform="translate(0 0)" fill="#1d1d1b"/><path d="M136.29,80.92a8.44,8.44,0,0,1,.29-2.22,8.2,8.2,0,0,1,.82-1.94,7.69,7.69,0,0,1,1.28-1.61,7.94,7.94,0,0,1,1.66-1.21,8.42,8.42,0,0,1,2-.77,8.74,8.74,0,0,1,2.18-.27,13.94,13.94,0,0,1,1.45.08c.48.06.93.12,1.35.2l1.15.21c.34.08.62.13.83.17l-.2,3.67h-1.59l-.64-2.4a2.17,2.17,0,0,0-1-.49,8,8,0,0,0-1.92-.18,4.22,4.22,0,0,0-1.88.42,4.1,4.1,0,0,0-1.48,1.25,6,6,0,0,0-1,2,10.2,10.2,0,0,0-.35,2.78,13.09,13.09,0,0,0,.12,1.78,9.81,9.81,0,0,0,.38,1.68,7.69,7.69,0,0,0,.64,1.49,5.2,5.2,0,0,0,.94,1.18,4.12,4.12,0,0,0,2.82,1.07,10,10,0,0,0,1-.06,4.64,4.64,0,0,0,.78-.16,1.93,1.93,0,0,0,.56-.25,2.69,2.69,0,0,0,.41-.33l1-2,1.42.21-.54,3.06a3.18,3.18,0,0,0-.87.16l-1,.27a12.46,12.46,0,0,1-1.24.27,10.43,10.43,0,0,1-1.72.12,8.66,8.66,0,0,1-3.32-.59,6.62,6.62,0,0,1-2.43-1.66,7,7,0,0,1-1.5-2.58,10.09,10.09,0,0,1-.52-3.34" transform="translate(0 0)" fill="#1d1d1b"/><polygon points="153.58 87.71 155.43 87.42 155.43 74.49 153.63 74.21 153.63 73.07 160.07 73.07 160.07 74.21 157.95 74.49 157.95 87.42 163.57 87.22 164.91 83.93 166.37 84.19 165.63 88.85 153.58 88.85 153.58 87.71" fill="#1d1d1b"/><path d="M171.22,74.5l-1.61-.29V73.07h6v1.14l-1.81.28v7.89a9,9,0,0,0,.32,2.59,4.2,4.2,0,0,0,.86,1.66,3,3,0,0,0,1.3.88,5.12,5.12,0,0,0,1.64.25,3.51,3.51,0,0,0,3-1.34,6.37,6.37,0,0,0,1-3.92v-8l-1.75-.29V73.07h5.2v1.14l-1.62.28v7.93a8.49,8.49,0,0,1-.47,3,5.62,5.62,0,0,1-1.27,2,4.9,4.9,0,0,1-1.92,1.19,7.1,7.1,0,0,1-2.37.39,9,9,0,0,1-2.93-.42,4.86,4.86,0,0,1-2-1.26,5.19,5.19,0,0,1-1.17-2.15,11,11,0,0,1-.37-3Z" transform="translate(0 0)" fill="#1d1d1b"/><path d="M189.09,87.71l1.85-.28V74.49l-1.81-.28V73.07h3.06c.34,0,.66,0,.95,0L194,73l.79,0c.26,0,.54,0,.82,0a13,13,0,0,1,2.61.23,5.36,5.36,0,0,1,1.77.69A2.85,2.85,0,0,1,201,75a3.58,3.58,0,0,1,.31,1.53,4.56,4.56,0,0,1-.21,1.4,3.58,3.58,0,0,1-.63,1.17,3.38,3.38,0,0,1-1,.89,4.19,4.19,0,0,1-1.4.52,6.2,6.2,0,0,1,1.83.23,4.11,4.11,0,0,1,1.41.74,3.43,3.43,0,0,1,.91,1.16,3.56,3.56,0,0,1,.31,1.52,5.58,5.58,0,0,1-.13,1.23,4.07,4.07,0,0,1-.46,1.15,4.14,4.14,0,0,1-.85,1,4.91,4.91,0,0,1-1.27.79,8.27,8.27,0,0,1-1.77.52,13.54,13.54,0,0,1-2.33.18c-.28,0-.54,0-.78,0l-.77,0-.88,0-1.14,0h-3ZM193.45,80a3.48,3.48,0,0,0,.49,0l.59,0h1.08a3.25,3.25,0,0,0,2.4-.76,3.11,3.11,0,0,0,.75-2.29,3.9,3.9,0,0,0-.17-1.25,1.93,1.93,0,0,0-.56-.88,2.71,2.71,0,0,0-1.06-.53,6.83,6.83,0,0,0-1.64-.18,9.59,9.59,0,0,0-1.23.06l-.65.07Zm0,7.58a.9.9,0,0,0,.36.11,4.15,4.15,0,0,0,.54,0c.2,0,.41,0,.62,0h.6a7.33,7.33,0,0,0,2-.22,3.52,3.52,0,0,0,1.3-.64,2.32,2.32,0,0,0,.73-1,3.84,3.84,0,0,0,.23-1.36,4.15,4.15,0,0,0-.22-1.44,2.15,2.15,0,0,0-.68-1,3,3,0,0,0-1.22-.57,7.66,7.66,0,0,0-1.79-.18h-2.42Z" transform="translate(0 0)" fill="#1d1d1b"/><path d="M198.42,2.29a26.1,26.1,0,0,1,26.07,26.06V54.41H2.29V28.35A26.09,26.09,0,0,1,28.35,2.29H198.42m0-2.29H28.35A28.44,28.44,0,0,0,0,28.35V56.69H226.77V28.35A28.43,28.43,0,0,0,198.42,0" transform="translate(0 0)" fill="#1d1d1b"/></g></svg>