<svg xmlns="http://www.w3.org/2000/svg" xmlns:xlink="http://www.w3.org/1999/xlink" viewBox="0 0 198.43 85.04"><defs><clipPath id="a" transform="translate(0 0)"><rect width="198.43" height="85.04" fill="none"/></clipPath></defs><path d="M21.26,38.27l2.51-.57L33.65,9.13h4.42l9.62,28.59,2.49.55v2.25H39.63V38.27l3.17-.57-1.83-6H29.36l-1.83,6,3.29.57v2.25H21.28Zm18.89-9.14L36,15.61l-.81-3.31-.84,3.31L30.18,29.13Z" transform="translate(0 0)" fill="#c3c3c3"/><g clip-path="url(#a)"><path d="M59.85,38.27l3.27-.53V12.2l-3-.56V9.39h5.28c.65,0,1.21,0,1.67,0s.94-.06,1.42-.1L70,9.15c.58,0,1.3,0,2.15,0a17.46,17.46,0,0,1,5,.6,7.85,7.85,0,0,1,3.2,1.74,6.44,6.44,0,0,1,1.7,2.79A12.81,12.81,0,0,1,82.56,18a11.62,11.62,0,0,1-.88,4.63A9.78,9.78,0,0,1,79.25,26a10.5,10.5,0,0,1-3.65,2.12,14,14,0,0,1-4.56.72c-.37,0-.75,0-1.12,0l-1,0-.82-.05a2.5,2.5,0,0,1-.49-.07v9l5.14.55v2.25H59.85Zm7.71-12a5.4,5.4,0,0,0,.6.09l.72.05,1,0h1.25a8.11,8.11,0,0,0,2.5-.39,5.39,5.39,0,0,0,2.16-1.35,7,7,0,0,0,1.53-2.59A12.58,12.58,0,0,0,77.84,18a8.77,8.77,0,0,0-.44-3,4.92,4.92,0,0,0-1.29-2A5.19,5.19,0,0,0,74,11.84a11.42,11.42,0,0,0-3-.36c-.47,0-.86,0-1.18,0s-.6.05-.85.08l-.68.09a4.65,4.65,0,0,1-.66.05Z" transform="translate(0 0)" fill="#c3c3c3"/><path d="M93.93,38.27l3.28-.53V12.2l-3-.56V9.4h5.29q.78,0,1.53-.06l1.47-.1,1.47-.1c.49,0,1-.05,1.55-.05a20.24,20.24,0,0,1,5,.52,8.46,8.46,0,0,1,3.29,1.54,5.83,5.83,0,0,1,1.82,2.56,10.19,10.19,0,0,1,.57,3.56,10,10,0,0,1-.39,2.77,9.75,9.75,0,0,1-1.12,2.53,8.73,8.73,0,0,1-1.8,2.08A7.39,7.39,0,0,1,110.41,26,6.36,6.36,0,0,1,112,27.56a26.69,26.69,0,0,1,1.47,2.29c.48.84.94,1.71,1.38,2.59s.87,1.71,1.29,2.47a17.49,17.49,0,0,0,1.19,1.91,2.05,2.05,0,0,0,1.09.9l1.58.55v2.25h-5.61a1.15,1.15,0,0,1-.82-.51,8.42,8.42,0,0,1-.9-1.36c-.31-.57-.63-1.22-1-2s-.68-1.5-1-2.3-.71-1.59-1.08-2.39-.72-1.54-1.1-2.23A16.88,16.88,0,0,0,107.34,28a4.08,4.08,0,0,0-1.12-1.12h-2.6l-1.2,0-.77,0v11l3.79.51v2.25H93.93Zm7.72-13.89a6.74,6.74,0,0,0,.85.06h1.25l1.28,0,1,0a4.94,4.94,0,0,0,4-1.66,7.59,7.59,0,0,0,1.45-5.1,9.28,9.28,0,0,0-.3-2.4,4.57,4.57,0,0,0-1-2,5,5,0,0,0-2-1.31,8.84,8.84,0,0,0-3.15-.48c-.51,0-.94,0-1.3,0l-.9.07-.64.09-.45.06Z" transform="translate(0 0)" fill="#c3c3c3"/><polygon points="130.44 38.27 133.96 37.7 133.96 12.2 130.44 11.64 130.44 9.39 141.93 9.39 141.93 11.64 138.44 12.2 138.44 37.72 141.93 38.35 141.93 40.52 130.44 40.52 130.44 38.27" fill="#c3c3c3"/><polygon points="154.53 38.27 157.8 37.7 157.8 12.2 154.61 11.64 154.61 9.39 166 9.39 166 11.64 162.26 12.2 162.26 37.7 172.2 37.31 174.57 30.8 177.16 31.34 175.84 40.52 154.53 40.52 154.53 38.27" fill="#c3c3c3"/><path d="M0,85H198.43V56.69H0ZM32.63,68.79,32,65.11,28.82,65V76.49l2.67.26v1H24.07v-1l2.48-.26V65l-3.18.09-.71,3.68h-1.4l.32-4.86H33.79L34,68.79Zm15.56,8.95H37.34v-1L39,76.5V65.18l-1.58-.25v-1h9.93l.26,2.82H46.34l-.63-1.66L41.18,65v5.13l3.12-.06.29-1.48H45.9v4.17H44.59l-.28-1.49-3.13-.06v5.38l5.25-.2,1.11-2.22,1.23.34ZM66.57,64.93l-1.63.26V77.74H63.52L56.8,68.66l-1.51-2.42V76.5l1.79.25v1H52.21v-1l1.61-.25V65.18l-1.61-.25v-1h3.73l6.58,8.95.95,1.68V65.18l-1.74-.25v-1h4.84Zm17.74,0-1.63.26V77.74H81.26l-6.72-9.08L73,66.24V76.5l1.79.25v1H70v-1l1.61-.25V65.18L70,64.93v-1h3.73l6.58,8.95.95,1.68V65.18l-1.74-.25v-1h4.84Zm9.23,0-1.73.25V76.5l1.73.28v1H87.85v-1l1.75-.26V65.18l-1.75-.25v-1h5.69Zm13.67,10.48a3.85,3.85,0,0,1-1,1.28,5.2,5.2,0,0,1-1.63.91,6.58,6.58,0,0,1-2.26.35,9.67,9.67,0,0,1-1.58-.12,11.27,11.27,0,0,1-1.28-.28c-.38-.1-.71-.2-1-.29a2.79,2.79,0,0,0-.64-.15L98,73.76h1.33L99.75,76a1.68,1.68,0,0,0,.43.33,4,4,0,0,0,.62.27,5.18,5.18,0,0,0,.75.17,5.71,5.71,0,0,0,.84.07,3.2,3.2,0,0,0,2.14-.61,2.07,2.07,0,0,0,.69-1.65,2,2,0,0,0-.23-1,2.59,2.59,0,0,0-.65-.77,6.22,6.22,0,0,0-1-.65c-.4-.2-.86-.41-1.36-.63l-.84-.37c-.29-.15-.58-.31-.87-.49a6.1,6.1,0,0,1-.83-.61,4.07,4.07,0,0,1-.68-.76,3.77,3.77,0,0,1-.48-.91,3.31,3.31,0,0,1-.18-1.11,3,3,0,0,1,.34-1.43,3.2,3.2,0,0,1,1-1.12,4.41,4.41,0,0,1,1.49-.73,7,7,0,0,1,2-.26,8.49,8.49,0,0,1,1.26.09c.4.06.76.13,1.09.21l.88.22a5.16,5.16,0,0,0,.59.14l-.12,3.08h-1.28l-.47-2.13a.86.86,0,0,0-.29-.19A3,3,0,0,0,104,65a4.72,4.72,0,0,0-.59-.12,5.06,5.06,0,0,0-.68,0,3.12,3.12,0,0,0-1.92.48,1.76,1.76,0,0,0-.62,1.46,1.83,1.83,0,0,0,.22.93,2.34,2.34,0,0,0,.63.72,5.29,5.29,0,0,0,1,.65l1.41.69,1,.46a9.51,9.51,0,0,1,.94.53,7.59,7.59,0,0,1,.85.6,4.32,4.32,0,0,1,.7.72,3.39,3.39,0,0,1,.46.86,3,3,0,0,1,.17,1,3.23,3.23,0,0,1-.34,1.43m23,1.82a3.27,3.27,0,0,0-.77.14l-.84.25c-.31.08-.67.16-1.08.23a9.15,9.15,0,0,1-1.5.1,7.75,7.75,0,0,1-2.91-.51A5.93,5.93,0,0,1,121,76a6.27,6.27,0,0,1-1.32-2.26,9.34,9.34,0,0,1-.44-2.93,7.21,7.21,0,0,1,.25-1.94,7,7,0,0,1,.72-1.7,6.33,6.33,0,0,1,1.12-1.4,7,7,0,0,1,1.45-1.07,7.51,7.51,0,0,1,1.71-.67,8,8,0,0,1,1.91-.23,10.69,10.69,0,0,1,1.27.07c.42,0,.81.1,1.18.17l1,.19.72.15-.17,3.2H129l-.56-2.09a1.77,1.77,0,0,0-.85-.43,6.8,6.8,0,0,0-1.68-.16A3.55,3.55,0,0,0,123,66.35a5.45,5.45,0,0,0-.85,1.78,9,9,0,0,0-.3,2.44,11.67,11.67,0,0,0,.1,1.56,8.73,8.73,0,0,0,.33,1.47,7.5,7.5,0,0,0,.56,1.29,4.24,4.24,0,0,0,.82,1,3.62,3.62,0,0,0,2.47.93,6.21,6.21,0,0,0,.92,0,4.85,4.85,0,0,0,.68-.13,1.85,1.85,0,0,0,.49-.22,1.79,1.79,0,0,0,.36-.3l.9-1.78,1.24.18Zm14.67.51H134.39v-1l1.61-.26V65.18l-1.58-.25v-1h5.64v1l-1.85.25V76.49l4.91-.17,1.18-2.89,1.28.24Zm17.26-12.81-1.41.25v6.94a7.41,7.41,0,0,1-.41,2.59,5.06,5.06,0,0,1-1.12,1.8,4.29,4.29,0,0,1-1.68,1,6.07,6.07,0,0,1-2.07.34,8.13,8.13,0,0,1-2.57-.36,4.25,4.25,0,0,1-1.76-1.11,4.61,4.61,0,0,1-1-1.88,9.52,9.52,0,0,1-.33-2.66V65.19l-1.4-.26v-1h5.25v1l-1.58.25v6.9a8.11,8.11,0,0,0,.27,2.27,3.75,3.75,0,0,0,.76,1.45,2.66,2.66,0,0,0,1.14.77,4.42,4.42,0,0,0,1.43.22,3,3,0,0,0,2.59-1.17,5.55,5.55,0,0,0,.9-3.43v-7l-1.54-.26v-1h4.55Zm14.87,9.74a3.25,3.25,0,0,1-.41,1,3.57,3.57,0,0,1-.74.88,4.27,4.27,0,0,1-1.11.68,6.76,6.76,0,0,1-1.55.46,11.26,11.26,0,0,1-2,.16c-.24,0-.47,0-.68,0l-.67,0-.78,0-1,0h-2.62v-1l1.62-.25V65.18l-1.58-.25v-1h2.68c.29,0,.57,0,.83,0l.73,0,.7,0,.72,0a11.42,11.42,0,0,1,2.28.2,4.67,4.67,0,0,1,1.54.6,2.45,2.45,0,0,1,.87,1,3.18,3.18,0,0,1,.28,1.34,4,4,0,0,1-.19,1.22,3.4,3.4,0,0,1-.55,1,3.1,3.1,0,0,1-.9.78,3.74,3.74,0,0,1-1.23.45,5.07,5.07,0,0,1,1.61.21,3.55,3.55,0,0,1,1.24.64,2.92,2.92,0,0,1,.79,1,3.16,3.16,0,0,1,.28,1.33,5.48,5.48,0,0,1-.12,1.07" transform="translate(0 0)" fill="#c3c3c3" fill-rule="evenodd"/><path d="M174,71.82a2.82,2.82,0,0,0-1.06-.5,7.08,7.08,0,0,0-1.57-.15h-2.12v5.43a.89.89,0,0,0,.31.09,3.37,3.37,0,0,0,.48,0l.54,0h.53a6.48,6.48,0,0,0,1.7-.19A3.2,3.2,0,0,0,174,76a2.1,2.1,0,0,0,.64-.89,3.42,3.42,0,0,0,.19-1.19,3.9,3.9,0,0,0-.18-1.26,2,2,0,0,0-.6-.86" transform="translate(0 0)" fill="#c3c3c3" fill-rule="evenodd"/><path d="M170.21,70h.95a2.87,2.87,0,0,0,2.1-.66,2.7,2.7,0,0,0,.66-2,3.52,3.52,0,0,0-.15-1.08,1.62,1.62,0,0,0-.5-.77,2.28,2.28,0,0,0-.92-.47,5.84,5.84,0,0,0-1.44-.15,9.9,9.9,0,0,0-1.07,0l-.57.07v5l.43,0h.51" transform="translate(0 0)" fill="#c3c3c3" fill-rule="evenodd"/><path d="M173.62,2a22.83,22.83,0,0,1,22.81,22.8V47.61H2V24.8A22.83,22.83,0,0,1,24.8,2H173.62m0-2H24.8A24.87,24.87,0,0,0,0,24.8V49.61H198.43V24.8A24.88,24.88,0,0,0,173.62,0" transform="translate(0 0)" fill="#c3c3c3"/></g></svg>