<svg width="0" height="0" class="hidden">
  <symbol xmlns="http://www.w3.org/2000/svg" viewBox="0 0 14 14" id="ic_arr_ver">
    <path d="M3.5 5.25L7 8.75L10.5 5.25" stroke="currentColor" stroke-linecap="round" stroke-linejoin="round" fill="none"></path>
  </symbol>
  <symbol xmlns="http://www.w3.org/2000/svg" xmlns:xlink="http://www.w3.org/1999/xlink" viewBox="0 0 11 11" id="ic_close">
    <defs>
      <clipPath id="a" transform="translate(0 0)">
        <rect width="11" height="11" fill="none"></rect>
      </clipPath>
    </defs>
    <g clip-path="url(#a)">
      <line x1="10.5" y1="0.5" x2="0.5" y2="10.5" fill="none" stroke="currentColor" stroke-linecap="round" stroke-miterlimit="10"></line>
      <line x1="10.5" y1="10.5" x2="0.5" y2="0.5" fill="none" stroke="currentColor" stroke-linecap="round" stroke-miterlimit="10"></line>
    </g>
  </symbol>
  <symbol xmlns="http://www.w3.org/2000/svg" viewBox="0 0 17 17" id="ic_close2">
    <path d="M12.75 4.25L4.25 12.75" stroke="currentColor" stroke-linecap="round" stroke-linejoin="round" fill="none"></path>
    <path d="M4.25 4.25L12.75 12.75" stroke="currentColor" stroke-linecap="round" stroke-linejoin="round" fill="none"></path>
  </symbol>
  <symbol xmlns="http://www.w3.org/2000/svg" xmlns:xlink="http://www.w3.org/1999/xlink" viewBox="0 0 20 14.78" id="ic_email">
    <defs>
      <clipPath id="a" transform="translate(0 0)">
        <rect width="20" height="14.78" fill="none"></rect>
      </clipPath>
    </defs>
    <g clip-path="url(#a)">
      <path d="M18.07,0H1.93A1.92,1.92,0,0,0,0,1.93V12.85a1.92,1.92,0,0,0,1.93,1.93H18.07A1.92,1.92,0,0,0,20,12.85V1.93A1.92,1.92,0,0,0,18.07,0m-12,12.38H3.2a.5.5,0,0,1-.5-.5.5.5,0,0,1,.5-.5H6.05a.5.5,0,0,1,.5.5.5.5,0,0,1-.5.5M18.9,1.88,10.33,9a.52.52,0,0,1-.27.1H9.93A.52.52,0,0,1,9.66,9L1.1,1.89A.49.49,0,0,1,1,1.19a.51.51,0,0,1,.71-.07L10,8l8.25-6.88a.51.51,0,0,1,.71.06.49.49,0,0,1-.06.7" transform="translate(0 0)" fill="currentColor"></path>
    </g>
  </symbol>
  <symbol xmlns="http://www.w3.org/2000/svg" xmlns:xlink="http://www.w3.org/1999/xlink" viewBox="0 0 19.66 19.66" id="ic_facebook">
    <defs>
      <clipPath id="a" transform="translate(0 0)">
        <rect width="19.66" height="19.66" fill="none"></rect>
      </clipPath>
    </defs>
    <g clip-path="url(#a)">
      <path d="M16.68,0H3A3,3,0,0,0,0,3v13.7a3,3,0,0,0,3,3H7V11.51H4.14V8.66H7V6.38a3.7,3.7,0,0,1,4-4h2.28V5.24H12.12c-1.26,0-1.71.26-1.71,1.14V8.66h2.85l-.57,2.85H10.41v8.15h6.27a3,3,0,0,0,3-3V3a3,3,0,0,0-3-3" transform="translate(0 0)" fill="currentColor"></path>
    </g>
  </symbol>
  <symbol xmlns="http://www.w3.org/2000/svg" xmlns:xlink="http://www.w3.org/1999/xlink" viewBox="0 0 19.66 19.66" id="ic_instagram">
    <defs>
      <clipPath id="a" transform="translate(0 0)">
        <rect width="19.66" height="19.66" fill="none"></rect>
      </clipPath>
    </defs>
    <g clip-path="url(#a)">
      <path d="M9.83,6.66A3.18,3.18,0,1,0,13,9.83,3.19,3.19,0,0,0,9.83,6.66" transform="translate(0 0)" fill="currentColor"></path>
      <path d="M14.71,0H5A4.94,4.94,0,0,0,0,4.9v9.86a4.94,4.94,0,0,0,5,4.9h9.76a4.94,4.94,0,0,0,4.95-4.9V4.9A4.94,4.94,0,0,0,14.71,0M9.83,15.46a5.63,5.63,0,1,1,5.69-5.63,5.66,5.66,0,0,1-5.69,5.63M15.72,5a1.44,1.44,0,1,1,1.45-1.43A1.44,1.44,0,0,1,15.72,5" transform="translate(0 0)" fill="currentColor"></path>
    </g>
  </symbol>
  <symbol xmlns="http://www.w3.org/2000/svg" xmlns:xlink="http://www.w3.org/1999/xlink" viewBox="0 0 14 18.38" id="ic_location">
    <defs>
      <clipPath id="a" transform="translate(0 0)">
        <rect width="14" height="18.38" fill="none"></rect>
      </clipPath>
    </defs>
    <g clip-path="url(#a)">
      <path d="M13.66,4.78A6.81,6.81,0,0,0,9.22.34a7.12,7.12,0,0,0-6.37,1A7,7,0,0,0,0,7a6.91,6.91,0,0,0,1.4,4.2L7,18.38l5.6-7.19a7.06,7.06,0,0,0,1.06-6.41M7,9.19A2.41,2.41,0,1,1,9.41,6.78,2.41,2.41,0,0,1,7,9.19" transform="translate(0 0)" fill="currentColor"></path>
    </g>
  </symbol>
  <symbol xmlns="http://www.w3.org/2000/svg" xmlns:xlink="http://www.w3.org/1999/xlink" viewBox="0 0 15 15" id="ic_phone">
    <defs>
      <clipPath id="a" transform="translate(0 0)">
        <rect width="15" height="15" fill="none"></rect>
      </clipPath>
    </defs>
    <g clip-path="url(#a)">
      <path d="M14.61,11.57l-3-2a.89.89,0,0,0-1.19.19L9.5,10.88A.37.37,0,0,1,9,11l-.17-.09A10.51,10.51,0,0,1,6.2,8.81,10.19,10.19,0,0,1,4.12,6.16L4,6a.39.39,0,0,1,.1-.49l1.14-.88a.89.89,0,0,0,.19-1.19l-2-3A.88.88,0,0,0,2.24.13L1,.89A1.78,1.78,0,0,0,.15,2C-.3,3.61,0,6.49,4.28,10.73,7.65,14.09,10.15,15,11.88,15a4.64,4.64,0,0,0,1.17-.15A1.78,1.78,0,0,0,14.11,14l.77-1.27a.89.89,0,0,0-.27-1.19" transform="translate(0 0)" fill="currentColor"></path>
      <path d="M8.46.67a5.65,5.65,0,0,1,5.66,5.66.34.34,0,1,0,.67,0A6.34,6.34,0,0,0,8.46,0a.33.33,0,0,0-.33.33.33.33,0,0,0,.33.34" transform="translate(0 0)" fill="currentColor"></path>
      <path d="M8.46,2.67a3.66,3.66,0,0,1,3.66,3.66.34.34,0,1,0,.67,0A4.33,4.33,0,0,0,8.46,2a.34.34,0,0,0,0,.67" transform="translate(0 0)" fill="currentColor"></path>
      <path d="M8.46,4.67a1.66,1.66,0,0,1,1.66,1.66.34.34,0,1,0,.67,0A2.33,2.33,0,0,0,8.46,4a.34.34,0,0,0,0,.67" transform="translate(0 0)" fill="currentColor"></path>
    </g>
  </symbol>
  <symbol xmlns="http://www.w3.org/2000/svg" xmlns:xlink="http://www.w3.org/1999/xlink" viewBox="0 0 25.48 25.48" id="ic_search">
    <defs>
      <clipPath id="a" transform="translate(0 0)">
        <rect width="25.48" height="25.48" fill="none"></rect>
      </clipPath>
    </defs>
    <g clip-path="url(#a)">
      <path d="M10.51,1.5a9,9,0,1,1-9,9,9,9,0,0,1,9-9m0-1.5A10.51,10.51,0,1,0,21,10.51,10.5,10.5,0,0,0,10.51,0" transform="translate(0 0)" fill="currentColor"></path>
      <line x1="17.56" y1="17.56" x2="24.73" y2="24.73" fill="none" stroke="currentColor" stroke-linecap="round" stroke-miterlimit="10" stroke-width="1.5"></line>
    </g>
  </symbol>
  <symbol xmlns="http://www.w3.org/2000/svg" fill="currentColor" viewBox="0 0 42.43 56.57" id="ic_slider_arrow">
    <polygon points="0 0 0 0 28.28 28.29 0 56.57 0 56.57 14.14 56.57 35.36 35.36 42.43 28.29 35.36 21.21 14.14 0 0 0"></polygon>
  </symbol>
  <symbol xmlns="http://www.w3.org/2000/svg" xmlns:xlink="http://www.w3.org/1999/xlink" viewBox="0 0 26 26" id="ic_stock">
    <defs>
      <clipPath id="a" transform="translate(0 0)">
        <rect width="26" height="26" fill="none"></rect>
      </clipPath>
    </defs>
    <g clip-path="url(#a)">
      <path d="M10.23,8.2A1.37,1.37,0,1,0,8.86,9.56,1.37,1.37,0,0,0,10.23,8.2" transform="translate(0 0)" fill="currentColor"></path>
      <path d="M17.14,16.31a1.37,1.37,0,1,0,1.36,1.36,1.37,1.37,0,0,0-1.36-1.36" transform="translate(0 0)" fill="currentColor"></path>
      <path d="M13,0A13,13,0,1,0,26,13,13,13,0,0,0,13,0M6,8.2a2.87,2.87,0,1,1,2.86,2.86A2.86,2.86,0,0,1,6,8.2M9.4,20.4a.76.76,0,0,1-.65.36.67.67,0,0,1-.38-.11.75.75,0,0,1-.26-1l8.49-14a.75.75,0,0,1,1.29.78Zm7.74.14A2.87,2.87,0,1,1,20,17.68a2.87,2.87,0,0,1-2.86,2.86" transform="translate(0 0)" fill="currentColor"></path>
    </g>
  </symbol>
  <symbol xmlns="http://www.w3.org/2000/svg" xmlns:xlink="http://www.w3.org/1999/xlink" viewBox="0 0 20 20" id="ic_telegram">
    <defs>
      <clipPath id="a" transform="translate(0 0)">
        <rect width="20" height="20" fill="none"></rect>
      </clipPath>
    </defs>
    <g clip-path="url(#a)">
      <path d="M10,0A10,10,0,1,1,0,10,10,10,0,0,1,10,0" transform="translate(0 0)" fill="currentColor"></path>
      <path d="M9.63,13,8.2,14.36a.76.76,0,0,1-.59.24.3.3,0,0,1-.3-.23L6.23,11a.26.26,0,0,0-.2-.19L3.49,10a1.43,1.43,0,0,1-.38-.17.27.27,0,0,1,0-.45,1.74,1.74,0,0,1,.5-.31L6.69,7.88l7.94-3.06a.56.56,0,0,1,.83.62,9.06,9.06,0,0,1-.19,1c-.58,2.71-1.15,5.43-1.73,8.14-.14.64-.59.81-1.12.42l-2.66-2L9.63,13m-2,.83h0a.24.24,0,0,0,0-.08c.06-.61.12-1.23.17-1.84A.47.47,0,0,1,8,11.54l2.44-2.2L13.16,6.9a.7.7,0,0,0,.11-.21.71.71,0,0,0-.25,0,.94.94,0,0,0-.3.15l-6,3.76a.18.18,0,0,0-.09.25c.15.42.29.85.42,1.28s.37,1.12.55,1.69" transform="translate(0 0)" fill="#fff"></path>
    </g>
  </symbol>
  <symbol fill="none" xmlns="http://www.w3.org/2000/svg" viewBox="0 0 21 31" id="ic_video_play">
    <path d="M0.156341 3.06117C0.156341 0.984893 2.57516 -0.152178 4.17394 1.17252L19.3861 13.7769C20.5699 14.7578 20.5699 16.5734 19.3862 17.5542L4.17394 30.1586C2.57516 31.4833 0.156339 30.3462 0.156339 28.2699L0.156341 3.06117Z" fill="currentColor"></path>
  </symbol>
  <symbol xmlns="http://www.w3.org/2000/svg" xmlns:xlink="http://www.w3.org/1999/xlink" viewBox="0 0 26.74 16.03" id="ic_vkontakte">
    <defs>
      <clipPath id="a" transform="translate(0 0)">
        <rect width="26.74" height="16.03" fill="none"></rect>
      </clipPath>
    </defs>
    <g clip-path="url(#a)">
      <path d="M14.28,16c.89,0,.89-1.28.89-1.78A1.91,1.91,0,0,1,17,12.46c.89,0,2.41,1.53,3.56,2.67.89.89.89.89,1.78.89H25a1.8,1.8,0,0,0,1.78-1.78c0-.56-.61-1.5-2.67-3.56-1.78-1.78-2.69-.86,0-4.45C25.71,4,26.9,2.06,26.7,1.49S21.94.08,21.4.89a32.62,32.62,0,0,0-2.67,4.45C17.84,7.12,17.75,8,17,8s-.89-1.73-.89-2.67c0-2.94.42-5-.89-5.34H12.5A5.14,5.14,0,0,0,9.83.89s-1.11.86-.89.89,1.78-.37,1.78.89V4.45S10.72,8,9.83,8,7.16,4.45,5.38,1.78C4.68.73,4.49.89,3.6.89S1.82.93.93.93s-1,.57-.89.85C1.82,6.23,3.09,9,6.48,12.55c3.1,3.23,5.17,3.4,6.91,3.47.44,0,0,0,.89,0" transform="translate(0 0)" fill="currentColor"></path>
    </g>
  </symbol>
  <symbol xmlns="http://www.w3.org/2000/svg" xmlns:xlink="http://www.w3.org/1999/xlink" viewBox="0 0 20.74 20.74" id="ic_whatsapp">
    <defs>
      <clipPath id="a" transform="translate(0 0)">
        <rect width="20.74" height="20.74" fill="none"></rect>
      </clipPath>
    </defs>
    <g clip-path="url(#a)">
      <path d="M10.56,0A10.14,10.14,0,0,0,.38,10.1a10,10,0,0,0,1.46,5.22L0,20.74,5.64,19a10.19,10.19,0,0,0,15.1-8.85A10.14,10.14,0,0,0,10.56,0" transform="translate(0 0)" fill="currentColor"></path>
      <path d="M16,12.31c-.29-.14-1.68-.82-1.94-.91s-.44-.14-.63.14-.73.91-.9,1.1-.33.21-.61.07a7.87,7.87,0,0,1-2.27-1.39A8.66,8.66,0,0,1,8.06,9.38c-.16-.28,0-.44.13-.58s.28-.32.42-.49a1.72,1.72,0,0,0,.28-.47.5.5,0,0,0,0-.49C8.8,7.21,8.23,5.83,8,5.27s-.49-.49-.66-.49H6.82a1,1,0,0,0-.75.35,3.13,3.13,0,0,0-1,2.34,5.46,5.46,0,0,0,1.15,2.9,11.6,11.6,0,0,0,4.83,4.24c2.88,1.12,2.88.75,3.39.7A2.86,2.86,0,0,0,16.36,14a2.33,2.33,0,0,0,.17-1.34c-.07-.12-.26-.19-.54-.33" transform="translate(0 0)" fill="#fff"></path>
    </g>
  </symbol>
  <symbol xmlns="http://www.w3.org/2000/svg" xmlns:xlink="http://www.w3.org/1999/xlink" viewBox="0 0 24.92 17.51" id="ic_youtube">
    <defs>
      <clipPath id="a" transform="translate(0 0)">
        <rect width="24.92" height="17.51" fill="none"></rect>
      </clipPath>
    </defs>
    <g clip-path="url(#a)">
      <path d="M12.62,17.51c-2.8-.09-5.46-.15-8.13-.26A9,9,0,0,1,2.78,17,2.85,2.85,0,0,1,.63,15.09a10.17,10.17,0,0,1-.49-2.56A50.49,50.49,0,0,1,.05,6.38,15.4,15.4,0,0,1,.44,2.93a3.51,3.51,0,0,1,1-1.81,3.11,3.11,0,0,1,2-.86C5.51.16,7.6,0,9.7,0c2.82,0,5.65,0,8.48.06a34.43,34.43,0,0,1,3.66.25,2.85,2.85,0,0,1,2.38,1.84,8.49,8.49,0,0,1,.54,2.58,49.06,49.06,0,0,1,.09,6.64,14,14,0,0,1-.43,3.34A3.09,3.09,0,0,1,22,17.09a8.75,8.75,0,0,1-1.54.17l-7.85.25M9.91,11.94l6.7-3.48L9.91,5Z" transform="translate(0 0)" fill="currentColor"></path>
    </g>
  </symbol>
  <symbol xmlns="http://www.w3.org/2000/svg" xmlns:xlink="http://www.w3.org/1999/xlink" viewBox="0 0 31.88 31.88" id="ic_zoom">
    <defs>
      <clipPath id="a" transform="translate(0 0)">
        <rect width="31.88" height="31.88" fill="none"></rect>
      </clipPath>
    </defs>
    <g clip-path="url(#a)">
      <path d="M13.22,1.5A11.73,11.73,0,1,1,1.5,13.22,11.74,11.74,0,0,1,13.22,1.5m0-1.5A13.23,13.23,0,1,0,26.45,13.22,13.22,13.22,0,0,0,13.22,0" transform="translate(0 0)" fill="currentColor"></path>
      <line x1="22.1" y1="22.1" x2="31.13" y2="31.13" fill="none" stroke="currentColor" stroke-linecap="round" stroke-miterlimit="10" stroke-width="1.5"></line>
      <line x1="13.23" y1="6.84" x2="13.23" y2="19.61" fill="none" stroke="currentColor" stroke-linecap="round" stroke-miterlimit="10" stroke-width="1.5"></line>
      <line x1="19.61" y1="13.22" x2="6.84" y2="13.22" fill="none" stroke="currentColor" stroke-linecap="round" stroke-miterlimit="10" stroke-width="1.5"></line>
    </g>
  </symbol>
</svg>