<svg width="149" height="63" viewBox="0 0 149 63" fill="none" xmlns="http://www.w3.org/2000/svg">
<path d="M149 41.9978H0V63H149V41.9978Z" fill="#C3C3C3"/>
<path d="M15.9664 28.3529L17.8521 27.9251L25.2637 6.76086H28.5884L35.8159 27.938L37.6886 28.3529V30.0188H29.7579V28.3529L32.143 27.9251L30.7632 23.5172H22.0507L20.6709 27.9251L23.148 28.3529V30.0188H15.9795L15.9664 28.3529ZM30.1522 21.5791L27.0377 11.5641L26.4201 9.11388L25.763 11.5641L22.6617 21.5791H30.1522Z" fill="#C3C3C3"/>
<path d="M44.9424 28.3529L47.3998 27.9575V9.03607L45.1133 8.6277V6.96179H49.0556C49.5484 6.96179 49.9689 6.96179 50.3171 6.92937L51.3816 6.85159L52.5774 6.78029C53.0111 6.78029 53.5498 6.74787 54.1938 6.74787C55.4488 6.71953 56.7013 6.87018 57.9127 7.19514C58.8044 7.4349 59.6262 7.87911 60.3109 8.49157C60.9322 9.04951 61.3866 9.76465 61.625 10.5594C61.8928 11.4644 62.0212 12.404 62.0061 13.3467C62.0288 14.5201 61.8051 15.6854 61.3491 16.7693C60.9355 17.7322 60.3144 18.5949 59.529 19.2973C58.7308 19.9984 57.7963 20.5321 56.7825 20.866C55.6797 21.2317 54.5228 21.4135 53.3593 21.404L52.4986 21.391L51.7167 21.3586L51.099 21.3197C50.975 21.3139 50.8518 21.2966 50.7311 21.2679V27.938L54.5946 28.3529V30.0188H44.9424V28.3529ZM50.7311 19.4464C50.8756 19.4464 51.0268 19.4983 51.1845 19.5112C51.3421 19.5242 51.5195 19.5436 51.7232 19.5501H52.4329H53.379C54.0149 19.5513 54.647 19.4529 55.2516 19.2584C55.8674 19.0621 56.4248 18.7193 56.8745 18.2602C57.3962 17.7143 57.7889 17.0613 58.0244 16.3479C58.3423 15.3768 58.4955 14.3606 58.4777 13.3402C58.4974 12.586 58.3863 11.8341 58.1492 11.1168C57.9542 10.5436 57.6151 10.0284 57.1636 9.61947C56.7009 9.21009 56.1438 8.91857 55.5407 8.77031C54.8003 8.58327 54.0381 8.4939 53.2739 8.50454C52.9256 8.50454 52.6168 8.50454 52.3869 8.50454C52.1569 8.50454 51.9401 8.53695 51.7298 8.56288L51.2173 8.6277C51.052 8.65204 50.885 8.66288 50.7179 8.66011L50.7311 19.4464Z" fill="#C3C3C3"/>
<path d="M70.5347 28.3529L72.992 27.9575V9.03608L70.7121 8.62771V6.96179H74.6544C75.0486 6.96179 75.4297 6.94883 75.7977 6.9229L76.9015 6.84512L78.0054 6.76733C78.3799 6.76733 78.7675 6.76733 79.1815 6.76733C80.4367 6.74237 81.6903 6.87083 82.9136 7.14978C83.8204 7.33691 84.6748 7.71744 85.4169 8.26471C86.04 8.75985 86.5129 9.41472 86.7836 10.1575C87.0852 11.0023 87.2299 11.8938 87.2107 12.7892C87.2115 13.4846 87.1119 14.1765 86.915 14.8441C86.7274 15.5072 86.4441 16.1403 86.074 16.7239C85.7226 17.3024 85.2788 17.8212 84.7599 18.2602C84.2254 18.7039 83.6099 19.0428 82.9464 19.2584C83.3953 19.5783 83.7863 19.9705 84.1028 20.4187C84.5051 20.9638 84.8758 21.5308 85.2132 22.1171C85.5746 22.7653 85.9163 23.3746 86.2514 24.0617C86.5865 24.7488 86.9084 25.3581 87.2173 25.8832C87.4627 26.3647 87.7393 26.8302 88.0451 27.2768C88.2344 27.5804 88.5248 27.8095 88.8665 27.9251L90.0492 28.3399V30.0058H85.8374C85.7137 29.9892 85.595 29.9465 85.4895 29.8805C85.3841 29.8145 85.2943 29.7268 85.2264 29.6234C84.9754 29.3099 84.7553 28.9735 84.5693 28.6187C84.3394 28.1973 84.0962 27.7176 83.84 27.1731C83.5837 26.6286 83.3275 26.0582 83.0647 25.4683C82.8019 24.8785 82.5325 24.2821 82.2631 23.6922C81.9937 23.1023 81.7177 22.5643 81.4746 22.0393C81.2115 21.5908 80.9219 21.1579 80.6073 20.7428C80.3842 20.4132 80.0987 20.1293 79.7663 19.9066H77.7951H76.8949C76.6256 19.9066 76.435 19.9066 76.3167 19.9066V27.9704L79.1683 28.3529V30.0188H70.5347V28.3529ZM76.3299 18.0657C76.548 18.0907 76.7674 18.1037 76.9869 18.1046H77.9199H78.8792H79.602C80.159 18.1326 80.7153 18.0364 81.2294 17.8232C81.7436 17.61 82.2024 17.2852 82.5719 16.873C83.2946 16.0498 83.656 14.7857 83.656 13.0939C83.6607 12.4948 83.5856 11.8976 83.4326 11.3178C83.2985 10.7831 83.0373 10.2876 82.6704 9.87228C82.2613 9.43579 81.7521 9.10237 81.1855 8.89996C80.4228 8.64228 79.6194 8.52154 78.8135 8.54344C78.4324 8.54344 78.1105 8.54344 77.8411 8.54344C77.5717 8.54344 77.3483 8.57585 77.184 8.5953L76.711 8.65363C76.5982 8.67612 76.4841 8.69128 76.3693 8.69901L76.3299 18.0657Z" fill="#C3C3C3"/>
<path d="M97.947 28.3529L100.595 27.9251V9.03608L97.947 8.6277V6.96179H106.581V8.6277L103.959 9.03608V27.938L106.581 28.4112V30.0188H97.947V28.3529Z" fill="#C3C3C3"/>
<path d="M116.042 28.3529L118.5 27.9251V9.03608L116.101 8.6277V6.96179H124.656V8.6277L121.851 9.03608V27.9251L129.308 27.6398L131.089 22.8236L133.034 23.2125L132.041 30.0188H116.042V28.3529Z" fill="#C3C3C3"/>
<path d="M89.5498 52.4536C89.5483 51.9677 89.6124 51.4838 89.7404 51.0146C89.8644 50.5743 90.0455 50.1516 90.2791 49.757C90.5109 49.3736 90.7937 49.0225 91.1202 48.7134C91.4478 48.4065 91.8144 48.1428 92.2109 47.929C92.6256 47.7081 93.0672 47.5404 93.525 47.4299C93.9931 47.3124 94.4743 47.2536 94.9574 47.2549C95.2756 47.2558 95.5936 47.2732 95.9101 47.3068C96.2255 47.3457 96.5212 47.3845 96.7971 47.4364L97.5527 47.5725C97.7761 47.6244 97.9601 47.6568 98.0981 47.6827L97.9667 50.0617H96.9219L96.5014 48.506C96.3142 48.3455 96.0877 48.236 95.8444 48.1883C95.4302 48.0994 95.0066 48.0602 94.5828 48.0717C94.1553 48.0672 93.7326 48.1604 93.3476 48.3439C92.9625 48.5335 92.629 48.8113 92.3751 49.1542C92.0757 49.5419 91.8528 49.9817 91.7181 50.4506C91.5578 51.038 91.4804 51.6444 91.4881 52.2526C91.4878 52.6386 91.5141 53.0241 91.567 53.4065C91.6177 53.776 91.7012 54.1404 91.8167 54.4955C91.9219 54.8311 92.0629 55.1549 92.2372 55.4613C92.4043 55.7445 92.6123 56.0022 92.8548 56.2262C93.3614 56.6801 94.0234 56.928 94.7077 56.9198C94.9272 56.9177 95.1465 56.9047 95.3647 56.8809C95.5383 56.8609 95.7097 56.8262 95.8772 56.7772C96.0079 56.7429 96.1321 56.6882 96.2452 56.6151C96.3419 56.5527 96.4321 56.481 96.5146 56.4012L97.1716 55.1048L98.1046 55.2409L97.7498 57.2245C97.5553 57.2326 97.3629 57.2675 97.1782 57.3282L96.5211 57.5032C96.2528 57.5751 95.9808 57.6336 95.7064 57.6782C95.3325 57.7349 94.9545 57.7609 94.5763 57.756C93.8308 57.7708 93.0896 57.6408 92.3949 57.3735C91.7875 57.1376 91.2419 56.7698 90.7982 56.2975C90.3517 55.8164 90.0155 55.246 89.8126 54.6251C89.5762 53.9275 89.4606 53.1956 89.471 52.4601" fill="white"/>
<path d="M100.91 56.855L102.126 56.667V48.2856L100.943 48.1041V47.3651H105.175V48.1041L103.782 48.2856V56.667L107.474 56.5374L108.355 54.4047L109.314 54.5733L108.828 57.5939H100.91V56.855Z" fill="white"/>
<path d="M112.501 48.2921L111.443 48.1041V47.3651H115.385V48.1041L114.196 48.2856V53.4C114.183 53.9667 114.254 54.5323 114.406 55.0789C114.51 55.4749 114.703 55.8427 114.971 56.1549C115.2 56.4165 115.494 56.6134 115.825 56.7253C116.173 56.8368 116.537 56.8915 116.903 56.8874C117.278 56.9122 117.654 56.8461 117.998 56.6947C118.341 56.5433 118.642 56.3112 118.874 56.0188C119.367 55.2647 119.598 54.3727 119.531 53.4778V48.2921L118.381 48.1041V47.3651H121.798V48.1041L120.734 48.2856V53.4259C120.75 54.0872 120.645 54.7459 120.425 55.3706C120.243 55.8563 119.959 56.2983 119.59 56.667C119.236 57.0175 118.804 57.2817 118.329 57.4384C117.828 57.6093 117.301 57.6948 116.772 57.6912C116.119 57.7059 115.468 57.6139 114.846 57.4189C114.347 57.2575 113.895 56.977 113.532 56.6022C113.167 56.2047 112.903 55.7269 112.763 55.2085C112.592 54.5744 112.51 53.92 112.52 53.2639L112.501 48.2921Z" fill="white"/>
<path d="M124.242 56.8549L125.458 56.6734V48.2855L124.268 48.104V47.3651H126.279C126.502 47.3651 126.713 47.3651 126.903 47.3651L127.468 47.3197H127.987C128.158 47.3197 128.342 47.3197 128.526 47.3197C129.101 47.3123 129.676 47.3622 130.241 47.4688C130.653 47.5484 131.047 47.6998 131.404 47.916C131.684 48.0877 131.913 48.3292 132.068 48.6161C132.209 48.9279 132.278 49.2665 132.271 49.6079C132.274 49.9156 132.227 50.2218 132.133 50.5154C132.045 50.7915 131.904 51.0487 131.719 51.2738C131.542 51.5074 131.318 51.7035 131.062 51.8507C130.779 52.0165 130.467 52.1307 130.143 52.1878C130.549 52.1781 130.954 52.2283 131.345 52.3369C131.683 52.4357 131.997 52.5986 132.271 52.8166C132.524 53.0215 132.728 53.278 132.869 53.5685C133.01 53.8781 133.079 54.2146 133.073 54.5538C133.075 54.8218 133.046 55.0892 132.988 55.3511C132.926 55.6133 132.824 55.8647 132.685 56.0965C132.535 56.3405 132.347 56.5593 132.127 56.7447C131.877 56.9565 131.595 57.1292 131.292 57.2568C130.919 57.4116 130.529 57.5247 130.129 57.5939C129.623 57.6762 129.111 57.7153 128.598 57.7106C128.414 57.7106 128.244 57.7106 128.086 57.7106H127.58H127.002H126.253H124.282L124.242 56.8549ZM127.107 51.8572C127.214 51.8647 127.322 51.8647 127.429 51.8572H127.817H128.526C128.809 51.8827 129.094 51.8522 129.365 51.7676C129.636 51.683 129.887 51.546 130.103 51.3645C130.281 51.1619 130.417 50.9262 130.501 50.6713C130.586 50.4165 130.618 50.1475 130.596 49.8801C130.603 49.6059 130.566 49.3322 130.484 49.0699C130.417 48.85 130.29 48.6527 130.116 48.4994C129.913 48.3356 129.675 48.2183 129.42 48.1559C129.067 48.0742 128.705 48.035 128.342 48.0392C128.072 48.0351 127.802 48.0481 127.534 48.0781L127.107 48.1235V51.8572ZM127.107 56.7707C127.18 56.8106 127.26 56.8349 127.343 56.842C127.462 56.8496 127.58 56.8496 127.698 56.842C127.83 56.842 127.968 56.842 128.106 56.842H128.5C128.943 56.8543 129.385 56.8063 129.814 56.6994C130.125 56.621 130.416 56.4797 130.668 56.2845C130.885 56.1153 131.05 55.8912 131.148 55.6363C131.252 55.3538 131.303 55.0552 131.299 54.7547C131.307 54.4376 131.258 54.1216 131.154 53.8213C131.071 53.5675 130.916 53.3425 130.708 53.1731C130.472 52.9916 130.198 52.8652 129.906 52.8036C129.52 52.7193 129.125 52.6801 128.73 52.6869H127.14L127.107 56.7707Z" fill="white"/>
<path d="M130.373 1.48441C134.913 1.48956 139.266 3.27074 142.477 6.43739C145.688 9.60405 147.495 13.8977 147.502 18.3769V35.2694H1.50465V18.3769C1.50987 13.8983 3.31555 9.60463 6.52557 6.43779C9.73559 3.27095 14.0878 1.48956 18.6275 1.48441H130.373ZM130.373 0H18.6275C13.692 0.0153844 8.96304 1.95646 5.47308 5.39946C1.98313 8.84247 0.0155942 13.5078 0 18.3769L0 36.7473H149V18.3769C148.986 13.5072 147.019 8.84096 143.529 5.39758C140.038 1.95421 135.309 0.0136837 130.373 0" fill="#C3C3C3"/>
<path d="M20.06 58.154C19.5747 58.154 19.1407 58.112 18.758 58.028C18.3753 57.944 17.9553 57.832 17.498 57.692C17.218 57.5893 17.008 57.5333 16.868 57.524L16.98 54.99H17.876L18.114 56.81C18.2727 56.9593 18.5293 57.0947 18.884 57.216C19.248 57.328 19.6447 57.384 20.074 57.384C20.7833 57.384 21.32 57.2253 21.684 56.908C22.0573 56.5907 22.244 56.152 22.244 55.592C22.244 55.228 22.1413 54.9153 21.936 54.654C21.74 54.3927 21.474 54.1687 21.138 53.982C20.8113 53.7953 20.3587 53.576 19.78 53.324C19.2573 53.0907 18.8 52.8527 18.408 52.61C18.0253 52.3673 17.6893 52.0453 17.4 51.644C17.12 51.2333 16.98 50.7433 16.98 50.174C16.98 49.6607 17.1153 49.2033 17.386 48.802C17.666 48.3913 18.0627 48.0693 18.576 47.836C19.0987 47.6027 19.7053 47.486 20.396 47.486C20.8253 47.486 21.2033 47.5187 21.53 47.584C21.866 47.6493 22.244 47.738 22.664 47.85C22.8507 47.9153 23.0093 47.9573 23.14 47.976L23.056 50.328H22.202L21.922 48.606C21.8287 48.5127 21.6327 48.424 21.334 48.34C21.0447 48.256 20.7273 48.214 20.382 48.214C19.738 48.214 19.248 48.3493 18.912 48.62C18.5853 48.8907 18.422 49.2827 18.422 49.796C18.422 50.1693 18.52 50.482 18.716 50.734C18.9213 50.986 19.1733 51.2007 19.472 51.378C19.7707 51.5553 20.2467 51.798 20.9 52.106C21.5067 52.3953 22.0013 52.6567 22.384 52.89C22.7667 53.1233 23.0933 53.4313 23.364 53.814C23.644 54.1873 23.784 54.6353 23.784 55.158C23.784 55.6527 23.644 56.1287 23.364 56.586C23.0933 57.0433 22.6733 57.4213 22.104 57.72C21.544 58.0093 20.8627 58.154 20.06 58.154ZM36.7585 60.772C36.3385 60.772 35.9418 60.702 35.5685 60.562C35.1952 60.422 34.8545 60.2493 34.5465 60.044C34.2478 59.848 33.8885 59.5867 33.4685 59.26C33.0112 58.9053 32.6238 58.63 32.3065 58.434C31.9985 58.238 31.6812 58.1073 31.3545 58.042C31.0092 58.1167 30.6732 58.154 30.3465 58.154C29.4038 58.154 28.6012 57.9347 27.9385 57.496C27.2758 57.0573 26.7765 56.4413 26.4405 55.648C26.1045 54.8453 25.9365 53.9167 25.9365 52.862C25.9365 51.7887 26.1372 50.846 26.5385 50.034C26.9492 49.222 27.5092 48.5967 28.2185 48.158C28.9278 47.71 29.7305 47.486 30.6265 47.486C32.0825 47.486 33.1932 47.948 33.9585 48.872C34.7238 49.7867 35.1065 51.056 35.1065 52.68C35.1065 53.884 34.8545 54.9247 34.3505 55.802C33.8558 56.6793 33.1838 57.3187 32.3345 57.72C32.7545 57.7573 33.1605 57.86 33.5525 58.028C33.9445 58.196 34.4065 58.434 34.9385 58.742C35.5265 59.0593 36.0025 59.2927 36.3665 59.442C36.7305 59.5913 37.1038 59.666 37.4865 59.666C37.6452 59.666 37.7898 59.6567 37.9205 59.638L38.0885 60.24C37.9205 60.4173 37.7198 60.548 37.4865 60.632C37.2532 60.7253 37.0105 60.772 36.7585 60.772ZM30.5005 57.412C31.4058 57.412 32.1198 57.0107 32.6425 56.208C33.1652 55.396 33.4265 54.2247 33.4265 52.694C33.4265 51.2847 33.1745 50.188 32.6705 49.404C32.1665 48.6107 31.4572 48.214 30.5425 48.214C29.6372 48.214 28.9185 48.606 28.3865 49.39C27.8638 50.174 27.6025 51.3313 27.6025 52.862C27.6025 54.262 27.8545 55.3727 28.3585 56.194C28.8718 57.006 29.5858 57.412 30.5005 57.412ZM42.0584 58.112C40.6864 58.112 39.6737 57.748 39.0204 57.02C38.3764 56.2827 38.0544 55.144 38.0544 53.604V48.466L37.0604 48.298V47.598H40.7984V48.298L39.6084 48.48V53.758C39.6084 55.0273 39.8324 55.942 40.2804 56.502C40.7377 57.062 41.391 57.342 42.2404 57.342C43.0897 57.342 43.7244 57.0433 44.1444 56.446C44.5737 55.8487 44.7884 54.9807 44.7884 53.842V48.48L43.6124 48.298V47.598H46.8744V48.298L45.8524 48.466V53.772C45.8524 55.228 45.507 56.3153 44.8164 57.034C44.1257 57.7527 43.2064 58.112 42.0584 58.112ZM52.2677 47.514H53.8077L57.2097 57.174L58.0777 57.314V58H54.3817V57.314L55.5437 57.174L54.8857 55.102H50.7977L50.1397 57.174L51.3437 57.314V58H48.0257V57.314L48.8937 57.174L52.2677 47.514ZM53.1497 49.754L52.7997 48.522L52.4637 49.782L51.0497 54.276H54.6197L53.1497 49.754ZM63.081 58.154C62.5957 58.154 62.1617 58.112 61.779 58.028C61.3963 57.944 60.9763 57.832 60.519 57.692C60.239 57.5893 60.029 57.5333 59.889 57.524L60.001 54.99H60.897L61.135 56.81C61.2937 56.9593 61.5503 57.0947 61.905 57.216C62.269 57.328 62.6657 57.384 63.095 57.384C63.8043 57.384 64.341 57.2253 64.705 56.908C65.0783 56.5907 65.265 56.152 65.265 55.592C65.265 55.228 65.1623 54.9153 64.957 54.654C64.761 54.3927 64.495 54.1687 64.159 53.982C63.8323 53.7953 63.3797 53.576 62.801 53.324C62.2783 53.0907 61.821 52.8527 61.429 52.61C61.0463 52.3673 60.7103 52.0453 60.421 51.644C60.141 51.2333 60.001 50.7433 60.001 50.174C60.001 49.6607 60.1363 49.2033 60.407 48.802C60.687 48.3913 61.0837 48.0693 61.597 47.836C62.1197 47.6027 62.7263 47.486 63.417 47.486C63.8463 47.486 64.2243 47.5187 64.551 47.584C64.887 47.6493 65.265 47.738 65.685 47.85C65.8717 47.9153 66.0303 47.9573 66.161 47.976L66.077 50.328H65.223L64.943 48.606C64.8497 48.5127 64.6537 48.424 64.355 48.34C64.0657 48.256 63.7483 48.214 63.403 48.214C62.759 48.214 62.269 48.3493 61.933 48.62C61.6063 48.8907 61.443 49.2827 61.443 49.796C61.443 50.1693 61.541 50.482 61.737 50.734C61.9423 50.986 62.1943 51.2007 62.493 51.378C62.7917 51.5553 63.2677 51.798 63.921 52.106C64.5277 52.3953 65.0223 52.6567 65.405 52.89C65.7877 53.1233 66.1143 53.4313 66.385 53.814C66.665 54.1873 66.805 54.6353 66.805 55.158C66.805 55.6527 66.665 56.1287 66.385 56.586C66.1143 57.0433 65.6943 57.4213 65.125 57.72C64.565 58.0093 63.8837 58.154 63.081 58.154ZM70.2875 48.466L69.1815 48.298V47.598H72.9895V48.298L71.7855 48.466V52.232H76.7135V48.466L75.5795 48.298V47.598H79.3315V48.298L78.2255 48.466V57.174L79.3315 57.314V58H75.5655V57.314L76.7135 57.174V53.1H71.7855V57.174L73.0035 57.314V58H69.1535V57.314L70.2875 57.174V48.466Z" fill="white"/>
</svg>
